solid SIM_CER_TORSO_CHEST
  facet normal -1.000000e+00 -1.804643e-15 1.654073e-18
    outer loop
      vertex -1.000000e+01 7.794229e+01 6.300000e+02
      vertex -1.000000e+01 -1.570000e+02 9.700000e+02
      vertex -1.000000e+01 1.570000e+02 9.700000e+02
    endloop
  endfacet
  facet normal 0.000000e+00 0.000000e+00 1.000000e+00
    outer loop
      vertex 1.190000e+02 1.570000e+02 9.700000e+02
      vertex -1.000000e+01 1.570000e+02 9.700000e+02
      vertex -1.000000e+01 -1.570000e+02 9.700000e+02
    endloop
  endfacet
  facet normal -1.716787e-15 9.740156e-01 -2.264807e-01
    outer loop
      vertex 1.190000e+02 7.794229e+01 6.300000e+02
      vertex -1.000000e+01 7.794229e+01 6.300000e+02
      vertex -1.000000e+01 1.570000e+02 9.700000e+02
    endloop
  endfacet
  facet normal -1.696589e-15 9.740156e-01 -2.264807e-01
    outer loop
      vertex 1.190000e+02 7.794229e+01 6.300000e+02
      vertex -1.000000e+01 1.570000e+02 9.700000e+02
      vertex 1.190000e+02 1.570000e+02 9.700000e+02
    endloop
  endfacet
  facet normal -1.000000e+00 -1.811858e-15 -3.331817e-18
    outer loop
      vertex -1.000000e+01 7.794229e+01 6.300000e+02
      vertex -1.000000e+01 -7.794229e+01 6.300000e+02
      vertex -1.000000e+01 -1.570000e+02 9.700000e+02
    endloop
  endfacet
  facet normal 1.716787e-15 -9.740156e-01 -2.264807e-01
    outer loop
      vertex 1.190000e+02 -1.570000e+02 9.700000e+02
      vertex -1.000000e+01 -1.570000e+02 9.700000e+02
      vertex -1.000000e+01 -7.794229e+01 6.300000e+02
    endloop
  endfacet
  facet normal 0.000000e+00 0.000000e+00 1.000000e+00
    outer loop
      vertex 1.190000e+02 -1.570000e+02 9.700000e+02
      vertex 1.190000e+02 1.570000e+02 9.700000e+02
      vertex -1.000000e+01 -1.570000e+02 9.700000e+02
    endloop
  endfacet
  facet normal 0.000000e+00 0.000000e+00 -1.000000e+00
    outer loop
      vertex 1.190000e+02 -7.794229e+01 6.300000e+02
      vertex -1.000000e+01 -7.794229e+01 6.300000e+02
      vertex -1.000000e+01 7.794229e+01 6.300000e+02
    endloop
  endfacet
  facet normal 1.696589e-15 -9.740156e-01 -2.264807e-01
    outer loop
      vertex 1.190000e+02 -1.570000e+02 9.700000e+02
      vertex -1.000000e+01 -7.794229e+01 6.300000e+02
      vertex 1.190000e+02 -7.794229e+01 6.300000e+02
    endloop
  endfacet
  facet normal 0.000000e+00 0.000000e+00 -1.000000e+00
    outer loop
      vertex 1.190000e+02 -7.794229e+01 6.300000e+02
      vertex -1.000000e+01 7.794229e+01 6.300000e+02
      vertex 1.190000e+02 7.794229e+01 6.300000e+02
    endloop
  endfacet
  facet normal 1.000000e+00 1.823254e-15 -5.981491e-18
    outer loop
      vertex 1.190000e+02 -7.794229e+01 6.300000e+02
      vertex 1.190000e+02 7.794229e+01 6.300000e+02
      vertex 1.190000e+02 1.570000e+02 9.700000e+02
    endloop
  endfacet
  facet normal 1.000000e+00 1.810300e-15 2.969497e-18
    outer loop
      vertex 1.190000e+02 -1.570000e+02 9.700000e+02
      vertex 1.190000e+02 -7.794229e+01 6.300000e+02
      vertex 1.190000e+02 1.570000e+02 9.700000e+02
    endloop
  endfacet
endsolid SIM_CER_TORSO_CHEST
