solid SIM_CER_L_SHOULDER
  facet normal -1.999632e-19 -5.353047e-04 9.999999e-01
    outer loop
      vertex 2.804269e+01 2.033588e+02 9.700248e+02
      vertex -4.804269e+01 2.033588e+02 9.700248e+02
      vertex -5.000000e+01 1.910000e+02 9.700182e+02
    endloop
  endfacet
  facet normal -9.876900e-01 1.564238e-01 8.373443e-05
    outer loop
      vertex -5.000000e+01 1.910589e+02 8.600182e+02
      vertex -5.000000e+01 1.910000e+02 9.700182e+02
      vertex -4.804269e+01 2.033588e+02 9.700248e+02
    endloop
  endfacet
  facet normal 0.000000e+00 -5.353047e-04 9.999999e-01
    outer loop
      vertex 3.000000e+01 1.910000e+02 9.700182e+02
      vertex 2.804269e+01 2.033588e+02 9.700248e+02
      vertex -5.000000e+01 1.910000e+02 9.700182e+02
    endloop
  endfacet
  facet normal 0.000000e+00 -5.353047e-04 9.999999e-01
    outer loop
      vertex -4.804269e+01 1.786411e+02 9.700116e+02
      vertex 3.000000e+01 1.910000e+02 9.700182e+02
      vertex -5.000000e+01 1.910000e+02 9.700182e+02
    endloop
  endfacet
  facet normal -9.876900e-01 -1.564238e-01 -8.514504e-05
    outer loop
      vertex -4.804234e+01 1.786988e+02 8.600116e+02
      vertex -4.804269e+01 1.786411e+02 9.700116e+02
      vertex -5.000000e+01 1.910000e+02 9.700182e+02
    endloop
  endfacet
  facet normal -9.876881e-01 -1.564361e-01 -8.374099e-05
    outer loop
      vertex -4.804234e+01 1.786988e+02 8.600116e+02
      vertex -5.000000e+01 1.910000e+02 9.700182e+02
      vertex -5.000000e+01 1.910589e+02 8.600182e+02
    endloop
  endfacet
  facet normal -4.701432e-19 -5.353047e-04 9.999999e-01
    outer loop
      vertex 2.236094e+01 2.145104e+02 9.700308e+02
      vertex -4.236094e+01 2.145104e+02 9.700308e+02
      vertex -4.804269e+01 2.033588e+02 9.700248e+02
    endloop
  endfacet
  facet normal -8.910153e-01 4.539733e-01 2.450955e-04
    outer loop
      vertex -4.804234e+01 2.034189e+02 8.600248e+02
      vertex -4.804269e+01 2.033588e+02 9.700248e+02
      vertex -4.236094e+01 2.145104e+02 9.700308e+02
    endloop
  endfacet
  facet normal -1.999632e-19 -5.353047e-04 9.999999e-01
    outer loop
      vertex 2.804269e+01 2.033588e+02 9.700248e+02
      vertex 2.236094e+01 2.145104e+02 9.700308e+02
      vertex -4.804269e+01 2.033588e+02 9.700248e+02
    endloop
  endfacet
  facet normal -9.876881e-01 1.564361e-01 8.233051e-05
    outer loop
      vertex -4.804234e+01 2.034189e+02 8.600248e+02
      vertex -5.000000e+01 1.910589e+02 8.600182e+02
      vertex -4.804269e+01 2.033588e+02 9.700248e+02
    endloop
  endfacet
  facet normal 6.471284e-19 -5.353047e-04 9.999999e-01
    outer loop
      vertex 1.351044e+01 2.233609e+02 9.700355e+02
      vertex -3.351044e+01 2.233609e+02 9.700355e+02
      vertex -4.236094e+01 2.145104e+02 9.700308e+02
    endloop
  endfacet
  facet normal -7.071068e-01 7.071067e-01 3.853649e-04
    outer loop
      vertex -3.351251e+01 2.234188e+02 8.600355e+02
      vertex -4.236094e+01 2.145104e+02 9.700308e+02
      vertex -3.351044e+01 2.233609e+02 9.700355e+02
    endloop
  endfacet
  facet normal -4.701432e-19 -5.353047e-04 9.999999e-01
    outer loop
      vertex 2.236094e+01 2.145104e+02 9.700308e+02
      vertex 1.351044e+01 2.233609e+02 9.700355e+02
      vertex -4.236094e+01 2.145104e+02 9.700308e+02
    endloop
  endfacet
  facet normal -8.910100e-01 4.539837e-01 2.437733e-04
    outer loop
      vertex -4.236043e+01 2.145705e+02 8.600308e+02
      vertex -4.804234e+01 2.034189e+02 8.600248e+02
      vertex -4.236094e+01 2.145104e+02 9.700308e+02
    endloop
  endfacet
  facet normal -7.071226e-01 7.070909e-01 3.828118e-04
    outer loop
      vertex -3.351251e+01 2.234188e+02 8.600355e+02
      vertex -4.236043e+01 2.145705e+02 8.600308e+02
      vertex -4.236094e+01 2.145104e+02 9.700308e+02
    endloop
  endfacet
  facet normal 0.000000e+00 -5.353047e-04 9.999999e-01
    outer loop
      vertex 2.358856e+00 2.290427e+02 9.700386e+02
      vertex -2.235886e+01 2.290427e+02 9.700386e+02
      vertex -3.351044e+01 2.233609e+02 9.700355e+02
    endloop
  endfacet
  facet normal -4.539733e-01 8.910151e-01 4.839150e-04
    outer loop
      vertex -2.236451e+01 2.290995e+02 8.600386e+02
      vertex -3.351044e+01 2.233609e+02 9.700355e+02
      vertex -2.235886e+01 2.290427e+02 9.700386e+02
    endloop
  endfacet
  facet normal 6.471284e-19 -5.353047e-04 9.999999e-01
    outer loop
      vertex 1.351044e+01 2.233609e+02 9.700355e+02
      vertex 2.358856e+00 2.290427e+02 9.700386e+02
      vertex -3.351044e+01 2.233609e+02 9.700355e+02
    endloop
  endfacet
  facet normal -4.540246e-01 8.909890e-01 4.773642e-04
    outer loop
      vertex -2.236451e+01 2.290995e+02 8.600386e+02
      vertex -3.351251e+01 2.234188e+02 8.600355e+02
      vertex -3.351044e+01 2.233609e+02 9.700355e+02
    endloop
  endfacet
  facet normal 0.000000e+00 -5.353047e-04 9.999999e-01
    outer loop
      vertex 2.358856e+00 2.290427e+02 9.700386e+02
      vertex -1.000000e+01 2.310000e+02 9.700396e+02
      vertex -2.235886e+01 2.290427e+02 9.700386e+02
    endloop
  endfacet
  facet normal -1.564239e-01 9.876899e-01 5.186062e-04
    outer loop
      vertex -2.236451e+01 2.290995e+02 8.600386e+02
      vertex -2.235886e+01 2.290427e+02 9.700386e+02
      vertex -1.000000e+01 2.310000e+02 9.700396e+02
    endloop
  endfacet
  facet normal 1.564239e-01 9.876899e-01 5.224482e-04
    outer loop
      vertex -1.000000e+01 2.310582e+02 8.600396e+02
      vertex -1.000000e+01 2.310000e+02 9.700396e+02
      vertex 2.358856e+00 2.290427e+02 9.700386e+02
    endloop
  endfacet
  facet normal -1.564572e-01 9.876846e-01 5.224454e-04
    outer loop
      vertex -1.000000e+01 2.310582e+02 8.600396e+02
      vertex -2.236451e+01 2.290995e+02 8.600386e+02
      vertex -1.000000e+01 2.310000e+02 9.700396e+02
    endloop
  endfacet
  facet normal 4.539733e-01 8.910151e-01 4.839150e-04
    outer loop
      vertex 2.364507e+00 2.290995e+02 8.600386e+02
      vertex 2.358856e+00 2.290427e+02 9.700386e+02
      vertex 1.351044e+01 2.233609e+02 9.700355e+02
    endloop
  endfacet
  facet normal 1.564572e-01 9.876846e-01 5.186052e-04
    outer loop
      vertex 2.364507e+00 2.290995e+02 8.600386e+02
      vertex -1.000000e+01 2.310582e+02 8.600396e+02
      vertex 2.358856e+00 2.290427e+02 9.700386e+02
    endloop
  endfacet
  facet normal 7.071068e-01 7.071067e-01 3.853649e-04
    outer loop
      vertex 1.351251e+01 2.234188e+02 8.600355e+02
      vertex 1.351044e+01 2.233609e+02 9.700355e+02
      vertex 2.236094e+01 2.145104e+02 9.700308e+02
    endloop
  endfacet
  facet normal 4.540246e-01 8.909890e-01 4.773642e-04
    outer loop
      vertex 1.351251e+01 2.234188e+02 8.600355e+02
      vertex 2.364507e+00 2.290995e+02 8.600386e+02
      vertex 1.351044e+01 2.233609e+02 9.700355e+02
    endloop
  endfacet
  facet normal 8.910153e-01 4.539733e-01 2.437676e-04
    outer loop
      vertex 2.236043e+01 2.145705e+02 8.600308e+02
      vertex 2.236094e+01 2.145104e+02 9.700308e+02
      vertex 2.804269e+01 2.033588e+02 9.700248e+02
    endloop
  endfacet
  facet normal 7.071226e-01 7.070909e-01 3.828118e-04
    outer loop
      vertex 2.236043e+01 2.145705e+02 8.600308e+02
      vertex 1.351251e+01 2.234188e+02 8.600355e+02
      vertex 2.236094e+01 2.145104e+02 9.700308e+02
    endloop
  endfacet
  facet normal 9.876900e-01 1.564238e-01 8.232382e-05
    outer loop
      vertex 2.804234e+01 2.034189e+02 8.600248e+02
      vertex 2.804269e+01 2.033588e+02 9.700248e+02
      vertex 3.000000e+01 1.910000e+02 9.700182e+02
    endloop
  endfacet
  facet normal 8.910100e-01 4.539837e-01 2.451012e-04
    outer loop
      vertex 2.804234e+01 2.034189e+02 8.600248e+02
      vertex 2.236043e+01 2.145705e+02 8.600308e+02
      vertex 2.804269e+01 2.033588e+02 9.700248e+02
    endloop
  endfacet
  facet normal -1.999632e-19 -5.353047e-04 9.999999e-01
    outer loop
      vertex -4.804269e+01 1.786411e+02 9.700116e+02
      vertex 2.804269e+01 1.786411e+02 9.700116e+02
      vertex 3.000000e+01 1.910000e+02 9.700182e+02
    endloop
  endfacet
  facet normal 9.876900e-01 -1.564238e-01 -8.373443e-05
    outer loop
      vertex 3.000000e+01 1.910589e+02 8.600182e+02
      vertex 3.000000e+01 1.910000e+02 9.700182e+02
      vertex 2.804269e+01 1.786411e+02 9.700116e+02
    endloop
  endfacet
  facet normal 9.876881e-01 1.564361e-01 8.374099e-05
    outer loop
      vertex 3.000000e+01 1.910589e+02 8.600182e+02
      vertex 2.804234e+01 2.034189e+02 8.600248e+02
      vertex 3.000000e+01 1.910000e+02 9.700182e+02
    endloop
  endfacet
  facet normal -2.350716e-19 -5.353047e-04 9.999999e-01
    outer loop
      vertex -4.236094e+01 1.674896e+02 9.700056e+02
      vertex 2.236094e+01 1.674896e+02 9.700056e+02
      vertex 2.804269e+01 1.786411e+02 9.700116e+02
    endloop
  endfacet
  facet normal 8.910153e-01 -4.539733e-01 -2.409326e-04
    outer loop
      vertex 2.804234e+01 1.786988e+02 8.600116e+02
      vertex 2.804269e+01 1.786411e+02 9.700116e+02
      vertex 2.236094e+01 1.674896e+02 9.700056e+02
    endloop
  endfacet
  facet normal -1.999632e-19 -5.353047e-04 9.999999e-01
    outer loop
      vertex -4.804269e+01 1.786411e+02 9.700116e+02
      vertex -4.236094e+01 1.674896e+02 9.700056e+02
      vertex 2.804269e+01 1.786411e+02 9.700116e+02
    endloop
  endfacet
  facet normal 9.876881e-01 -1.564361e-01 -8.515146e-05
    outer loop
      vertex 2.804234e+01 1.786988e+02 8.600116e+02
      vertex 3.000000e+01 1.910589e+02 8.600182e+02
      vertex 2.804269e+01 1.786411e+02 9.700116e+02
    endloop
  endfacet
  facet normal 0.000000e+00 -5.353047e-04 9.999999e-01
    outer loop
      vertex -3.351044e+01 1.586391e+02 9.700009e+02
      vertex 1.351044e+01 1.586391e+02 9.700009e+02
      vertex 2.236094e+01 1.674896e+02 9.700056e+02
    endloop
  endfacet
  facet normal 7.071068e-01 -7.071067e-01 -3.716703e-04
    outer loop
      vertex 1.351251e+01 1.586989e+02 8.600009e+02
      vertex 2.236094e+01 1.674896e+02 9.700056e+02
      vertex 1.351044e+01 1.586391e+02 9.700009e+02
    endloop
  endfacet
  facet normal -2.350716e-19 -5.353047e-04 9.999999e-01
    outer loop
      vertex -4.236094e+01 1.674896e+02 9.700056e+02
      vertex -3.351044e+01 1.586391e+02 9.700009e+02
      vertex 2.236094e+01 1.674896e+02 9.700056e+02
    endloop
  endfacet
  facet normal 8.910100e-01 -4.539837e-01 -2.422660e-04
    outer loop
      vertex 2.236043e+01 1.675473e+02 8.600056e+02
      vertex 2.804234e+01 1.786988e+02 8.600116e+02
      vertex 2.236094e+01 1.674896e+02 9.700056e+02
    endloop
  endfacet
  facet normal 7.071226e-01 -7.070909e-01 -3.742065e-04
    outer loop
      vertex 1.351251e+01 1.586989e+02 8.600009e+02
      vertex 2.236043e+01 1.675473e+02 8.600056e+02
      vertex 2.236094e+01 1.674896e+02 9.700056e+02
    endloop
  endfacet
  facet normal 6.155212e-19 -5.353047e-04 9.999999e-01
    outer loop
      vertex -2.235886e+01 1.529573e+02 9.699978e+02
      vertex 2.358856e+00 1.529573e+02 9.699978e+02
      vertex 1.351044e+01 1.586391e+02 9.700009e+02
    endloop
  endfacet
  facet normal 4.539733e-01 -8.910151e-01 -4.700144e-04
    outer loop
      vertex 2.364507e+00 1.530182e+02 8.599979e+02
      vertex 1.351044e+01 1.586391e+02 9.700009e+02
      vertex 2.358856e+00 1.529573e+02 9.699978e+02
    endloop
  endfacet
  facet normal 0.000000e+00 -5.353047e-04 9.999999e-01
    outer loop
      vertex -3.351044e+01 1.586391e+02 9.700009e+02
      vertex -2.235886e+01 1.529573e+02 9.699978e+02
      vertex 1.351044e+01 1.586391e+02 9.700009e+02
    endloop
  endfacet
  facet normal 4.540246e-01 -8.909890e-01 -4.765373e-04
    outer loop
      vertex 2.364507e+00 1.530182e+02 8.599979e+02
      vertex 1.351251e+01 1.586989e+02 8.600009e+02
      vertex 1.351044e+01 1.586391e+02 9.700009e+02
    endloop
  endfacet
  facet normal 6.155212e-19 -5.353047e-04 9.999999e-01
    outer loop
      vertex -2.235886e+01 1.529573e+02 9.699978e+02
      vertex -1.000000e+01 1.510000e+02 9.699968e+02
      vertex 2.358856e+00 1.529573e+02 9.699978e+02
    endloop
  endfacet
  facet normal 1.564239e-01 -9.876899e-01 -5.388241e-04
    outer loop
      vertex 2.364507e+00 1.530182e+02 8.599979e+02
      vertex 2.358856e+00 1.529573e+02 9.699978e+02
      vertex -1.000000e+01 1.510000e+02 9.699968e+02
    endloop
  endfacet
  facet normal -1.564239e-01 -9.876899e-01 -5.349821e-04
    outer loop
      vertex -1.000000e+01 1.510596e+02 8.599968e+02
      vertex -1.000000e+01 1.510000e+02 9.699968e+02
      vertex -2.235886e+01 1.529573e+02 9.699978e+02
    endloop
  endfacet
  facet normal 1.564572e-01 -9.876846e-01 -5.349792e-04
    outer loop
      vertex -1.000000e+01 1.510596e+02 8.599968e+02
      vertex 2.364507e+00 1.530182e+02 8.599979e+02
      vertex -1.000000e+01 1.510000e+02 9.699968e+02
    endloop
  endfacet
  facet normal -4.539733e-01 -8.910151e-01 -4.700144e-04
    outer loop
      vertex -2.236451e+01 1.530182e+02 8.599979e+02
      vertex -2.235886e+01 1.529573e+02 9.699978e+02
      vertex -3.351044e+01 1.586391e+02 9.700009e+02
    endloop
  endfacet
  facet normal -1.564572e-01 -9.876846e-01 -5.388194e-04
    outer loop
      vertex -2.236451e+01 1.530182e+02 8.599979e+02
      vertex -1.000000e+01 1.510596e+02 8.599968e+02
      vertex -2.235886e+01 1.529573e+02 9.699978e+02
    endloop
  endfacet
  facet normal -7.071068e-01 -7.071067e-01 -3.716703e-04
    outer loop
      vertex -3.351251e+01 1.586989e+02 8.600009e+02
      vertex -3.351044e+01 1.586391e+02 9.700009e+02
      vertex -4.236094e+01 1.674896e+02 9.700056e+02
    endloop
  endfacet
  facet normal -4.540246e-01 -8.909890e-01 -4.765373e-04
    outer loop
      vertex -3.351251e+01 1.586989e+02 8.600009e+02
      vertex -2.236451e+01 1.530182e+02 8.599979e+02
      vertex -3.351044e+01 1.586391e+02 9.700009e+02
    endloop
  endfacet
  facet normal -8.910153e-01 -4.539733e-01 -2.422605e-04
    outer loop
      vertex -4.236043e+01 1.675473e+02 8.600056e+02
      vertex -4.236094e+01 1.674896e+02 9.700056e+02
      vertex -4.804269e+01 1.786411e+02 9.700116e+02
    endloop
  endfacet
  facet normal -7.071226e-01 -7.070909e-01 -3.742065e-04
    outer loop
      vertex -4.236043e+01 1.675473e+02 8.600056e+02
      vertex -3.351251e+01 1.586989e+02 8.600009e+02
      vertex -4.236094e+01 1.674896e+02 9.700056e+02
    endloop
  endfacet
  facet normal -8.910100e-01 -4.539837e-01 -2.409380e-04
    outer loop
      vertex -4.804234e+01 1.786988e+02 8.600116e+02
      vertex -4.236043e+01 1.675473e+02 8.600056e+02
      vertex -4.804269e+01 1.786411e+02 9.700116e+02
    endloop
  endfacet
  facet normal 0.000000e+00 5.353047e-04 -9.999999e-01
    outer loop
      vertex 3.000000e+01 1.910589e+02 8.600182e+02
      vertex -5.000000e+01 1.910589e+02 8.600182e+02
      vertex -4.804234e+01 2.034189e+02 8.600248e+02
    endloop
  endfacet
  facet normal 0.000000e+00 5.353047e-04 -9.999999e-01
    outer loop
      vertex 2.804234e+01 1.786988e+02 8.600116e+02
      vertex -5.000000e+01 1.910589e+02 8.600182e+02
      vertex 3.000000e+01 1.910589e+02 8.600182e+02
    endloop
  endfacet
  facet normal 0.000000e+00 5.353047e-04 -9.999999e-01
    outer loop
      vertex -4.804234e+01 1.786988e+02 8.600116e+02
      vertex -5.000000e+01 1.910589e+02 8.600182e+02
      vertex 2.804234e+01 1.786988e+02 8.600116e+02
    endloop
  endfacet
  facet normal 0.000000e+00 5.353047e-04 -9.999999e-01
    outer loop
      vertex 2.804234e+01 2.034189e+02 8.600248e+02
      vertex -4.804234e+01 2.034189e+02 8.600248e+02
      vertex -4.236043e+01 2.145705e+02 8.600308e+02
    endloop
  endfacet
  facet normal 0.000000e+00 5.353047e-04 -9.999999e-01
    outer loop
      vertex 3.000000e+01 1.910589e+02 8.600182e+02
      vertex -4.804234e+01 2.034189e+02 8.600248e+02
      vertex 2.804234e+01 2.034189e+02 8.600248e+02
    endloop
  endfacet
  facet normal 2.350753e-19 5.353047e-04 -9.999999e-01
    outer loop
      vertex 2.236043e+01 2.145705e+02 8.600308e+02
      vertex -4.236043e+01 2.145705e+02 8.600308e+02
      vertex -3.351251e+01 2.234188e+02 8.600355e+02
    endloop
  endfacet
  facet normal 2.307388e-19 5.353047e-04 -9.999999e-01
    outer loop
      vertex 2.804234e+01 2.034189e+02 8.600248e+02
      vertex -4.236043e+01 2.145705e+02 8.600308e+02
      vertex 2.236043e+01 2.145705e+02 8.600308e+02
    endloop
  endfacet
  facet normal 0.000000e+00 5.353047e-04 -9.999999e-01
    outer loop
      vertex 1.351251e+01 2.234188e+02 8.600355e+02
      vertex -3.351251e+01 2.234188e+02 8.600355e+02
      vertex -2.236451e+01 2.290995e+02 8.600386e+02
    endloop
  endfacet
  facet normal 0.000000e+00 5.353047e-04 -9.999999e-01
    outer loop
      vertex 2.236043e+01 2.145705e+02 8.600308e+02
      vertex -3.351251e+01 2.234188e+02 8.600355e+02
      vertex 1.351251e+01 2.234188e+02 8.600355e+02
    endloop
  endfacet
  facet normal 0.000000e+00 5.353047e-04 -9.999999e-01
    outer loop
      vertex 2.364507e+00 2.290995e+02 8.600386e+02
      vertex -2.236451e+01 2.290995e+02 8.600386e+02
      vertex -1.000000e+01 2.310582e+02 8.600396e+02
    endloop
  endfacet
  facet normal 0.000000e+00 5.353047e-04 -9.999999e-01
    outer loop
      vertex 1.351251e+01 2.234188e+02 8.600355e+02
      vertex -2.236451e+01 2.290995e+02 8.600386e+02
      vertex 2.364507e+00 2.290995e+02 8.600386e+02
    endloop
  endfacet
  facet normal 0.000000e+00 5.353047e-04 -9.999999e-01
    outer loop
      vertex -4.804234e+01 1.786988e+02 8.600116e+02
      vertex 2.804234e+01 1.786988e+02 8.600116e+02
      vertex 2.236043e+01 1.675473e+02 8.600056e+02
    endloop
  endfacet
  facet normal -2.350753e-19 5.353047e-04 -9.999999e-01
    outer loop
      vertex -4.236043e+01 1.675473e+02 8.600056e+02
      vertex 2.236043e+01 1.675473e+02 8.600056e+02
      vertex 1.351251e+01 1.586989e+02 8.600009e+02
    endloop
  endfacet
  facet normal -2.307388e-19 5.353047e-04 -9.999999e-01
    outer loop
      vertex -4.804234e+01 1.786988e+02 8.600116e+02
      vertex 2.236043e+01 1.675473e+02 8.600056e+02
      vertex -4.236043e+01 1.675473e+02 8.600056e+02
    endloop
  endfacet
  facet normal 3.235357e-19 5.353047e-04 -9.999999e-01
    outer loop
      vertex -3.351251e+01 1.586989e+02 8.600009e+02
      vertex 1.351251e+01 1.586989e+02 8.600009e+02
      vertex 2.364507e+00 1.530182e+02 8.599979e+02
    endloop
  endfacet
  facet normal 3.335267e-19 5.353047e-04 -9.999999e-01
    outer loop
      vertex -4.236043e+01 1.675473e+02 8.600056e+02
      vertex 1.351251e+01 1.586989e+02 8.600009e+02
      vertex -3.351251e+01 1.586989e+02 8.600009e+02
    endloop
  endfacet
  facet normal 0.000000e+00 5.353047e-04 -9.999999e-01
    outer loop
      vertex -2.236451e+01 1.530182e+02 8.599979e+02
      vertex 2.364507e+00 1.530182e+02 8.599979e+02
      vertex -1.000000e+01 1.510596e+02 8.599968e+02
    endloop
  endfacet
  facet normal 0.000000e+00 5.353047e-04 -9.999999e-01
    outer loop
      vertex -3.351251e+01 1.586989e+02 8.600009e+02
      vertex 2.364507e+00 1.530182e+02 8.599979e+02
      vertex -2.236451e+01 1.530182e+02 8.599979e+02
    endloop
  endfacet
endsolid SIM_CER_L_SHOULDER
