solid SIM_CER_MOBILEBASE_BODY
  facet normal 0.000000e+00 -1.000000e+00 0.000000e+00
    outer loop
      vertex 1.432153e+02 -1.500000e+02 1.826796e+02
      vertex -1.432153e+02 -1.500000e+02 1.826796e+02
      vertex -1.450000e+02 -1.500000e+02 1.600000e+02
    endloop
  endfacet
  facet normal -9.969181e-01 0.000000e+00 7.844989e-02
    outer loop
      vertex -1.450000e+02 1.500000e+02 1.600000e+02
      vertex -1.450000e+02 -1.500000e+02 1.600000e+02
      vertex -1.432153e+02 -1.500000e+02 1.826796e+02
    endloop
  endfacet
  facet normal 0.000000e+00 -1.000000e+00 0.000000e+00
    outer loop
      vertex 1.450000e+02 -1.500000e+02 1.600000e+02
      vertex 1.432153e+02 -1.500000e+02 1.826796e+02
      vertex -1.450000e+02 -1.500000e+02 1.600000e+02
    endloop
  endfacet
  facet normal 0.000000e+00 -1.000000e+00 0.000000e+00
    outer loop
      vertex -1.432153e+02 -1.500000e+02 1.373204e+02
      vertex 1.450000e+02 -1.500000e+02 1.600000e+02
      vertex -1.450000e+02 -1.500000e+02 1.600000e+02
    endloop
  endfacet
  facet normal -9.969181e-01 -2.538603e-07 -7.844989e-02
    outer loop
      vertex -1.432157e+02 1.500000e+02 1.373253e+02
      vertex -1.432153e+02 -1.500000e+02 1.373204e+02
      vertex -1.450000e+02 -1.500000e+02 1.600000e+02
    endloop
  endfacet
  facet normal -9.969183e-01 0.000000e+00 -7.844655e-02
    outer loop
      vertex -1.432157e+02 1.500000e+02 1.373253e+02
      vertex -1.450000e+02 -1.500000e+02 1.600000e+02
      vertex -1.450000e+02 1.500000e+02 1.600000e+02
    endloop
  endfacet
  facet normal 0.000000e+00 -1.000000e+00 0.000000e+00
    outer loop
      vertex 1.379048e+02 -1.500000e+02 2.048019e+02
      vertex -1.379048e+02 -1.500000e+02 2.048019e+02
      vertex -1.432153e+02 -1.500000e+02 1.826796e+02
    endloop
  endfacet
  facet normal -9.723758e-01 2.291731e-06 2.334210e-01
    outer loop
      vertex -1.432157e+02 1.500000e+02 1.826747e+02
      vertex -1.432153e+02 -1.500000e+02 1.826796e+02
      vertex -1.379048e+02 -1.500000e+02 2.048019e+02
    endloop
  endfacet
  facet normal 0.000000e+00 -1.000000e+00 0.000000e+00
    outer loop
      vertex 1.432153e+02 -1.500000e+02 1.826796e+02
      vertex 1.379048e+02 -1.500000e+02 2.048019e+02
      vertex -1.432153e+02 -1.500000e+02 1.826796e+02
    endloop
  endfacet
  facet normal -9.969183e-01 -2.539147e-07 7.844655e-02
    outer loop
      vertex -1.432157e+02 1.500000e+02 1.826747e+02
      vertex -1.450000e+02 1.500000e+02 1.600000e+02
      vertex -1.432153e+02 -1.500000e+02 1.826796e+02
    endloop
  endfacet
  facet normal 0.000000e+00 -1.000000e+00 0.000000e+00
    outer loop
      vertex 1.291988e+02 -1.500000e+02 2.258220e+02
      vertex -1.291988e+02 -1.500000e+02 2.258220e+02
      vertex -1.379048e+02 -1.500000e+02 2.048019e+02
    endloop
  endfacet
  facet normal -9.238930e-01 -3.313153e-06 3.826508e-01
    outer loop
      vertex -1.379024e+02 1.500000e+02 2.048101e+02
      vertex -1.379048e+02 -1.500000e+02 2.048019e+02
      vertex -1.291988e+02 -1.500000e+02 2.258220e+02
    endloop
  endfacet
  facet normal 0.000000e+00 -1.000000e+00 0.000000e+00
    outer loop
      vertex 1.379048e+02 -1.500000e+02 2.048019e+02
      vertex 1.291988e+02 -1.500000e+02 2.258220e+02
      vertex -1.379048e+02 -1.500000e+02 2.048019e+02
    endloop
  endfacet
  facet normal -9.723792e-01 1.191535e-06 2.334069e-01
    outer loop
      vertex -1.432157e+02 1.500000e+02 1.826747e+02
      vertex -1.379048e+02 -1.500000e+02 2.048019e+02
      vertex -1.379024e+02 1.500000e+02 2.048101e+02
    endloop
  endfacet
  facet normal 0.000000e+00 -1.000000e+00 0.000000e+00
    outer loop
      vertex 1.173115e+02 -1.500000e+02 2.452222e+02
      vertex -1.173115e+02 -1.500000e+02 2.452222e+02
      vertex -1.291988e+02 -1.500000e+02 2.258220e+02
    endloop
  endfacet
  facet normal -8.526614e-01 6.903523e-06 5.224639e-01
    outer loop
      vertex -1.291989e+02 1.500000e+02 2.258179e+02
      vertex -1.291988e+02 -1.500000e+02 2.258220e+02
      vertex -1.173115e+02 -1.500000e+02 2.452222e+02
    endloop
  endfacet
  facet normal 0.000000e+00 -1.000000e+00 0.000000e+00
    outer loop
      vertex 1.291988e+02 -1.500000e+02 2.258220e+02
      vertex 1.173115e+02 -1.500000e+02 2.452222e+02
      vertex -1.291988e+02 -1.500000e+02 2.258220e+02
    endloop
  endfacet
  facet normal -9.238512e-01 4.970654e-06 3.827518e-01
    outer loop
      vertex -1.379024e+02 1.500000e+02 2.048101e+02
      vertex -1.291988e+02 -1.500000e+02 2.258220e+02
      vertex -1.291989e+02 1.500000e+02 2.258179e+02
    endloop
  endfacet
  facet normal 0.000000e+00 -1.000000e+00 0.000000e+00
    outer loop
      vertex 1.025352e+02 -1.500000e+02 2.625244e+02
      vertex -1.025352e+02 -1.500000e+02 2.625244e+02
      vertex -1.173115e+02 -1.500000e+02 2.452222e+02
    endloop
  endfacet
  facet normal -7.604330e-01 -6.084685e-06 6.494164e-01
    outer loop
      vertex -1.173067e+02 1.500000e+02 2.452306e+02
      vertex -1.173115e+02 -1.500000e+02 2.452222e+02
      vertex -1.025352e+02 -1.500000e+02 2.625244e+02
    endloop
  endfacet
  facet normal 0.000000e+00 -1.000000e+00 0.000000e+00
    outer loop
      vertex 1.173115e+02 -1.500000e+02 2.452222e+02
      vertex 1.025352e+02 -1.500000e+02 2.625244e+02
      vertex -1.173115e+02 -1.500000e+02 2.452222e+02
    endloop
  endfacet
  facet normal -8.527162e-01 -1.057131e-06 5.223745e-01
    outer loop
      vertex -1.291989e+02 1.500000e+02 2.258179e+02
      vertex -1.173115e+02 -1.500000e+02 2.452222e+02
      vertex -1.173067e+02 1.500000e+02 2.452306e+02
    endloop
  endfacet
  facet normal 0.000000e+00 -1.000000e+00 0.000000e+00
    outer loop
      vertex 8.523366e+01 -1.500000e+02 2.773025e+02
      vertex -8.523366e+01 -1.500000e+02 2.773025e+02
      vertex -1.025352e+02 -1.500000e+02 2.625244e+02
    endloop
  endfacet
  facet normal -6.494777e-01 5.649861e-06 7.603806e-01
    outer loop
      vertex -1.025282e+02 1.500000e+02 2.625282e+02
      vertex -1.025352e+02 -1.500000e+02 2.625244e+02
      vertex -8.523366e+01 -1.500000e+02 2.773025e+02
    endloop
  endfacet
  facet normal 0.000000e+00 -1.000000e+00 0.000000e+00
    outer loop
      vertex 1.025352e+02 -1.500000e+02 2.625244e+02
      vertex 8.523366e+01 -1.500000e+02 2.773025e+02
      vertex -1.025352e+02 -1.500000e+02 2.625244e+02
    endloop
  endfacet
  facet normal -7.602986e-01 9.604278e-06 6.495738e-01
    outer loop
      vertex -1.173067e+02 1.500000e+02 2.452306e+02
      vertex -1.025352e+02 -1.500000e+02 2.625244e+02
      vertex -1.025282e+02 1.500000e+02 2.625282e+02
    endloop
  endfacet
  facet normal 0.000000e+00 -1.000000e+00 0.000000e+00
    outer loop
      vertex 6.583291e+01 -1.500000e+02 2.891922e+02
      vertex -6.583291e+01 -1.500000e+02 2.891922e+02
      vertex -8.523366e+01 -1.500000e+02 2.773025e+02
    endloop
  endfacet
  facet normal -5.225271e-01 -6.532851e-06 8.526227e-01
    outer loop
      vertex -8.523061e+01 1.500000e+02 2.773067e+02
      vertex -8.523366e+01 -1.500000e+02 2.773025e+02
      vertex -6.583291e+01 -1.500000e+02 2.891922e+02
    endloop
  endfacet
  facet normal 0.000000e+00 -1.000000e+00 0.000000e+00
    outer loop
      vertex 8.523366e+01 -1.500000e+02 2.773025e+02
      vertex 6.583291e+01 -1.500000e+02 2.891922e+02
      vertex -8.523366e+01 -1.500000e+02 2.773025e+02
    endloop
  endfacet
  facet normal -6.495741e-01 -3.958088e-06 7.602983e-01
    outer loop
      vertex -1.025282e+02 1.500000e+02 2.625282e+02
      vertex -8.523366e+01 -1.500000e+02 2.773025e+02
      vertex -8.523061e+01 1.500000e+02 2.773067e+02
    endloop
  endfacet
  facet normal 0.000000e+00 -1.000000e+00 0.000000e+00
    outer loop
      vertex 4.481068e+01 -1.500000e+02 2.979005e+02
      vertex -4.481068e+01 -1.500000e+02 2.979005e+02
      vertex -6.583291e+01 -1.500000e+02 2.891922e+02
    endloop
  endfacet
  facet normal -3.827070e-01 -1.559217e-06 9.238698e-01
    outer loop
      vertex -6.581791e+01 1.500000e+02 2.891989e+02
      vertex -6.583291e+01 -1.500000e+02 2.891922e+02
      vertex -4.481068e+01 -1.500000e+02 2.979005e+02
    endloop
  endfacet
  facet normal 0.000000e+00 -1.000000e+00 0.000000e+00
    outer loop
      vertex 6.583291e+01 -1.500000e+02 2.891922e+02
      vertex 4.481068e+01 -1.500000e+02 2.979005e+02
      vertex -6.583291e+01 -1.500000e+02 2.891922e+02
    endloop
  endfacet
  facet normal -5.223747e-01 7.017290e-06 8.527161e-01
    outer loop
      vertex -8.523061e+01 1.500000e+02 2.773067e+02
      vertex -6.583291e+01 -1.500000e+02 2.891922e+02
      vertex -6.581791e+01 1.500000e+02 2.891989e+02
    endloop
  endfacet
  facet normal 0.000000e+00 -1.000000e+00 0.000000e+00
    outer loop
      vertex 2.268472e+01 -1.500000e+02 3.032129e+02
      vertex -2.268472e+01 -1.500000e+02 3.032129e+02
      vertex -4.481068e+01 -1.500000e+02 2.979005e+02
    endloop
  endfacet
  facet normal -2.334609e-01 -5.812179e-06 9.723662e-01
    outer loop
      vertex -4.481019e+01 1.500000e+02 2.979024e+02
      vertex -4.481068e+01 -1.500000e+02 2.979005e+02
      vertex -2.268472e+01 -1.500000e+02 3.032129e+02
    endloop
  endfacet
  facet normal 0.000000e+00 -1.000000e+00 0.000000e+00
    outer loop
      vertex 4.481068e+01 -1.500000e+02 2.979005e+02
      vertex 2.268472e+01 -1.500000e+02 3.032129e+02
      vertex -4.481068e+01 -1.500000e+02 2.979005e+02
    endloop
  endfacet
  facet normal -3.827521e-01 -5.259604e-06 9.238511e-01
    outer loop
      vertex -6.581791e+01 1.500000e+02 2.891989e+02
      vertex -4.481068e+01 -1.500000e+02 2.979005e+02
      vertex -4.481019e+01 1.500000e+02 2.979024e+02
    endloop
  endfacet
  facet normal 0.000000e+00 -1.000000e+00 0.000000e+00
    outer loop
      vertex 2.268472e+01 -1.500000e+02 3.032129e+02
      vertex -8.881784e-15 -1.500000e+02 3.049983e+02
      vertex -2.268472e+01 -1.500000e+02 3.032129e+02
    endloop
  endfacet
  facet normal -7.846452e-02 -7.007595e-06 9.969169e-01
    outer loop
      vertex -2.267473e+01 1.500000e+02 3.032157e+02
      vertex -2.268472e+01 -1.500000e+02 3.032129e+02
      vertex -8.881784e-15 -1.500000e+02 3.049983e+02
    endloop
  endfacet
  facet normal -2.334071e-01 -1.613279e-06 9.723791e-01
    outer loop
      vertex -4.481019e+01 1.500000e+02 2.979024e+02
      vertex -2.268472e+01 -1.500000e+02 3.032129e+02
      vertex -2.267473e+01 1.500000e+02 3.032157e+02
    endloop
  endfacet
  facet normal 7.846452e-02 -5.645850e-06 9.969169e-01
    outer loop
      vertex -6.938872e-15 1.500000e+02 3.050000e+02
      vertex -8.881784e-15 -1.500000e+02 3.049983e+02
      vertex 2.268472e+01 -1.500000e+02 3.032129e+02
    endloop
  endfacet
  facet normal -7.844661e-02 -5.645858e-06 9.969183e-01
    outer loop
      vertex -2.267473e+01 1.500000e+02 3.032157e+02
      vertex -8.881784e-15 -1.500000e+02 3.049983e+02
      vertex -6.938872e-15 1.500000e+02 3.050000e+02
    endloop
  endfacet
  facet normal 2.334609e-01 -1.611362e-06 9.723662e-01
    outer loop
      vertex 2.267473e+01 1.500000e+02 3.032157e+02
      vertex 2.268472e+01 -1.500000e+02 3.032129e+02
      vertex 4.481068e+01 -1.500000e+02 2.979005e+02
    endloop
  endfacet
  facet normal 7.844661e-02 -7.008204e-06 9.969183e-01
    outer loop
      vertex -6.938872e-15 1.500000e+02 3.050000e+02
      vertex 2.268472e+01 -1.500000e+02 3.032129e+02
      vertex 2.267473e+01 1.500000e+02 3.032157e+02
    endloop
  endfacet
  facet normal 3.827070e-01 -5.259796e-06 9.238698e-01
    outer loop
      vertex 4.481019e+01 1.500000e+02 2.979024e+02
      vertex 4.481068e+01 -1.500000e+02 2.979005e+02
      vertex 6.583291e+01 -1.500000e+02 2.891922e+02
    endloop
  endfacet
  facet normal 2.334071e-01 -5.812349e-06 9.723791e-01
    outer loop
      vertex 2.267473e+01 1.500000e+02 3.032157e+02
      vertex 4.481068e+01 -1.500000e+02 2.979005e+02
      vertex 4.481019e+01 1.500000e+02 2.979024e+02
    endloop
  endfacet
  facet normal 5.225271e-01 7.026998e-06 8.526227e-01
    outer loop
      vertex 6.581791e+01 1.500000e+02 2.891989e+02
      vertex 6.583291e+01 -1.500000e+02 2.891922e+02
      vertex 8.523366e+01 -1.500000e+02 2.773025e+02
    endloop
  endfacet
  facet normal 3.827521e-01 -1.556543e-06 9.238511e-01
    outer loop
      vertex 4.481019e+01 1.500000e+02 2.979024e+02
      vertex 6.583291e+01 -1.500000e+02 2.891922e+02
      vertex 6.581791e+01 1.500000e+02 2.891989e+02
    endloop
  endfacet
  facet normal 6.494777e-01 -3.960212e-06 7.603806e-01
    outer loop
      vertex 8.523061e+01 1.500000e+02 2.773067e+02
      vertex 8.523366e+01 -1.500000e+02 2.773025e+02
      vertex 1.025352e+02 -1.500000e+02 2.625244e+02
    endloop
  endfacet
  facet normal 5.223747e-01 -6.535697e-06 8.527161e-01
    outer loop
      vertex 6.581791e+01 1.500000e+02 2.891989e+02
      vertex 8.523366e+01 -1.500000e+02 2.773025e+02
      vertex 8.523061e+01 1.500000e+02 2.773067e+02
    endloop
  endfacet
  facet normal 7.604330e-01 9.609360e-06 6.494164e-01
    outer loop
      vertex 1.025282e+02 1.500000e+02 2.625282e+02
      vertex 1.025352e+02 -1.500000e+02 2.625244e+02
      vertex 1.173115e+02 -1.500000e+02 2.452222e+02
    endloop
  endfacet
  facet normal 6.495741e-01 5.653124e-06 7.602983e-01
    outer loop
      vertex 8.523061e+01 1.500000e+02 2.773067e+02
      vertex 1.025352e+02 -1.500000e+02 2.625244e+02
      vertex 1.025282e+02 1.500000e+02 2.625282e+02
    endloop
  endfacet
  facet normal 8.526614e-01 -1.060510e-06 5.224639e-01
    outer loop
      vertex 1.173067e+02 1.500000e+02 2.452306e+02
      vertex 1.173115e+02 -1.500000e+02 2.452222e+02
      vertex 1.291988e+02 -1.500000e+02 2.258220e+02
    endloop
  endfacet
  facet normal 7.602986e-01 -6.091232e-06 6.495738e-01
    outer loop
      vertex 1.025282e+02 1.500000e+02 2.625282e+02
      vertex 1.173115e+02 -1.500000e+02 2.452222e+02
      vertex 1.173067e+02 1.500000e+02 2.452306e+02
    endloop
  endfacet
  facet normal 9.238930e-01 4.969260e-06 3.826508e-01
    outer loop
      vertex 1.291989e+02 1.500000e+02 2.258179e+02
      vertex 1.291988e+02 -1.500000e+02 2.258220e+02
      vertex 1.379048e+02 -1.500000e+02 2.048019e+02
    endloop
  endfacet
  facet normal 8.527162e-01 6.902282e-06 5.223745e-01
    outer loop
      vertex 1.173067e+02 1.500000e+02 2.452306e+02
      vertex 1.291988e+02 -1.500000e+02 2.258220e+02
      vertex 1.291989e+02 1.500000e+02 2.258179e+02
    endloop
  endfacet
  facet normal 9.723758e-01 1.191119e-06 2.334210e-01
    outer loop
      vertex 1.379024e+02 1.500000e+02 2.048101e+02
      vertex 1.379048e+02 -1.500000e+02 2.048019e+02
      vertex 1.432153e+02 -1.500000e+02 1.826796e+02
    endloop
  endfacet
  facet normal 9.238512e-01 -3.316271e-06 3.827518e-01
    outer loop
      vertex 1.291989e+02 1.500000e+02 2.258179e+02
      vertex 1.379048e+02 -1.500000e+02 2.048019e+02
      vertex 1.379024e+02 1.500000e+02 2.048101e+02
    endloop
  endfacet
  facet normal 9.969181e-01 -2.538603e-07 7.844989e-02
    outer loop
      vertex 1.432157e+02 1.500000e+02 1.826747e+02
      vertex 1.432153e+02 -1.500000e+02 1.826796e+02
      vertex 1.450000e+02 -1.500000e+02 1.600000e+02
    endloop
  endfacet
  facet normal 9.723792e-01 2.291498e-06 2.334069e-01
    outer loop
      vertex 1.379024e+02 1.500000e+02 2.048101e+02
      vertex 1.432153e+02 -1.500000e+02 1.826796e+02
      vertex 1.432157e+02 1.500000e+02 1.826747e+02
    endloop
  endfacet
  facet normal 0.000000e+00 -1.000000e+00 0.000000e+00
    outer loop
      vertex -1.432153e+02 -1.500000e+02 1.373204e+02
      vertex 1.432153e+02 -1.500000e+02 1.373204e+02
      vertex 1.450000e+02 -1.500000e+02 1.600000e+02
    endloop
  endfacet
  facet normal 9.969181e-01 7.432266e-18 -7.844989e-02
    outer loop
      vertex 1.450000e+02 1.500000e+02 1.600000e+02
      vertex 1.450000e+02 -1.500000e+02 1.600000e+02
      vertex 1.432153e+02 -1.500000e+02 1.373204e+02
    endloop
  endfacet
  facet normal 9.969183e-01 -8.330607e-18 7.844655e-02
    outer loop
      vertex 1.432157e+02 1.500000e+02 1.826747e+02
      vertex 1.450000e+02 -1.500000e+02 1.600000e+02
      vertex 1.450000e+02 1.500000e+02 1.600000e+02
    endloop
  endfacet
  facet normal 0.000000e+00 -1.000000e+00 0.000000e+00
    outer loop
      vertex -1.379048e+02 -1.500000e+02 1.151981e+02
      vertex 1.379048e+02 -1.500000e+02 1.151981e+02
      vertex 1.432153e+02 -1.500000e+02 1.373204e+02
    endloop
  endfacet
  facet normal 9.723758e-01 2.291731e-06 -2.334210e-01
    outer loop
      vertex 1.432157e+02 1.500000e+02 1.373253e+02
      vertex 1.432153e+02 -1.500000e+02 1.373204e+02
      vertex 1.379048e+02 -1.500000e+02 1.151981e+02
    endloop
  endfacet
  facet normal 0.000000e+00 -1.000000e+00 0.000000e+00
    outer loop
      vertex -1.432153e+02 -1.500000e+02 1.373204e+02
      vertex -1.379048e+02 -1.500000e+02 1.151981e+02
      vertex 1.432153e+02 -1.500000e+02 1.373204e+02
    endloop
  endfacet
  facet normal 9.969183e-01 -2.539147e-07 -7.844655e-02
    outer loop
      vertex 1.450000e+02 1.500000e+02 1.600000e+02
      vertex 1.432153e+02 -1.500000e+02 1.373204e+02
      vertex 1.432157e+02 1.500000e+02 1.373253e+02
    endloop
  endfacet
  facet normal 0.000000e+00 -1.000000e+00 0.000000e+00
    outer loop
      vertex -1.291988e+02 -1.500000e+02 9.417802e+01
      vertex 1.291988e+02 -1.500000e+02 9.417802e+01
      vertex 1.379048e+02 -1.500000e+02 1.151981e+02
    endloop
  endfacet
  facet normal 9.238930e-01 -3.313153e-06 -3.826508e-01
    outer loop
      vertex 1.379024e+02 1.500000e+02 1.151899e+02
      vertex 1.379048e+02 -1.500000e+02 1.151981e+02
      vertex 1.291988e+02 -1.500000e+02 9.417802e+01
    endloop
  endfacet
  facet normal 0.000000e+00 -1.000000e+00 0.000000e+00
    outer loop
      vertex -1.379048e+02 -1.500000e+02 1.151981e+02
      vertex -1.291988e+02 -1.500000e+02 9.417802e+01
      vertex 1.379048e+02 -1.500000e+02 1.151981e+02
    endloop
  endfacet
  facet normal 9.723792e-01 1.191535e-06 -2.334069e-01
    outer loop
      vertex 1.432157e+02 1.500000e+02 1.373253e+02
      vertex 1.379048e+02 -1.500000e+02 1.151981e+02
      vertex 1.379024e+02 1.500000e+02 1.151899e+02
    endloop
  endfacet
  facet normal 0.000000e+00 -1.000000e+00 0.000000e+00
    outer loop
      vertex -1.173115e+02 -1.500000e+02 7.477784e+01
      vertex 1.173115e+02 -1.500000e+02 7.477784e+01
      vertex 1.291988e+02 -1.500000e+02 9.417802e+01
    endloop
  endfacet
  facet normal 8.526614e-01 6.903523e-06 -5.224639e-01
    outer loop
      vertex 1.291989e+02 1.500000e+02 9.418212e+01
      vertex 1.291988e+02 -1.500000e+02 9.417802e+01
      vertex 1.173115e+02 -1.500000e+02 7.477784e+01
    endloop
  endfacet
  facet normal 0.000000e+00 -1.000000e+00 0.000000e+00
    outer loop
      vertex -1.291988e+02 -1.500000e+02 9.417802e+01
      vertex -1.173115e+02 -1.500000e+02 7.477784e+01
      vertex 1.291988e+02 -1.500000e+02 9.417802e+01
    endloop
  endfacet
  facet normal 9.238512e-01 4.970654e-06 -3.827518e-01
    outer loop
      vertex 1.379024e+02 1.500000e+02 1.151899e+02
      vertex 1.291988e+02 -1.500000e+02 9.417802e+01
      vertex 1.291989e+02 1.500000e+02 9.418212e+01
    endloop
  endfacet
  facet normal 0.000000e+00 -1.000000e+00 0.000000e+00
    outer loop
      vertex -1.025352e+02 -1.500000e+02 5.747556e+01
      vertex 1.025352e+02 -1.500000e+02 5.747556e+01
      vertex 1.173115e+02 -1.500000e+02 7.477784e+01
    endloop
  endfacet
  facet normal 7.604330e-01 -6.084685e-06 -6.494164e-01
    outer loop
      vertex 1.173067e+02 1.500000e+02 7.476943e+01
      vertex 1.173115e+02 -1.500000e+02 7.477784e+01
      vertex 1.025352e+02 -1.500000e+02 5.747556e+01
    endloop
  endfacet
  facet normal 0.000000e+00 -1.000000e+00 0.000000e+00
    outer loop
      vertex -1.173115e+02 -1.500000e+02 7.477784e+01
      vertex -1.025352e+02 -1.500000e+02 5.747556e+01
      vertex 1.173115e+02 -1.500000e+02 7.477784e+01
    endloop
  endfacet
  facet normal 8.527162e-01 -1.057131e-06 -5.223745e-01
    outer loop
      vertex 1.291989e+02 1.500000e+02 9.418212e+01
      vertex 1.173115e+02 -1.500000e+02 7.477784e+01
      vertex 1.173067e+02 1.500000e+02 7.476943e+01
    endloop
  endfacet
  facet normal 0.000000e+00 -1.000000e+00 0.000000e+00
    outer loop
      vertex -8.523366e+01 -1.500000e+02 4.269751e+01
      vertex 8.523366e+01 -1.500000e+02 4.269751e+01
      vertex 1.025352e+02 -1.500000e+02 5.747556e+01
    endloop
  endfacet
  facet normal 6.494777e-01 5.649861e-06 -7.603806e-01
    outer loop
      vertex 1.025282e+02 1.500000e+02 5.747183e+01
      vertex 1.025352e+02 -1.500000e+02 5.747556e+01
      vertex 8.523366e+01 -1.500000e+02 4.269751e+01
    endloop
  endfacet
  facet normal 0.000000e+00 -1.000000e+00 0.000000e+00
    outer loop
      vertex -1.025352e+02 -1.500000e+02 5.747556e+01
      vertex -8.523366e+01 -1.500000e+02 4.269751e+01
      vertex 1.025352e+02 -1.500000e+02 5.747556e+01
    endloop
  endfacet
  facet normal 7.602986e-01 9.604278e-06 -6.495738e-01
    outer loop
      vertex 1.173067e+02 1.500000e+02 7.476943e+01
      vertex 1.025352e+02 -1.500000e+02 5.747556e+01
      vertex 1.025282e+02 1.500000e+02 5.747183e+01
    endloop
  endfacet
  facet normal 0.000000e+00 -1.000000e+00 0.000000e+00
    outer loop
      vertex -6.583291e+01 -1.500000e+02 3.080782e+01
      vertex 6.583291e+01 -1.500000e+02 3.080782e+01
      vertex 8.523366e+01 -1.500000e+02 4.269751e+01
    endloop
  endfacet
  facet normal 5.225271e-01 -6.532851e-06 -8.526227e-01
    outer loop
      vertex 8.523061e+01 1.500000e+02 4.269334e+01
      vertex 8.523366e+01 -1.500000e+02 4.269751e+01
      vertex 6.583291e+01 -1.500000e+02 3.080782e+01
    endloop
  endfacet
  facet normal 0.000000e+00 -1.000000e+00 0.000000e+00
    outer loop
      vertex -8.523366e+01 -1.500000e+02 4.269751e+01
      vertex -6.583291e+01 -1.500000e+02 3.080782e+01
      vertex 8.523366e+01 -1.500000e+02 4.269751e+01
    endloop
  endfacet
  facet normal 6.495741e-01 -3.958088e-06 -7.602983e-01
    outer loop
      vertex 1.025282e+02 1.500000e+02 5.747183e+01
      vertex 8.523366e+01 -1.500000e+02 4.269751e+01
      vertex 8.523061e+01 1.500000e+02 4.269334e+01
    endloop
  endfacet
  facet normal 0.000000e+00 -1.000000e+00 0.000000e+00
    outer loop
      vertex -4.481068e+01 -1.500000e+02 2.209950e+01
      vertex 4.481068e+01 -1.500000e+02 2.209950e+01
      vertex 6.583291e+01 -1.500000e+02 3.080782e+01
    endloop
  endfacet
  facet normal 3.827070e-01 -1.559217e-06 -9.238698e-01
    outer loop
      vertex 6.581791e+01 1.500000e+02 3.080110e+01
      vertex 6.583291e+01 -1.500000e+02 3.080782e+01
      vertex 4.481068e+01 -1.500000e+02 2.209950e+01
    endloop
  endfacet
  facet normal 0.000000e+00 -1.000000e+00 0.000000e+00
    outer loop
      vertex -6.583291e+01 -1.500000e+02 3.080782e+01
      vertex -4.481068e+01 -1.500000e+02 2.209950e+01
      vertex 6.583291e+01 -1.500000e+02 3.080782e+01
    endloop
  endfacet
  facet normal 5.223747e-01 7.017290e-06 -8.527161e-01
    outer loop
      vertex 8.523061e+01 1.500000e+02 4.269334e+01
      vertex 6.583291e+01 -1.500000e+02 3.080782e+01
      vertex 6.581791e+01 1.500000e+02 3.080110e+01
    endloop
  endfacet
  facet normal 0.000000e+00 -1.000000e+00 0.000000e+00
    outer loop
      vertex -2.268472e+01 -1.500000e+02 1.678715e+01
      vertex 2.268472e+01 -1.500000e+02 1.678715e+01
      vertex 4.481068e+01 -1.500000e+02 2.209950e+01
    endloop
  endfacet
  facet normal 2.334609e-01 -5.812179e-06 -9.723662e-01
    outer loop
      vertex 4.481019e+01 1.500000e+02 2.209759e+01
      vertex 4.481068e+01 -1.500000e+02 2.209950e+01
      vertex 2.268472e+01 -1.500000e+02 1.678715e+01
    endloop
  endfacet
  facet normal 0.000000e+00 -1.000000e+00 0.000000e+00
    outer loop
      vertex -4.481068e+01 -1.500000e+02 2.209950e+01
      vertex -2.268472e+01 -1.500000e+02 1.678715e+01
      vertex 4.481068e+01 -1.500000e+02 2.209950e+01
    endloop
  endfacet
  facet normal 3.827521e-01 -5.259604e-06 -9.238511e-01
    outer loop
      vertex 6.581791e+01 1.500000e+02 3.080110e+01
      vertex 4.481068e+01 -1.500000e+02 2.209950e+01
      vertex 4.481019e+01 1.500000e+02 2.209759e+01
    endloop
  endfacet
  facet normal 0.000000e+00 -1.000000e+00 0.000000e+00
    outer loop
      vertex -2.268472e+01 -1.500000e+02 1.678715e+01
      vertex 2.531308e-14 -1.500000e+02 1.500170e+01
      vertex 2.268472e+01 -1.500000e+02 1.678715e+01
    endloop
  endfacet
  facet normal 7.846452e-02 -7.007595e-06 -9.969169e-01
    outer loop
      vertex 2.267473e+01 1.500000e+02 1.678425e+01
      vertex 2.268472e+01 -1.500000e+02 1.678715e+01
      vertex 2.531308e-14 -1.500000e+02 1.500170e+01
    endloop
  endfacet
  facet normal 2.334071e-01 -1.613279e-06 -9.723791e-01
    outer loop
      vertex 4.481019e+01 1.500000e+02 2.209759e+01
      vertex 2.268472e+01 -1.500000e+02 1.678715e+01
      vertex 2.267473e+01 1.500000e+02 1.678425e+01
    endloop
  endfacet
  facet normal -7.846452e-02 -5.645850e-06 -9.969169e-01
    outer loop
      vertex 2.984358e-14 1.500000e+02 1.500000e+01
      vertex 2.531308e-14 -1.500000e+02 1.500170e+01
      vertex -2.268472e+01 -1.500000e+02 1.678715e+01
    endloop
  endfacet
  facet normal 7.844661e-02 -5.645858e-06 -9.969183e-01
    outer loop
      vertex 2.267473e+01 1.500000e+02 1.678425e+01
      vertex 2.531308e-14 -1.500000e+02 1.500170e+01
      vertex 2.984358e-14 1.500000e+02 1.500000e+01
    endloop
  endfacet
  facet normal -2.334609e-01 -1.611362e-06 -9.723662e-01
    outer loop
      vertex -2.267473e+01 1.500000e+02 1.678425e+01
      vertex -2.268472e+01 -1.500000e+02 1.678715e+01
      vertex -4.481068e+01 -1.500000e+02 2.209950e+01
    endloop
  endfacet
  facet normal -7.844661e-02 -7.008204e-06 -9.969183e-01
    outer loop
      vertex 2.984358e-14 1.500000e+02 1.500000e+01
      vertex -2.268472e+01 -1.500000e+02 1.678715e+01
      vertex -2.267473e+01 1.500000e+02 1.678425e+01
    endloop
  endfacet
  facet normal -3.827070e-01 -5.259796e-06 -9.238698e-01
    outer loop
      vertex -4.481019e+01 1.500000e+02 2.209759e+01
      vertex -4.481068e+01 -1.500000e+02 2.209950e+01
      vertex -6.583291e+01 -1.500000e+02 3.080782e+01
    endloop
  endfacet
  facet normal -2.334071e-01 -5.812349e-06 -9.723791e-01
    outer loop
      vertex -2.267473e+01 1.500000e+02 1.678425e+01
      vertex -4.481068e+01 -1.500000e+02 2.209950e+01
      vertex -4.481019e+01 1.500000e+02 2.209759e+01
    endloop
  endfacet
  facet normal -5.225271e-01 7.026998e-06 -8.526227e-01
    outer loop
      vertex -6.581791e+01 1.500000e+02 3.080110e+01
      vertex -6.583291e+01 -1.500000e+02 3.080782e+01
      vertex -8.523366e+01 -1.500000e+02 4.269751e+01
    endloop
  endfacet
  facet normal -3.827521e-01 -1.556543e-06 -9.238511e-01
    outer loop
      vertex -4.481019e+01 1.500000e+02 2.209759e+01
      vertex -6.583291e+01 -1.500000e+02 3.080782e+01
      vertex -6.581791e+01 1.500000e+02 3.080110e+01
    endloop
  endfacet
  facet normal -6.494777e-01 -3.960212e-06 -7.603806e-01
    outer loop
      vertex -8.523061e+01 1.500000e+02 4.269334e+01
      vertex -8.523366e+01 -1.500000e+02 4.269751e+01
      vertex -1.025352e+02 -1.500000e+02 5.747556e+01
    endloop
  endfacet
  facet normal -5.223747e-01 -6.535697e-06 -8.527161e-01
    outer loop
      vertex -6.581791e+01 1.500000e+02 3.080110e+01
      vertex -8.523366e+01 -1.500000e+02 4.269751e+01
      vertex -8.523061e+01 1.500000e+02 4.269334e+01
    endloop
  endfacet
  facet normal -7.604330e-01 9.609360e-06 -6.494164e-01
    outer loop
      vertex -1.025282e+02 1.500000e+02 5.747183e+01
      vertex -1.025352e+02 -1.500000e+02 5.747556e+01
      vertex -1.173115e+02 -1.500000e+02 7.477784e+01
    endloop
  endfacet
  facet normal -6.495741e-01 5.653124e-06 -7.602983e-01
    outer loop
      vertex -8.523061e+01 1.500000e+02 4.269334e+01
      vertex -1.025352e+02 -1.500000e+02 5.747556e+01
      vertex -1.025282e+02 1.500000e+02 5.747183e+01
    endloop
  endfacet
  facet normal -8.526614e-01 -1.060510e-06 -5.224639e-01
    outer loop
      vertex -1.173067e+02 1.500000e+02 7.476943e+01
      vertex -1.173115e+02 -1.500000e+02 7.477784e+01
      vertex -1.291988e+02 -1.500000e+02 9.417802e+01
    endloop
  endfacet
  facet normal -7.602986e-01 -6.091232e-06 -6.495738e-01
    outer loop
      vertex -1.025282e+02 1.500000e+02 5.747183e+01
      vertex -1.173115e+02 -1.500000e+02 7.477784e+01
      vertex -1.173067e+02 1.500000e+02 7.476943e+01
    endloop
  endfacet
  facet normal -9.238930e-01 4.969260e-06 -3.826508e-01
    outer loop
      vertex -1.291989e+02 1.500000e+02 9.418212e+01
      vertex -1.291988e+02 -1.500000e+02 9.417802e+01
      vertex -1.379048e+02 -1.500000e+02 1.151981e+02
    endloop
  endfacet
  facet normal -8.527162e-01 6.902282e-06 -5.223745e-01
    outer loop
      vertex -1.173067e+02 1.500000e+02 7.476943e+01
      vertex -1.291988e+02 -1.500000e+02 9.417802e+01
      vertex -1.291989e+02 1.500000e+02 9.418212e+01
    endloop
  endfacet
  facet normal -9.723758e-01 1.191119e-06 -2.334210e-01
    outer loop
      vertex -1.379024e+02 1.500000e+02 1.151899e+02
      vertex -1.379048e+02 -1.500000e+02 1.151981e+02
      vertex -1.432153e+02 -1.500000e+02 1.373204e+02
    endloop
  endfacet
  facet normal -9.238512e-01 -3.316271e-06 -3.827518e-01
    outer loop
      vertex -1.291989e+02 1.500000e+02 9.418212e+01
      vertex -1.379048e+02 -1.500000e+02 1.151981e+02
      vertex -1.379024e+02 1.500000e+02 1.151899e+02
    endloop
  endfacet
  facet normal -9.723792e-01 2.291498e-06 -2.334069e-01
    outer loop
      vertex -1.379024e+02 1.500000e+02 1.151899e+02
      vertex -1.432153e+02 -1.500000e+02 1.373204e+02
      vertex -1.432157e+02 1.500000e+02 1.373253e+02
    endloop
  endfacet
  facet normal 0.000000e+00 1.000000e+00 0.000000e+00
    outer loop
      vertex 1.432157e+02 1.500000e+02 1.373253e+02
      vertex -1.432157e+02 1.500000e+02 1.373253e+02
      vertex -1.450000e+02 1.500000e+02 1.600000e+02
    endloop
  endfacet
  facet normal 0.000000e+00 1.000000e+00 0.000000e+00
    outer loop
      vertex 1.450000e+02 1.500000e+02 1.600000e+02
      vertex 1.432157e+02 1.500000e+02 1.373253e+02
      vertex -1.450000e+02 1.500000e+02 1.600000e+02
    endloop
  endfacet
  facet normal 0.000000e+00 1.000000e+00 0.000000e+00
    outer loop
      vertex -1.432157e+02 1.500000e+02 1.826747e+02
      vertex 1.450000e+02 1.500000e+02 1.600000e+02
      vertex -1.450000e+02 1.500000e+02 1.600000e+02
    endloop
  endfacet
  facet normal 0.000000e+00 1.000000e+00 0.000000e+00
    outer loop
      vertex 1.379024e+02 1.500000e+02 1.151899e+02
      vertex -1.379024e+02 1.500000e+02 1.151899e+02
      vertex -1.432157e+02 1.500000e+02 1.373253e+02
    endloop
  endfacet
  facet normal 0.000000e+00 1.000000e+00 0.000000e+00
    outer loop
      vertex 1.432157e+02 1.500000e+02 1.373253e+02
      vertex 1.379024e+02 1.500000e+02 1.151899e+02
      vertex -1.432157e+02 1.500000e+02 1.373253e+02
    endloop
  endfacet
  facet normal 0.000000e+00 1.000000e+00 0.000000e+00
    outer loop
      vertex 1.291989e+02 1.500000e+02 9.418212e+01
      vertex -1.291989e+02 1.500000e+02 9.418212e+01
      vertex -1.379024e+02 1.500000e+02 1.151899e+02
    endloop
  endfacet
  facet normal 0.000000e+00 1.000000e+00 0.000000e+00
    outer loop
      vertex 1.379024e+02 1.500000e+02 1.151899e+02
      vertex 1.291989e+02 1.500000e+02 9.418212e+01
      vertex -1.379024e+02 1.500000e+02 1.151899e+02
    endloop
  endfacet
  facet normal 0.000000e+00 1.000000e+00 0.000000e+00
    outer loop
      vertex 1.173067e+02 1.500000e+02 7.476943e+01
      vertex -1.173067e+02 1.500000e+02 7.476943e+01
      vertex -1.291989e+02 1.500000e+02 9.418212e+01
    endloop
  endfacet
  facet normal 0.000000e+00 1.000000e+00 0.000000e+00
    outer loop
      vertex 1.291989e+02 1.500000e+02 9.418212e+01
      vertex 1.173067e+02 1.500000e+02 7.476943e+01
      vertex -1.291989e+02 1.500000e+02 9.418212e+01
    endloop
  endfacet
  facet normal 0.000000e+00 1.000000e+00 0.000000e+00
    outer loop
      vertex 1.025282e+02 1.500000e+02 5.747183e+01
      vertex -1.025282e+02 1.500000e+02 5.747183e+01
      vertex -1.173067e+02 1.500000e+02 7.476943e+01
    endloop
  endfacet
  facet normal 0.000000e+00 1.000000e+00 0.000000e+00
    outer loop
      vertex 1.173067e+02 1.500000e+02 7.476943e+01
      vertex 1.025282e+02 1.500000e+02 5.747183e+01
      vertex -1.173067e+02 1.500000e+02 7.476943e+01
    endloop
  endfacet
  facet normal 0.000000e+00 1.000000e+00 0.000000e+00
    outer loop
      vertex 8.523061e+01 1.500000e+02 4.269334e+01
      vertex -8.523061e+01 1.500000e+02 4.269334e+01
      vertex -1.025282e+02 1.500000e+02 5.747183e+01
    endloop
  endfacet
  facet normal 0.000000e+00 1.000000e+00 0.000000e+00
    outer loop
      vertex 1.025282e+02 1.500000e+02 5.747183e+01
      vertex 8.523061e+01 1.500000e+02 4.269334e+01
      vertex -1.025282e+02 1.500000e+02 5.747183e+01
    endloop
  endfacet
  facet normal 0.000000e+00 1.000000e+00 0.000000e+00
    outer loop
      vertex 6.581791e+01 1.500000e+02 3.080110e+01
      vertex -6.581791e+01 1.500000e+02 3.080110e+01
      vertex -8.523061e+01 1.500000e+02 4.269334e+01
    endloop
  endfacet
  facet normal 0.000000e+00 1.000000e+00 0.000000e+00
    outer loop
      vertex 8.523061e+01 1.500000e+02 4.269334e+01
      vertex 6.581791e+01 1.500000e+02 3.080110e+01
      vertex -8.523061e+01 1.500000e+02 4.269334e+01
    endloop
  endfacet
  facet normal 0.000000e+00 1.000000e+00 0.000000e+00
    outer loop
      vertex 4.481019e+01 1.500000e+02 2.209759e+01
      vertex -4.481019e+01 1.500000e+02 2.209759e+01
      vertex -6.581791e+01 1.500000e+02 3.080110e+01
    endloop
  endfacet
  facet normal 0.000000e+00 1.000000e+00 0.000000e+00
    outer loop
      vertex 6.581791e+01 1.500000e+02 3.080110e+01
      vertex 4.481019e+01 1.500000e+02 2.209759e+01
      vertex -6.581791e+01 1.500000e+02 3.080110e+01
    endloop
  endfacet
  facet normal 0.000000e+00 1.000000e+00 0.000000e+00
    outer loop
      vertex 2.267473e+01 1.500000e+02 1.678425e+01
      vertex -2.267473e+01 1.500000e+02 1.678425e+01
      vertex -4.481019e+01 1.500000e+02 2.209759e+01
    endloop
  endfacet
  facet normal 0.000000e+00 1.000000e+00 0.000000e+00
    outer loop
      vertex 4.481019e+01 1.500000e+02 2.209759e+01
      vertex 2.267473e+01 1.500000e+02 1.678425e+01
      vertex -4.481019e+01 1.500000e+02 2.209759e+01
    endloop
  endfacet
  facet normal 0.000000e+00 1.000000e+00 0.000000e+00
    outer loop
      vertex 2.267473e+01 1.500000e+02 1.678425e+01
      vertex 2.984358e-14 1.500000e+02 1.500000e+01
      vertex -2.267473e+01 1.500000e+02 1.678425e+01
    endloop
  endfacet
  facet normal 0.000000e+00 1.000000e+00 0.000000e+00
    outer loop
      vertex -1.432157e+02 1.500000e+02 1.826747e+02
      vertex 1.432157e+02 1.500000e+02 1.826747e+02
      vertex 1.450000e+02 1.500000e+02 1.600000e+02
    endloop
  endfacet
  facet normal 0.000000e+00 1.000000e+00 0.000000e+00
    outer loop
      vertex -1.379024e+02 1.500000e+02 2.048101e+02
      vertex 1.379024e+02 1.500000e+02 2.048101e+02
      vertex 1.432157e+02 1.500000e+02 1.826747e+02
    endloop
  endfacet
  facet normal 0.000000e+00 1.000000e+00 0.000000e+00
    outer loop
      vertex -1.432157e+02 1.500000e+02 1.826747e+02
      vertex -1.379024e+02 1.500000e+02 2.048101e+02
      vertex 1.432157e+02 1.500000e+02 1.826747e+02
    endloop
  endfacet
  facet normal 0.000000e+00 1.000000e+00 0.000000e+00
    outer loop
      vertex -1.291989e+02 1.500000e+02 2.258179e+02
      vertex 1.291989e+02 1.500000e+02 2.258179e+02
      vertex 1.379024e+02 1.500000e+02 2.048101e+02
    endloop
  endfacet
  facet normal 0.000000e+00 1.000000e+00 0.000000e+00
    outer loop
      vertex -1.379024e+02 1.500000e+02 2.048101e+02
      vertex -1.291989e+02 1.500000e+02 2.258179e+02
      vertex 1.379024e+02 1.500000e+02 2.048101e+02
    endloop
  endfacet
  facet normal 0.000000e+00 1.000000e+00 0.000000e+00
    outer loop
      vertex -1.173067e+02 1.500000e+02 2.452306e+02
      vertex 1.173067e+02 1.500000e+02 2.452306e+02
      vertex 1.291989e+02 1.500000e+02 2.258179e+02
    endloop
  endfacet
  facet normal 0.000000e+00 1.000000e+00 0.000000e+00
    outer loop
      vertex -1.291989e+02 1.500000e+02 2.258179e+02
      vertex -1.173067e+02 1.500000e+02 2.452306e+02
      vertex 1.291989e+02 1.500000e+02 2.258179e+02
    endloop
  endfacet
  facet normal 0.000000e+00 1.000000e+00 0.000000e+00
    outer loop
      vertex -1.025282e+02 1.500000e+02 2.625282e+02
      vertex 1.025282e+02 1.500000e+02 2.625282e+02
      vertex 1.173067e+02 1.500000e+02 2.452306e+02
    endloop
  endfacet
  facet normal 0.000000e+00 1.000000e+00 0.000000e+00
    outer loop
      vertex -1.173067e+02 1.500000e+02 2.452306e+02
      vertex -1.025282e+02 1.500000e+02 2.625282e+02
      vertex 1.173067e+02 1.500000e+02 2.452306e+02
    endloop
  endfacet
  facet normal 0.000000e+00 1.000000e+00 0.000000e+00
    outer loop
      vertex -8.523061e+01 1.500000e+02 2.773067e+02
      vertex 8.523061e+01 1.500000e+02 2.773067e+02
      vertex 1.025282e+02 1.500000e+02 2.625282e+02
    endloop
  endfacet
  facet normal 0.000000e+00 1.000000e+00 0.000000e+00
    outer loop
      vertex -1.025282e+02 1.500000e+02 2.625282e+02
      vertex -8.523061e+01 1.500000e+02 2.773067e+02
      vertex 1.025282e+02 1.500000e+02 2.625282e+02
    endloop
  endfacet
  facet normal 0.000000e+00 1.000000e+00 0.000000e+00
    outer loop
      vertex -6.581791e+01 1.500000e+02 2.891989e+02
      vertex 6.581791e+01 1.500000e+02 2.891989e+02
      vertex 8.523061e+01 1.500000e+02 2.773067e+02
    endloop
  endfacet
  facet normal 0.000000e+00 1.000000e+00 0.000000e+00
    outer loop
      vertex -8.523061e+01 1.500000e+02 2.773067e+02
      vertex -6.581791e+01 1.500000e+02 2.891989e+02
      vertex 8.523061e+01 1.500000e+02 2.773067e+02
    endloop
  endfacet
  facet normal 0.000000e+00 1.000000e+00 0.000000e+00
    outer loop
      vertex -4.481019e+01 1.500000e+02 2.979024e+02
      vertex 4.481019e+01 1.500000e+02 2.979024e+02
      vertex 6.581791e+01 1.500000e+02 2.891989e+02
    endloop
  endfacet
  facet normal 0.000000e+00 1.000000e+00 0.000000e+00
    outer loop
      vertex -6.581791e+01 1.500000e+02 2.891989e+02
      vertex -4.481019e+01 1.500000e+02 2.979024e+02
      vertex 6.581791e+01 1.500000e+02 2.891989e+02
    endloop
  endfacet
  facet normal 0.000000e+00 1.000000e+00 0.000000e+00
    outer loop
      vertex -2.267473e+01 1.500000e+02 3.032157e+02
      vertex 2.267473e+01 1.500000e+02 3.032157e+02
      vertex 4.481019e+01 1.500000e+02 2.979024e+02
    endloop
  endfacet
  facet normal 0.000000e+00 1.000000e+00 0.000000e+00
    outer loop
      vertex -4.481019e+01 1.500000e+02 2.979024e+02
      vertex -2.267473e+01 1.500000e+02 3.032157e+02
      vertex 4.481019e+01 1.500000e+02 2.979024e+02
    endloop
  endfacet
  facet normal 0.000000e+00 1.000000e+00 0.000000e+00
    outer loop
      vertex -2.267473e+01 1.500000e+02 3.032157e+02
      vertex -6.938872e-15 1.500000e+02 3.050000e+02
      vertex 2.267473e+01 1.500000e+02 3.032157e+02
    endloop
  endfacet
endsolid SIM_CER_MOBILEBASE_BODY
