solid SIM_CER_L_WRIST_TRIPOD_BASE
  facet normal 3.500270e-19 5.353047e-04 -9.999999e-01
    outer loop
      vertex -5.346601e+01 2.028238e+02 6.430245e+02
      vertex 3.346601e+01 2.028238e+02 6.430245e+02
      vertex 3.500000e+01 1.911750e+02 6.430182e+02
    endloop
  endfacet
  facet normal 9.914404e-01 1.305598e-01 6.988927e-05
    outer loop
      vertex 3.500000e+01 1.911697e+02 6.530182e+02
      vertex 3.500000e+01 1.911750e+02 6.430182e+02
      vertex 3.346601e+01 2.028238e+02 6.430245e+02
    endloop
  endfacet
  facet normal 0.000000e+00 5.353047e-04 -9.999999e-01
    outer loop
      vertex -5.500000e+01 1.911750e+02 6.430182e+02
      vertex -5.346601e+01 2.028238e+02 6.430245e+02
      vertex 3.500000e+01 1.911750e+02 6.430182e+02
    endloop
  endfacet
  facet normal 0.000000e+00 5.353047e-04 -9.999999e-01
    outer loop
      vertex 3.346601e+01 1.795263e+02 6.430120e+02
      vertex -5.500000e+01 1.911750e+02 6.430182e+02
      vertex 3.500000e+01 1.911750e+02 6.430182e+02
    endloop
  endfacet
  facet normal 9.914404e-01 -1.305598e-01 -6.988927e-05
    outer loop
      vertex 3.346601e+01 1.795209e+02 6.530120e+02
      vertex 3.346601e+01 1.795263e+02 6.430120e+02
      vertex 3.500000e+01 1.911750e+02 6.430182e+02
    endloop
  endfacet
  facet normal 9.914404e-01 -1.305598e-01 -6.988927e-05
    outer loop
      vertex 3.346601e+01 1.795209e+02 6.530120e+02
      vertex 3.500000e+01 1.911750e+02 6.430182e+02
      vertex 3.500000e+01 1.911697e+02 6.530182e+02
    endloop
  endfacet
  facet normal 0.000000e+00 5.353047e-04 -9.999999e-01
    outer loop
      vertex -4.897003e+01 2.136763e+02 6.430303e+02
      vertex 2.897003e+01 2.136763e+02 6.430303e+02
      vertex 3.346601e+01 2.028238e+02 6.430245e+02
    endloop
  endfacet
  facet normal 9.238572e-01 3.827372e-01 2.048811e-04
    outer loop
      vertex 3.346601e+01 2.028185e+02 6.530245e+02
      vertex 3.346601e+01 2.028238e+02 6.430245e+02
      vertex 2.897003e+01 2.136763e+02 6.430303e+02
    endloop
  endfacet
  facet normal 3.500270e-19 5.353047e-04 -9.999999e-01
    outer loop
      vertex -5.346601e+01 2.028238e+02 6.430245e+02
      vertex -4.897003e+01 2.136763e+02 6.430303e+02
      vertex 3.346601e+01 2.028238e+02 6.430245e+02
    endloop
  endfacet
  facet normal 9.914404e-01 1.305598e-01 6.988927e-05
    outer loop
      vertex 3.346601e+01 2.028185e+02 6.530245e+02
      vertex 3.500000e+01 1.911697e+02 6.530182e+02
      vertex 3.346601e+01 2.028238e+02 6.430245e+02
    endloop
  endfacet
  facet normal 2.390716e-19 5.353047e-04 -9.999999e-01
    outer loop
      vertex -4.181950e+01 2.229945e+02 6.430353e+02
      vertex 2.181950e+01 2.229945e+02 6.430353e+02
      vertex 2.897003e+01 2.136763e+02 6.430303e+02
    endloop
  endfacet
  facet normal 7.933377e-01 6.087818e-01 3.258838e-04
    outer loop
      vertex 2.897003e+01 2.136709e+02 6.530303e+02
      vertex 2.897003e+01 2.136763e+02 6.430303e+02
      vertex 2.181950e+01 2.229945e+02 6.430353e+02
    endloop
  endfacet
  facet normal 0.000000e+00 5.353047e-04 -9.999999e-01
    outer loop
      vertex -4.897003e+01 2.136763e+02 6.430303e+02
      vertex -4.181950e+01 2.229945e+02 6.430353e+02
      vertex 2.897003e+01 2.136763e+02 6.430303e+02
    endloop
  endfacet
  facet normal 9.238572e-01 3.827372e-01 2.048811e-04
    outer loop
      vertex 3.346601e+01 2.028185e+02 6.530245e+02
      vertex 2.897003e+01 2.136763e+02 6.430303e+02
      vertex 2.897003e+01 2.136709e+02 6.530303e+02
    endloop
  endfacet
  facet normal 3.380765e-19 5.353047e-04 -9.999999e-01
    outer loop
      vertex -3.250123e+01 2.301451e+02 6.430391e+02
      vertex 1.250123e+01 2.301451e+02 6.430391e+02
      vertex 2.181950e+01 2.229945e+02 6.430353e+02
    endloop
  endfacet
  facet normal 6.087819e-01 7.933375e-01 4.246774e-04
    outer loop
      vertex 2.181950e+01 2.229892e+02 6.530353e+02
      vertex 2.181950e+01 2.229945e+02 6.430353e+02
      vertex 1.250123e+01 2.301451e+02 6.430391e+02
    endloop
  endfacet
  facet normal 2.390716e-19 5.353047e-04 -9.999999e-01
    outer loop
      vertex -4.181950e+01 2.229945e+02 6.430353e+02
      vertex -3.250123e+01 2.301451e+02 6.430391e+02
      vertex 2.181950e+01 2.229945e+02 6.430353e+02
    endloop
  endfacet
  facet normal 7.933377e-01 6.087818e-01 3.258838e-04
    outer loop
      vertex 2.897003e+01 2.136709e+02 6.530303e+02
      vertex 2.181950e+01 2.229945e+02 6.430353e+02
      vertex 2.181950e+01 2.229892e+02 6.530353e+02
    endloop
  endfacet
  facet normal 0.000000e+00 5.353047e-04 -9.999999e-01
    outer loop
      vertex -2.164878e+01 2.346410e+02 6.430415e+02
      vertex 1.648777e+00 2.346410e+02 6.430415e+02
      vertex 1.250123e+01 2.301451e+02 6.430391e+02
    endloop
  endfacet
  facet normal 3.827373e-01 9.238571e-01 4.945451e-04
    outer loop
      vertex 1.250123e+01 2.301397e+02 6.530391e+02
      vertex 1.250123e+01 2.301451e+02 6.430391e+02
      vertex 1.648777e+00 2.346410e+02 6.430415e+02
    endloop
  endfacet
  facet normal 3.380765e-19 5.353047e-04 -9.999999e-01
    outer loop
      vertex -3.250123e+01 2.301451e+02 6.430391e+02
      vertex -2.164878e+01 2.346410e+02 6.430415e+02
      vertex 1.250123e+01 2.301451e+02 6.430391e+02
    endloop
  endfacet
  facet normal 6.087819e-01 7.933375e-01 4.246774e-04
    outer loop
      vertex 2.181950e+01 2.229892e+02 6.530353e+02
      vertex 1.250123e+01 2.301451e+02 6.430391e+02
      vertex 1.250123e+01 2.301397e+02 6.530391e+02
    endloop
  endfacet
  facet normal 0.000000e+00 5.353047e-04 -9.999999e-01
    outer loop
      vertex -2.164878e+01 2.346410e+02 6.430415e+02
      vertex -1.000000e+01 2.361750e+02 6.430423e+02
      vertex 1.648777e+00 2.346410e+02 6.430415e+02
    endloop
  endfacet
  facet normal 1.305598e-01 9.914403e-01 5.307228e-04
    outer loop
      vertex 1.648777e+00 2.346357e+02 6.530415e+02
      vertex 1.648777e+00 2.346410e+02 6.430415e+02
      vertex -1.000000e+01 2.361750e+02 6.430423e+02
    endloop
  endfacet
  facet normal 3.827373e-01 9.238571e-01 4.945451e-04
    outer loop
      vertex 1.250123e+01 2.301397e+02 6.530391e+02
      vertex 1.648777e+00 2.346410e+02 6.430415e+02
      vertex 1.648777e+00 2.346357e+02 6.530415e+02
    endloop
  endfacet
  facet normal -1.305598e-01 9.914403e-01 5.307228e-04
    outer loop
      vertex -1.000000e+01 2.361697e+02 6.530423e+02
      vertex -1.000000e+01 2.361750e+02 6.430423e+02
      vertex -2.164878e+01 2.346410e+02 6.430415e+02
    endloop
  endfacet
  facet normal 1.305598e-01 9.914403e-01 5.307228e-04
    outer loop
      vertex 1.648777e+00 2.346357e+02 6.530415e+02
      vertex -1.000000e+01 2.361750e+02 6.430423e+02
      vertex -1.000000e+01 2.361697e+02 6.530423e+02
    endloop
  endfacet
  facet normal -3.827373e-01 9.238571e-01 4.945451e-04
    outer loop
      vertex -2.164878e+01 2.346357e+02 6.530415e+02
      vertex -2.164878e+01 2.346410e+02 6.430415e+02
      vertex -3.250123e+01 2.301451e+02 6.430391e+02
    endloop
  endfacet
  facet normal -1.305598e-01 9.914403e-01 5.307228e-04
    outer loop
      vertex -1.000000e+01 2.361697e+02 6.530423e+02
      vertex -2.164878e+01 2.346410e+02 6.430415e+02
      vertex -2.164878e+01 2.346357e+02 6.530415e+02
    endloop
  endfacet
  facet normal -6.087819e-01 7.933375e-01 4.246774e-04
    outer loop
      vertex -3.250123e+01 2.301397e+02 6.530391e+02
      vertex -3.250123e+01 2.301451e+02 6.430391e+02
      vertex -4.181950e+01 2.229945e+02 6.430353e+02
    endloop
  endfacet
  facet normal -3.827373e-01 9.238571e-01 4.945451e-04
    outer loop
      vertex -2.164878e+01 2.346357e+02 6.530415e+02
      vertex -3.250123e+01 2.301451e+02 6.430391e+02
      vertex -3.250123e+01 2.301397e+02 6.530391e+02
    endloop
  endfacet
  facet normal -7.933377e-01 6.087818e-01 3.258838e-04
    outer loop
      vertex -4.181950e+01 2.229892e+02 6.530353e+02
      vertex -4.181950e+01 2.229945e+02 6.430353e+02
      vertex -4.897003e+01 2.136763e+02 6.430303e+02
    endloop
  endfacet
  facet normal -6.087819e-01 7.933375e-01 4.246774e-04
    outer loop
      vertex -3.250123e+01 2.301397e+02 6.530391e+02
      vertex -4.181950e+01 2.229945e+02 6.430353e+02
      vertex -4.181950e+01 2.229892e+02 6.530353e+02
    endloop
  endfacet
  facet normal -9.238572e-01 3.827372e-01 2.048811e-04
    outer loop
      vertex -4.897003e+01 2.136709e+02 6.530303e+02
      vertex -4.897003e+01 2.136763e+02 6.430303e+02
      vertex -5.346601e+01 2.028238e+02 6.430245e+02
    endloop
  endfacet
  facet normal -7.933377e-01 6.087818e-01 3.258838e-04
    outer loop
      vertex -4.181950e+01 2.229892e+02 6.530353e+02
      vertex -4.897003e+01 2.136763e+02 6.430303e+02
      vertex -4.897003e+01 2.136709e+02 6.530303e+02
    endloop
  endfacet
  facet normal -9.914404e-01 1.305598e-01 6.988927e-05
    outer loop
      vertex -5.346601e+01 2.028185e+02 6.530245e+02
      vertex -5.346601e+01 2.028238e+02 6.430245e+02
      vertex -5.500000e+01 1.911750e+02 6.430182e+02
    endloop
  endfacet
  facet normal -9.238572e-01 3.827372e-01 2.048811e-04
    outer loop
      vertex -4.897003e+01 2.136709e+02 6.530303e+02
      vertex -5.346601e+01 2.028238e+02 6.430245e+02
      vertex -5.346601e+01 2.028185e+02 6.530245e+02
    endloop
  endfacet
  facet normal 1.750135e-19 5.353047e-04 -9.999999e-01
    outer loop
      vertex 3.346601e+01 1.795263e+02 6.430120e+02
      vertex -5.346601e+01 1.795263e+02 6.430120e+02
      vertex -5.500000e+01 1.911750e+02 6.430182e+02
    endloop
  endfacet
  facet normal -9.914404e-01 -1.305598e-01 -6.988927e-05
    outer loop
      vertex -5.500000e+01 1.911697e+02 6.530182e+02
      vertex -5.500000e+01 1.911750e+02 6.430182e+02
      vertex -5.346601e+01 1.795263e+02 6.430120e+02
    endloop
  endfacet
  facet normal -9.914404e-01 1.305598e-01 6.988927e-05
    outer loop
      vertex -5.346601e+01 2.028185e+02 6.530245e+02
      vertex -5.500000e+01 1.911750e+02 6.430182e+02
      vertex -5.500000e+01 1.911697e+02 6.530182e+02
    endloop
  endfacet
  facet normal -1.952048e-19 5.353047e-04 -9.999999e-01
    outer loop
      vertex 2.897003e+01 1.686738e+02 6.430062e+02
      vertex -4.897003e+01 1.686738e+02 6.430062e+02
      vertex -5.346601e+01 1.795263e+02 6.430120e+02
    endloop
  endfacet
  facet normal -9.238572e-01 -3.827372e-01 -2.048811e-04
    outer loop
      vertex -5.346601e+01 1.795209e+02 6.530120e+02
      vertex -5.346601e+01 1.795263e+02 6.430120e+02
      vertex -4.897003e+01 1.686738e+02 6.430062e+02
    endloop
  endfacet
  facet normal 1.750135e-19 5.353047e-04 -9.999999e-01
    outer loop
      vertex 3.346601e+01 1.795263e+02 6.430120e+02
      vertex 2.897003e+01 1.686738e+02 6.430062e+02
      vertex -5.346601e+01 1.795263e+02 6.430120e+02
    endloop
  endfacet
  facet normal -9.914404e-01 -1.305598e-01 -6.988927e-05
    outer loop
      vertex -5.500000e+01 1.911697e+02 6.530182e+02
      vertex -5.346601e+01 1.795263e+02 6.430120e+02
      vertex -5.346601e+01 1.795209e+02 6.530120e+02
    endloop
  endfacet
  facet normal 2.390716e-19 5.353047e-04 -9.999999e-01
    outer loop
      vertex 2.181950e+01 1.593555e+02 6.430012e+02
      vertex -4.181950e+01 1.593555e+02 6.430012e+02
      vertex -4.897003e+01 1.686738e+02 6.430062e+02
    endloop
  endfacet
  facet normal -7.933377e-01 -6.087818e-01 -3.258838e-04
    outer loop
      vertex -4.897003e+01 1.686685e+02 6.530062e+02
      vertex -4.897003e+01 1.686738e+02 6.430062e+02
      vertex -4.181950e+01 1.593555e+02 6.430012e+02
    endloop
  endfacet
  facet normal -1.952048e-19 5.353047e-04 -9.999999e-01
    outer loop
      vertex 2.897003e+01 1.686738e+02 6.430062e+02
      vertex 2.181950e+01 1.593555e+02 6.430012e+02
      vertex -4.897003e+01 1.686738e+02 6.430062e+02
    endloop
  endfacet
  facet normal -9.238572e-01 -3.827372e-01 -2.048811e-04
    outer loop
      vertex -5.346601e+01 1.795209e+02 6.530120e+02
      vertex -4.897003e+01 1.686738e+02 6.430062e+02
      vertex -4.897003e+01 1.686685e+02 6.530062e+02
    endloop
  endfacet
  facet normal 0.000000e+00 5.353047e-04 -9.999999e-01
    outer loop
      vertex 1.250123e+01 1.522050e+02 6.429974e+02
      vertex -3.250123e+01 1.522050e+02 6.429974e+02
      vertex -4.181950e+01 1.593555e+02 6.430012e+02
    endloop
  endfacet
  facet normal -6.087819e-01 -7.933375e-01 -4.246774e-04
    outer loop
      vertex -4.181950e+01 1.593502e+02 6.530012e+02
      vertex -4.181950e+01 1.593555e+02 6.430012e+02
      vertex -3.250123e+01 1.522050e+02 6.429974e+02
    endloop
  endfacet
  facet normal 2.390716e-19 5.353047e-04 -9.999999e-01
    outer loop
      vertex 2.181950e+01 1.593555e+02 6.430012e+02
      vertex 1.250123e+01 1.522050e+02 6.429974e+02
      vertex -4.181950e+01 1.593555e+02 6.430012e+02
    endloop
  endfacet
  facet normal -7.933377e-01 -6.087818e-01 -3.258838e-04
    outer loop
      vertex -4.897003e+01 1.686685e+02 6.530062e+02
      vertex -4.181950e+01 1.593555e+02 6.430012e+02
      vertex -4.181950e+01 1.593502e+02 6.530012e+02
    endloop
  endfacet
  facet normal -6.530418e-19 5.353047e-04 -9.999999e-01
    outer loop
      vertex 1.648777e+00 1.477090e+02 6.429950e+02
      vertex -2.164878e+01 1.477090e+02 6.429950e+02
      vertex -3.250123e+01 1.522050e+02 6.429974e+02
    endloop
  endfacet
  facet normal -3.827373e-01 -9.238571e-01 -4.945451e-04
    outer loop
      vertex -3.250123e+01 1.521997e+02 6.529974e+02
      vertex -3.250123e+01 1.522050e+02 6.429974e+02
      vertex -2.164878e+01 1.477090e+02 6.429950e+02
    endloop
  endfacet
  facet normal 0.000000e+00 5.353047e-04 -9.999999e-01
    outer loop
      vertex 1.250123e+01 1.522050e+02 6.429974e+02
      vertex 1.648777e+00 1.477090e+02 6.429950e+02
      vertex -3.250123e+01 1.522050e+02 6.429974e+02
    endloop
  endfacet
  facet normal -6.087819e-01 -7.933375e-01 -4.246774e-04
    outer loop
      vertex -4.181950e+01 1.593502e+02 6.530012e+02
      vertex -3.250123e+01 1.522050e+02 6.429974e+02
      vertex -3.250123e+01 1.521997e+02 6.529974e+02
    endloop
  endfacet
  facet normal -6.530418e-19 5.353047e-04 -9.999999e-01
    outer loop
      vertex 1.648777e+00 1.477090e+02 6.429950e+02
      vertex -1.000000e+01 1.461750e+02 6.429942e+02
      vertex -2.164878e+01 1.477090e+02 6.429950e+02
    endloop
  endfacet
  facet normal -1.305598e-01 -9.914403e-01 -5.307228e-04
    outer loop
      vertex -2.164878e+01 1.477037e+02 6.529950e+02
      vertex -2.164878e+01 1.477090e+02 6.429950e+02
      vertex -1.000000e+01 1.461750e+02 6.429942e+02
    endloop
  endfacet
  facet normal -3.827373e-01 -9.238571e-01 -4.945451e-04
    outer loop
      vertex -3.250123e+01 1.521997e+02 6.529974e+02
      vertex -2.164878e+01 1.477090e+02 6.429950e+02
      vertex -2.164878e+01 1.477037e+02 6.529950e+02
    endloop
  endfacet
  facet normal 1.305598e-01 -9.914403e-01 -5.307228e-04
    outer loop
      vertex -1.000000e+01 1.461697e+02 6.529942e+02
      vertex -1.000000e+01 1.461750e+02 6.429942e+02
      vertex 1.648777e+00 1.477090e+02 6.429950e+02
    endloop
  endfacet
  facet normal -1.305598e-01 -9.914403e-01 -5.307228e-04
    outer loop
      vertex -2.164878e+01 1.477037e+02 6.529950e+02
      vertex -1.000000e+01 1.461750e+02 6.429942e+02
      vertex -1.000000e+01 1.461697e+02 6.529942e+02
    endloop
  endfacet
  facet normal 3.827373e-01 -9.238571e-01 -4.945451e-04
    outer loop
      vertex 1.648777e+00 1.477037e+02 6.529950e+02
      vertex 1.648777e+00 1.477090e+02 6.429950e+02
      vertex 1.250123e+01 1.522050e+02 6.429974e+02
    endloop
  endfacet
  facet normal 1.305598e-01 -9.914403e-01 -5.307228e-04
    outer loop
      vertex -1.000000e+01 1.461697e+02 6.529942e+02
      vertex 1.648777e+00 1.477090e+02 6.429950e+02
      vertex 1.648777e+00 1.477037e+02 6.529950e+02
    endloop
  endfacet
  facet normal 6.087819e-01 -7.933375e-01 -4.246774e-04
    outer loop
      vertex 1.250123e+01 1.521997e+02 6.529974e+02
      vertex 1.250123e+01 1.522050e+02 6.429974e+02
      vertex 2.181950e+01 1.593555e+02 6.430012e+02
    endloop
  endfacet
  facet normal 3.827373e-01 -9.238571e-01 -4.945451e-04
    outer loop
      vertex 1.648777e+00 1.477037e+02 6.529950e+02
      vertex 1.250123e+01 1.522050e+02 6.429974e+02
      vertex 1.250123e+01 1.521997e+02 6.529974e+02
    endloop
  endfacet
  facet normal 7.933377e-01 -6.087818e-01 -3.258838e-04
    outer loop
      vertex 2.181950e+01 1.593502e+02 6.530012e+02
      vertex 2.181950e+01 1.593555e+02 6.430012e+02
      vertex 2.897003e+01 1.686738e+02 6.430062e+02
    endloop
  endfacet
  facet normal 6.087819e-01 -7.933375e-01 -4.246774e-04
    outer loop
      vertex 1.250123e+01 1.521997e+02 6.529974e+02
      vertex 2.181950e+01 1.593555e+02 6.430012e+02
      vertex 2.181950e+01 1.593502e+02 6.530012e+02
    endloop
  endfacet
  facet normal 9.238572e-01 -3.827372e-01 -2.048811e-04
    outer loop
      vertex 2.897003e+01 1.686685e+02 6.530062e+02
      vertex 2.897003e+01 1.686738e+02 6.430062e+02
      vertex 3.346601e+01 1.795263e+02 6.430120e+02
    endloop
  endfacet
  facet normal 7.933377e-01 -6.087818e-01 -3.258838e-04
    outer loop
      vertex 2.181950e+01 1.593502e+02 6.530012e+02
      vertex 2.897003e+01 1.686738e+02 6.430062e+02
      vertex 2.897003e+01 1.686685e+02 6.530062e+02
    endloop
  endfacet
  facet normal 9.238572e-01 -3.827372e-01 -2.048811e-04
    outer loop
      vertex 2.897003e+01 1.686685e+02 6.530062e+02
      vertex 3.346601e+01 1.795263e+02 6.430120e+02
      vertex 3.346601e+01 1.795209e+02 6.530120e+02
    endloop
  endfacet
  facet normal -1.750135e-19 -5.353047e-04 9.999999e-01
    outer loop
      vertex -5.346601e+01 1.795209e+02 6.530120e+02
      vertex 3.346601e+01 1.795209e+02 6.530120e+02
      vertex 3.500000e+01 1.911697e+02 6.530182e+02
    endloop
  endfacet
  facet normal 0.000000e+00 -5.353047e-04 9.999999e-01
    outer loop
      vertex -5.500000e+01 1.911697e+02 6.530182e+02
      vertex -5.346601e+01 1.795209e+02 6.530120e+02
      vertex 3.500000e+01 1.911697e+02 6.530182e+02
    endloop
  endfacet
  facet normal 0.000000e+00 -5.353047e-04 9.999999e-01
    outer loop
      vertex 3.346601e+01 2.028185e+02 6.530245e+02
      vertex -5.500000e+01 1.911697e+02 6.530182e+02
      vertex 3.500000e+01 1.911697e+02 6.530182e+02
    endloop
  endfacet
  facet normal 1.952048e-19 -5.353047e-04 9.999999e-01
    outer loop
      vertex -4.897003e+01 1.686685e+02 6.530062e+02
      vertex 2.897003e+01 1.686685e+02 6.530062e+02
      vertex 3.346601e+01 1.795209e+02 6.530120e+02
    endloop
  endfacet
  facet normal -1.750135e-19 -5.353047e-04 9.999999e-01
    outer loop
      vertex -5.346601e+01 1.795209e+02 6.530120e+02
      vertex -4.897003e+01 1.686685e+02 6.530062e+02
      vertex 3.346601e+01 1.795209e+02 6.530120e+02
    endloop
  endfacet
  facet normal -2.390716e-19 -5.353047e-04 9.999999e-01
    outer loop
      vertex -4.181950e+01 1.593502e+02 6.530012e+02
      vertex 2.181950e+01 1.593502e+02 6.530012e+02
      vertex 2.897003e+01 1.686685e+02 6.530062e+02
    endloop
  endfacet
  facet normal 1.952048e-19 -5.353047e-04 9.999999e-01
    outer loop
      vertex -4.897003e+01 1.686685e+02 6.530062e+02
      vertex -4.181950e+01 1.593502e+02 6.530012e+02
      vertex 2.897003e+01 1.686685e+02 6.530062e+02
    endloop
  endfacet
  facet normal 0.000000e+00 -5.353047e-04 9.999999e-01
    outer loop
      vertex -3.250123e+01 1.521997e+02 6.529974e+02
      vertex 1.250123e+01 1.521997e+02 6.529974e+02
      vertex 2.181950e+01 1.593502e+02 6.530012e+02
    endloop
  endfacet
  facet normal -2.390716e-19 -5.353047e-04 9.999999e-01
    outer loop
      vertex -4.181950e+01 1.593502e+02 6.530012e+02
      vertex -3.250123e+01 1.521997e+02 6.529974e+02
      vertex 2.181950e+01 1.593502e+02 6.530012e+02
    endloop
  endfacet
  facet normal 6.530418e-19 -5.353047e-04 9.999999e-01
    outer loop
      vertex -2.164878e+01 1.477037e+02 6.529950e+02
      vertex 1.648777e+00 1.477037e+02 6.529950e+02
      vertex 1.250123e+01 1.521997e+02 6.529974e+02
    endloop
  endfacet
  facet normal 0.000000e+00 -5.353047e-04 9.999999e-01
    outer loop
      vertex -3.250123e+01 1.521997e+02 6.529974e+02
      vertex -2.164878e+01 1.477037e+02 6.529950e+02
      vertex 1.250123e+01 1.521997e+02 6.529974e+02
    endloop
  endfacet
  facet normal 6.530418e-19 -5.353047e-04 9.999999e-01
    outer loop
      vertex -2.164878e+01 1.477037e+02 6.529950e+02
      vertex -1.000000e+01 1.461697e+02 6.529942e+02
      vertex 1.648777e+00 1.477037e+02 6.529950e+02
    endloop
  endfacet
  facet normal -3.500270e-19 -5.353047e-04 9.999999e-01
    outer loop
      vertex 3.346601e+01 2.028185e+02 6.530245e+02
      vertex -5.346601e+01 2.028185e+02 6.530245e+02
      vertex -5.500000e+01 1.911697e+02 6.530182e+02
    endloop
  endfacet
  facet normal 0.000000e+00 -5.353047e-04 9.999999e-01
    outer loop
      vertex 2.897003e+01 2.136709e+02 6.530303e+02
      vertex -4.897003e+01 2.136709e+02 6.530303e+02
      vertex -5.346601e+01 2.028185e+02 6.530245e+02
    endloop
  endfacet
  facet normal -3.500270e-19 -5.353047e-04 9.999999e-01
    outer loop
      vertex 3.346601e+01 2.028185e+02 6.530245e+02
      vertex 2.897003e+01 2.136709e+02 6.530303e+02
      vertex -5.346601e+01 2.028185e+02 6.530245e+02
    endloop
  endfacet
  facet normal -2.390716e-19 -5.353047e-04 9.999999e-01
    outer loop
      vertex 2.181950e+01 2.229892e+02 6.530353e+02
      vertex -4.181950e+01 2.229892e+02 6.530353e+02
      vertex -4.897003e+01 2.136709e+02 6.530303e+02
    endloop
  endfacet
  facet normal 0.000000e+00 -5.353047e-04 9.999999e-01
    outer loop
      vertex 2.897003e+01 2.136709e+02 6.530303e+02
      vertex 2.181950e+01 2.229892e+02 6.530353e+02
      vertex -4.897003e+01 2.136709e+02 6.530303e+02
    endloop
  endfacet
  facet normal -3.380765e-19 -5.353047e-04 9.999999e-01
    outer loop
      vertex 1.250123e+01 2.301397e+02 6.530391e+02
      vertex -3.250123e+01 2.301397e+02 6.530391e+02
      vertex -4.181950e+01 2.229892e+02 6.530353e+02
    endloop
  endfacet
  facet normal -2.390716e-19 -5.353047e-04 9.999999e-01
    outer loop
      vertex 2.181950e+01 2.229892e+02 6.530353e+02
      vertex 1.250123e+01 2.301397e+02 6.530391e+02
      vertex -4.181950e+01 2.229892e+02 6.530353e+02
    endloop
  endfacet
  facet normal 0.000000e+00 -5.353047e-04 9.999999e-01
    outer loop
      vertex 1.648777e+00 2.346357e+02 6.530415e+02
      vertex -2.164878e+01 2.346357e+02 6.530415e+02
      vertex -3.250123e+01 2.301397e+02 6.530391e+02
    endloop
  endfacet
  facet normal -3.380765e-19 -5.353047e-04 9.999999e-01
    outer loop
      vertex 1.250123e+01 2.301397e+02 6.530391e+02
      vertex 1.648777e+00 2.346357e+02 6.530415e+02
      vertex -3.250123e+01 2.301397e+02 6.530391e+02
    endloop
  endfacet
  facet normal 0.000000e+00 -5.353047e-04 9.999999e-01
    outer loop
      vertex 1.648777e+00 2.346357e+02 6.530415e+02
      vertex -1.000000e+01 2.361697e+02 6.530423e+02
      vertex -2.164878e+01 2.346357e+02 6.530415e+02
    endloop
  endfacet
endsolid SIM_CER_L_WRIST_TRIPOD_BASE
