solid SIM_CER_L_WRIST_TRIPOD_SLIDER
  facet normal 0.000000e+00 -5.353047e-04 9.999999e-01
    outer loop
      vertex -4.695428e+01 1.758634e+02 6.480101e+02
      vertex 2.695428e+01 1.758634e+02 6.480101e+02
      vertex 3.000000e+01 1.911724e+02 6.480182e+02
    endloop
  endfacet
  facet normal 9.807782e-01 -1.951261e-01 -1.044520e-04
    outer loop
      vertex 3.000000e+01 1.912901e+02 4.280183e+02
      vertex 3.000000e+01 1.911724e+02 6.480182e+02
      vertex 2.695428e+01 1.758634e+02 6.480101e+02
    endloop
  endfacet
  facet normal 0.000000e+00 -5.353047e-04 9.999999e-01
    outer loop
      vertex -5.000000e+01 1.911724e+02 6.480182e+02
      vertex -4.695428e+01 1.758634e+02 6.480101e+02
      vertex 3.000000e+01 1.911724e+02 6.480182e+02
    endloop
  endfacet
  facet normal 0.000000e+00 -5.353047e-04 9.999999e-01
    outer loop
      vertex 2.695428e+01 2.064813e+02 6.480264e+02
      vertex -5.000000e+01 1.911724e+02 6.480182e+02
      vertex 3.000000e+01 1.911724e+02 6.480182e+02
    endloop
  endfacet
  facet normal 9.807782e-01 1.951261e-01 1.068382e-04
    outer loop
      vertex 2.695510e+01 2.065976e+02 4.280265e+02
      vertex 2.695428e+01 2.064813e+02 6.480264e+02
      vertex 3.000000e+01 1.911724e+02 6.480182e+02
    endloop
  endfacet
  facet normal 9.807847e-01 1.950931e-01 1.044343e-04
    outer loop
      vertex 2.695510e+01 2.065976e+02 4.280265e+02
      vertex 3.000000e+01 1.911724e+02 6.480182e+02
      vertex 3.000000e+01 1.912901e+02 4.280183e+02
    endloop
  endfacet
  facet normal -5.379111e-19 -5.353047e-04 9.999999e-01
    outer loop
      vertex -3.828400e+01 1.628884e+02 6.480031e+02
      vertex 1.828400e+01 1.628884e+02 6.480031e+02
      vertex 2.695428e+01 1.758634e+02 6.480101e+02
    endloop
  endfacet
  facet normal 8.314510e-01 -5.555980e-01 -2.979061e-04
    outer loop
      vertex 2.695510e+01 1.759826e+02 4.280101e+02
      vertex 2.695428e+01 1.758634e+02 6.480101e+02
      vertex 1.828400e+01 1.628884e+02 6.480031e+02
    endloop
  endfacet
  facet normal 0.000000e+00 -5.353047e-04 9.999999e-01
    outer loop
      vertex -4.695428e+01 1.758634e+02 6.480101e+02
      vertex -3.828400e+01 1.628884e+02 6.480031e+02
      vertex 2.695428e+01 1.758634e+02 6.480101e+02
    endloop
  endfacet
  facet normal 9.807847e-01 -1.950931e-01 -1.020478e-04
    outer loop
      vertex 2.695510e+01 1.759826e+02 4.280101e+02
      vertex 3.000000e+01 1.912901e+02 4.280183e+02
      vertex 2.695428e+01 1.758634e+02 6.480101e+02
    endloop
  endfacet
  facet normal 0.000000e+00 -5.353047e-04 9.999999e-01
    outer loop
      vertex -2.530894e+01 1.542181e+02 6.479985e+02
      vertex 5.308937e+00 1.542181e+02 6.479985e+02
      vertex 1.828400e+01 1.628884e+02 6.480031e+02
    endloop
  endfacet
  facet normal 5.555981e-01 -8.314509e-01 -4.413774e-04
    outer loop
      vertex 1.828111e+01 1.630032e+02 4.280031e+02
      vertex 1.828400e+01 1.628884e+02 6.480031e+02
      vertex 5.308937e+00 1.542181e+02 6.479985e+02
    endloop
  endfacet
  facet normal -5.379111e-19 -5.353047e-04 9.999999e-01
    outer loop
      vertex -3.828400e+01 1.628884e+02 6.480031e+02
      vertex -2.530894e+01 1.542181e+02 6.479985e+02
      vertex 1.828400e+01 1.628884e+02 6.480031e+02
    endloop
  endfacet
  facet normal 8.314270e-01 -5.556340e-01 -3.009940e-04
    outer loop
      vertex 2.695510e+01 1.759826e+02 4.280101e+02
      vertex 1.828400e+01 1.628884e+02 6.480031e+02
      vertex 1.828111e+01 1.630032e+02 4.280031e+02
    endloop
  endfacet
  facet normal 0.000000e+00 -5.353047e-04 9.999999e-01
    outer loop
      vertex -2.530894e+01 1.542181e+02 6.479985e+02
      vertex -1.000000e+01 1.511724e+02 6.479968e+02
      vertex 5.308937e+00 1.542181e+02 6.479985e+02
    endloop
  endfacet
  facet normal 1.951261e-01 -9.807780e-01 -5.223584e-04
    outer loop
      vertex 5.307435e+00 1.543350e+02 4.279985e+02
      vertex 5.308937e+00 1.542181e+02 6.479985e+02
      vertex -1.000000e+01 1.511724e+02 6.479968e+02
    endloop
  endfacet
  facet normal 5.555498e-01 -8.314831e-01 -4.455088e-04
    outer loop
      vertex 1.828111e+01 1.630032e+02 4.280031e+02
      vertex 5.308937e+00 1.542181e+02 6.479985e+02
      vertex 5.307435e+00 1.543350e+02 4.279985e+02
    endloop
  endfacet
  facet normal -1.951261e-01 -9.807780e-01 -5.281267e-04
    outer loop
      vertex -1.000000e+01 1.512908e+02 4.279969e+02
      vertex -1.000000e+01 1.511724e+02 6.479968e+02
      vertex -2.530894e+01 1.542181e+02 6.479985e+02
    endloop
  endfacet
  facet normal 1.950464e-01 -9.807939e-01 -5.281353e-04
    outer loop
      vertex 5.307435e+00 1.543350e+02 4.279985e+02
      vertex -1.000000e+01 1.511724e+02 6.479968e+02
      vertex -1.000000e+01 1.512908e+02 4.279969e+02
    endloop
  endfacet
  facet normal -5.555981e-01 -8.314509e-01 -4.454920e-04
    outer loop
      vertex -2.530743e+01 1.543350e+02 4.279985e+02
      vertex -2.530894e+01 1.542181e+02 6.479985e+02
      vertex -3.828400e+01 1.628884e+02 6.480031e+02
    endloop
  endfacet
  facet normal -1.950464e-01 -9.807939e-01 -5.223663e-04
    outer loop
      vertex -1.000000e+01 1.512908e+02 4.279969e+02
      vertex -2.530894e+01 1.542181e+02 6.479985e+02
      vertex -2.530743e+01 1.543350e+02 4.279985e+02
    endloop
  endfacet
  facet normal -8.314510e-01 -5.555980e-01 -3.009756e-04
    outer loop
      vertex -3.828111e+01 1.630032e+02 4.280031e+02
      vertex -3.828400e+01 1.628884e+02 6.480031e+02
      vertex -4.695428e+01 1.758634e+02 6.480101e+02
    endloop
  endfacet
  facet normal -5.555498e-01 -8.314831e-01 -4.413936e-04
    outer loop
      vertex -2.530743e+01 1.543350e+02 4.279985e+02
      vertex -3.828400e+01 1.628884e+02 6.480031e+02
      vertex -3.828111e+01 1.630032e+02 4.280031e+02
    endloop
  endfacet
  facet normal -9.807782e-01 -1.951261e-01 -1.020657e-04
    outer loop
      vertex -4.695510e+01 1.759826e+02 4.280101e+02
      vertex -4.695428e+01 1.758634e+02 6.480101e+02
      vertex -5.000000e+01 1.911724e+02 6.480182e+02
    endloop
  endfacet
  facet normal -8.314270e-01 -5.556340e-01 -2.979256e-04
    outer loop
      vertex -3.828111e+01 1.630032e+02 4.280031e+02
      vertex -4.695428e+01 1.758634e+02 6.480101e+02
      vertex -4.695510e+01 1.759826e+02 4.280101e+02
    endloop
  endfacet
  facet normal 0.000000e+00 -5.353047e-04 9.999999e-01
    outer loop
      vertex 2.695428e+01 2.064813e+02 6.480264e+02
      vertex -4.695428e+01 2.064813e+02 6.480264e+02
      vertex -5.000000e+01 1.911724e+02 6.480182e+02
    endloop
  endfacet
  facet normal -9.807782e-01 1.951261e-01 1.044520e-04
    outer loop
      vertex -5.000000e+01 1.912901e+02 4.280183e+02
      vertex -5.000000e+01 1.911724e+02 6.480182e+02
      vertex -4.695428e+01 2.064813e+02 6.480264e+02
    endloop
  endfacet
  facet normal -9.807847e-01 -1.950931e-01 -1.044343e-04
    outer loop
      vertex -4.695510e+01 1.759826e+02 4.280101e+02
      vertex -5.000000e+01 1.911724e+02 6.480182e+02
      vertex -5.000000e+01 1.912901e+02 4.280183e+02
    endloop
  endfacet
  facet normal -5.379111e-19 -5.353047e-04 9.999999e-01
    outer loop
      vertex 1.828400e+01 2.194564e+02 6.480334e+02
      vertex -3.828400e+01 2.194564e+02 6.480334e+02
      vertex -4.695428e+01 2.064813e+02 6.480264e+02
    endloop
  endfacet
  facet normal -8.314510e-01 5.555980e-01 2.969225e-04
    outer loop
      vertex -4.695510e+01 2.065976e+02 4.280265e+02
      vertex -4.695428e+01 2.064813e+02 6.480264e+02
      vertex -3.828400e+01 2.194564e+02 6.480334e+02
    endloop
  endfacet
  facet normal 0.000000e+00 -5.353047e-04 9.999999e-01
    outer loop
      vertex 2.695428e+01 2.064813e+02 6.480264e+02
      vertex 1.828400e+01 2.194564e+02 6.480334e+02
      vertex -4.695428e+01 2.064813e+02 6.480264e+02
    endloop
  endfacet
  facet normal -9.807847e-01 1.950931e-01 1.068208e-04
    outer loop
      vertex -5.000000e+01 1.912901e+02 4.280183e+02
      vertex -4.695428e+01 2.064813e+02 6.480264e+02
      vertex -4.695510e+01 2.065976e+02 4.280265e+02
    endloop
  endfacet
  facet normal 0.000000e+00 -5.353047e-04 9.999999e-01
    outer loop
      vertex 5.308937e+00 2.281266e+02 6.480380e+02
      vertex -2.530894e+01 2.281266e+02 6.480380e+02
      vertex -3.828400e+01 2.194564e+02 6.480334e+02
    endloop
  endfacet
  facet normal -5.555981e-01 8.314509e-01 4.487819e-04
    outer loop
      vertex -3.828111e+01 2.195770e+02 4.280334e+02
      vertex -3.828400e+01 2.194564e+02 6.480334e+02
      vertex -2.530894e+01 2.281266e+02 6.480380e+02
    endloop
  endfacet
  facet normal -5.379111e-19 -5.353047e-04 9.999999e-01
    outer loop
      vertex 1.828400e+01 2.194564e+02 6.480334e+02
      vertex 5.308937e+00 2.281266e+02 6.480380e+02
      vertex -3.828400e+01 2.194564e+02 6.480334e+02
    endloop
  endfacet
  facet normal -8.314270e-01 5.556340e-01 2.938730e-04
    outer loop
      vertex -4.695510e+01 2.065976e+02 4.280265e+02
      vertex -3.828400e+01 2.194564e+02 6.480334e+02
      vertex -3.828111e+01 2.195770e+02 4.280334e+02
    endloop
  endfacet
  facet normal 0.000000e+00 -5.353047e-04 9.999999e-01
    outer loop
      vertex 5.308937e+00 2.281266e+02 6.480380e+02
      vertex -1.000000e+01 2.311724e+02 6.480397e+02
      vertex -2.530894e+01 2.281266e+02 6.480380e+02
    endloop
  endfacet
  facet normal -1.951261e-01 9.807780e-01 5.276720e-04
    outer loop
      vertex -2.530743e+01 2.282453e+02 4.280381e+02
      vertex -2.530894e+01 2.281266e+02 6.480380e+02
      vertex -1.000000e+01 2.311724e+02 6.480397e+02
    endloop
  endfacet
  facet normal -5.555498e-01 8.314831e-01 4.446851e-04
    outer loop
      vertex -3.828111e+01 2.195770e+02 4.280334e+02
      vertex -2.530894e+01 2.281266e+02 6.480380e+02
      vertex -2.530743e+01 2.282453e+02 4.280381e+02
    endloop
  endfacet
  facet normal 1.951261e-01 9.807780e-01 5.219037e-04
    outer loop
      vertex -1.000000e+01 2.312894e+02 4.280397e+02
      vertex -1.000000e+01 2.311724e+02 6.480397e+02
      vertex 5.308937e+00 2.281266e+02 6.480380e+02
    endloop
  endfacet
  facet normal -1.950464e-01 9.807939e-01 5.219121e-04
    outer loop
      vertex -2.530743e+01 2.282453e+02 4.280381e+02
      vertex -1.000000e+01 2.311724e+02 6.480397e+02
      vertex -1.000000e+01 2.312894e+02 4.280397e+02
    endloop
  endfacet
  facet normal 5.555981e-01 8.314509e-01 4.446673e-04
    outer loop
      vertex 5.307435e+00 2.282453e+02 4.280381e+02
      vertex 5.308937e+00 2.281266e+02 6.480380e+02
      vertex 1.828400e+01 2.194564e+02 6.480334e+02
    endloop
  endfacet
  facet normal 1.950464e-01 9.807939e-01 5.276811e-04
    outer loop
      vertex -1.000000e+01 2.312894e+02 4.280397e+02
      vertex 5.308937e+00 2.281266e+02 6.480380e+02
      vertex 5.307435e+00 2.282453e+02 4.280381e+02
    endloop
  endfacet
  facet normal 8.314510e-01 5.555980e-01 2.938530e-04
    outer loop
      vertex 1.828111e+01 2.195770e+02 4.280334e+02
      vertex 1.828400e+01 2.194564e+02 6.480334e+02
      vertex 2.695428e+01 2.064813e+02 6.480264e+02
    endloop
  endfacet
  facet normal 5.555498e-01 8.314831e-01 4.488002e-04
    outer loop
      vertex 5.307435e+00 2.282453e+02 4.280381e+02
      vertex 1.828400e+01 2.194564e+02 6.480334e+02
      vertex 1.828111e+01 2.195770e+02 4.280334e+02
    endloop
  endfacet
  facet normal 8.314270e-01 5.556340e-01 2.969414e-04
    outer loop
      vertex 1.828111e+01 2.195770e+02 4.280334e+02
      vertex 2.695428e+01 2.064813e+02 6.480264e+02
      vertex 2.695510e+01 2.065976e+02 4.280265e+02
    endloop
  endfacet
  facet normal -1.492603e-16 5.353047e-04 -9.999999e-01
    outer loop
      vertex -3.828111e+01 1.630032e+02 4.280031e+02
      vertex 2.695510e+01 2.065976e+02 4.280265e+02
      vertex 3.000000e+01 1.912901e+02 4.280183e+02
    endloop
  endfacet
  facet normal -1.435621e-15 5.353047e-04 -9.999999e-01
    outer loop
      vertex -2.530743e+01 1.543350e+02 4.279985e+02
      vertex -3.828111e+01 1.630032e+02 4.280031e+02
      vertex 3.000000e+01 1.912901e+02 4.280183e+02
    endloop
  endfacet
  facet normal 7.150486e-16 5.353047e-04 -9.999999e-01
    outer loop
      vertex 2.695510e+01 1.759826e+02 4.280101e+02
      vertex -2.530743e+01 1.543350e+02 4.279985e+02
      vertex 3.000000e+01 1.912901e+02 4.280183e+02
    endloop
  endfacet
  facet normal 2.768163e-16 5.353047e-04 -9.999999e-01
    outer loop
      vertex -4.695510e+01 1.759826e+02 4.280101e+02
      vertex 1.828111e+01 2.195770e+02 4.280334e+02
      vertex 2.695510e+01 2.065976e+02 4.280265e+02
    endloop
  endfacet
  facet normal 2.767710e-16 5.353047e-04 -9.999999e-01
    outer loop
      vertex -3.828111e+01 1.630032e+02 4.280031e+02
      vertex -4.695510e+01 1.759826e+02 4.280101e+02
      vertex 2.695510e+01 2.065976e+02 4.280265e+02
    endloop
  endfacet
  facet normal -1.435621e-15 5.353047e-04 -9.999999e-01
    outer loop
      vertex -5.000000e+01 1.912901e+02 4.280183e+02
      vertex 5.307435e+00 2.282453e+02 4.280381e+02
      vertex 1.828111e+01 2.195770e+02 4.280334e+02
    endloop
  endfacet
  facet normal -1.492603e-16 5.353047e-04 -9.999999e-01
    outer loop
      vertex -4.695510e+01 1.759826e+02 4.280101e+02
      vertex -5.000000e+01 1.912901e+02 4.280183e+02
      vertex 1.828111e+01 2.195770e+02 4.280334e+02
    endloop
  endfacet
  facet normal 1.863750e-15 5.353047e-04 -9.999999e-01
    outer loop
      vertex -4.695510e+01 2.065976e+02 4.280265e+02
      vertex -1.000000e+01 2.312894e+02 4.280397e+02
      vertex 5.307435e+00 2.282453e+02 4.280381e+02
    endloop
  endfacet
  facet normal 7.142924e-16 5.353047e-04 -9.999999e-01
    outer loop
      vertex -5.000000e+01 1.912901e+02 4.280183e+02
      vertex -4.695510e+01 2.065976e+02 4.280265e+02
      vertex 5.307435e+00 2.282453e+02 4.280381e+02
    endloop
  endfacet
  facet normal -4.955814e-15 5.353047e-04 -9.999999e-01
    outer loop
      vertex -3.828111e+01 2.195770e+02 4.280334e+02
      vertex -2.530743e+01 2.282453e+02 4.280381e+02
      vertex -1.000000e+01 2.312894e+02 4.280397e+02
    endloop
  endfacet
  facet normal 8.744508e-16 5.353047e-04 -9.999999e-01
    outer loop
      vertex -4.695510e+01 2.065976e+02 4.280265e+02
      vertex -3.828111e+01 2.195770e+02 4.280334e+02
      vertex -1.000000e+01 2.312894e+02 4.280397e+02
    endloop
  endfacet
  facet normal 1.863864e-15 5.353047e-04 -9.999999e-01
    outer loop
      vertex 2.695510e+01 1.759826e+02 4.280101e+02
      vertex -1.000000e+01 1.512908e+02 4.279969e+02
      vertex -2.530743e+01 1.543350e+02 4.279985e+02
    endloop
  endfacet
  facet normal -4.957750e-15 5.353047e-04 -9.999999e-01
    outer loop
      vertex 1.828111e+01 1.630032e+02 4.280031e+02
      vertex 5.307435e+00 1.543350e+02 4.279985e+02
      vertex -1.000000e+01 1.512908e+02 4.279969e+02
    endloop
  endfacet
  facet normal 8.738235e-16 5.353047e-04 -9.999999e-01
    outer loop
      vertex 2.695510e+01 1.759826e+02 4.280101e+02
      vertex 1.828111e+01 1.630032e+02 4.280031e+02
      vertex -1.000000e+01 1.512908e+02 4.279969e+02
    endloop
  endfacet
endsolid SIM_CER_L_WRIST_TRIPOD_SLIDER
