solid SIM_CER_R_HAND_PADDLE
  facet normal -1.000000e+00 0.000000e+00 0.000000e+00
    outer loop
      vertex -3.900000e+01 -1.991840e+02 3.645231e+02
      vertex -3.900000e+01 -1.835963e+02 3.645231e+02
      vertex -3.900000e+01 -1.823901e+02 3.600233e+02
    endloop
  endfacet
  facet normal 0.000000e+00 9.659041e-01 2.589003e-01
    outer loop
      vertex 1.900000e+01 -1.823901e+02 3.600233e+02
      vertex -3.900000e+01 -1.823901e+02 3.600233e+02
      vertex -3.900000e+01 -1.835963e+02 3.645231e+02
    endloop
  endfacet
  facet normal -1.000000e+00 0.000000e+00 0.000000e+00
    outer loop
      vertex -3.900000e+01 -2.003901e+02 3.600233e+02
      vertex -3.900000e+01 -1.991840e+02 3.645231e+02
      vertex -3.900000e+01 -1.823901e+02 3.600233e+02
    endloop
  endfacet
  facet normal -1.000000e+00 0.000000e+00 0.000000e+00
    outer loop
      vertex -3.900000e+01 -1.823901e+02 3.117109e+02
      vertex -3.900000e+01 -2.003901e+02 3.600233e+02
      vertex -3.900000e+01 -1.823901e+02 3.600233e+02
    endloop
  endfacet
  facet normal 0.000000e+00 1.000000e+00 2.309029e-07
    outer loop
      vertex 1.900000e+01 -1.823901e+02 3.600233e+02
      vertex -3.900000e+01 -1.823901e+02 3.117109e+02
      vertex -3.900000e+01 -1.823901e+02 3.600233e+02
    endloop
  endfacet
  facet normal -1.000000e+00 0.000000e+00 0.000000e+00
    outer loop
      vertex -3.900000e+01 -1.958901e+02 3.678176e+02
      vertex -3.900000e+01 -1.868901e+02 3.678176e+02
      vertex -3.900000e+01 -1.835963e+02 3.645231e+02
    endloop
  endfacet
  facet normal 0.000000e+00 7.071659e-01 7.070477e-01
    outer loop
      vertex 1.900000e+01 -1.835963e+02 3.645231e+02
      vertex -3.900000e+01 -1.835963e+02 3.645231e+02
      vertex -3.900000e+01 -1.868901e+02 3.678176e+02
    endloop
  endfacet
  facet normal -1.000000e+00 0.000000e+00 0.000000e+00
    outer loop
      vertex -3.900000e+01 -1.991840e+02 3.645231e+02
      vertex -3.900000e+01 -1.958901e+02 3.678176e+02
      vertex -3.900000e+01 -1.835963e+02 3.645231e+02
    endloop
  endfacet
  facet normal 0.000000e+00 9.659041e-01 2.589003e-01
    outer loop
      vertex 1.900000e+01 -1.835963e+02 3.645231e+02
      vertex 1.900000e+01 -1.823901e+02 3.600233e+02
      vertex -3.900000e+01 -1.835963e+02 3.645231e+02
    endloop
  endfacet
  facet normal -1.000000e+00 0.000000e+00 0.000000e+00
    outer loop
      vertex -3.900000e+01 -1.958901e+02 3.678176e+02
      vertex -3.900000e+01 -1.913901e+02 3.690229e+02
      vertex -3.900000e+01 -1.868901e+02 3.678176e+02
    endloop
  endfacet
  facet normal 0.000000e+00 2.587378e-01 9.659476e-01
    outer loop
      vertex 1.900000e+01 -1.868901e+02 3.678176e+02
      vertex -3.900000e+01 -1.868901e+02 3.678176e+02
      vertex -3.900000e+01 -1.913901e+02 3.690229e+02
    endloop
  endfacet
  facet normal 0.000000e+00 7.071659e-01 7.070477e-01
    outer loop
      vertex 1.900000e+01 -1.835963e+02 3.645231e+02
      vertex -3.900000e+01 -1.868901e+02 3.678176e+02
      vertex 1.900000e+01 -1.868901e+02 3.678176e+02
    endloop
  endfacet
  facet normal 0.000000e+00 -2.587383e-01 9.659475e-01
    outer loop
      vertex 1.900000e+01 -1.913901e+02 3.690229e+02
      vertex -3.900000e+01 -1.913901e+02 3.690229e+02
      vertex -3.900000e+01 -1.958901e+02 3.678176e+02
    endloop
  endfacet
  facet normal 0.000000e+00 2.587378e-01 9.659476e-01
    outer loop
      vertex 1.900000e+01 -1.868901e+02 3.678176e+02
      vertex -3.900000e+01 -1.913901e+02 3.690229e+02
      vertex 1.900000e+01 -1.913901e+02 3.690229e+02
    endloop
  endfacet
  facet normal 0.000000e+00 -7.071662e-01 7.070473e-01
    outer loop
      vertex 1.900000e+01 -1.958901e+02 3.678176e+02
      vertex -3.900000e+01 -1.958901e+02 3.678176e+02
      vertex -3.900000e+01 -1.991840e+02 3.645231e+02
    endloop
  endfacet
  facet normal 0.000000e+00 -2.587383e-01 9.659475e-01
    outer loop
      vertex 1.900000e+01 -1.913901e+02 3.690229e+02
      vertex -3.900000e+01 -1.958901e+02 3.678176e+02
      vertex 1.900000e+01 -1.958901e+02 3.678176e+02
    endloop
  endfacet
  facet normal 0.000000e+00 -9.659042e-01 2.588998e-01
    outer loop
      vertex 1.900000e+01 -1.991840e+02 3.645231e+02
      vertex -3.900000e+01 -1.991840e+02 3.645231e+02
      vertex -3.900000e+01 -2.003901e+02 3.600233e+02
    endloop
  endfacet
  facet normal 0.000000e+00 -7.071662e-01 7.070473e-01
    outer loop
      vertex 1.900000e+01 -1.958901e+02 3.678176e+02
      vertex -3.900000e+01 -1.991840e+02 3.645231e+02
      vertex 1.900000e+01 -1.991840e+02 3.645231e+02
    endloop
  endfacet
  facet normal -1.000000e+00 0.000000e+00 0.000000e+00
    outer loop
      vertex -3.900000e+01 -1.823901e+02 3.117109e+02
      vertex -3.900000e+01 -2.003901e+02 3.117109e+02
      vertex -3.900000e+01 -2.003901e+02 3.600233e+02
    endloop
  endfacet
  facet normal 0.000000e+00 -1.000000e+00 -2.309029e-07
    outer loop
      vertex 1.900000e+01 -2.003901e+02 3.117109e+02
      vertex -3.900000e+01 -2.003901e+02 3.600233e+02
      vertex -3.900000e+01 -2.003901e+02 3.117109e+02
    endloop
  endfacet
  facet normal 0.000000e+00 -1.000000e+00 -2.309029e-07
    outer loop
      vertex 1.900000e+01 -2.003901e+02 3.600233e+02
      vertex -3.900000e+01 -2.003901e+02 3.600233e+02
      vertex 1.900000e+01 -2.003901e+02 3.117109e+02
    endloop
  endfacet
  facet normal 0.000000e+00 -9.659042e-01 2.588998e-01
    outer loop
      vertex 1.900000e+01 -1.991840e+02 3.645231e+02
      vertex -3.900000e+01 -2.003901e+02 3.600233e+02
      vertex 1.900000e+01 -2.003901e+02 3.600233e+02
    endloop
  endfacet
  facet normal -1.000000e+00 0.000000e+00 0.000000e+00
    outer loop
      vertex -3.900000e+01 -1.835963e+02 3.072111e+02
      vertex -3.900000e+01 -1.991840e+02 3.072111e+02
      vertex -3.900000e+01 -2.003901e+02 3.117109e+02
    endloop
  endfacet
  facet normal -2.030934e-02 -9.657048e-01 -2.588469e-01
    outer loop
      vertex -3.400000e+01 -1.993901e+02 3.075878e+02
      vertex -3.900000e+01 -2.003901e+02 3.117109e+02
      vertex -3.900000e+01 -1.991840e+02 3.072111e+02
    endloop
  endfacet
  facet normal -1.000000e+00 0.000000e+00 0.000000e+00
    outer loop
      vertex -3.900000e+01 -1.823901e+02 3.117109e+02
      vertex -3.900000e+01 -1.835963e+02 3.072111e+02
      vertex -3.900000e+01 -2.003901e+02 3.117109e+02
    endloop
  endfacet
  facet normal 0.000000e+00 -9.718252e-01 -2.357026e-01
    outer loop
      vertex -3.400000e+01 -1.993901e+02 3.075878e+02
      vertex 1.900000e+01 -2.003901e+02 3.117109e+02
      vertex -3.900000e+01 -2.003901e+02 3.117109e+02
    endloop
  endfacet
  facet normal -1.000000e+00 0.000000e+00 0.000000e+00
    outer loop
      vertex -3.900000e+01 -1.868901e+02 3.039167e+02
      vertex -3.900000e+01 -1.958901e+02 3.039167e+02
      vertex -3.900000e+01 -1.991840e+02 3.072111e+02
    endloop
  endfacet
  facet normal -6.005105e-02 -7.058897e-01 -7.057716e-01
    outer loop
      vertex -3.400000e+01 -1.979782e+02 3.055797e+02
      vertex -3.900000e+01 -1.991840e+02 3.072111e+02
      vertex -3.900000e+01 -1.958901e+02 3.039167e+02
    endloop
  endfacet
  facet normal -1.000000e+00 0.000000e+00 0.000000e+00
    outer loop
      vertex -3.900000e+01 -1.835963e+02 3.072111e+02
      vertex -3.900000e+01 -1.868901e+02 3.039167e+02
      vertex -3.900000e+01 -1.991840e+02 3.072111e+02
    endloop
  endfacet
  facet normal 9.608299e-03 -8.180009e-01 -5.751367e-01
    outer loop
      vertex -3.400000e+01 -1.979782e+02 3.055797e+02
      vertex -3.400000e+01 -1.993901e+02 3.075878e+02
      vertex -3.900000e+01 -1.991840e+02 3.072111e+02
    endloop
  endfacet
  facet normal -1.000000e+00 0.000000e+00 0.000000e+00
    outer loop
      vertex -3.900000e+01 -1.868901e+02 3.039167e+02
      vertex -3.900000e+01 -1.913901e+02 3.027113e+02
      vertex -3.900000e+01 -1.958901e+02 3.039167e+02
    endloop
  endfacet
  facet normal -6.111193e-02 -2.582542e-01 -9.641421e-01
    outer loop
      vertex -3.400000e+01 -1.938244e+02 3.030465e+02
      vertex -3.900000e+01 -1.958901e+02 3.039167e+02
      vertex -3.900000e+01 -1.913901e+02 3.027113e+02
    endloop
  endfacet
  facet normal -6.317534e-03 -6.321906e-01 -7.747872e-01
    outer loop
      vertex -3.400000e+01 -1.960742e+02 3.040261e+02
      vertex -3.400000e+01 -1.979782e+02 3.055797e+02
      vertex -3.900000e+01 -1.958901e+02 3.039167e+02
    endloop
  endfacet
  facet normal 5.368395e-03 -3.992348e-01 -9.168330e-01
    outer loop
      vertex -3.400000e+01 -1.938244e+02 3.030465e+02
      vertex -3.400000e+01 -1.960742e+02 3.040261e+02
      vertex -3.900000e+01 -1.958901e+02 3.039167e+02
    endloop
  endfacet
  facet normal -1.337037e-05 2.587383e-01 -9.659475e-01
    outer loop
      vertex -3.400000e+01 -1.913901e+02 3.027113e+02
      vertex -3.900000e+01 -1.913901e+02 3.027113e+02
      vertex -3.900000e+01 -1.868901e+02 3.039167e+02
    endloop
  endfacet
  facet normal -1.355493e-05 -1.364066e-01 -9.906529e-01
    outer loop
      vertex -3.400000e+01 -1.913901e+02 3.027113e+02
      vertex -3.400000e+01 -1.938244e+02 3.030465e+02
      vertex -3.900000e+01 -1.913901e+02 3.027113e+02
    endloop
  endfacet
  facet normal -1.056020e-02 7.071268e-01 -7.070079e-01
    outer loop
      vertex -3.400000e+01 -1.867060e+02 3.040262e+02
      vertex -3.900000e+01 -1.868901e+02 3.039167e+02
      vertex -3.900000e+01 -1.835963e+02 3.072111e+02
    endloop
  endfacet
  facet normal -1.152932e-01 1.354978e-01 -9.840467e-01
    outer loop
      vertex -3.400000e+01 -1.889559e+02 3.030465e+02
      vertex -3.400000e+01 -1.913901e+02 3.027113e+02
      vertex -3.900000e+01 -1.868901e+02 3.039167e+02
    endloop
  endfacet
  facet normal 5.368483e-03 3.992357e-01 -9.168326e-01
    outer loop
      vertex -3.400000e+01 -1.867060e+02 3.040262e+02
      vertex -3.400000e+01 -1.889559e+02 3.030465e+02
      vertex -3.900000e+01 -1.868901e+02 3.039167e+02
    endloop
  endfacet
  facet normal -2.030951e-02 9.657050e-01 -2.588464e-01
    outer loop
      vertex -3.400000e+01 -1.833901e+02 3.075878e+02
      vertex -3.900000e+01 -1.835963e+02 3.072111e+02
      vertex -3.900000e+01 -1.823901e+02 3.117109e+02
    endloop
  endfacet
  facet normal -9.984244e-02 6.290449e-01 -7.709306e-01
    outer loop
      vertex -3.400000e+01 -1.848020e+02 3.055798e+02
      vertex -3.400000e+01 -1.867060e+02 3.040262e+02
      vertex -3.900000e+01 -1.835963e+02 3.072111e+02
    endloop
  endfacet
  facet normal 9.608370e-03 8.180014e-01 -5.751360e-01
    outer loop
      vertex -3.400000e+01 -1.833901e+02 3.075878e+02
      vertex -3.400000e+01 -1.848020e+02 3.055798e+02
      vertex -3.900000e+01 -1.835963e+02 3.072111e+02
    endloop
  endfacet
  facet normal 0.000000e+00 1.000000e+00 2.309029e-07
    outer loop
      vertex 1.900000e+01 -1.823901e+02 3.117109e+02
      vertex -3.900000e+01 -1.823901e+02 3.117109e+02
      vertex 1.900000e+01 -1.823901e+02 3.600233e+02
    endloop
  endfacet
  facet normal 0.000000e+00 9.718254e-01 -2.357019e-01
    outer loop
      vertex 1.400000e+01 -1.833901e+02 3.075878e+02
      vertex -3.900000e+01 -1.823901e+02 3.117109e+02
      vertex 1.900000e+01 -1.823901e+02 3.117109e+02
    endloop
  endfacet
  facet normal 0.000000e+00 9.718254e-01 -2.357019e-01
    outer loop
      vertex 1.400000e+01 -1.833901e+02 3.075878e+02
      vertex -3.400000e+01 -1.833901e+02 3.075878e+02
      vertex -3.900000e+01 -1.823901e+02 3.117109e+02
    endloop
  endfacet
  facet normal 1.000000e+00 0.000000e+00 0.000000e+00
    outer loop
      vertex 1.900000e+01 -2.003901e+02 3.117109e+02
      vertex 1.900000e+01 -1.823901e+02 3.117109e+02
      vertex 1.900000e+01 -1.823901e+02 3.600233e+02
    endloop
  endfacet
  facet normal 1.000000e+00 0.000000e+00 0.000000e+00
    outer loop
      vertex 1.900000e+01 -2.003901e+02 3.600233e+02
      vertex 1.900000e+01 -2.003901e+02 3.117109e+02
      vertex 1.900000e+01 -1.823901e+02 3.600233e+02
    endloop
  endfacet
  facet normal 1.000000e+00 0.000000e+00 0.000000e+00
    outer loop
      vertex 1.900000e+01 -1.835963e+02 3.645231e+02
      vertex 1.900000e+01 -2.003901e+02 3.600233e+02
      vertex 1.900000e+01 -1.823901e+02 3.600233e+02
    endloop
  endfacet
  facet normal 1.000000e+00 0.000000e+00 0.000000e+00
    outer loop
      vertex 1.900000e+01 -1.991840e+02 3.072111e+02
      vertex 1.900000e+01 -1.835963e+02 3.072111e+02
      vertex 1.900000e+01 -1.823901e+02 3.117109e+02
    endloop
  endfacet
  facet normal 2.030951e-02 9.657050e-01 -2.588464e-01
    outer loop
      vertex 1.400000e+01 -1.833901e+02 3.075878e+02
      vertex 1.900000e+01 -1.823901e+02 3.117109e+02
      vertex 1.900000e+01 -1.835963e+02 3.072111e+02
    endloop
  endfacet
  facet normal 1.000000e+00 0.000000e+00 0.000000e+00
    outer loop
      vertex 1.900000e+01 -2.003901e+02 3.117109e+02
      vertex 1.900000e+01 -1.991840e+02 3.072111e+02
      vertex 1.900000e+01 -1.823901e+02 3.117109e+02
    endloop
  endfacet
  facet normal 1.000000e+00 0.000000e+00 0.000000e+00
    outer loop
      vertex 1.900000e+01 -1.958901e+02 3.039167e+02
      vertex 1.900000e+01 -1.868901e+02 3.039167e+02
      vertex 1.900000e+01 -1.835963e+02 3.072111e+02
    endloop
  endfacet
  facet normal 6.005102e-02 7.058900e-01 -7.057713e-01
    outer loop
      vertex 1.400000e+01 -1.848020e+02 3.055798e+02
      vertex 1.900000e+01 -1.835963e+02 3.072111e+02
      vertex 1.900000e+01 -1.868901e+02 3.039167e+02
    endloop
  endfacet
  facet normal 1.000000e+00 0.000000e+00 0.000000e+00
    outer loop
      vertex 1.900000e+01 -1.991840e+02 3.072111e+02
      vertex 1.900000e+01 -1.958901e+02 3.039167e+02
      vertex 1.900000e+01 -1.835963e+02 3.072111e+02
    endloop
  endfacet
  facet normal -9.608370e-03 8.180014e-01 -5.751360e-01
    outer loop
      vertex 1.400000e+01 -1.848020e+02 3.055798e+02
      vertex 1.400000e+01 -1.833901e+02 3.075878e+02
      vertex 1.900000e+01 -1.835963e+02 3.072111e+02
    endloop
  endfacet
  facet normal 1.000000e+00 0.000000e+00 0.000000e+00
    outer loop
      vertex 1.900000e+01 -1.958901e+02 3.039167e+02
      vertex 1.900000e+01 -1.913901e+02 3.027113e+02
      vertex 1.900000e+01 -1.868901e+02 3.039167e+02
    endloop
  endfacet
  facet normal 6.111192e-02 2.582547e-01 -9.641420e-01
    outer loop
      vertex 1.400000e+01 -1.889559e+02 3.030465e+02
      vertex 1.900000e+01 -1.868901e+02 3.039167e+02
      vertex 1.900000e+01 -1.913901e+02 3.027113e+02
    endloop
  endfacet
  facet normal 6.317661e-03 6.321913e-01 -7.747866e-01
    outer loop
      vertex 1.400000e+01 -1.867060e+02 3.040262e+02
      vertex 1.400000e+01 -1.848020e+02 3.055798e+02
      vertex 1.900000e+01 -1.868901e+02 3.039167e+02
    endloop
  endfacet
  facet normal -5.368483e-03 3.992357e-01 -9.168326e-01
    outer loop
      vertex 1.400000e+01 -1.889559e+02 3.030465e+02
      vertex 1.400000e+01 -1.867060e+02 3.040262e+02
      vertex 1.900000e+01 -1.868901e+02 3.039167e+02
    endloop
  endfacet
  facet normal 1.316763e-05 -2.587378e-01 -9.659476e-01
    outer loop
      vertex 1.400000e+01 -1.913901e+02 3.027113e+02
      vertex 1.900000e+01 -1.913901e+02 3.027113e+02
      vertex 1.900000e+01 -1.958901e+02 3.039167e+02
    endloop
  endfacet
  facet normal 1.366182e-05 1.364074e-01 -9.906528e-01
    outer loop
      vertex 1.400000e+01 -1.913901e+02 3.027113e+02
      vertex 1.400000e+01 -1.889559e+02 3.030465e+02
      vertex 1.900000e+01 -1.913901e+02 3.027113e+02
    endloop
  endfacet
  facet normal 1.056002e-02 -7.071265e-01 -7.070082e-01
    outer loop
      vertex 1.400000e+01 -1.960742e+02 3.040261e+02
      vertex 1.900000e+01 -1.958901e+02 3.039167e+02
      vertex 1.900000e+01 -1.991840e+02 3.072111e+02
    endloop
  endfacet
  facet normal 1.152935e-01 -1.354969e-01 -9.840467e-01
    outer loop
      vertex 1.400000e+01 -1.938244e+02 3.030465e+02
      vertex 1.400000e+01 -1.913901e+02 3.027113e+02
      vertex 1.900000e+01 -1.958901e+02 3.039167e+02
    endloop
  endfacet
  facet normal -5.368395e-03 -3.992348e-01 -9.168330e-01
    outer loop
      vertex 1.400000e+01 -1.960742e+02 3.040261e+02
      vertex 1.400000e+01 -1.938244e+02 3.030465e+02
      vertex 1.900000e+01 -1.958901e+02 3.039167e+02
    endloop
  endfacet
  facet normal 2.030934e-02 -9.657048e-01 -2.588469e-01
    outer loop
      vertex 1.400000e+01 -1.993901e+02 3.075878e+02
      vertex 1.900000e+01 -1.991840e+02 3.072111e+02
      vertex 1.900000e+01 -2.003901e+02 3.117109e+02
    endloop
  endfacet
  facet normal 9.984271e-02 -6.290442e-01 -7.709311e-01
    outer loop
      vertex 1.400000e+01 -1.979782e+02 3.055797e+02
      vertex 1.400000e+01 -1.960742e+02 3.040261e+02
      vertex 1.900000e+01 -1.991840e+02 3.072111e+02
    endloop
  endfacet
  facet normal -9.608299e-03 -8.180009e-01 -5.751367e-01
    outer loop
      vertex 1.400000e+01 -1.993901e+02 3.075878e+02
      vertex 1.400000e+01 -1.979782e+02 3.055797e+02
      vertex 1.900000e+01 -1.991840e+02 3.072111e+02
    endloop
  endfacet
  facet normal 0.000000e+00 -9.718252e-01 -2.357026e-01
    outer loop
      vertex 1.400000e+01 -1.993901e+02 3.075878e+02
      vertex 1.900000e+01 -2.003901e+02 3.117109e+02
      vertex -3.400000e+01 -1.993901e+02 3.075878e+02
    endloop
  endfacet
  facet normal 1.000000e+00 0.000000e+00 0.000000e+00
    outer loop
      vertex 1.900000e+01 -1.835963e+02 3.645231e+02
      vertex 1.900000e+01 -1.991840e+02 3.645231e+02
      vertex 1.900000e+01 -2.003901e+02 3.600233e+02
    endloop
  endfacet
  facet normal 1.000000e+00 0.000000e+00 0.000000e+00
    outer loop
      vertex 1.900000e+01 -1.868901e+02 3.678176e+02
      vertex 1.900000e+01 -1.958901e+02 3.678176e+02
      vertex 1.900000e+01 -1.991840e+02 3.645231e+02
    endloop
  endfacet
  facet normal 1.000000e+00 0.000000e+00 0.000000e+00
    outer loop
      vertex 1.900000e+01 -1.835963e+02 3.645231e+02
      vertex 1.900000e+01 -1.868901e+02 3.678176e+02
      vertex 1.900000e+01 -1.991840e+02 3.645231e+02
    endloop
  endfacet
  facet normal 1.000000e+00 0.000000e+00 0.000000e+00
    outer loop
      vertex 1.900000e+01 -1.868901e+02 3.678176e+02
      vertex 1.900000e+01 -1.913901e+02 3.690229e+02
      vertex 1.900000e+01 -1.958901e+02 3.678176e+02
    endloop
  endfacet
  facet normal -1.000000e+00 0.000000e+00 0.000000e+00
    outer loop
      vertex -3.400000e+01 -1.833901e+02 2.750288e+02
      vertex -3.400000e+01 -1.993901e+02 3.075878e+02
      vertex -3.400000e+01 -1.979782e+02 3.055797e+02
    endloop
  endfacet
  facet normal 0.000000e+00 -1.000000e+00 -4.503026e-07
    outer loop
      vertex 1.400000e+01 -1.993901e+02 2.750288e+02
      vertex 1.400000e+01 -1.993901e+02 3.075878e+02
      vertex -3.400000e+01 -1.993901e+02 3.075878e+02
    endloop
  endfacet
  facet normal -1.000000e+00 0.000000e+00 0.000000e+00
    outer loop
      vertex -3.400000e+01 -1.833901e+02 2.750288e+02
      vertex -3.400000e+01 -1.993901e+02 2.750288e+02
      vertex -3.400000e+01 -1.993901e+02 3.075878e+02
    endloop
  endfacet
  facet normal 0.000000e+00 -1.000000e+00 -4.503026e-07
    outer loop
      vertex 1.400000e+01 -1.993901e+02 2.750288e+02
      vertex -3.400000e+01 -1.993901e+02 3.075878e+02
      vertex -3.400000e+01 -1.993901e+02 2.750288e+02
    endloop
  endfacet
  facet normal -1.000000e+00 0.000000e+00 0.000000e+00
    outer loop
      vertex -3.400000e+01 -1.833901e+02 2.750288e+02
      vertex -3.400000e+01 -1.979782e+02 3.055797e+02
      vertex -3.400000e+01 -1.960742e+02 3.040261e+02
    endloop
  endfacet
  facet normal -1.000000e+00 0.000000e+00 0.000000e+00
    outer loop
      vertex -3.400000e+01 -1.833901e+02 2.750288e+02
      vertex -3.400000e+01 -1.960742e+02 3.040261e+02
      vertex -3.400000e+01 -1.938244e+02 3.030465e+02
    endloop
  endfacet
  facet normal -1.000000e+00 0.000000e+00 0.000000e+00
    outer loop
      vertex -3.400000e+01 -1.833901e+02 2.750288e+02
      vertex -3.400000e+01 -1.938244e+02 3.030465e+02
      vertex -3.400000e+01 -1.913901e+02 3.027113e+02
    endloop
  endfacet
  facet normal -1.000000e+00 0.000000e+00 0.000000e+00
    outer loop
      vertex -3.400000e+01 -1.833901e+02 2.750288e+02
      vertex -3.400000e+01 -1.913901e+02 3.027113e+02
      vertex -3.400000e+01 -1.889559e+02 3.030465e+02
    endloop
  endfacet
  facet normal -1.000000e+00 0.000000e+00 0.000000e+00
    outer loop
      vertex -3.400000e+01 -1.833901e+02 2.750288e+02
      vertex -3.400000e+01 -1.889559e+02 3.030465e+02
      vertex -3.400000e+01 -1.867060e+02 3.040262e+02
    endloop
  endfacet
  facet normal -1.000000e+00 0.000000e+00 0.000000e+00
    outer loop
      vertex -3.400000e+01 -1.833901e+02 2.750288e+02
      vertex -3.400000e+01 -1.867060e+02 3.040262e+02
      vertex -3.400000e+01 -1.848020e+02 3.055798e+02
    endloop
  endfacet
  facet normal -1.000000e+00 0.000000e+00 0.000000e+00
    outer loop
      vertex -3.400000e+01 -1.833901e+02 2.750288e+02
      vertex -3.400000e+01 -1.848020e+02 3.055798e+02
      vertex -3.400000e+01 -1.833901e+02 3.075878e+02
    endloop
  endfacet
  facet normal 0.000000e+00 1.000000e+00 4.503026e-07
    outer loop
      vertex -3.400000e+01 -1.833901e+02 2.750288e+02
      vertex -3.400000e+01 -1.833901e+02 3.075878e+02
      vertex 1.400000e+01 -1.833901e+02 3.075878e+02
    endloop
  endfacet
  facet normal 1.000000e+00 0.000000e+00 0.000000e+00
    outer loop
      vertex 1.400000e+01 -1.993901e+02 2.750288e+02
      vertex 1.400000e+01 -1.833901e+02 3.075878e+02
      vertex 1.400000e+01 -1.848020e+02 3.055798e+02
    endloop
  endfacet
  facet normal 0.000000e+00 1.000000e+00 4.503026e-07
    outer loop
      vertex 1.400000e+01 -1.833901e+02 2.750288e+02
      vertex -3.400000e+01 -1.833901e+02 2.750288e+02
      vertex 1.400000e+01 -1.833901e+02 3.075878e+02
    endloop
  endfacet
  facet normal 1.000000e+00 0.000000e+00 0.000000e+00
    outer loop
      vertex 1.400000e+01 -1.993901e+02 2.750288e+02
      vertex 1.400000e+01 -1.833901e+02 2.750288e+02
      vertex 1.400000e+01 -1.833901e+02 3.075878e+02
    endloop
  endfacet
  facet normal 1.000000e+00 0.000000e+00 0.000000e+00
    outer loop
      vertex 1.400000e+01 -1.993901e+02 2.750288e+02
      vertex 1.400000e+01 -1.848020e+02 3.055798e+02
      vertex 1.400000e+01 -1.867060e+02 3.040262e+02
    endloop
  endfacet
  facet normal 1.000000e+00 0.000000e+00 0.000000e+00
    outer loop
      vertex 1.400000e+01 -1.993901e+02 2.750288e+02
      vertex 1.400000e+01 -1.867060e+02 3.040262e+02
      vertex 1.400000e+01 -1.889559e+02 3.030465e+02
    endloop
  endfacet
  facet normal 1.000000e+00 0.000000e+00 0.000000e+00
    outer loop
      vertex 1.400000e+01 -1.993901e+02 2.750288e+02
      vertex 1.400000e+01 -1.889559e+02 3.030465e+02
      vertex 1.400000e+01 -1.913901e+02 3.027113e+02
    endloop
  endfacet
  facet normal 1.000000e+00 0.000000e+00 0.000000e+00
    outer loop
      vertex 1.400000e+01 -1.993901e+02 2.750288e+02
      vertex 1.400000e+01 -1.913901e+02 3.027113e+02
      vertex 1.400000e+01 -1.938244e+02 3.030465e+02
    endloop
  endfacet
  facet normal 1.000000e+00 0.000000e+00 0.000000e+00
    outer loop
      vertex 1.400000e+01 -1.993901e+02 2.750288e+02
      vertex 1.400000e+01 -1.938244e+02 3.030465e+02
      vertex 1.400000e+01 -1.960742e+02 3.040261e+02
    endloop
  endfacet
  facet normal 1.000000e+00 0.000000e+00 0.000000e+00
    outer loop
      vertex 1.400000e+01 -1.993901e+02 2.750288e+02
      vertex 1.400000e+01 -1.960742e+02 3.040261e+02
      vertex 1.400000e+01 -1.979782e+02 3.055797e+02
    endloop
  endfacet
  facet normal 1.000000e+00 0.000000e+00 0.000000e+00
    outer loop
      vertex 1.400000e+01 -1.993901e+02 2.750288e+02
      vertex 1.400000e+01 -1.979782e+02 3.055797e+02
      vertex 1.400000e+01 -1.993901e+02 3.075878e+02
    endloop
  endfacet
  facet normal -1.000000e+00 0.000000e+00 0.000000e+00
    outer loop
      vertex -3.400000e+01 -1.849190e+02 2.703255e+02
      vertex -3.400000e+01 -1.978612e+02 2.703255e+02
      vertex -3.400000e+01 -1.993901e+02 2.750288e+02
    endloop
  endfacet
  facet normal 0.000000e+00 -9.510169e-01 -3.091390e-01
    outer loop
      vertex 1.400000e+01 -1.993901e+02 2.750288e+02
      vertex -3.400000e+01 -1.993901e+02 2.750288e+02
      vertex -3.400000e+01 -1.978612e+02 2.703255e+02
    endloop
  endfacet
  facet normal -1.000000e+00 0.000000e+00 0.000000e+00
    outer loop
      vertex -3.400000e+01 -1.833901e+02 2.750288e+02
      vertex -3.400000e+01 -1.849190e+02 2.703255e+02
      vertex -3.400000e+01 -1.993901e+02 2.750288e+02
    endloop
  endfacet
  facet normal -1.000000e+00 0.000000e+00 0.000000e+00
    outer loop
      vertex -3.400000e+01 -1.889188e+02 2.674206e+02
      vertex -3.400000e+01 -1.938614e+02 2.674206e+02
      vertex -3.400000e+01 -1.978612e+02 2.703255e+02
    endloop
  endfacet
  facet normal 0.000000e+00 -5.876371e-01 -8.091246e-01
    outer loop
      vertex 1.400000e+01 -1.978612e+02 2.703255e+02
      vertex -3.400000e+01 -1.978612e+02 2.703255e+02
      vertex -3.400000e+01 -1.938614e+02 2.674206e+02
    endloop
  endfacet
  facet normal -1.000000e+00 0.000000e+00 0.000000e+00
    outer loop
      vertex -3.400000e+01 -1.849190e+02 2.703255e+02
      vertex -3.400000e+01 -1.889188e+02 2.674206e+02
      vertex -3.400000e+01 -1.978612e+02 2.703255e+02
    endloop
  endfacet
  facet normal 0.000000e+00 -9.510169e-01 -3.091390e-01
    outer loop
      vertex 1.400000e+01 -1.993901e+02 2.750288e+02
      vertex -3.400000e+01 -1.978612e+02 2.703255e+02
      vertex 1.400000e+01 -1.978612e+02 2.703255e+02
    endloop
  endfacet
  facet normal 0.000000e+00 4.503026e-07 -1.000000e+00
    outer loop
      vertex 1.400000e+01 -1.938614e+02 2.674206e+02
      vertex -3.400000e+01 -1.938614e+02 2.674206e+02
      vertex -3.400000e+01 -1.889188e+02 2.674206e+02
    endloop
  endfacet
  facet normal 0.000000e+00 -5.876371e-01 -8.091246e-01
    outer loop
      vertex 1.400000e+01 -1.978612e+02 2.703255e+02
      vertex -3.400000e+01 -1.938614e+02 2.674206e+02
      vertex 1.400000e+01 -1.938614e+02 2.674206e+02
    endloop
  endfacet
  facet normal 0.000000e+00 5.876378e-01 -8.091241e-01
    outer loop
      vertex 1.400000e+01 -1.889188e+02 2.674206e+02
      vertex -3.400000e+01 -1.889188e+02 2.674206e+02
      vertex -3.400000e+01 -1.849190e+02 2.703255e+02
    endloop
  endfacet
  facet normal 0.000000e+00 4.503026e-07 -1.000000e+00
    outer loop
      vertex 1.400000e+01 -1.938614e+02 2.674206e+02
      vertex -3.400000e+01 -1.889188e+02 2.674206e+02
      vertex 1.400000e+01 -1.889188e+02 2.674206e+02
    endloop
  endfacet
  facet normal 0.000000e+00 9.510171e-01 -3.091381e-01
    outer loop
      vertex 1.400000e+01 -1.849190e+02 2.703255e+02
      vertex -3.400000e+01 -1.849190e+02 2.703255e+02
      vertex -3.400000e+01 -1.833901e+02 2.750288e+02
    endloop
  endfacet
  facet normal 0.000000e+00 5.876378e-01 -8.091241e-01
    outer loop
      vertex 1.400000e+01 -1.889188e+02 2.674206e+02
      vertex -3.400000e+01 -1.849190e+02 2.703255e+02
      vertex 1.400000e+01 -1.849190e+02 2.703255e+02
    endloop
  endfacet
  facet normal 0.000000e+00 9.510171e-01 -3.091381e-01
    outer loop
      vertex 1.400000e+01 -1.849190e+02 2.703255e+02
      vertex -3.400000e+01 -1.833901e+02 2.750288e+02
      vertex 1.400000e+01 -1.833901e+02 2.750288e+02
    endloop
  endfacet
  facet normal 1.000000e+00 0.000000e+00 0.000000e+00
    outer loop
      vertex 1.400000e+01 -1.978612e+02 2.703255e+02
      vertex 1.400000e+01 -1.849190e+02 2.703255e+02
      vertex 1.400000e+01 -1.833901e+02 2.750288e+02
    endloop
  endfacet
  facet normal 1.000000e+00 0.000000e+00 0.000000e+00
    outer loop
      vertex 1.400000e+01 -1.993901e+02 2.750288e+02
      vertex 1.400000e+01 -1.978612e+02 2.703255e+02
      vertex 1.400000e+01 -1.833901e+02 2.750288e+02
    endloop
  endfacet
  facet normal 1.000000e+00 0.000000e+00 0.000000e+00
    outer loop
      vertex 1.400000e+01 -1.938614e+02 2.674206e+02
      vertex 1.400000e+01 -1.889188e+02 2.674206e+02
      vertex 1.400000e+01 -1.849190e+02 2.703255e+02
    endloop
  endfacet
  facet normal 1.000000e+00 0.000000e+00 0.000000e+00
    outer loop
      vertex 1.400000e+01 -1.978612e+02 2.703255e+02
      vertex 1.400000e+01 -1.938614e+02 2.674206e+02
      vertex 1.400000e+01 -1.849190e+02 2.703255e+02
    endloop
  endfacet
endsolid SIM_CER_R_HAND_PADDLE
