solid SIM_CER_L_HAND_THUMB
  facet normal -1.000000e+00 0.000000e+00 0.000000e+00
    outer loop
      vertex -2.200000e+01 1.920738e+02 3.897781e+02
      vertex -2.200000e+01 1.922153e+02 3.807796e+02
      vertex -2.200000e+01 1.889736e+02 3.774338e+02
    endloop
  endfacet
  facet normal 0.000000e+00 7.181932e-01 -6.958437e-01
    outer loop
      vertex 2.000000e+00 1.889736e+02 3.774338e+02
      vertex -2.200000e+01 1.889736e+02 3.774338e+02
      vertex -2.200000e+01 1.922153e+02 3.807796e+02
    endloop
  endfacet
  facet normal -1.000000e+00 0.000000e+00 0.000000e+00
    outer loop
      vertex -2.200000e+01 1.887286e+02 3.930203e+02
      vertex -2.200000e+01 1.920738e+02 3.897781e+02
      vertex -2.200000e+01 1.889736e+02 3.774338e+02
    endloop
  endfacet
  facet normal -1.000000e+00 0.000000e+00 0.000000e+00
    outer loop
      vertex -2.200000e+01 1.538576e+02 3.564167e+02
      vertex -2.200000e+01 1.887286e+02 3.930203e+02
      vertex -2.200000e+01 1.889736e+02 3.774338e+02
    endloop
  endfacet
  facet normal 0.000000e+00 5.135519e-01 -8.580586e-01
    outer loop
      vertex 2.000000e+00 1.538576e+02 3.564167e+02
      vertex -2.200000e+01 1.538576e+02 3.564167e+02
      vertex -2.200000e+01 1.889736e+02 3.774338e+02
    endloop
  endfacet
  facet normal 0.000000e+00 5.135519e-01 -8.580586e-01
    outer loop
      vertex 2.000000e+00 1.538576e+02 3.564167e+02
      vertex -2.200000e+01 1.889736e+02 3.774338e+02
      vertex 2.000000e+00 1.889736e+02 3.774338e+02
    endloop
  endfacet
  facet normal -1.000000e+00 0.000000e+00 0.000000e+00
    outer loop
      vertex -2.200000e+01 1.920738e+02 3.897781e+02
      vertex -2.200000e+01 1.933506e+02 3.852978e+02
      vertex -2.200000e+01 1.922153e+02 3.807796e+02
    endloop
  endfacet
  facet normal 0.000000e+00 9.698546e-01 -2.436843e-01
    outer loop
      vertex 2.000000e+00 1.922153e+02 3.807796e+02
      vertex -2.200000e+01 1.922153e+02 3.807796e+02
      vertex -2.200000e+01 1.933506e+02 3.852978e+02
    endloop
  endfacet
  facet normal 0.000000e+00 7.181932e-01 -6.958437e-01
    outer loop
      vertex 2.000000e+00 1.922153e+02 3.807796e+02
      vertex 2.000000e+00 1.889736e+02 3.774338e+02
      vertex -2.200000e+01 1.922153e+02 3.807796e+02
    endloop
  endfacet
  facet normal 0.000000e+00 9.617149e-01 2.740517e-01
    outer loop
      vertex 2.000000e+00 1.933506e+02 3.852978e+02
      vertex -2.200000e+01 1.933506e+02 3.852978e+02
      vertex -2.200000e+01 1.920738e+02 3.897781e+02
    endloop
  endfacet
  facet normal 0.000000e+00 9.698546e-01 -2.436843e-01
    outer loop
      vertex 2.000000e+00 1.922153e+02 3.807796e+02
      vertex -2.200000e+01 1.933506e+02 3.852978e+02
      vertex 2.000000e+00 1.933506e+02 3.852978e+02
    endloop
  endfacet
  facet normal 0.000000e+00 6.959641e-01 7.180765e-01
    outer loop
      vertex 2.000000e+00 1.920738e+02 3.897781e+02
      vertex -2.200000e+01 1.920738e+02 3.897781e+02
      vertex -2.200000e+01 1.887286e+02 3.930203e+02
    endloop
  endfacet
  facet normal 0.000000e+00 9.617149e-01 2.740517e-01
    outer loop
      vertex 2.000000e+00 1.933506e+02 3.852978e+02
      vertex -2.200000e+01 1.920738e+02 3.897781e+02
      vertex 2.000000e+00 1.920738e+02 3.897781e+02
    endloop
  endfacet
  facet normal -1.000000e+00 0.000000e+00 0.000000e+00
    outer loop
      vertex -2.200000e+01 1.538576e+02 3.564167e+02
      vertex -2.200000e+01 1.842102e+02 3.941548e+02
      vertex -2.200000e+01 1.887286e+02 3.930203e+02
    endloop
  endfacet
  facet normal 0.000000e+00 2.435217e-01 9.698954e-01
    outer loop
      vertex 2.000000e+00 1.887286e+02 3.930203e+02
      vertex -2.200000e+01 1.887286e+02 3.930203e+02
      vertex -2.200000e+01 1.842102e+02 3.941548e+02
    endloop
  endfacet
  facet normal 0.000000e+00 6.959641e-01 7.180765e-01
    outer loop
      vertex 2.000000e+00 1.920738e+02 3.897781e+02
      vertex -2.200000e+01 1.887286e+02 3.930203e+02
      vertex 2.000000e+00 1.887286e+02 3.930203e+02
    endloop
  endfacet
  facet normal -1.000000e+00 0.000000e+00 0.000000e+00
    outer loop
      vertex -2.200000e+01 1.538576e+02 3.564167e+02
      vertex -2.200000e+01 1.797297e+02 3.928789e+02
      vertex -2.200000e+01 1.842102e+02 3.941548e+02
    endloop
  endfacet
  facet normal 0.000000e+00 -2.738905e-01 9.617609e-01
    outer loop
      vertex 2.000000e+00 1.842102e+02 3.941548e+02
      vertex -2.200000e+01 1.842102e+02 3.941548e+02
      vertex -2.200000e+01 1.797297e+02 3.928789e+02
    endloop
  endfacet
  facet normal 0.000000e+00 2.435217e-01 9.698954e-01
    outer loop
      vertex 2.000000e+00 1.887286e+02 3.930203e+02
      vertex -2.200000e+01 1.842102e+02 3.941548e+02
      vertex 2.000000e+00 1.842102e+02 3.941548e+02
    endloop
  endfacet
  facet normal -1.000000e+00 0.000000e+00 0.000000e+00
    outer loop
      vertex -2.200000e+01 1.448587e+02 3.562752e+02
      vertex -2.200000e+01 1.446137e+02 3.718618e+02
      vertex -2.200000e+01 1.797297e+02 3.928789e+02
    endloop
  endfacet
  facet normal 0.000000e+00 -5.135519e-01 8.580586e-01
    outer loop
      vertex 2.000000e+00 1.797297e+02 3.928789e+02
      vertex -2.200000e+01 1.797297e+02 3.928789e+02
      vertex -2.200000e+01 1.446137e+02 3.718618e+02
    endloop
  endfacet
  facet normal -1.000000e+00 0.000000e+00 0.000000e+00
    outer loop
      vertex -2.200000e+01 1.493771e+02 3.551408e+02
      vertex -2.200000e+01 1.448587e+02 3.562752e+02
      vertex -2.200000e+01 1.797297e+02 3.928789e+02
    endloop
  endfacet
  facet normal -1.000000e+00 0.000000e+00 0.000000e+00
    outer loop
      vertex -2.200000e+01 1.538576e+02 3.564167e+02
      vertex -2.200000e+01 1.493771e+02 3.551408e+02
      vertex -2.200000e+01 1.797297e+02 3.928789e+02
    endloop
  endfacet
  facet normal 0.000000e+00 -2.738905e-01 9.617609e-01
    outer loop
      vertex 2.000000e+00 1.842102e+02 3.941548e+02
      vertex -2.200000e+01 1.797297e+02 3.928789e+02
      vertex 2.000000e+00 1.797297e+02 3.928789e+02
    endloop
  endfacet
  facet normal -1.000000e+00 0.000000e+00 0.000000e+00
    outer loop
      vertex -2.200000e+01 1.415135e+02 3.595175e+02
      vertex -2.200000e+01 1.413720e+02 3.685160e+02
      vertex -2.200000e+01 1.446137e+02 3.718618e+02
    endloop
  endfacet
  facet normal 0.000000e+00 -7.181932e-01 6.958437e-01
    outer loop
      vertex 2.000000e+00 1.446137e+02 3.718618e+02
      vertex -2.200000e+01 1.446137e+02 3.718618e+02
      vertex -2.200000e+01 1.413720e+02 3.685160e+02
    endloop
  endfacet
  facet normal -1.000000e+00 0.000000e+00 0.000000e+00
    outer loop
      vertex -2.200000e+01 1.448587e+02 3.562752e+02
      vertex -2.200000e+01 1.415135e+02 3.595175e+02
      vertex -2.200000e+01 1.446137e+02 3.718618e+02
    endloop
  endfacet
  facet normal 0.000000e+00 -5.135519e-01 8.580586e-01
    outer loop
      vertex 2.000000e+00 1.797297e+02 3.928789e+02
      vertex -2.200000e+01 1.446137e+02 3.718618e+02
      vertex 2.000000e+00 1.446137e+02 3.718618e+02
    endloop
  endfacet
  facet normal -1.000000e+00 0.000000e+00 0.000000e+00
    outer loop
      vertex -2.200000e+01 1.415135e+02 3.595175e+02
      vertex -2.200000e+01 1.402368e+02 3.639978e+02
      vertex -2.200000e+01 1.413720e+02 3.685160e+02
    endloop
  endfacet
  facet normal -1.069771e-01 -9.642891e-01 2.422860e-01
    outer loop
      vertex -2.000000e+01 1.402836e+02 3.650674e+02
      vertex -2.200000e+01 1.413720e+02 3.685160e+02
      vertex -2.200000e+01 1.402368e+02 3.639978e+02
    endloop
  endfacet
  facet normal 0.000000e+00 -7.181932e-01 6.958437e-01
    outer loop
      vertex 2.000000e+00 1.446137e+02 3.718618e+02
      vertex -2.200000e+01 1.413720e+02 3.685160e+02
      vertex 2.000000e+00 1.413720e+02 3.685160e+02
    endloop
  endfacet
  facet normal 0.000000e+00 -9.536352e-01 3.009649e-01
    outer loop
      vertex -2.000000e+01 1.402836e+02 3.650674e+02
      vertex 2.000000e+00 1.413720e+02 3.685160e+02
      vertex -2.200000e+01 1.413720e+02 3.685160e+02
    endloop
  endfacet
  facet normal -1.264685e-01 -9.539930e-01 -2.718513e-01
    outer loop
      vertex -2.000000e+01 1.403662e+02 3.626129e+02
      vertex -2.200000e+01 1.402368e+02 3.639978e+02
      vertex -2.200000e+01 1.415135e+02 3.595175e+02
    endloop
  endfacet
  facet normal 4.138075e-02 -9.985779e-01 -3.361335e-02
    outer loop
      vertex -2.000000e+01 1.403662e+02 3.626129e+02
      vertex -2.000000e+01 1.402836e+02 3.650674e+02
      vertex -2.200000e+01 1.402368e+02 3.639978e+02
    endloop
  endfacet
  facet normal -1.364630e-01 -6.894535e-01 -7.113591e-01
    outer loop
      vertex -2.000000e+01 1.424568e+02 3.582196e+02
      vertex -2.200000e+01 1.415135e+02 3.595175e+02
      vertex -2.200000e+01 1.448587e+02 3.562752e+02
    endloop
  endfacet
  facet normal -7.852376e-02 -9.502461e-01 -3.014404e-01
    outer loop
      vertex -2.000000e+01 1.411088e+02 3.602722e+02
      vertex -2.000000e+01 1.403662e+02 3.626129e+02
      vertex -2.200000e+01 1.415135e+02 3.595175e+02
    endloop
  endfacet
  facet normal 3.797954e-02 -8.352674e-01 -5.485307e-01
    outer loop
      vertex -2.000000e+01 1.424568e+02 3.582196e+02
      vertex -2.000000e+01 1.411088e+02 3.602722e+02
      vertex -2.200000e+01 1.415135e+02 3.595175e+02
    endloop
  endfacet
  facet normal -1.438459e-01 -2.409891e-01 -9.598086e-01
    outer loop
      vertex -2.000000e+01 1.465290e+02 3.555561e+02
      vertex -2.200000e+01 1.448587e+02 3.562752e+02
      vertex -2.200000e+01 1.493771e+02 3.551408e+02
    endloop
  endfacet
  facet normal -5.506070e-02 -6.555180e-01 -7.531696e-01
    outer loop
      vertex -2.000000e+01 1.443092e+02 3.566073e+02
      vertex -2.000000e+01 1.424568e+02 3.582196e+02
      vertex -2.200000e+01 1.448587e+02 3.562752e+02
    endloop
  endfacet
  facet normal 3.244566e-02 -4.277575e-01 -9.033110e-01
    outer loop
      vertex -2.000000e+01 1.465290e+02 3.555561e+02
      vertex -2.000000e+01 1.443092e+02 3.566073e+02
      vertex -2.200000e+01 1.448587e+02 3.562752e+02
    endloop
  endfacet
  facet normal -1.488200e-01 2.708405e-01 -9.510510e-01
    outer loop
      vertex -2.000000e+01 1.513944e+02 3.554023e+02
      vertex -2.200000e+01 1.493771e+02 3.551408e+02
      vertex -2.200000e+01 1.538576e+02 3.564167e+02
    endloop
  endfacet
  facet normal -3.429406e-02 -1.677672e-01 -9.852300e-01
    outer loop
      vertex -2.000000e+01 1.489507e+02 3.551438e+02
      vertex -2.000000e+01 1.465290e+02 3.555561e+02
      vertex -2.200000e+01 1.493771e+02 3.551408e+02
    endloop
  endfacet
  facet normal 2.391337e-02 1.051742e-01 -9.941663e-01
    outer loop
      vertex -2.000000e+01 1.513944e+02 3.554023e+02
      vertex -2.000000e+01 1.489507e+02 3.551438e+02
      vertex -2.200000e+01 1.493771e+02 3.551408e+02
    endloop
  endfacet
  facet normal 0.000000e+00 5.033920e-01 -8.640582e-01
    outer loop
      vertex -6.455547e-13 1.536741e+02 3.563098e+02
      vertex -2.200000e+01 1.538576e+02 3.564167e+02
      vertex 2.000000e+00 1.538576e+02 3.564167e+02
    endloop
  endfacet
  facet normal -1.572662e-02 3.698119e-01 -9.289735e-01
    outer loop
      vertex -2.000000e+01 1.536741e+02 3.563098e+02
      vertex -2.000000e+01 1.513944e+02 3.554023e+02
      vertex -2.200000e+01 1.538576e+02 3.564167e+02
    endloop
  endfacet
  facet normal 1.740438e-15 5.033920e-01 -8.640582e-01
    outer loop
      vertex -6.455547e-13 1.536741e+02 3.563098e+02
      vertex -2.000000e+01 1.536741e+02 3.563098e+02
      vertex -2.200000e+01 1.538576e+02 3.564167e+02
    endloop
  endfacet
  facet normal 1.000000e+00 4.525884e-17 -1.665228e-18
    outer loop
      vertex 2.000000e+00 1.797297e+02 3.928789e+02
      vertex 2.000000e+00 1.538576e+02 3.564167e+02
      vertex 2.000000e+00 1.889736e+02 3.774338e+02
    endloop
  endfacet
  facet normal 1.000000e+00 4.933715e-17 7.756599e-19
    outer loop
      vertex 2.000000e+00 1.842102e+02 3.941548e+02
      vertex 2.000000e+00 1.797297e+02 3.928789e+02
      vertex 2.000000e+00 1.889736e+02 3.774338e+02
    endloop
  endfacet
  facet normal 1.000000e+00 4.933715e-17 7.756599e-19
    outer loop
      vertex 2.000000e+00 1.887286e+02 3.930203e+02
      vertex 2.000000e+00 1.842102e+02 3.941548e+02
      vertex 2.000000e+00 1.889736e+02 3.774338e+02
    endloop
  endfacet
  facet normal 1.000000e+00 0.000000e+00 0.000000e+00
    outer loop
      vertex 2.000000e+00 1.920738e+02 3.897781e+02
      vertex 2.000000e+00 1.887286e+02 3.930203e+02
      vertex 2.000000e+00 1.889736e+02 3.774338e+02
    endloop
  endfacet
  facet normal 1.000000e+00 0.000000e+00 0.000000e+00
    outer loop
      vertex 2.000000e+00 1.922153e+02 3.807796e+02
      vertex 2.000000e+00 1.920738e+02 3.897781e+02
      vertex 2.000000e+00 1.889736e+02 3.774338e+02
    endloop
  endfacet
  facet normal 1.000000e+00 3.497926e-18 -1.228290e-17
    outer loop
      vertex 2.000000e+00 1.446137e+02 3.718618e+02
      vertex 2.000000e+00 1.493771e+02 3.551408e+02
      vertex 2.000000e+00 1.538576e+02 3.564167e+02
    endloop
  endfacet
  facet normal 2.627142e-02 2.737959e-01 -9.614289e-01
    outer loop
      vertex -6.455547e-13 1.536741e+02 3.563098e+02
      vertex 2.000000e+00 1.538576e+02 3.564167e+02
      vertex 2.000000e+00 1.493771e+02 3.551408e+02
    endloop
  endfacet
  facet normal 1.000000e+00 3.426823e-17 6.133268e-18
    outer loop
      vertex 2.000000e+00 1.797297e+02 3.928789e+02
      vertex 2.000000e+00 1.446137e+02 3.718618e+02
      vertex 2.000000e+00 1.538576e+02 3.564167e+02
    endloop
  endfacet
  facet normal 1.000000e+00 4.933715e-17 7.756599e-19
    outer loop
      vertex 2.000000e+00 1.446137e+02 3.718618e+02
      vertex 2.000000e+00 1.448587e+02 3.562752e+02
      vertex 2.000000e+00 1.493771e+02 3.551408e+02
    endloop
  endfacet
  facet normal 5.040456e-02 -2.432122e-01 -9.686626e-01
    outer loop
      vertex -6.453682e-13 1.489507e+02 3.551438e+02
      vertex 2.000000e+00 1.493771e+02 3.551408e+02
      vertex 2.000000e+00 1.448587e+02 3.562752e+02
    endloop
  endfacet
  facet normal 2.439622e-01 3.586823e-01 -9.010158e-01
    outer loop
      vertex -6.454647e-13 1.513944e+02 3.554023e+02
      vertex -6.455547e-13 1.536741e+02 3.563098e+02
      vertex 2.000000e+00 1.493771e+02 3.551408e+02
    endloop
  endfacet
  facet normal -2.391337e-02 1.051742e-01 -9.941663e-01
    outer loop
      vertex -6.453682e-13 1.489507e+02 3.551438e+02
      vertex -6.454647e-13 1.513944e+02 3.554023e+02
      vertex 2.000000e+00 1.493771e+02 3.551408e+02
    endloop
  endfacet
  facet normal 1.000000e+00 6.740296e-17 1.059684e-18
    outer loop
      vertex 2.000000e+00 1.446137e+02 3.718618e+02
      vertex 2.000000e+00 1.415135e+02 3.595175e+02
      vertex 2.000000e+00 1.448587e+02 3.562752e+02
    endloop
  endfacet
  facet normal 7.181404e-02 -6.941672e-01 -7.162225e-01
    outer loop
      vertex -6.451850e-13 1.443092e+02 3.566073e+02
      vertex 2.000000e+00 1.448587e+02 3.562752e+02
      vertex 2.000000e+00 1.415135e+02 3.595175e+02
    endloop
  endfacet
  facet normal 2.095076e-01 -1.641405e-01 -9.639318e-01
    outer loop
      vertex -6.452726e-13 1.465290e+02 3.555561e+02
      vertex -6.453682e-13 1.489507e+02 3.551438e+02
      vertex 2.000000e+00 1.448587e+02 3.562752e+02
    endloop
  endfacet
  facet normal -3.244566e-02 -4.277575e-01 -9.033110e-01
    outer loop
      vertex -6.451850e-13 1.443092e+02 3.566073e+02
      vertex -6.452726e-13 1.465290e+02 3.555561e+02
      vertex 2.000000e+00 1.448587e+02 3.562752e+02
    endloop
  endfacet
  facet normal 1.000000e+00 0.000000e+00 0.000000e+00
    outer loop
      vertex 2.000000e+00 1.413720e+02 3.685160e+02
      vertex 2.000000e+00 1.402368e+02 3.639978e+02
      vertex 2.000000e+00 1.415135e+02 3.595175e+02
    endloop
  endfacet
  facet normal 9.080271e-02 -9.577420e-01 -2.729196e-01
    outer loop
      vertex -6.450587e-13 1.411088e+02 3.602722e+02
      vertex 2.000000e+00 1.415135e+02 3.595175e+02
      vertex 2.000000e+00 1.402368e+02 3.639978e+02
    endloop
  endfacet
  facet normal 1.000000e+00 6.740296e-17 1.059684e-18
    outer loop
      vertex 2.000000e+00 1.446137e+02 3.718618e+02
      vertex 2.000000e+00 1.413720e+02 3.685160e+02
      vertex 2.000000e+00 1.415135e+02 3.595175e+02
    endloop
  endfacet
  facet normal 1.770338e-01 -6.461442e-01 -7.423993e-01
    outer loop
      vertex -6.451119e-13 1.424568e+02 3.582196e+02
      vertex -6.451850e-13 1.443092e+02 3.566073e+02
      vertex 2.000000e+00 1.415135e+02 3.595175e+02
    endloop
  endfacet
  facet normal -3.797954e-02 -8.352674e-01 -5.485307e-01
    outer loop
      vertex -6.450587e-13 1.411088e+02 3.602722e+02
      vertex -6.451119e-13 1.424568e+02 3.582196e+02
      vertex 2.000000e+00 1.415135e+02 3.595175e+02
    endloop
  endfacet
  facet normal 1.069771e-01 -9.642891e-01 2.422860e-01
    outer loop
      vertex -6.450261e-13 1.402836e+02 3.650674e+02
      vertex 2.000000e+00 1.402368e+02 3.639978e+02
      vertex 2.000000e+00 1.413720e+02 3.685160e+02
    endloop
  endfacet
  facet normal 1.460716e-01 -9.429654e-01 -2.991308e-01
    outer loop
      vertex -6.450294e-13 1.403662e+02 3.626129e+02
      vertex -6.450587e-13 1.411088e+02 3.602722e+02
      vertex 2.000000e+00 1.402368e+02 3.639978e+02
    endloop
  endfacet
  facet normal -4.138075e-02 -9.985779e-01 -3.361335e-02
    outer loop
      vertex -6.450261e-13 1.402836e+02 3.650674e+02
      vertex -6.450294e-13 1.403662e+02 3.626129e+02
      vertex 2.000000e+00 1.402368e+02 3.639978e+02
    endloop
  endfacet
  facet normal 0.000000e+00 -9.536352e-01 3.009649e-01
    outer loop
      vertex -6.450261e-13 1.402836e+02 3.650674e+02
      vertex 2.000000e+00 1.413720e+02 3.685160e+02
      vertex -2.000000e+01 1.402836e+02 3.650674e+02
    endloop
  endfacet
  facet normal 1.000000e+00 0.000000e+00 0.000000e+00
    outer loop
      vertex 2.000000e+00 1.922153e+02 3.807796e+02
      vertex 2.000000e+00 1.933506e+02 3.852978e+02
      vertex 2.000000e+00 1.920738e+02 3.897781e+02
    endloop
  endfacet
  facet normal -1.000000e+00 -2.411301e-16 -8.116732e-18
    outer loop
      vertex -2.000000e+01 1.262712e+02 3.436422e+02
      vertex -2.000000e+01 1.402836e+02 3.650674e+02
      vertex -2.000000e+01 1.403662e+02 3.626129e+02
    endloop
  endfacet
  facet normal 0.000000e+00 -8.369045e-01 5.473490e-01
    outer loop
      vertex -2.000000e+01 1.262712e+02 3.436422e+02
      vertex -6.450261e-13 1.402836e+02 3.650674e+02
      vertex -2.000000e+01 1.402836e+02 3.650674e+02
    endloop
  endfacet
  facet normal -1.000000e+00 -1.766379e-16 -5.603372e-17
    outer loop
      vertex -2.000000e+01 1.262712e+02 3.436422e+02
      vertex -2.000000e+01 1.403662e+02 3.626129e+02
      vertex -2.000000e+01 1.411088e+02 3.602722e+02
    endloop
  endfacet
  facet normal -1.000000e+00 -1.379231e-16 -9.057585e-17
    outer loop
      vertex -2.000000e+01 1.262712e+02 3.436422e+02
      vertex -2.000000e+01 1.411088e+02 3.602722e+02
      vertex -2.000000e+01 1.424568e+02 3.582196e+02
    endloop
  endfacet
  facet normal -1.000000e+00 -1.078723e-16 -1.239419e-16
    outer loop
      vertex -2.000000e+01 1.262712e+02 3.436422e+02
      vertex -2.000000e+01 1.424568e+02 3.582196e+02
      vertex -2.000000e+01 1.443092e+02 3.566073e+02
    endloop
  endfacet
  facet normal -1.000000e+00 -7.822469e-17 -1.651899e-16
    outer loop
      vertex -2.000000e+01 1.262712e+02 3.436422e+02
      vertex -2.000000e+01 1.443092e+02 3.566073e+02
      vertex -2.000000e+01 1.465290e+02 3.555561e+02
    endloop
  endfacet
  facet normal -1.000000e+00 -3.937687e-17 -2.312447e-16
    outer loop
      vertex -2.000000e+01 1.262712e+02 3.436422e+02
      vertex -2.000000e+01 1.465290e+02 3.555561e+02
      vertex -2.000000e+01 1.489507e+02 3.551438e+02
    endloop
  endfacet
  facet normal -1.000000e+00 0.000000e+00 0.000000e+00
    outer loop
      vertex -2.000000e+01 1.396617e+02 3.348846e+02
      vertex -2.000000e+01 1.489507e+02 3.551438e+02
      vertex -2.000000e+01 1.513944e+02 3.554023e+02
    endloop
  endfacet
  facet normal -1.000000e+00 -2.041097e-16 9.358619e-17
    outer loop
      vertex -2.000000e+01 1.396617e+02 3.348846e+02
      vertex -2.000000e+01 1.262712e+02 3.436422e+02
      vertex -2.000000e+01 1.489507e+02 3.551438e+02
    endloop
  endfacet
  facet normal -1.000000e+00 0.000000e+00 0.000000e+00
    outer loop
      vertex -2.000000e+01 1.396617e+02 3.348846e+02
      vertex -2.000000e+01 1.513944e+02 3.554023e+02
      vertex -2.000000e+01 1.536741e+02 3.563098e+02
    endloop
  endfacet
  facet normal 3.330606e-16 8.369045e-01 -5.473490e-01
    outer loop
      vertex -6.450016e-13 1.396617e+02 3.348846e+02
      vertex -2.000000e+01 1.536741e+02 3.563098e+02
      vertex -6.455547e-13 1.536741e+02 3.563098e+02
    endloop
  endfacet
  facet normal 0.000000e+00 8.369045e-01 -5.473490e-01
    outer loop
      vertex -6.450016e-13 1.396617e+02 3.348846e+02
      vertex -2.000000e+01 1.396617e+02 3.348846e+02
      vertex -2.000000e+01 1.536741e+02 3.563098e+02
    endloop
  endfacet
  facet normal 1.000000e+00 3.947460e-17 -3.974079e-28
    outer loop
      vertex -6.444730e-13 1.262712e+02 3.436422e+02
      vertex -6.455547e-13 1.536741e+02 3.563098e+02
      vertex -6.454647e-13 1.513944e+02 3.554023e+02
    endloop
  endfacet
  facet normal 1.000000e+00 3.947460e-17 6.492170e-30
    outer loop
      vertex -6.444555e-13 1.258275e+02 3.356538e+02
      vertex -6.450016e-13 1.396617e+02 3.348846e+02
      vertex -6.455547e-13 1.536741e+02 3.563098e+02
    endloop
  endfacet
  facet normal 1.000000e+00 3.947460e-17 -9.256906e-30
    outer loop
      vertex -6.444220e-13 1.249793e+02 3.397091e+02
      vertex -6.444555e-13 1.258275e+02 3.356538e+02
      vertex -6.455547e-13 1.536741e+02 3.563098e+02
    endloop
  endfacet
  facet normal 1.000000e+00 3.947460e-17 9.071811e-30
    outer loop
      vertex -6.444730e-13 1.262712e+02 3.436422e+02
      vertex -6.444220e-13 1.249793e+02 3.397091e+02
      vertex -6.455547e-13 1.536741e+02 3.563098e+02
    endloop
  endfacet
  facet normal 1.000000e+00 3.947460e-17 -1.886775e-29
    outer loop
      vertex -6.444730e-13 1.262712e+02 3.436422e+02
      vertex -6.454647e-13 1.513944e+02 3.554023e+02
      vertex -6.453682e-13 1.489507e+02 3.551438e+02
    endloop
  endfacet
  facet normal 1.000000e+00 3.947460e-17 3.519661e-29
    outer loop
      vertex -6.444730e-13 1.262712e+02 3.436422e+02
      vertex -6.453682e-13 1.489507e+02 3.551438e+02
      vertex -6.452726e-13 1.465290e+02 3.555561e+02
    endloop
  endfacet
  facet normal 1.000000e+00 3.947460e-17 -1.487149e-29
    outer loop
      vertex -6.444730e-13 1.262712e+02 3.436422e+02
      vertex -6.452726e-13 1.465290e+02 3.555561e+02
      vertex -6.451850e-13 1.443092e+02 3.566073e+02
    endloop
  endfacet
  facet normal 1.000000e+00 3.947460e-17 1.441070e-29
    outer loop
      vertex -6.444730e-13 1.262712e+02 3.436422e+02
      vertex -6.451850e-13 1.443092e+02 3.566073e+02
      vertex -6.451119e-13 1.424568e+02 3.582196e+02
    endloop
  endfacet
  facet normal 1.000000e+00 3.947460e-17 0.000000e+00
    outer loop
      vertex -6.444730e-13 1.262712e+02 3.436422e+02
      vertex -6.451119e-13 1.424568e+02 3.582196e+02
      vertex -6.450587e-13 1.411088e+02 3.602722e+02
    endloop
  endfacet
  facet normal 1.000000e+00 3.947460e-17 -3.552288e-30
    outer loop
      vertex -6.444730e-13 1.262712e+02 3.436422e+02
      vertex -6.450587e-13 1.411088e+02 3.602722e+02
      vertex -6.450294e-13 1.403662e+02 3.626129e+02
    endloop
  endfacet
  facet normal 1.000000e+00 3.947460e-17 -1.836726e-29
    outer loop
      vertex -6.444730e-13 1.262712e+02 3.436422e+02
      vertex -6.450294e-13 1.403662e+02 3.626129e+02
      vertex -6.450261e-13 1.402836e+02 3.650674e+02
    endloop
  endfacet
  facet normal 0.000000e+00 -8.369045e-01 5.473490e-01
    outer loop
      vertex -6.444730e-13 1.262712e+02 3.436422e+02
      vertex -6.450261e-13 1.402836e+02 3.650674e+02
      vertex -2.000000e+01 1.262712e+02 3.436422e+02
    endloop
  endfacet
  facet normal -1.000000e+00 -2.183978e-16 7.173944e-17
    outer loop
      vertex -2.000000e+01 1.396617e+02 3.348846e+02
      vertex -2.000000e+01 1.249793e+02 3.397091e+02
      vertex -2.000000e+01 1.262712e+02 3.436422e+02
    endloop
  endfacet
  facet normal 0.000000e+00 -9.500573e-01 3.120754e-01
    outer loop
      vertex -6.444730e-13 1.262712e+02 3.436422e+02
      vertex -2.000000e+01 1.262712e+02 3.436422e+02
      vertex -2.000000e+01 1.249793e+02 3.397091e+02
    endloop
  endfacet
  facet normal -1.000000e+00 -2.598290e-16 -5.435052e-17
    outer loop
      vertex -2.000000e+01 1.396617e+02 3.348846e+02
      vertex -2.000000e+01 1.258275e+02 3.356538e+02
      vertex -2.000000e+01 1.249793e+02 3.397091e+02
    endloop
  endfacet
  facet normal 0.000000e+00 -9.788150e-01 -2.047466e-01
    outer loop
      vertex -6.444220e-13 1.249793e+02 3.397091e+02
      vertex -2.000000e+01 1.249793e+02 3.397091e+02
      vertex -2.000000e+01 1.258275e+02 3.356538e+02
    endloop
  endfacet
  facet normal 0.000000e+00 -9.500573e-01 3.120754e-01
    outer loop
      vertex -6.444730e-13 1.262712e+02 3.436422e+02
      vertex -2.000000e+01 1.249793e+02 3.397091e+02
      vertex -6.444220e-13 1.249793e+02 3.397091e+02
    endloop
  endfacet
  facet normal -1.000000e+00 -2.702472e-16 -2.417450e-16
    outer loop
      vertex -2.000000e+01 1.396617e+02 3.348846e+02
      vertex -2.000000e+01 1.285877e+02 3.325682e+02
      vertex -2.000000e+01 1.258275e+02 3.356538e+02
    endloop
  endfacet
  facet normal 0.000000e+00 -7.453168e-01 -6.667105e-01
    outer loop
      vertex -6.444555e-13 1.258275e+02 3.356538e+02
      vertex -2.000000e+01 1.258275e+02 3.356538e+02
      vertex -2.000000e+01 1.285877e+02 3.325682e+02
    endloop
  endfacet
  facet normal 0.000000e+00 -9.788150e-01 -2.047466e-01
    outer loop
      vertex -6.444220e-13 1.249793e+02 3.397091e+02
      vertex -2.000000e+01 1.258275e+02 3.356538e+02
      vertex -6.444555e-13 1.258275e+02 3.356538e+02
    endloop
  endfacet
  facet normal -1.000000e+00 -5.352291e-16 -1.629409e-15
    outer loop
      vertex -2.000000e+01 1.365761e+02 3.321245e+02
      vertex -2.000000e+01 1.325208e+02 3.312762e+02
      vertex -2.000000e+01 1.285877e+02 3.325682e+02
    endloop
  endfacet
  facet normal 0.000000e+00 -3.120754e-01 -9.500573e-01
    outer loop
      vertex -6.445644e-13 1.285877e+02 3.325682e+02
      vertex -2.000000e+01 1.285877e+02 3.325682e+02
      vertex -2.000000e+01 1.325208e+02 3.312762e+02
    endloop
  endfacet
  facet normal -1.000000e+00 -4.187313e-16 4.681005e-16
    outer loop
      vertex -2.000000e+01 1.396617e+02 3.348846e+02
      vertex -2.000000e+01 1.365761e+02 3.321245e+02
      vertex -2.000000e+01 1.285877e+02 3.325682e+02
    endloop
  endfacet
  facet normal 0.000000e+00 -7.453168e-01 -6.667105e-01
    outer loop
      vertex -6.444555e-13 1.258275e+02 3.356538e+02
      vertex -2.000000e+01 1.285877e+02 3.325682e+02
      vertex -6.445644e-13 1.285877e+02 3.325682e+02
    endloop
  endfacet
  facet normal 0.000000e+00 2.047466e-01 -9.788150e-01
    outer loop
      vertex -6.447197e-13 1.325208e+02 3.312762e+02
      vertex -2.000000e+01 1.325208e+02 3.312762e+02
      vertex -2.000000e+01 1.365761e+02 3.321245e+02
    endloop
  endfacet
  facet normal 0.000000e+00 -3.120754e-01 -9.500573e-01
    outer loop
      vertex -6.445644e-13 1.285877e+02 3.325682e+02
      vertex -2.000000e+01 1.325208e+02 3.312762e+02
      vertex -6.447197e-13 1.325208e+02 3.312762e+02
    endloop
  endfacet
  facet normal 0.000000e+00 6.667105e-01 -7.453168e-01
    outer loop
      vertex -6.448798e-13 1.365761e+02 3.321245e+02
      vertex -2.000000e+01 1.365761e+02 3.321245e+02
      vertex -2.000000e+01 1.396617e+02 3.348846e+02
    endloop
  endfacet
  facet normal 0.000000e+00 2.047466e-01 -9.788150e-01
    outer loop
      vertex -6.447197e-13 1.325208e+02 3.312762e+02
      vertex -2.000000e+01 1.365761e+02 3.321245e+02
      vertex -6.448798e-13 1.365761e+02 3.321245e+02
    endloop
  endfacet
  facet normal 0.000000e+00 6.667105e-01 -7.453168e-01
    outer loop
      vertex -6.448798e-13 1.365761e+02 3.321245e+02
      vertex -2.000000e+01 1.396617e+02 3.348846e+02
      vertex -6.450016e-13 1.396617e+02 3.348846e+02
    endloop
  endfacet
  facet normal 1.000000e+00 3.947460e-17 -3.257409e-29
    outer loop
      vertex -6.445644e-13 1.285877e+02 3.325682e+02
      vertex -6.448798e-13 1.365761e+02 3.321245e+02
      vertex -6.450016e-13 1.396617e+02 3.348846e+02
    endloop
  endfacet
  facet normal 1.000000e+00 3.947460e-17 8.279853e-30
    outer loop
      vertex -6.444555e-13 1.258275e+02 3.356538e+02
      vertex -6.445644e-13 1.285877e+02 3.325682e+02
      vertex -6.450016e-13 1.396617e+02 3.348846e+02
    endloop
  endfacet
  facet normal 1.000000e+00 3.947460e-17 -5.496242e-30
    outer loop
      vertex -6.445644e-13 1.285877e+02 3.325682e+02
      vertex -6.447197e-13 1.325208e+02 3.312762e+02
      vertex -6.448798e-13 1.365761e+02 3.321245e+02
    endloop
  endfacet
endsolid SIM_CER_L_HAND_THUMB
