solid SIM_CER_R_UPPERARM
  facet normal 2.158876e-19 5.353047e-04 9.999999e-01
    outer loop
      vertex -4.523657e+01 -2.038814e+02 8.600251e+02
      vertex 2.523657e+01 -2.038814e+02 8.600251e+02
      vertex 2.750000e+01 -1.910589e+02 8.600182e+02
    endloop
  endfacet
  facet normal 9.847752e-01 -1.738329e-01 9.305360e-05
    outer loop
      vertex 2.750000e+01 -1.911344e+02 7.190182e+02
      vertex 2.750000e+01 -1.910589e+02 8.600182e+02
      vertex 2.523657e+01 -2.038814e+02 8.600251e+02
    endloop
  endfacet
  facet normal 0.000000e+00 5.353047e-04 9.999999e-01
    outer loop
      vertex -4.750000e+01 -1.910589e+02 8.600182e+02
      vertex -4.523657e+01 -2.038814e+02 8.600251e+02
      vertex 2.750000e+01 -1.910589e+02 8.600182e+02
    endloop
  endfacet
  facet normal 0.000000e+00 5.353047e-04 9.999999e-01
    outer loop
      vertex 2.523657e+01 -1.782364e+02 8.600114e+02
      vertex -4.750000e+01 -1.910589e+02 8.600182e+02
      vertex 2.750000e+01 -1.910589e+02 8.600182e+02
    endloop
  endfacet
  facet normal 9.847752e-01 1.738329e-01 -9.305360e-05
    outer loop
      vertex 2.523657e+01 -1.783119e+02 7.190114e+02
      vertex 2.523657e+01 -1.782364e+02 8.600114e+02
      vertex 2.750000e+01 -1.910589e+02 8.600182e+02
    endloop
  endfacet
  facet normal 9.847752e-01 1.738329e-01 -9.305360e-05
    outer loop
      vertex 2.523657e+01 -1.783119e+02 7.190114e+02
      vertex 2.750000e+01 -1.910589e+02 8.600182e+02
      vertex 2.750000e+01 -1.911344e+02 7.190182e+02
    endloop
  endfacet
  facet normal -2.648545e-19 5.353047e-04 9.999999e-01
    outer loop
      vertex -3.872195e+01 -2.151683e+02 8.600311e+02
      vertex 1.872195e+01 -2.151683e+02 8.600311e+02
      vertex 2.523657e+01 -2.038814e+02 8.600251e+02
    endloop
  endfacet
  facet normal 8.660888e-01 -4.998901e-01 2.675936e-04
    outer loop
      vertex 2.523657e+01 -2.039568e+02 7.190251e+02
      vertex 2.523657e+01 -2.038814e+02 8.600251e+02
      vertex 1.872195e+01 -2.151683e+02 8.600311e+02
    endloop
  endfacet
  facet normal 2.158876e-19 5.353047e-04 9.999999e-01
    outer loop
      vertex -4.523657e+01 -2.038814e+02 8.600251e+02
      vertex -3.872195e+01 -2.151683e+02 8.600311e+02
      vertex 2.523657e+01 -2.038814e+02 8.600251e+02
    endloop
  endfacet
  facet normal 9.847752e-01 -1.738329e-01 9.305360e-05
    outer loop
      vertex 2.523657e+01 -2.039568e+02 7.190251e+02
      vertex 2.750000e+01 -1.911344e+02 7.190182e+02
      vertex 2.523657e+01 -2.038814e+02 8.600251e+02
    endloop
  endfacet
  facet normal 0.000000e+00 5.353047e-04 9.999999e-01
    outer loop
      vertex -2.875451e+01 -2.235295e+02 8.600356e+02
      vertex 8.754508e+00 -2.235295e+02 8.600356e+02
      vertex 1.872195e+01 -2.151683e+02 8.600311e+02
    endloop
  endfacet
  facet normal 6.426757e-01 -7.661382e-01 4.101175e-04
    outer loop
      vertex 1.872195e+01 -2.152438e+02 7.190311e+02
      vertex 1.872195e+01 -2.151683e+02 8.600311e+02
      vertex 8.754508e+00 -2.235295e+02 8.600356e+02
    endloop
  endfacet
  facet normal -2.648545e-19 5.353047e-04 9.999999e-01
    outer loop
      vertex -3.872195e+01 -2.151683e+02 8.600311e+02
      vertex -2.875451e+01 -2.235295e+02 8.600356e+02
      vertex 1.872195e+01 -2.151683e+02 8.600311e+02
    endloop
  endfacet
  facet normal 8.660888e-01 -4.998901e-01 2.675936e-04
    outer loop
      vertex 2.523657e+01 -2.039568e+02 7.190251e+02
      vertex 1.872195e+01 -2.151683e+02 8.600311e+02
      vertex 1.872195e+01 -2.152438e+02 7.190311e+02
    endloop
  endfacet
  facet normal 0.000000e+00 5.353047e-04 9.999999e-01
    outer loop
      vertex -1.650319e+01 -2.279892e+02 8.600380e+02
      vertex -3.496808e+00 -2.279892e+02 8.600380e+02
      vertex 8.754508e+00 -2.235295e+02 8.600356e+02
    endloop
  endfacet
  facet normal 3.420621e-01 -9.396772e-01 5.030137e-04
    outer loop
      vertex 8.754508e+00 -2.236050e+02 7.190356e+02
      vertex 8.754508e+00 -2.235295e+02 8.600356e+02
      vertex -3.496808e+00 -2.279892e+02 8.600380e+02
    endloop
  endfacet
  facet normal 0.000000e+00 5.353047e-04 9.999999e-01
    outer loop
      vertex -2.875451e+01 -2.235295e+02 8.600356e+02
      vertex -1.650319e+01 -2.279892e+02 8.600380e+02
      vertex 8.754508e+00 -2.235295e+02 8.600356e+02
    endloop
  endfacet
  facet normal 6.426757e-01 -7.661382e-01 4.101175e-04
    outer loop
      vertex 1.872195e+01 -2.152438e+02 7.190311e+02
      vertex 8.754508e+00 -2.235295e+02 8.600356e+02
      vertex 8.754508e+00 -2.236050e+02 7.190356e+02
    endloop
  endfacet
  facet normal 0.000000e+00 -9.999999e-01 5.353047e-04
    outer loop
      vertex -3.496808e+00 -2.280647e+02 7.190380e+02
      vertex -3.496808e+00 -2.279892e+02 8.600380e+02
      vertex -1.650319e+01 -2.279892e+02 8.600380e+02
    endloop
  endfacet
  facet normal 3.420621e-01 -9.396772e-01 5.030137e-04
    outer loop
      vertex 8.754508e+00 -2.236050e+02 7.190356e+02
      vertex -3.496808e+00 -2.279892e+02 8.600380e+02
      vertex -3.496808e+00 -2.280647e+02 7.190380e+02
    endloop
  endfacet
  facet normal -3.420621e-01 -9.396772e-01 5.030137e-04
    outer loop
      vertex -1.650319e+01 -2.280647e+02 7.190380e+02
      vertex -1.650319e+01 -2.279892e+02 8.600380e+02
      vertex -2.875451e+01 -2.235295e+02 8.600356e+02
    endloop
  endfacet
  facet normal 0.000000e+00 -9.999999e-01 5.353047e-04
    outer loop
      vertex -3.496808e+00 -2.280647e+02 7.190380e+02
      vertex -1.650319e+01 -2.279892e+02 8.600380e+02
      vertex -1.650319e+01 -2.280647e+02 7.190380e+02
    endloop
  endfacet
  facet normal -6.426757e-01 -7.661382e-01 4.101175e-04
    outer loop
      vertex -2.875451e+01 -2.236050e+02 7.190356e+02
      vertex -2.875451e+01 -2.235295e+02 8.600356e+02
      vertex -3.872195e+01 -2.151683e+02 8.600311e+02
    endloop
  endfacet
  facet normal -3.420621e-01 -9.396772e-01 5.030137e-04
    outer loop
      vertex -1.650319e+01 -2.280647e+02 7.190380e+02
      vertex -2.875451e+01 -2.235295e+02 8.600356e+02
      vertex -2.875451e+01 -2.236050e+02 7.190356e+02
    endloop
  endfacet
  facet normal -8.660888e-01 -4.998901e-01 2.675936e-04
    outer loop
      vertex -3.872195e+01 -2.152438e+02 7.190311e+02
      vertex -3.872195e+01 -2.151683e+02 8.600311e+02
      vertex -4.523657e+01 -2.038814e+02 8.600251e+02
    endloop
  endfacet
  facet normal -6.426757e-01 -7.661382e-01 4.101175e-04
    outer loop
      vertex -2.875451e+01 -2.236050e+02 7.190356e+02
      vertex -3.872195e+01 -2.151683e+02 8.600311e+02
      vertex -3.872195e+01 -2.152438e+02 7.190311e+02
    endloop
  endfacet
  facet normal -9.847752e-01 -1.738329e-01 9.305360e-05
    outer loop
      vertex -4.523657e+01 -2.039568e+02 7.190251e+02
      vertex -4.523657e+01 -2.038814e+02 8.600251e+02
      vertex -4.750000e+01 -1.910589e+02 8.600182e+02
    endloop
  endfacet
  facet normal -8.660888e-01 -4.998901e-01 2.675936e-04
    outer loop
      vertex -3.872195e+01 -2.152438e+02 7.190311e+02
      vertex -4.523657e+01 -2.038814e+02 8.600251e+02
      vertex -4.523657e+01 -2.039568e+02 7.190251e+02
    endloop
  endfacet
  facet normal 0.000000e+00 5.353047e-04 9.999999e-01
    outer loop
      vertex 2.523657e+01 -1.782364e+02 8.600114e+02
      vertex -4.523657e+01 -1.782364e+02 8.600114e+02
      vertex -4.750000e+01 -1.910589e+02 8.600182e+02
    endloop
  endfacet
  facet normal -9.847752e-01 1.738329e-01 -9.305360e-05
    outer loop
      vertex -4.750000e+01 -1.911344e+02 7.190182e+02
      vertex -4.750000e+01 -1.910589e+02 8.600182e+02
      vertex -4.523657e+01 -1.782364e+02 8.600114e+02
    endloop
  endfacet
  facet normal -9.847752e-01 -1.738329e-01 9.305360e-05
    outer loop
      vertex -4.523657e+01 -2.039568e+02 7.190251e+02
      vertex -4.750000e+01 -1.910589e+02 8.600182e+02
      vertex -4.750000e+01 -1.911344e+02 7.190182e+02
    endloop
  endfacet
  facet normal 2.648545e-19 5.353047e-04 9.999999e-01
    outer loop
      vertex 1.872195e+01 -1.669495e+02 8.600053e+02
      vertex -3.872195e+01 -1.669495e+02 8.600053e+02
      vertex -4.523657e+01 -1.782364e+02 8.600114e+02
    endloop
  endfacet
  facet normal -8.660888e-01 4.998901e-01 -2.675936e-04
    outer loop
      vertex -4.523657e+01 -1.783119e+02 7.190114e+02
      vertex -4.523657e+01 -1.782364e+02 8.600114e+02
      vertex -3.872195e+01 -1.669495e+02 8.600053e+02
    endloop
  endfacet
  facet normal 0.000000e+00 5.353047e-04 9.999999e-01
    outer loop
      vertex 2.523657e+01 -1.782364e+02 8.600114e+02
      vertex 1.872195e+01 -1.669495e+02 8.600053e+02
      vertex -4.523657e+01 -1.782364e+02 8.600114e+02
    endloop
  endfacet
  facet normal -9.847752e-01 1.738329e-01 -9.305360e-05
    outer loop
      vertex -4.750000e+01 -1.911344e+02 7.190182e+02
      vertex -4.523657e+01 -1.782364e+02 8.600114e+02
      vertex -4.523657e+01 -1.783119e+02 7.190114e+02
    endloop
  endfacet
  facet normal 0.000000e+00 5.353047e-04 9.999999e-01
    outer loop
      vertex 8.754508e+00 -1.585883e+02 8.600008e+02
      vertex -2.875451e+01 -1.585883e+02 8.600008e+02
      vertex -3.872195e+01 -1.669495e+02 8.600053e+02
    endloop
  endfacet
  facet normal -6.426757e-01 7.661382e-01 -4.101175e-04
    outer loop
      vertex -3.872195e+01 -1.670249e+02 7.190053e+02
      vertex -3.872195e+01 -1.669495e+02 8.600053e+02
      vertex -2.875451e+01 -1.585883e+02 8.600008e+02
    endloop
  endfacet
  facet normal 2.648545e-19 5.353047e-04 9.999999e-01
    outer loop
      vertex 1.872195e+01 -1.669495e+02 8.600053e+02
      vertex 8.754508e+00 -1.585883e+02 8.600008e+02
      vertex -3.872195e+01 -1.669495e+02 8.600053e+02
    endloop
  endfacet
  facet normal -8.660888e-01 4.998901e-01 -2.675936e-04
    outer loop
      vertex -4.523657e+01 -1.783119e+02 7.190114e+02
      vertex -3.872195e+01 -1.669495e+02 8.600053e+02
      vertex -3.872195e+01 -1.670249e+02 7.190053e+02
    endloop
  endfacet
  facet normal 0.000000e+00 5.353047e-04 9.999999e-01
    outer loop
      vertex -3.496808e+00 -1.541285e+02 8.599984e+02
      vertex -1.650319e+01 -1.541285e+02 8.599984e+02
      vertex -2.875451e+01 -1.585883e+02 8.600008e+02
    endloop
  endfacet
  facet normal -3.420621e-01 9.396772e-01 -5.030137e-04
    outer loop
      vertex -2.875451e+01 -1.586637e+02 7.190009e+02
      vertex -2.875451e+01 -1.585883e+02 8.600008e+02
      vertex -1.650319e+01 -1.541285e+02 8.599984e+02
    endloop
  endfacet
  facet normal 0.000000e+00 5.353047e-04 9.999999e-01
    outer loop
      vertex 8.754508e+00 -1.585883e+02 8.600008e+02
      vertex -3.496808e+00 -1.541285e+02 8.599984e+02
      vertex -2.875451e+01 -1.585883e+02 8.600008e+02
    endloop
  endfacet
  facet normal -6.426757e-01 7.661382e-01 -4.101175e-04
    outer loop
      vertex -3.872195e+01 -1.670249e+02 7.190053e+02
      vertex -2.875451e+01 -1.585883e+02 8.600008e+02
      vertex -2.875451e+01 -1.586637e+02 7.190009e+02
    endloop
  endfacet
  facet normal 0.000000e+00 9.999999e-01 -5.353047e-04
    outer loop
      vertex -1.650319e+01 -1.542040e+02 7.189985e+02
      vertex -1.650319e+01 -1.541285e+02 8.599984e+02
      vertex -3.496808e+00 -1.541285e+02 8.599984e+02
    endloop
  endfacet
  facet normal -3.420621e-01 9.396772e-01 -5.030137e-04
    outer loop
      vertex -2.875451e+01 -1.586637e+02 7.190009e+02
      vertex -1.650319e+01 -1.541285e+02 8.599984e+02
      vertex -1.650319e+01 -1.542040e+02 7.189985e+02
    endloop
  endfacet
  facet normal 3.420621e-01 9.396772e-01 -5.030137e-04
    outer loop
      vertex -3.496808e+00 -1.542040e+02 7.189985e+02
      vertex -3.496808e+00 -1.541285e+02 8.599984e+02
      vertex 8.754508e+00 -1.585883e+02 8.600008e+02
    endloop
  endfacet
  facet normal 0.000000e+00 9.999999e-01 -5.353047e-04
    outer loop
      vertex -1.650319e+01 -1.542040e+02 7.189985e+02
      vertex -3.496808e+00 -1.541285e+02 8.599984e+02
      vertex -3.496808e+00 -1.542040e+02 7.189985e+02
    endloop
  endfacet
  facet normal 6.426757e-01 7.661382e-01 -4.101175e-04
    outer loop
      vertex 8.754508e+00 -1.586637e+02 7.190009e+02
      vertex 8.754508e+00 -1.585883e+02 8.600008e+02
      vertex 1.872195e+01 -1.669495e+02 8.600053e+02
    endloop
  endfacet
  facet normal 3.420621e-01 9.396772e-01 -5.030137e-04
    outer loop
      vertex -3.496808e+00 -1.542040e+02 7.189985e+02
      vertex 8.754508e+00 -1.585883e+02 8.600008e+02
      vertex 8.754508e+00 -1.586637e+02 7.190009e+02
    endloop
  endfacet
  facet normal 8.660888e-01 4.998901e-01 -2.675936e-04
    outer loop
      vertex 1.872195e+01 -1.670249e+02 7.190053e+02
      vertex 1.872195e+01 -1.669495e+02 8.600053e+02
      vertex 2.523657e+01 -1.782364e+02 8.600114e+02
    endloop
  endfacet
  facet normal 6.426757e-01 7.661382e-01 -4.101175e-04
    outer loop
      vertex 8.754508e+00 -1.586637e+02 7.190009e+02
      vertex 1.872195e+01 -1.669495e+02 8.600053e+02
      vertex 1.872195e+01 -1.670249e+02 7.190053e+02
    endloop
  endfacet
  facet normal 8.660888e-01 4.998901e-01 -2.675936e-04
    outer loop
      vertex 1.872195e+01 -1.670249e+02 7.190053e+02
      vertex 2.523657e+01 -1.782364e+02 8.600114e+02
      vertex 2.523657e+01 -1.783119e+02 7.190114e+02
    endloop
  endfacet
  facet normal 0.000000e+00 -5.353047e-04 -9.999999e-01
    outer loop
      vertex -4.523657e+01 -1.783119e+02 7.190114e+02
      vertex 2.523657e+01 -1.783119e+02 7.190114e+02
      vertex 2.750000e+01 -1.911344e+02 7.190182e+02
    endloop
  endfacet
  facet normal 0.000000e+00 -5.353047e-04 -9.999999e-01
    outer loop
      vertex -4.750000e+01 -1.911344e+02 7.190182e+02
      vertex -4.523657e+01 -1.783119e+02 7.190114e+02
      vertex 2.750000e+01 -1.911344e+02 7.190182e+02
    endloop
  endfacet
  facet normal 0.000000e+00 -5.353047e-04 -9.999999e-01
    outer loop
      vertex 2.523657e+01 -2.039568e+02 7.190251e+02
      vertex -4.750000e+01 -1.911344e+02 7.190182e+02
      vertex 2.750000e+01 -1.911344e+02 7.190182e+02
    endloop
  endfacet
  facet normal -2.648545e-19 -5.353047e-04 -9.999999e-01
    outer loop
      vertex -3.872195e+01 -1.670249e+02 7.190053e+02
      vertex 1.872195e+01 -1.670249e+02 7.190053e+02
      vertex 2.523657e+01 -1.783119e+02 7.190114e+02
    endloop
  endfacet
  facet normal 0.000000e+00 -5.353047e-04 -9.999999e-01
    outer loop
      vertex -4.523657e+01 -1.783119e+02 7.190114e+02
      vertex -3.872195e+01 -1.670249e+02 7.190053e+02
      vertex 2.523657e+01 -1.783119e+02 7.190114e+02
    endloop
  endfacet
  facet normal 0.000000e+00 -5.353047e-04 -9.999999e-01
    outer loop
      vertex -2.875451e+01 -1.586637e+02 7.190009e+02
      vertex 8.754508e+00 -1.586637e+02 7.190009e+02
      vertex 1.872195e+01 -1.670249e+02 7.190053e+02
    endloop
  endfacet
  facet normal -2.648545e-19 -5.353047e-04 -9.999999e-01
    outer loop
      vertex -3.872195e+01 -1.670249e+02 7.190053e+02
      vertex -2.875451e+01 -1.586637e+02 7.190009e+02
      vertex 1.872195e+01 -1.670249e+02 7.190053e+02
    endloop
  endfacet
  facet normal 0.000000e+00 -5.353047e-04 -9.999999e-01
    outer loop
      vertex -1.650319e+01 -1.542040e+02 7.189985e+02
      vertex -3.496808e+00 -1.542040e+02 7.189985e+02
      vertex 8.754508e+00 -1.586637e+02 7.190009e+02
    endloop
  endfacet
  facet normal 0.000000e+00 -5.353047e-04 -9.999999e-01
    outer loop
      vertex -2.875451e+01 -1.586637e+02 7.190009e+02
      vertex -1.650319e+01 -1.542040e+02 7.189985e+02
      vertex 8.754508e+00 -1.586637e+02 7.190009e+02
    endloop
  endfacet
  facet normal -2.158876e-19 -5.353047e-04 -9.999999e-01
    outer loop
      vertex 2.523657e+01 -2.039568e+02 7.190251e+02
      vertex -4.523657e+01 -2.039568e+02 7.190251e+02
      vertex -4.750000e+01 -1.911344e+02 7.190182e+02
    endloop
  endfacet
  facet normal 2.648545e-19 -5.353047e-04 -9.999999e-01
    outer loop
      vertex 1.872195e+01 -2.152438e+02 7.190311e+02
      vertex -3.872195e+01 -2.152438e+02 7.190311e+02
      vertex -4.523657e+01 -2.039568e+02 7.190251e+02
    endloop
  endfacet
  facet normal -2.158876e-19 -5.353047e-04 -9.999999e-01
    outer loop
      vertex 2.523657e+01 -2.039568e+02 7.190251e+02
      vertex 1.872195e+01 -2.152438e+02 7.190311e+02
      vertex -4.523657e+01 -2.039568e+02 7.190251e+02
    endloop
  endfacet
  facet normal 0.000000e+00 -5.353047e-04 -9.999999e-01
    outer loop
      vertex 8.754508e+00 -2.236050e+02 7.190356e+02
      vertex -2.875451e+01 -2.236050e+02 7.190356e+02
      vertex -3.872195e+01 -2.152438e+02 7.190311e+02
    endloop
  endfacet
  facet normal 2.648545e-19 -5.353047e-04 -9.999999e-01
    outer loop
      vertex 1.872195e+01 -2.152438e+02 7.190311e+02
      vertex 8.754508e+00 -2.236050e+02 7.190356e+02
      vertex -3.872195e+01 -2.152438e+02 7.190311e+02
    endloop
  endfacet
  facet normal 0.000000e+00 -5.353047e-04 -9.999999e-01
    outer loop
      vertex -3.496808e+00 -2.280647e+02 7.190380e+02
      vertex -1.650319e+01 -2.280647e+02 7.190380e+02
      vertex -2.875451e+01 -2.236050e+02 7.190356e+02
    endloop
  endfacet
  facet normal 0.000000e+00 -5.353047e-04 -9.999999e-01
    outer loop
      vertex 8.754508e+00 -2.236050e+02 7.190356e+02
      vertex -3.496808e+00 -2.280647e+02 7.190380e+02
      vertex -2.875451e+01 -2.236050e+02 7.190356e+02
    endloop
  endfacet
endsolid SIM_CER_R_UPPERARM
