solid SIM_CER_R_UPPERARM
  facet normal 0.000000e+00 0.000000e+00 1.000000e+00
    outer loop
      vertex -4.523657e+01 -2.168225e+02 8.600000e+02
      vertex 2.523657e+01 -2.168225e+02 8.600000e+02
      vertex 2.750000e+01 -2.040000e+02 8.600000e+02
    endloop
  endfacet
  facet normal 9.847752e-01 -1.738329e-01 0.000000e+00
    outer loop
      vertex 2.750000e+01 -2.040000e+02 7.190000e+02
      vertex 2.750000e+01 -2.040000e+02 8.600000e+02
      vertex 2.523657e+01 -2.168225e+02 8.600000e+02
    endloop
  endfacet
  facet normal 0.000000e+00 0.000000e+00 1.000000e+00
    outer loop
      vertex -4.750000e+01 -2.040000e+02 8.600000e+02
      vertex -4.523657e+01 -2.168225e+02 8.600000e+02
      vertex 2.750000e+01 -2.040000e+02 8.600000e+02
    endloop
  endfacet
  facet normal 0.000000e+00 0.000000e+00 1.000000e+00
    outer loop
      vertex 2.523657e+01 -1.911775e+02 8.600000e+02
      vertex -4.750000e+01 -2.040000e+02 8.600000e+02
      vertex 2.750000e+01 -2.040000e+02 8.600000e+02
    endloop
  endfacet
  facet normal 9.847752e-01 1.738329e-01 0.000000e+00
    outer loop
      vertex 2.523657e+01 -1.911775e+02 7.190000e+02
      vertex 2.523657e+01 -1.911775e+02 8.600000e+02
      vertex 2.750000e+01 -2.040000e+02 8.600000e+02
    endloop
  endfacet
  facet normal 9.847752e-01 1.738329e-01 0.000000e+00
    outer loop
      vertex 2.523657e+01 -1.911775e+02 7.190000e+02
      vertex 2.750000e+01 -2.040000e+02 8.600000e+02
      vertex 2.750000e+01 -2.040000e+02 7.190000e+02
    endloop
  endfacet
  facet normal 0.000000e+00 0.000000e+00 1.000000e+00
    outer loop
      vertex -3.872195e+01 -2.281094e+02 8.600000e+02
      vertex 1.872195e+01 -2.281094e+02 8.600000e+02
      vertex 2.523657e+01 -2.168225e+02 8.600000e+02
    endloop
  endfacet
  facet normal 8.660888e-01 -4.998901e-01 0.000000e+00
    outer loop
      vertex 2.523657e+01 -2.168225e+02 7.190000e+02
      vertex 2.523657e+01 -2.168225e+02 8.600000e+02
      vertex 1.872195e+01 -2.281094e+02 8.600000e+02
    endloop
  endfacet
  facet normal 0.000000e+00 0.000000e+00 1.000000e+00
    outer loop
      vertex -4.523657e+01 -2.168225e+02 8.600000e+02
      vertex -3.872195e+01 -2.281094e+02 8.600000e+02
      vertex 2.523657e+01 -2.168225e+02 8.600000e+02
    endloop
  endfacet
  facet normal 9.847752e-01 -1.738329e-01 0.000000e+00
    outer loop
      vertex 2.523657e+01 -2.168225e+02 7.190000e+02
      vertex 2.750000e+01 -2.040000e+02 7.190000e+02
      vertex 2.523657e+01 -2.168225e+02 8.600000e+02
    endloop
  endfacet
  facet normal 0.000000e+00 0.000000e+00 1.000000e+00
    outer loop
      vertex -2.875451e+01 -2.364706e+02 8.600000e+02
      vertex 8.754508e+00 -2.364706e+02 8.600000e+02
      vertex 1.872195e+01 -2.281094e+02 8.600000e+02
    endloop
  endfacet
  facet normal 6.426757e-01 -7.661383e-01 0.000000e+00
    outer loop
      vertex 1.872195e+01 -2.281094e+02 7.190000e+02
      vertex 1.872195e+01 -2.281094e+02 8.600000e+02
      vertex 8.754508e+00 -2.364706e+02 8.600000e+02
    endloop
  endfacet
  facet normal 0.000000e+00 0.000000e+00 1.000000e+00
    outer loop
      vertex -3.872195e+01 -2.281094e+02 8.600000e+02
      vertex -2.875451e+01 -2.364706e+02 8.600000e+02
      vertex 1.872195e+01 -2.281094e+02 8.600000e+02
    endloop
  endfacet
  facet normal 8.660888e-01 -4.998901e-01 0.000000e+00
    outer loop
      vertex 2.523657e+01 -2.168225e+02 7.190000e+02
      vertex 1.872195e+01 -2.281094e+02 8.600000e+02
      vertex 1.872195e+01 -2.281094e+02 7.190000e+02
    endloop
  endfacet
  facet normal 0.000000e+00 0.000000e+00 1.000000e+00
    outer loop
      vertex -1.650319e+01 -2.409304e+02 8.600000e+02
      vertex -3.496808e+00 -2.409304e+02 8.600000e+02
      vertex 8.754508e+00 -2.364706e+02 8.600000e+02
    endloop
  endfacet
  facet normal 3.420621e-01 -9.396773e-01 0.000000e+00
    outer loop
      vertex 8.754508e+00 -2.364706e+02 7.190000e+02
      vertex 8.754508e+00 -2.364706e+02 8.600000e+02
      vertex -3.496808e+00 -2.409304e+02 8.600000e+02
    endloop
  endfacet
  facet normal 0.000000e+00 0.000000e+00 1.000000e+00
    outer loop
      vertex -2.875451e+01 -2.364706e+02 8.600000e+02
      vertex -1.650319e+01 -2.409304e+02 8.600000e+02
      vertex 8.754508e+00 -2.364706e+02 8.600000e+02
    endloop
  endfacet
  facet normal 6.426757e-01 -7.661383e-01 0.000000e+00
    outer loop
      vertex 1.872195e+01 -2.281094e+02 7.190000e+02
      vertex 8.754508e+00 -2.364706e+02 8.600000e+02
      vertex 8.754508e+00 -2.364706e+02 7.190000e+02
    endloop
  endfacet
  facet normal -2.185212e-15 -1.000000e+00 0.000000e+00
    outer loop
      vertex -3.496808e+00 -2.409304e+02 7.190000e+02
      vertex -3.496808e+00 -2.409304e+02 8.600000e+02
      vertex -1.650319e+01 -2.409304e+02 8.600000e+02
    endloop
  endfacet
  facet normal 3.420621e-01 -9.396773e-01 0.000000e+00
    outer loop
      vertex 8.754508e+00 -2.364706e+02 7.190000e+02
      vertex -3.496808e+00 -2.409304e+02 8.600000e+02
      vertex -3.496808e+00 -2.409304e+02 7.190000e+02
    endloop
  endfacet
  facet normal -3.420621e-01 -9.396773e-01 0.000000e+00
    outer loop
      vertex -1.650319e+01 -2.409304e+02 7.190000e+02
      vertex -1.650319e+01 -2.409304e+02 8.600000e+02
      vertex -2.875451e+01 -2.364706e+02 8.600000e+02
    endloop
  endfacet
  facet normal -2.185212e-15 -1.000000e+00 0.000000e+00
    outer loop
      vertex -3.496808e+00 -2.409304e+02 7.190000e+02
      vertex -1.650319e+01 -2.409304e+02 8.600000e+02
      vertex -1.650319e+01 -2.409304e+02 7.190000e+02
    endloop
  endfacet
  facet normal -6.426757e-01 -7.661383e-01 0.000000e+00
    outer loop
      vertex -2.875451e+01 -2.364706e+02 7.190000e+02
      vertex -2.875451e+01 -2.364706e+02 8.600000e+02
      vertex -3.872195e+01 -2.281094e+02 8.600000e+02
    endloop
  endfacet
  facet normal -3.420621e-01 -9.396773e-01 0.000000e+00
    outer loop
      vertex -1.650319e+01 -2.409304e+02 7.190000e+02
      vertex -2.875451e+01 -2.364706e+02 8.600000e+02
      vertex -2.875451e+01 -2.364706e+02 7.190000e+02
    endloop
  endfacet
  facet normal -8.660888e-01 -4.998901e-01 0.000000e+00
    outer loop
      vertex -3.872195e+01 -2.281094e+02 7.190000e+02
      vertex -3.872195e+01 -2.281094e+02 8.600000e+02
      vertex -4.523657e+01 -2.168225e+02 8.600000e+02
    endloop
  endfacet
  facet normal -6.426757e-01 -7.661383e-01 0.000000e+00
    outer loop
      vertex -2.875451e+01 -2.364706e+02 7.190000e+02
      vertex -3.872195e+01 -2.281094e+02 8.600000e+02
      vertex -3.872195e+01 -2.281094e+02 7.190000e+02
    endloop
  endfacet
  facet normal -9.847752e-01 -1.738329e-01 0.000000e+00
    outer loop
      vertex -4.523657e+01 -2.168225e+02 7.190000e+02
      vertex -4.523657e+01 -2.168225e+02 8.600000e+02
      vertex -4.750000e+01 -2.040000e+02 8.600000e+02
    endloop
  endfacet
  facet normal -8.660888e-01 -4.998901e-01 0.000000e+00
    outer loop
      vertex -3.872195e+01 -2.281094e+02 7.190000e+02
      vertex -4.523657e+01 -2.168225e+02 8.600000e+02
      vertex -4.523657e+01 -2.168225e+02 7.190000e+02
    endloop
  endfacet
  facet normal 0.000000e+00 0.000000e+00 1.000000e+00
    outer loop
      vertex 2.523657e+01 -1.911775e+02 8.600000e+02
      vertex -4.523657e+01 -1.911775e+02 8.600000e+02
      vertex -4.750000e+01 -2.040000e+02 8.600000e+02
    endloop
  endfacet
  facet normal -9.847752e-01 1.738329e-01 0.000000e+00
    outer loop
      vertex -4.750000e+01 -2.040000e+02 7.190000e+02
      vertex -4.750000e+01 -2.040000e+02 8.600000e+02
      vertex -4.523657e+01 -1.911775e+02 8.600000e+02
    endloop
  endfacet
  facet normal -9.847752e-01 -1.738329e-01 0.000000e+00
    outer loop
      vertex -4.523657e+01 -2.168225e+02 7.190000e+02
      vertex -4.750000e+01 -2.040000e+02 8.600000e+02
      vertex -4.750000e+01 -2.040000e+02 7.190000e+02
    endloop
  endfacet
  facet normal 0.000000e+00 0.000000e+00 1.000000e+00
    outer loop
      vertex 1.872195e+01 -1.798906e+02 8.600000e+02
      vertex -3.872195e+01 -1.798906e+02 8.600000e+02
      vertex -4.523657e+01 -1.911775e+02 8.600000e+02
    endloop
  endfacet
  facet normal -8.660888e-01 4.998901e-01 0.000000e+00
    outer loop
      vertex -4.523657e+01 -1.911775e+02 7.190000e+02
      vertex -4.523657e+01 -1.911775e+02 8.600000e+02
      vertex -3.872195e+01 -1.798906e+02 8.600000e+02
    endloop
  endfacet
  facet normal 0.000000e+00 0.000000e+00 1.000000e+00
    outer loop
      vertex 2.523657e+01 -1.911775e+02 8.600000e+02
      vertex 1.872195e+01 -1.798906e+02 8.600000e+02
      vertex -4.523657e+01 -1.911775e+02 8.600000e+02
    endloop
  endfacet
  facet normal -9.847752e-01 1.738329e-01 0.000000e+00
    outer loop
      vertex -4.750000e+01 -2.040000e+02 7.190000e+02
      vertex -4.523657e+01 -1.911775e+02 8.600000e+02
      vertex -4.523657e+01 -1.911775e+02 7.190000e+02
    endloop
  endfacet
  facet normal 0.000000e+00 0.000000e+00 1.000000e+00
    outer loop
      vertex 8.754508e+00 -1.715294e+02 8.600000e+02
      vertex -2.875451e+01 -1.715294e+02 8.600000e+02
      vertex -3.872195e+01 -1.798906e+02 8.600000e+02
    endloop
  endfacet
  facet normal -6.426757e-01 7.661383e-01 0.000000e+00
    outer loop
      vertex -3.872195e+01 -1.798906e+02 7.190000e+02
      vertex -3.872195e+01 -1.798906e+02 8.600000e+02
      vertex -2.875451e+01 -1.715294e+02 8.600000e+02
    endloop
  endfacet
  facet normal 0.000000e+00 0.000000e+00 1.000000e+00
    outer loop
      vertex 1.872195e+01 -1.798906e+02 8.600000e+02
      vertex 8.754508e+00 -1.715294e+02 8.600000e+02
      vertex -3.872195e+01 -1.798906e+02 8.600000e+02
    endloop
  endfacet
  facet normal -8.660888e-01 4.998901e-01 0.000000e+00
    outer loop
      vertex -4.523657e+01 -1.911775e+02 7.190000e+02
      vertex -3.872195e+01 -1.798906e+02 8.600000e+02
      vertex -3.872195e+01 -1.798906e+02 7.190000e+02
    endloop
  endfacet
  facet normal 0.000000e+00 0.000000e+00 1.000000e+00
    outer loop
      vertex -3.496808e+00 -1.670696e+02 8.600000e+02
      vertex -1.650319e+01 -1.670696e+02 8.600000e+02
      vertex -2.875451e+01 -1.715294e+02 8.600000e+02
    endloop
  endfacet
  facet normal -3.420621e-01 9.396773e-01 0.000000e+00
    outer loop
      vertex -2.875451e+01 -1.715294e+02 7.190000e+02
      vertex -2.875451e+01 -1.715294e+02 8.600000e+02
      vertex -1.650319e+01 -1.670696e+02 8.600000e+02
    endloop
  endfacet
  facet normal 0.000000e+00 0.000000e+00 1.000000e+00
    outer loop
      vertex 8.754508e+00 -1.715294e+02 8.600000e+02
      vertex -3.496808e+00 -1.670696e+02 8.600000e+02
      vertex -2.875451e+01 -1.715294e+02 8.600000e+02
    endloop
  endfacet
  facet normal -6.426757e-01 7.661383e-01 0.000000e+00
    outer loop
      vertex -3.872195e+01 -1.798906e+02 7.190000e+02
      vertex -2.875451e+01 -1.715294e+02 8.600000e+02
      vertex -2.875451e+01 -1.715294e+02 7.190000e+02
    endloop
  endfacet
  facet normal -2.185212e-15 1.000000e+00 0.000000e+00
    outer loop
      vertex -1.650319e+01 -1.670696e+02 7.190000e+02
      vertex -1.650319e+01 -1.670696e+02 8.600000e+02
      vertex -3.496808e+00 -1.670696e+02 8.600000e+02
    endloop
  endfacet
  facet normal -3.420621e-01 9.396773e-01 0.000000e+00
    outer loop
      vertex -2.875451e+01 -1.715294e+02 7.190000e+02
      vertex -1.650319e+01 -1.670696e+02 8.600000e+02
      vertex -1.650319e+01 -1.670696e+02 7.190000e+02
    endloop
  endfacet
  facet normal 3.420621e-01 9.396773e-01 0.000000e+00
    outer loop
      vertex -3.496808e+00 -1.670696e+02 7.190000e+02
      vertex -3.496808e+00 -1.670696e+02 8.600000e+02
      vertex 8.754508e+00 -1.715294e+02 8.600000e+02
    endloop
  endfacet
  facet normal -2.185212e-15 1.000000e+00 0.000000e+00
    outer loop
      vertex -1.650319e+01 -1.670696e+02 7.190000e+02
      vertex -3.496808e+00 -1.670696e+02 8.600000e+02
      vertex -3.496808e+00 -1.670696e+02 7.190000e+02
    endloop
  endfacet
  facet normal 6.426757e-01 7.661383e-01 0.000000e+00
    outer loop
      vertex 8.754508e+00 -1.715294e+02 7.190000e+02
      vertex 8.754508e+00 -1.715294e+02 8.600000e+02
      vertex 1.872195e+01 -1.798906e+02 8.600000e+02
    endloop
  endfacet
  facet normal 3.420621e-01 9.396773e-01 0.000000e+00
    outer loop
      vertex -3.496808e+00 -1.670696e+02 7.190000e+02
      vertex 8.754508e+00 -1.715294e+02 8.600000e+02
      vertex 8.754508e+00 -1.715294e+02 7.190000e+02
    endloop
  endfacet
  facet normal 8.660888e-01 4.998901e-01 0.000000e+00
    outer loop
      vertex 1.872195e+01 -1.798906e+02 7.190000e+02
      vertex 1.872195e+01 -1.798906e+02 8.600000e+02
      vertex 2.523657e+01 -1.911775e+02 8.600000e+02
    endloop
  endfacet
  facet normal 6.426757e-01 7.661383e-01 0.000000e+00
    outer loop
      vertex 8.754508e+00 -1.715294e+02 7.190000e+02
      vertex 1.872195e+01 -1.798906e+02 8.600000e+02
      vertex 1.872195e+01 -1.798906e+02 7.190000e+02
    endloop
  endfacet
  facet normal 8.660888e-01 4.998901e-01 0.000000e+00
    outer loop
      vertex 1.872195e+01 -1.798906e+02 7.190000e+02
      vertex 2.523657e+01 -1.911775e+02 8.600000e+02
      vertex 2.523657e+01 -1.911775e+02 7.190000e+02
    endloop
  endfacet
  facet normal 0.000000e+00 0.000000e+00 -1.000000e+00
    outer loop
      vertex -4.523657e+01 -1.911775e+02 7.190000e+02
      vertex 2.523657e+01 -1.911775e+02 7.190000e+02
      vertex 2.750000e+01 -2.040000e+02 7.190000e+02
    endloop
  endfacet
  facet normal 0.000000e+00 0.000000e+00 -1.000000e+00
    outer loop
      vertex -4.750000e+01 -2.040000e+02 7.190000e+02
      vertex -4.523657e+01 -1.911775e+02 7.190000e+02
      vertex 2.750000e+01 -2.040000e+02 7.190000e+02
    endloop
  endfacet
  facet normal 0.000000e+00 0.000000e+00 -1.000000e+00
    outer loop
      vertex 2.523657e+01 -2.168225e+02 7.190000e+02
      vertex -4.750000e+01 -2.040000e+02 7.190000e+02
      vertex 2.750000e+01 -2.040000e+02 7.190000e+02
    endloop
  endfacet
  facet normal 0.000000e+00 0.000000e+00 -1.000000e+00
    outer loop
      vertex -3.872195e+01 -1.798906e+02 7.190000e+02
      vertex 1.872195e+01 -1.798906e+02 7.190000e+02
      vertex 2.523657e+01 -1.911775e+02 7.190000e+02
    endloop
  endfacet
  facet normal 0.000000e+00 0.000000e+00 -1.000000e+00
    outer loop
      vertex -4.523657e+01 -1.911775e+02 7.190000e+02
      vertex -3.872195e+01 -1.798906e+02 7.190000e+02
      vertex 2.523657e+01 -1.911775e+02 7.190000e+02
    endloop
  endfacet
  facet normal 0.000000e+00 0.000000e+00 -1.000000e+00
    outer loop
      vertex -2.875451e+01 -1.715294e+02 7.190000e+02
      vertex 8.754508e+00 -1.715294e+02 7.190000e+02
      vertex 1.872195e+01 -1.798906e+02 7.190000e+02
    endloop
  endfacet
  facet normal 0.000000e+00 0.000000e+00 -1.000000e+00
    outer loop
      vertex -3.872195e+01 -1.798906e+02 7.190000e+02
      vertex -2.875451e+01 -1.715294e+02 7.190000e+02
      vertex 1.872195e+01 -1.798906e+02 7.190000e+02
    endloop
  endfacet
  facet normal 0.000000e+00 0.000000e+00 -1.000000e+00
    outer loop
      vertex -1.650319e+01 -1.670696e+02 7.190000e+02
      vertex -3.496808e+00 -1.670696e+02 7.190000e+02
      vertex 8.754508e+00 -1.715294e+02 7.190000e+02
    endloop
  endfacet
  facet normal 0.000000e+00 0.000000e+00 -1.000000e+00
    outer loop
      vertex -2.875451e+01 -1.715294e+02 7.190000e+02
      vertex -1.650319e+01 -1.670696e+02 7.190000e+02
      vertex 8.754508e+00 -1.715294e+02 7.190000e+02
    endloop
  endfacet
  facet normal 0.000000e+00 0.000000e+00 -1.000000e+00
    outer loop
      vertex 2.523657e+01 -2.168225e+02 7.190000e+02
      vertex -4.523657e+01 -2.168225e+02 7.190000e+02
      vertex -4.750000e+01 -2.040000e+02 7.190000e+02
    endloop
  endfacet
  facet normal 0.000000e+00 0.000000e+00 -1.000000e+00
    outer loop
      vertex 1.872195e+01 -2.281094e+02 7.190000e+02
      vertex -3.872195e+01 -2.281094e+02 7.190000e+02
      vertex -4.523657e+01 -2.168225e+02 7.190000e+02
    endloop
  endfacet
  facet normal 0.000000e+00 0.000000e+00 -1.000000e+00
    outer loop
      vertex 2.523657e+01 -2.168225e+02 7.190000e+02
      vertex 1.872195e+01 -2.281094e+02 7.190000e+02
      vertex -4.523657e+01 -2.168225e+02 7.190000e+02
    endloop
  endfacet
  facet normal 0.000000e+00 0.000000e+00 -1.000000e+00
    outer loop
      vertex 8.754508e+00 -2.364706e+02 7.190000e+02
      vertex -2.875451e+01 -2.364706e+02 7.190000e+02
      vertex -3.872195e+01 -2.281094e+02 7.190000e+02
    endloop
  endfacet
  facet normal 0.000000e+00 0.000000e+00 -1.000000e+00
    outer loop
      vertex 1.872195e+01 -2.281094e+02 7.190000e+02
      vertex 8.754508e+00 -2.364706e+02 7.190000e+02
      vertex -3.872195e+01 -2.281094e+02 7.190000e+02
    endloop
  endfacet
  facet normal 0.000000e+00 0.000000e+00 -1.000000e+00
    outer loop
      vertex -3.496808e+00 -2.409304e+02 7.190000e+02
      vertex -1.650319e+01 -2.409304e+02 7.190000e+02
      vertex -2.875451e+01 -2.364706e+02 7.190000e+02
    endloop
  endfacet
  facet normal 0.000000e+00 0.000000e+00 -1.000000e+00
    outer loop
      vertex 8.754508e+00 -2.364706e+02 7.190000e+02
      vertex -3.496808e+00 -2.409304e+02 7.190000e+02
      vertex -2.875451e+01 -2.364706e+02 7.190000e+02
    endloop
  endfacet
endsolid SIM_CER_R_UPPERARM
