solid SIM_CER_L_FOREARM
  facet normal 0.000000e+00 0.000000e+00 -1.000000e+00
    outer loop
      vertex -4.358351e+01 2.138529e+02 6.480000e+02
      vertex 2.358351e+01 2.138529e+02 6.480000e+02
      vertex 2.500000e+01 2.040000e+02 6.480000e+02
    endloop
  endfacet
  facet normal 9.898234e-01 1.423012e-01 2.848200e-16
    outer loop
      vertex 2.500000e+01 2.040000e+02 7.190000e+02
      vertex 2.500000e+01 2.040000e+02 6.480000e+02
      vertex 2.358351e+01 2.138529e+02 6.480000e+02
    endloop
  endfacet
  facet normal 0.000000e+00 0.000000e+00 -1.000000e+00
    outer loop
      vertex -4.500000e+01 2.040000e+02 6.480000e+02
      vertex -4.358351e+01 2.138529e+02 6.480000e+02
      vertex 2.500000e+01 2.040000e+02 6.480000e+02
    endloop
  endfacet
  facet normal 0.000000e+00 1.153845e-14 -1.000000e+00
    outer loop
      vertex 2.358351e+01 1.941471e+02 6.480000e+02
      vertex -4.500000e+01 2.040000e+02 6.480000e+02
      vertex 2.500000e+01 2.040000e+02 6.480000e+02
    endloop
  endfacet
  facet normal 9.898234e-01 -1.423012e-01 -2.848200e-16
    outer loop
      vertex 2.358351e+01 1.941471e+02 7.190000e+02
      vertex 2.358351e+01 1.941471e+02 6.480000e+02
      vertex 2.500000e+01 2.040000e+02 6.480000e+02
    endloop
  endfacet
  facet normal 9.898234e-01 -1.423012e-01 -2.840177e-16
    outer loop
      vertex 2.358351e+01 1.941471e+02 7.190000e+02
      vertex 2.500000e+01 2.040000e+02 6.480000e+02
      vertex 2.500000e+01 2.040000e+02 7.190000e+02
    endloop
  endfacet
  facet normal 0.000000e+00 0.000000e+00 -1.000000e+00
    outer loop
      vertex -3.944469e+01 2.229167e+02 6.480000e+02
      vertex 1.944469e+01 2.229167e+02 6.480000e+02
      vertex 2.358351e+01 2.138529e+02 6.480000e+02
    endloop
  endfacet
  facet normal 9.096515e-01 4.153722e-01 8.313794e-16
    outer loop
      vertex 2.358351e+01 2.138529e+02 7.190000e+02
      vertex 2.358351e+01 2.138529e+02 6.480000e+02
      vertex 1.944469e+01 2.229167e+02 6.480000e+02
    endloop
  endfacet
  facet normal 0.000000e+00 0.000000e+00 -1.000000e+00
    outer loop
      vertex -4.358351e+01 2.138529e+02 6.480000e+02
      vertex -3.944469e+01 2.229167e+02 6.480000e+02
      vertex 2.358351e+01 2.138529e+02 6.480000e+02
    endloop
  endfacet
  facet normal 9.898234e-01 1.423012e-01 2.848200e-16
    outer loop
      vertex 2.358351e+01 2.138529e+02 7.190000e+02
      vertex 2.500000e+01 2.040000e+02 7.190000e+02
      vertex 2.358351e+01 2.138529e+02 6.480000e+02
    endloop
  endfacet
  facet normal 0.000000e+00 0.000000e+00 -1.000000e+00
    outer loop
      vertex -3.291692e+01 2.304504e+02 6.480000e+02
      vertex 1.291692e+01 2.304504e+02 6.480000e+02
      vertex 1.944469e+01 2.229167e+02 6.480000e+02
    endloop
  endfacet
  facet normal 7.557580e-01 6.548510e-01 1.310703e-15
    outer loop
      vertex 1.944469e+01 2.229167e+02 7.190000e+02
      vertex 1.944469e+01 2.229167e+02 6.480000e+02
      vertex 1.291692e+01 2.304504e+02 6.480000e+02
    endloop
  endfacet
  facet normal 0.000000e+00 0.000000e+00 -1.000000e+00
    outer loop
      vertex -3.944469e+01 2.229167e+02 6.480000e+02
      vertex -3.291692e+01 2.304504e+02 6.480000e+02
      vertex 1.944469e+01 2.229167e+02 6.480000e+02
    endloop
  endfacet
  facet normal 9.096515e-01 4.153722e-01 8.336254e-16
    outer loop
      vertex 2.358351e+01 2.138529e+02 7.190000e+02
      vertex 1.944469e+01 2.229167e+02 6.480000e+02
      vertex 1.944469e+01 2.229167e+02 7.190000e+02
    endloop
  endfacet
  facet normal 0.000000e+00 0.000000e+00 -1.000000e+00
    outer loop
      vertex -2.453202e+01 2.358386e+02 6.480000e+02
      vertex 4.532019e+00 2.358386e+02 6.480000e+02
      vertex 1.291692e+01 2.304504e+02 6.480000e+02
    endloop
  endfacet
  facet normal 5.406113e-01 8.412725e-01 1.683831e-15
    outer loop
      vertex 1.291692e+01 2.304504e+02 7.190000e+02
      vertex 1.291692e+01 2.304504e+02 6.480000e+02
      vertex 4.532019e+00 2.358386e+02 6.480000e+02
    endloop
  endfacet
  facet normal 0.000000e+00 0.000000e+00 -1.000000e+00
    outer loop
      vertex -3.291692e+01 2.304504e+02 6.480000e+02
      vertex -2.453202e+01 2.358386e+02 6.480000e+02
      vertex 1.291692e+01 2.304504e+02 6.480000e+02
    endloop
  endfacet
  facet normal 7.557580e-01 6.548510e-01 1.315167e-15
    outer loop
      vertex 1.944469e+01 2.229167e+02 7.190000e+02
      vertex 1.291692e+01 2.304504e+02 6.480000e+02
      vertex 1.291692e+01 2.304504e+02 7.190000e+02
    endloop
  endfacet
  facet normal 0.000000e+00 0.000000e+00 -1.000000e+00
    outer loop
      vertex -1.497547e+01 2.386442e+02 6.480000e+02
      vertex -5.024534e+00 2.386442e+02 6.480000e+02
      vertex 4.532019e+00 2.358386e+02 6.480000e+02
    endloop
  endfacet
  facet normal 2.816921e-01 9.595048e-01 1.920477e-15
    outer loop
      vertex 4.532019e+00 2.358386e+02 7.190000e+02
      vertex 4.532019e+00 2.358386e+02 6.480000e+02
      vertex -5.024534e+00 2.386442e+02 6.480000e+02
    endloop
  endfacet
  facet normal 0.000000e+00 0.000000e+00 -1.000000e+00
    outer loop
      vertex -2.453202e+01 2.358386e+02 6.480000e+02
      vertex -1.497547e+01 2.386442e+02 6.480000e+02
      vertex 4.532019e+00 2.358386e+02 6.480000e+02
    endloop
  endfacet
  facet normal 5.406113e-01 8.412725e-01 1.686863e-15
    outer loop
      vertex 1.291692e+01 2.304504e+02 7.190000e+02
      vertex 4.532019e+00 2.358386e+02 6.480000e+02
      vertex 4.532019e+00 2.358386e+02 7.190000e+02
    endloop
  endfacet
  facet normal -2.856186e-15 1.000000e+00 2.001529e-15
    outer loop
      vertex -5.024534e+00 2.386442e+02 7.190000e+02
      vertex -5.024534e+00 2.386442e+02 6.480000e+02
      vertex -1.497547e+01 2.386442e+02 6.480000e+02
    endloop
  endfacet
  facet normal 2.816921e-01 9.595048e-01 1.919160e-15
    outer loop
      vertex 4.532019e+00 2.358386e+02 7.190000e+02
      vertex -5.024534e+00 2.386442e+02 6.480000e+02
      vertex -5.024534e+00 2.386442e+02 7.190000e+02
    endloop
  endfacet
  facet normal -2.816921e-01 9.595048e-01 1.920477e-15
    outer loop
      vertex -1.497547e+01 2.386442e+02 7.190000e+02
      vertex -1.497547e+01 2.386442e+02 6.480000e+02
      vertex -2.453202e+01 2.358386e+02 6.480000e+02
    endloop
  endfacet
  facet normal -2.856186e-15 1.000000e+00 2.001529e-15
    outer loop
      vertex -5.024534e+00 2.386442e+02 7.190000e+02
      vertex -1.497547e+01 2.386442e+02 6.480000e+02
      vertex -1.497547e+01 2.386442e+02 7.190000e+02
    endloop
  endfacet
  facet normal -5.406113e-01 8.412725e-01 1.683831e-15
    outer loop
      vertex -2.453202e+01 2.358386e+02 7.190000e+02
      vertex -2.453202e+01 2.358386e+02 6.480000e+02
      vertex -3.291692e+01 2.304504e+02 6.480000e+02
    endloop
  endfacet
  facet normal -2.816921e-01 9.595048e-01 1.919160e-15
    outer loop
      vertex -1.497547e+01 2.386442e+02 7.190000e+02
      vertex -2.453202e+01 2.358386e+02 6.480000e+02
      vertex -2.453202e+01 2.358386e+02 7.190000e+02
    endloop
  endfacet
  facet normal -7.557580e-01 6.548510e-01 1.310703e-15
    outer loop
      vertex -3.291692e+01 2.304504e+02 7.190000e+02
      vertex -3.291692e+01 2.304504e+02 6.480000e+02
      vertex -3.944469e+01 2.229167e+02 6.480000e+02
    endloop
  endfacet
  facet normal -5.406113e-01 8.412725e-01 1.676822e-15
    outer loop
      vertex -2.453202e+01 2.358386e+02 7.190000e+02
      vertex -3.291692e+01 2.304504e+02 6.480000e+02
      vertex -3.291692e+01 2.304504e+02 7.190000e+02
    endloop
  endfacet
  facet normal -9.096515e-01 4.153722e-01 8.313794e-16
    outer loop
      vertex -3.944469e+01 2.229167e+02 7.190000e+02
      vertex -3.944469e+01 2.229167e+02 6.480000e+02
      vertex -4.358351e+01 2.138529e+02 6.480000e+02
    endloop
  endfacet
  facet normal -7.557580e-01 6.548510e-01 1.305128e-15
    outer loop
      vertex -3.291692e+01 2.304504e+02 7.190000e+02
      vertex -3.944469e+01 2.229167e+02 6.480000e+02
      vertex -3.944469e+01 2.229167e+02 7.190000e+02
    endloop
  endfacet
  facet normal -9.898234e-01 1.423012e-01 2.848200e-16
    outer loop
      vertex -4.358351e+01 2.138529e+02 7.190000e+02
      vertex -4.358351e+01 2.138529e+02 6.480000e+02
      vertex -4.500000e+01 2.040000e+02 6.480000e+02
    endloop
  endfacet
  facet normal -9.096515e-01 4.153722e-01 8.235817e-16
    outer loop
      vertex -3.944469e+01 2.229167e+02 7.190000e+02
      vertex -4.358351e+01 2.138529e+02 6.480000e+02
      vertex -4.358351e+01 2.138529e+02 7.190000e+02
    endloop
  endfacet
  facet normal 0.000000e+00 1.153845e-14 -1.000000e+00
    outer loop
      vertex 2.358351e+01 1.941471e+02 6.480000e+02
      vertex -4.358351e+01 1.941471e+02 6.480000e+02
      vertex -4.500000e+01 2.040000e+02 6.480000e+02
    endloop
  endfacet
  facet normal -9.898234e-01 -1.423012e-01 -2.848200e-16
    outer loop
      vertex -4.500000e+01 2.040000e+02 7.190000e+02
      vertex -4.500000e+01 2.040000e+02 6.480000e+02
      vertex -4.358351e+01 1.941471e+02 6.480000e+02
    endloop
  endfacet
  facet normal -9.898234e-01 1.423012e-01 2.840177e-16
    outer loop
      vertex -4.358351e+01 2.138529e+02 7.190000e+02
      vertex -4.500000e+01 2.040000e+02 6.480000e+02
      vertex -4.500000e+01 2.040000e+02 7.190000e+02
    endloop
  endfacet
  facet normal 0.000000e+00 0.000000e+00 -1.000000e+00
    outer loop
      vertex 1.944469e+01 1.850833e+02 6.480000e+02
      vertex -3.944469e+01 1.850833e+02 6.480000e+02
      vertex -4.358351e+01 1.941471e+02 6.480000e+02
    endloop
  endfacet
  facet normal -9.096515e-01 -4.153722e-01 -8.313794e-16
    outer loop
      vertex -4.358351e+01 1.941471e+02 7.190000e+02
      vertex -4.358351e+01 1.941471e+02 6.480000e+02
      vertex -3.944469e+01 1.850833e+02 6.480000e+02
    endloop
  endfacet
  facet normal 0.000000e+00 0.000000e+00 -1.000000e+00
    outer loop
      vertex 2.358351e+01 1.941471e+02 6.480000e+02
      vertex 1.944469e+01 1.850833e+02 6.480000e+02
      vertex -4.358351e+01 1.941471e+02 6.480000e+02
    endloop
  endfacet
  facet normal -9.898234e-01 -1.423012e-01 -2.865311e-16
    outer loop
      vertex -4.500000e+01 2.040000e+02 7.190000e+02
      vertex -4.358351e+01 1.941471e+02 6.480000e+02
      vertex -4.358351e+01 1.941471e+02 7.190000e+02
    endloop
  endfacet
  facet normal 0.000000e+00 0.000000e+00 -1.000000e+00
    outer loop
      vertex 1.291692e+01 1.775496e+02 6.480000e+02
      vertex -3.291692e+01 1.775496e+02 6.480000e+02
      vertex -3.944469e+01 1.850833e+02 6.480000e+02
    endloop
  endfacet
  facet normal -7.557580e-01 -6.548510e-01 -1.310703e-15
    outer loop
      vertex -3.944469e+01 1.850833e+02 7.190000e+02
      vertex -3.944469e+01 1.850833e+02 6.480000e+02
      vertex -3.291692e+01 1.775496e+02 6.480000e+02
    endloop
  endfacet
  facet normal 0.000000e+00 0.000000e+00 -1.000000e+00
    outer loop
      vertex 1.944469e+01 1.850833e+02 6.480000e+02
      vertex 1.291692e+01 1.775496e+02 6.480000e+02
      vertex -3.944469e+01 1.850833e+02 6.480000e+02
    endloop
  endfacet
  facet normal -9.096515e-01 -4.153722e-01 -8.336254e-16
    outer loop
      vertex -4.358351e+01 1.941471e+02 7.190000e+02
      vertex -3.944469e+01 1.850833e+02 6.480000e+02
      vertex -3.944469e+01 1.850833e+02 7.190000e+02
    endloop
  endfacet
  facet normal 0.000000e+00 0.000000e+00 -1.000000e+00
    outer loop
      vertex 4.532019e+00 1.721614e+02 6.480000e+02
      vertex -2.453202e+01 1.721614e+02 6.480000e+02
      vertex -3.291692e+01 1.775496e+02 6.480000e+02
    endloop
  endfacet
  facet normal -5.406113e-01 -8.412725e-01 -1.683831e-15
    outer loop
      vertex -3.291692e+01 1.775496e+02 7.190000e+02
      vertex -3.291692e+01 1.775496e+02 6.480000e+02
      vertex -2.453202e+01 1.721614e+02 6.480000e+02
    endloop
  endfacet
  facet normal 0.000000e+00 0.000000e+00 -1.000000e+00
    outer loop
      vertex 1.291692e+01 1.775496e+02 6.480000e+02
      vertex 4.532019e+00 1.721614e+02 6.480000e+02
      vertex -3.291692e+01 1.775496e+02 6.480000e+02
    endloop
  endfacet
  facet normal -7.557580e-01 -6.548510e-01 -1.305128e-15
    outer loop
      vertex -3.944469e+01 1.850833e+02 7.190000e+02
      vertex -3.291692e+01 1.775496e+02 6.480000e+02
      vertex -3.291692e+01 1.775496e+02 7.190000e+02
    endloop
  endfacet
  facet normal 0.000000e+00 0.000000e+00 -1.000000e+00
    outer loop
      vertex -5.024534e+00 1.693558e+02 6.480000e+02
      vertex -1.497547e+01 1.693558e+02 6.480000e+02
      vertex -2.453202e+01 1.721614e+02 6.480000e+02
    endloop
  endfacet
  facet normal -2.816921e-01 -9.595048e-01 -1.920477e-15
    outer loop
      vertex -2.453202e+01 1.721614e+02 7.190000e+02
      vertex -2.453202e+01 1.721614e+02 6.480000e+02
      vertex -1.497547e+01 1.693558e+02 6.480000e+02
    endloop
  endfacet
  facet normal 0.000000e+00 0.000000e+00 -1.000000e+00
    outer loop
      vertex 4.532019e+00 1.721614e+02 6.480000e+02
      vertex -5.024534e+00 1.693558e+02 6.480000e+02
      vertex -2.453202e+01 1.721614e+02 6.480000e+02
    endloop
  endfacet
  facet normal -5.406113e-01 -8.412725e-01 -1.686863e-15
    outer loop
      vertex -3.291692e+01 1.775496e+02 7.190000e+02
      vertex -2.453202e+01 1.721614e+02 6.480000e+02
      vertex -2.453202e+01 1.721614e+02 7.190000e+02
    endloop
  endfacet
  facet normal 0.000000e+00 -1.000000e+00 -2.001529e-15
    outer loop
      vertex -1.497547e+01 1.693558e+02 7.190000e+02
      vertex -1.497547e+01 1.693558e+02 6.480000e+02
      vertex -5.024534e+00 1.693558e+02 6.480000e+02
    endloop
  endfacet
  facet normal -2.816921e-01 -9.595048e-01 -1.919160e-15
    outer loop
      vertex -2.453202e+01 1.721614e+02 7.190000e+02
      vertex -1.497547e+01 1.693558e+02 6.480000e+02
      vertex -1.497547e+01 1.693558e+02 7.190000e+02
    endloop
  endfacet
  facet normal 2.816921e-01 -9.595048e-01 -1.920477e-15
    outer loop
      vertex -5.024534e+00 1.693558e+02 7.190000e+02
      vertex -5.024534e+00 1.693558e+02 6.480000e+02
      vertex 4.532019e+00 1.721614e+02 6.480000e+02
    endloop
  endfacet
  facet normal 0.000000e+00 -1.000000e+00 -2.001529e-15
    outer loop
      vertex -1.497547e+01 1.693558e+02 7.190000e+02
      vertex -5.024534e+00 1.693558e+02 6.480000e+02
      vertex -5.024534e+00 1.693558e+02 7.190000e+02
    endloop
  endfacet
  facet normal 5.406113e-01 -8.412725e-01 -1.683831e-15
    outer loop
      vertex 4.532019e+00 1.721614e+02 7.190000e+02
      vertex 4.532019e+00 1.721614e+02 6.480000e+02
      vertex 1.291692e+01 1.775496e+02 6.480000e+02
    endloop
  endfacet
  facet normal 2.816921e-01 -9.595048e-01 -1.919160e-15
    outer loop
      vertex -5.024534e+00 1.693558e+02 7.190000e+02
      vertex 4.532019e+00 1.721614e+02 6.480000e+02
      vertex 4.532019e+00 1.721614e+02 7.190000e+02
    endloop
  endfacet
  facet normal 7.557580e-01 -6.548510e-01 -1.310703e-15
    outer loop
      vertex 1.291692e+01 1.775496e+02 7.190000e+02
      vertex 1.291692e+01 1.775496e+02 6.480000e+02
      vertex 1.944469e+01 1.850833e+02 6.480000e+02
    endloop
  endfacet
  facet normal 5.406113e-01 -8.412725e-01 -1.676822e-15
    outer loop
      vertex 4.532019e+00 1.721614e+02 7.190000e+02
      vertex 1.291692e+01 1.775496e+02 6.480000e+02
      vertex 1.291692e+01 1.775496e+02 7.190000e+02
    endloop
  endfacet
  facet normal 9.096515e-01 -4.153722e-01 -8.313794e-16
    outer loop
      vertex 1.944469e+01 1.850833e+02 7.190000e+02
      vertex 1.944469e+01 1.850833e+02 6.480000e+02
      vertex 2.358351e+01 1.941471e+02 6.480000e+02
    endloop
  endfacet
  facet normal 7.557580e-01 -6.548510e-01 -1.315167e-15
    outer loop
      vertex 1.291692e+01 1.775496e+02 7.190000e+02
      vertex 1.944469e+01 1.850833e+02 6.480000e+02
      vertex 1.944469e+01 1.850833e+02 7.190000e+02
    endloop
  endfacet
  facet normal 9.096515e-01 -4.153722e-01 -8.336254e-16
    outer loop
      vertex 1.944469e+01 1.850833e+02 7.190000e+02
      vertex 2.358351e+01 1.941471e+02 6.480000e+02
      vertex 2.358351e+01 1.941471e+02 7.190000e+02
    endloop
  endfacet
  facet normal 0.000000e+00 -1.153845e-14 1.000000e+00
    outer loop
      vertex -4.358351e+01 1.941471e+02 7.190000e+02
      vertex 2.358351e+01 1.941471e+02 7.190000e+02
      vertex 2.500000e+01 2.040000e+02 7.190000e+02
    endloop
  endfacet
  facet normal 0.000000e+00 -1.153845e-14 1.000000e+00
    outer loop
      vertex -4.500000e+01 2.040000e+02 7.190000e+02
      vertex -4.358351e+01 1.941471e+02 7.190000e+02
      vertex 2.500000e+01 2.040000e+02 7.190000e+02
    endloop
  endfacet
  facet normal 0.000000e+00 0.000000e+00 1.000000e+00
    outer loop
      vertex 2.358351e+01 2.138529e+02 7.190000e+02
      vertex -4.500000e+01 2.040000e+02 7.190000e+02
      vertex 2.500000e+01 2.040000e+02 7.190000e+02
    endloop
  endfacet
  facet normal 0.000000e+00 0.000000e+00 1.000000e+00
    outer loop
      vertex -3.944469e+01 1.850833e+02 7.190000e+02
      vertex 1.944469e+01 1.850833e+02 7.190000e+02
      vertex 2.358351e+01 1.941471e+02 7.190000e+02
    endloop
  endfacet
  facet normal 0.000000e+00 0.000000e+00 1.000000e+00
    outer loop
      vertex -4.358351e+01 1.941471e+02 7.190000e+02
      vertex -3.944469e+01 1.850833e+02 7.190000e+02
      vertex 2.358351e+01 1.941471e+02 7.190000e+02
    endloop
  endfacet
  facet normal 0.000000e+00 0.000000e+00 1.000000e+00
    outer loop
      vertex -3.291692e+01 1.775496e+02 7.190000e+02
      vertex 1.291692e+01 1.775496e+02 7.190000e+02
      vertex 1.944469e+01 1.850833e+02 7.190000e+02
    endloop
  endfacet
  facet normal 0.000000e+00 0.000000e+00 1.000000e+00
    outer loop
      vertex -3.944469e+01 1.850833e+02 7.190000e+02
      vertex -3.291692e+01 1.775496e+02 7.190000e+02
      vertex 1.944469e+01 1.850833e+02 7.190000e+02
    endloop
  endfacet
  facet normal 0.000000e+00 0.000000e+00 1.000000e+00
    outer loop
      vertex -2.453202e+01 1.721614e+02 7.190000e+02
      vertex 4.532019e+00 1.721614e+02 7.190000e+02
      vertex 1.291692e+01 1.775496e+02 7.190000e+02
    endloop
  endfacet
  facet normal 0.000000e+00 0.000000e+00 1.000000e+00
    outer loop
      vertex -3.291692e+01 1.775496e+02 7.190000e+02
      vertex -2.453202e+01 1.721614e+02 7.190000e+02
      vertex 1.291692e+01 1.775496e+02 7.190000e+02
    endloop
  endfacet
  facet normal 0.000000e+00 0.000000e+00 1.000000e+00
    outer loop
      vertex -1.497547e+01 1.693558e+02 7.190000e+02
      vertex -5.024534e+00 1.693558e+02 7.190000e+02
      vertex 4.532019e+00 1.721614e+02 7.190000e+02
    endloop
  endfacet
  facet normal 0.000000e+00 0.000000e+00 1.000000e+00
    outer loop
      vertex -2.453202e+01 1.721614e+02 7.190000e+02
      vertex -1.497547e+01 1.693558e+02 7.190000e+02
      vertex 4.532019e+00 1.721614e+02 7.190000e+02
    endloop
  endfacet
  facet normal 0.000000e+00 0.000000e+00 1.000000e+00
    outer loop
      vertex 2.358351e+01 2.138529e+02 7.190000e+02
      vertex -4.358351e+01 2.138529e+02 7.190000e+02
      vertex -4.500000e+01 2.040000e+02 7.190000e+02
    endloop
  endfacet
  facet normal 0.000000e+00 0.000000e+00 1.000000e+00
    outer loop
      vertex 1.944469e+01 2.229167e+02 7.190000e+02
      vertex -3.944469e+01 2.229167e+02 7.190000e+02
      vertex -4.358351e+01 2.138529e+02 7.190000e+02
    endloop
  endfacet
  facet normal 0.000000e+00 0.000000e+00 1.000000e+00
    outer loop
      vertex 2.358351e+01 2.138529e+02 7.190000e+02
      vertex 1.944469e+01 2.229167e+02 7.190000e+02
      vertex -4.358351e+01 2.138529e+02 7.190000e+02
    endloop
  endfacet
  facet normal 0.000000e+00 0.000000e+00 1.000000e+00
    outer loop
      vertex 1.291692e+01 2.304504e+02 7.190000e+02
      vertex -3.291692e+01 2.304504e+02 7.190000e+02
      vertex -3.944469e+01 2.229167e+02 7.190000e+02
    endloop
  endfacet
  facet normal 0.000000e+00 0.000000e+00 1.000000e+00
    outer loop
      vertex 1.944469e+01 2.229167e+02 7.190000e+02
      vertex 1.291692e+01 2.304504e+02 7.190000e+02
      vertex -3.944469e+01 2.229167e+02 7.190000e+02
    endloop
  endfacet
  facet normal 0.000000e+00 0.000000e+00 1.000000e+00
    outer loop
      vertex 4.532019e+00 2.358386e+02 7.190000e+02
      vertex -2.453202e+01 2.358386e+02 7.190000e+02
      vertex -3.291692e+01 2.304504e+02 7.190000e+02
    endloop
  endfacet
  facet normal 0.000000e+00 0.000000e+00 1.000000e+00
    outer loop
      vertex 1.291692e+01 2.304504e+02 7.190000e+02
      vertex 4.532019e+00 2.358386e+02 7.190000e+02
      vertex -3.291692e+01 2.304504e+02 7.190000e+02
    endloop
  endfacet
  facet normal 0.000000e+00 0.000000e+00 1.000000e+00
    outer loop
      vertex -5.024534e+00 2.386442e+02 7.190000e+02
      vertex -1.497547e+01 2.386442e+02 7.190000e+02
      vertex -2.453202e+01 2.358386e+02 7.190000e+02
    endloop
  endfacet
  facet normal 0.000000e+00 0.000000e+00 1.000000e+00
    outer loop
      vertex 4.532019e+00 2.358386e+02 7.190000e+02
      vertex -5.024534e+00 2.386442e+02 7.190000e+02
      vertex -2.453202e+01 2.358386e+02 7.190000e+02
    endloop
  endfacet
endsolid SIM_CER_L_FOREARM
