solid SIM_CER_R_WRIST_TRIPOD_BASE
  facet normal 0.000000e+00 0.000000e+00 -1.000000e+00
    outer loop
      vertex -5.346577e+01 -1.923509e+02 6.430000e+02
      vertex 3.346577e+01 -1.923509e+02 6.430000e+02
      vertex 3.500000e+01 -2.040000e+02 6.430000e+02
    endloop
  endfacet
  facet normal 9.914382e-01 1.305770e-01 0.000000e+00
    outer loop
      vertex 3.500000e+01 -2.040000e+02 6.530000e+02
      vertex 3.500000e+01 -2.040000e+02 6.430000e+02
      vertex 3.346577e+01 -1.923509e+02 6.430000e+02
    endloop
  endfacet
  facet normal 0.000000e+00 0.000000e+00 -1.000000e+00
    outer loop
      vertex -5.500000e+01 -2.040000e+02 6.430000e+02
      vertex -5.346577e+01 -1.923509e+02 6.430000e+02
      vertex 3.500000e+01 -2.040000e+02 6.430000e+02
    endloop
  endfacet
  facet normal 0.000000e+00 9.759317e-15 -1.000000e+00
    outer loop
      vertex 3.346577e+01 -2.156491e+02 6.430000e+02
      vertex -5.500000e+01 -2.040000e+02 6.430000e+02
      vertex 3.500000e+01 -2.040000e+02 6.430000e+02
    endloop
  endfacet
  facet normal 9.914382e-01 -1.305770e-01 0.000000e+00
    outer loop
      vertex 3.346577e+01 -2.156491e+02 6.530000e+02
      vertex 3.346577e+01 -2.156491e+02 6.430000e+02
      vertex 3.500000e+01 -2.040000e+02 6.430000e+02
    endloop
  endfacet
  facet normal 9.914382e-01 -1.305770e-01 0.000000e+00
    outer loop
      vertex 3.346577e+01 -2.156491e+02 6.530000e+02
      vertex 3.500000e+01 -2.040000e+02 6.430000e+02
      vertex 3.500000e+01 -2.040000e+02 6.530000e+02
    endloop
  endfacet
  facet normal 0.000000e+00 0.000000e+00 -1.000000e+00
    outer loop
      vertex -4.897069e+01 -1.815003e+02 6.430000e+02
      vertex 2.897069e+01 -1.815003e+02 6.430000e+02
      vertex 3.346577e+01 -1.923509e+02 6.430000e+02
    endloop
  endfacet
  facet normal 9.238621e-01 3.827256e-01 0.000000e+00
    outer loop
      vertex 3.346577e+01 -1.923509e+02 6.530000e+02
      vertex 3.346577e+01 -1.923509e+02 6.430000e+02
      vertex 2.897069e+01 -1.815003e+02 6.430000e+02
    endloop
  endfacet
  facet normal 0.000000e+00 0.000000e+00 -1.000000e+00
    outer loop
      vertex -5.346577e+01 -1.923509e+02 6.430000e+02
      vertex -4.897069e+01 -1.815003e+02 6.430000e+02
      vertex 3.346577e+01 -1.923509e+02 6.430000e+02
    endloop
  endfacet
  facet normal 9.914382e-01 1.305770e-01 0.000000e+00
    outer loop
      vertex 3.346577e+01 -1.923509e+02 6.530000e+02
      vertex 3.500000e+01 -2.040000e+02 6.530000e+02
      vertex 3.346577e+01 -1.923509e+02 6.430000e+02
    endloop
  endfacet
  facet normal 0.000000e+00 0.000000e+00 -1.000000e+00
    outer loop
      vertex -4.182126e+01 -1.721821e+02 6.430000e+02
      vertex 2.182126e+01 -1.721821e+02 6.430000e+02
      vertex 2.897069e+01 -1.815003e+02 6.430000e+02
    endloop
  endfacet
  facet normal 7.933811e-01 6.087252e-01 0.000000e+00
    outer loop
      vertex 2.897069e+01 -1.815003e+02 6.530000e+02
      vertex 2.897069e+01 -1.815003e+02 6.430000e+02
      vertex 2.182126e+01 -1.721821e+02 6.430000e+02
    endloop
  endfacet
  facet normal 0.000000e+00 0.000000e+00 -1.000000e+00
    outer loop
      vertex -4.897069e+01 -1.815003e+02 6.430000e+02
      vertex -4.182126e+01 -1.721821e+02 6.430000e+02
      vertex 2.897069e+01 -1.815003e+02 6.430000e+02
    endloop
  endfacet
  facet normal 9.238621e-01 3.827256e-01 0.000000e+00
    outer loop
      vertex 3.346577e+01 -1.923509e+02 6.530000e+02
      vertex 2.897069e+01 -1.815003e+02 6.430000e+02
      vertex 2.897069e+01 -1.815003e+02 6.530000e+02
    endloop
  endfacet
  facet normal 0.000000e+00 1.589311e-14 -1.000000e+00
    outer loop
      vertex -3.250000e+01 -1.650289e+02 6.430000e+02
      vertex 1.250000e+01 -1.650289e+02 6.430000e+02
      vertex 2.182126e+01 -1.721821e+02 6.430000e+02
    endloop
  endfacet
  facet normal 6.088021e-01 7.933222e-01 0.000000e+00
    outer loop
      vertex 2.182126e+01 -1.721821e+02 6.530000e+02
      vertex 2.182126e+01 -1.721821e+02 6.430000e+02
      vertex 1.250000e+01 -1.650289e+02 6.430000e+02
    endloop
  endfacet
  facet normal 7.097603e-30 1.589311e-14 -1.000000e+00
    outer loop
      vertex -4.182126e+01 -1.721821e+02 6.430000e+02
      vertex -3.250000e+01 -1.650289e+02 6.430000e+02
      vertex 2.182126e+01 -1.721821e+02 6.430000e+02
    endloop
  endfacet
  facet normal 7.933811e-01 6.087252e-01 0.000000e+00
    outer loop
      vertex 2.897069e+01 -1.815003e+02 6.530000e+02
      vertex 2.182126e+01 -1.721821e+02 6.430000e+02
      vertex 2.182126e+01 -1.721821e+02 6.530000e+02
    endloop
  endfacet
  facet normal 0.000000e+00 0.000000e+00 -1.000000e+00
    outer loop
      vertex -2.164450e+01 -1.605330e+02 6.430000e+02
      vertex 1.644503e+00 -1.605330e+02 6.430000e+02
      vertex 1.250000e+01 -1.650289e+02 6.430000e+02
    endloop
  endfacet
  facet normal 3.826361e-01 9.238991e-01 0.000000e+00
    outer loop
      vertex 1.250000e+01 -1.650289e+02 6.530000e+02
      vertex 1.250000e+01 -1.650289e+02 6.430000e+02
      vertex 1.644503e+00 -1.605330e+02 6.430000e+02
    endloop
  endfacet
  facet normal 0.000000e+00 0.000000e+00 -1.000000e+00
    outer loop
      vertex -3.250000e+01 -1.650289e+02 6.430000e+02
      vertex -2.164450e+01 -1.605330e+02 6.430000e+02
      vertex 1.250000e+01 -1.650289e+02 6.430000e+02
    endloop
  endfacet
  facet normal 6.088021e-01 7.933222e-01 0.000000e+00
    outer loop
      vertex 2.182126e+01 -1.721821e+02 6.530000e+02
      vertex 1.250000e+01 -1.650289e+02 6.430000e+02
      vertex 1.250000e+01 -1.650289e+02 6.530000e+02
    endloop
  endfacet
  facet normal 0.000000e+00 0.000000e+00 -1.000000e+00
    outer loop
      vertex -2.164450e+01 -1.605330e+02 6.430000e+02
      vertex -1.000000e+01 -1.590005e+02 6.430000e+02
      vertex 1.644503e+00 -1.605330e+02 6.430000e+02
    endloop
  endfacet
  facet normal 1.304809e-01 9.914508e-01 0.000000e+00
    outer loop
      vertex 1.644503e+00 -1.605330e+02 6.530000e+02
      vertex 1.644503e+00 -1.605330e+02 6.430000e+02
      vertex -1.000000e+01 -1.590005e+02 6.430000e+02
    endloop
  endfacet
  facet normal 3.826361e-01 9.238991e-01 0.000000e+00
    outer loop
      vertex 1.250000e+01 -1.650289e+02 6.530000e+02
      vertex 1.644503e+00 -1.605330e+02 6.430000e+02
      vertex 1.644503e+00 -1.605330e+02 6.530000e+02
    endloop
  endfacet
  facet normal -1.304809e-01 9.914508e-01 0.000000e+00
    outer loop
      vertex -1.000000e+01 -1.590005e+02 6.530000e+02
      vertex -1.000000e+01 -1.590005e+02 6.430000e+02
      vertex -2.164450e+01 -1.605330e+02 6.430000e+02
    endloop
  endfacet
  facet normal 1.304809e-01 9.914508e-01 0.000000e+00
    outer loop
      vertex 1.644503e+00 -1.605330e+02 6.530000e+02
      vertex -1.000000e+01 -1.590005e+02 6.430000e+02
      vertex -1.000000e+01 -1.590005e+02 6.530000e+02
    endloop
  endfacet
  facet normal -3.826361e-01 9.238991e-01 0.000000e+00
    outer loop
      vertex -2.164450e+01 -1.605330e+02 6.530000e+02
      vertex -2.164450e+01 -1.605330e+02 6.430000e+02
      vertex -3.250000e+01 -1.650289e+02 6.430000e+02
    endloop
  endfacet
  facet normal -1.304809e-01 9.914508e-01 0.000000e+00
    outer loop
      vertex -1.000000e+01 -1.590005e+02 6.530000e+02
      vertex -2.164450e+01 -1.605330e+02 6.430000e+02
      vertex -2.164450e+01 -1.605330e+02 6.530000e+02
    endloop
  endfacet
  facet normal -6.088021e-01 7.933222e-01 0.000000e+00
    outer loop
      vertex -3.250000e+01 -1.650289e+02 6.530000e+02
      vertex -3.250000e+01 -1.650289e+02 6.430000e+02
      vertex -4.182126e+01 -1.721821e+02 6.430000e+02
    endloop
  endfacet
  facet normal -3.826361e-01 9.238991e-01 0.000000e+00
    outer loop
      vertex -2.164450e+01 -1.605330e+02 6.530000e+02
      vertex -3.250000e+01 -1.650289e+02 6.430000e+02
      vertex -3.250000e+01 -1.650289e+02 6.530000e+02
    endloop
  endfacet
  facet normal -7.933811e-01 6.087252e-01 0.000000e+00
    outer loop
      vertex -4.182126e+01 -1.721821e+02 6.530000e+02
      vertex -4.182126e+01 -1.721821e+02 6.430000e+02
      vertex -4.897069e+01 -1.815003e+02 6.430000e+02
    endloop
  endfacet
  facet normal -6.088021e-01 7.933222e-01 0.000000e+00
    outer loop
      vertex -3.250000e+01 -1.650289e+02 6.530000e+02
      vertex -4.182126e+01 -1.721821e+02 6.430000e+02
      vertex -4.182126e+01 -1.721821e+02 6.530000e+02
    endloop
  endfacet
  facet normal -9.238621e-01 3.827256e-01 0.000000e+00
    outer loop
      vertex -4.897069e+01 -1.815003e+02 6.530000e+02
      vertex -4.897069e+01 -1.815003e+02 6.430000e+02
      vertex -5.346577e+01 -1.923509e+02 6.430000e+02
    endloop
  endfacet
  facet normal -7.933811e-01 6.087252e-01 0.000000e+00
    outer loop
      vertex -4.182126e+01 -1.721821e+02 6.530000e+02
      vertex -4.897069e+01 -1.815003e+02 6.430000e+02
      vertex -4.897069e+01 -1.815003e+02 6.530000e+02
    endloop
  endfacet
  facet normal -9.914382e-01 1.305770e-01 0.000000e+00
    outer loop
      vertex -5.346577e+01 -1.923509e+02 6.530000e+02
      vertex -5.346577e+01 -1.923509e+02 6.430000e+02
      vertex -5.500000e+01 -2.040000e+02 6.430000e+02
    endloop
  endfacet
  facet normal -9.238621e-01 3.827256e-01 0.000000e+00
    outer loop
      vertex -4.897069e+01 -1.815003e+02 6.530000e+02
      vertex -5.346577e+01 -1.923509e+02 6.430000e+02
      vertex -5.346577e+01 -1.923509e+02 6.530000e+02
    endloop
  endfacet
  facet normal 0.000000e+00 9.759317e-15 -1.000000e+00
    outer loop
      vertex 3.346577e+01 -2.156491e+02 6.430000e+02
      vertex -5.346577e+01 -2.156491e+02 6.430000e+02
      vertex -5.500000e+01 -2.040000e+02 6.430000e+02
    endloop
  endfacet
  facet normal -9.914382e-01 -1.305770e-01 0.000000e+00
    outer loop
      vertex -5.500000e+01 -2.040000e+02 6.530000e+02
      vertex -5.500000e+01 -2.040000e+02 6.430000e+02
      vertex -5.346577e+01 -2.156491e+02 6.430000e+02
    endloop
  endfacet
  facet normal -9.914382e-01 1.305770e-01 0.000000e+00
    outer loop
      vertex -5.346577e+01 -1.923509e+02 6.530000e+02
      vertex -5.500000e+01 -2.040000e+02 6.430000e+02
      vertex -5.500000e+01 -2.040000e+02 6.530000e+02
    endloop
  endfacet
  facet normal 0.000000e+00 0.000000e+00 -1.000000e+00
    outer loop
      vertex 2.897069e+01 -2.264997e+02 6.430000e+02
      vertex -4.897069e+01 -2.264997e+02 6.430000e+02
      vertex -5.346577e+01 -2.156491e+02 6.430000e+02
    endloop
  endfacet
  facet normal -9.238621e-01 -3.827256e-01 0.000000e+00
    outer loop
      vertex -5.346577e+01 -2.156491e+02 6.530000e+02
      vertex -5.346577e+01 -2.156491e+02 6.430000e+02
      vertex -4.897069e+01 -2.264997e+02 6.430000e+02
    endloop
  endfacet
  facet normal 0.000000e+00 0.000000e+00 -1.000000e+00
    outer loop
      vertex 3.346577e+01 -2.156491e+02 6.430000e+02
      vertex 2.897069e+01 -2.264997e+02 6.430000e+02
      vertex -5.346577e+01 -2.156491e+02 6.430000e+02
    endloop
  endfacet
  facet normal -9.914382e-01 -1.305770e-01 0.000000e+00
    outer loop
      vertex -5.500000e+01 -2.040000e+02 6.530000e+02
      vertex -5.346577e+01 -2.156491e+02 6.430000e+02
      vertex -5.346577e+01 -2.156491e+02 6.530000e+02
    endloop
  endfacet
  facet normal 0.000000e+00 0.000000e+00 -1.000000e+00
    outer loop
      vertex 2.182126e+01 -2.358179e+02 6.430000e+02
      vertex -4.182126e+01 -2.358179e+02 6.430000e+02
      vertex -4.897069e+01 -2.264997e+02 6.430000e+02
    endloop
  endfacet
  facet normal -7.933811e-01 -6.087252e-01 0.000000e+00
    outer loop
      vertex -4.897069e+01 -2.264997e+02 6.530000e+02
      vertex -4.897069e+01 -2.264997e+02 6.430000e+02
      vertex -4.182126e+01 -2.358179e+02 6.430000e+02
    endloop
  endfacet
  facet normal 0.000000e+00 0.000000e+00 -1.000000e+00
    outer loop
      vertex 2.897069e+01 -2.264997e+02 6.430000e+02
      vertex 2.182126e+01 -2.358179e+02 6.430000e+02
      vertex -4.897069e+01 -2.264997e+02 6.430000e+02
    endloop
  endfacet
  facet normal -9.238621e-01 -3.827256e-01 0.000000e+00
    outer loop
      vertex -5.346577e+01 -2.156491e+02 6.530000e+02
      vertex -4.897069e+01 -2.264997e+02 6.430000e+02
      vertex -4.897069e+01 -2.264997e+02 6.530000e+02
    endloop
  endfacet
  facet normal 0.000000e+00 0.000000e+00 -1.000000e+00
    outer loop
      vertex 1.250000e+01 -2.429711e+02 6.430000e+02
      vertex -3.250000e+01 -2.429711e+02 6.430000e+02
      vertex -4.182126e+01 -2.358179e+02 6.430000e+02
    endloop
  endfacet
  facet normal -6.088021e-01 -7.933222e-01 0.000000e+00
    outer loop
      vertex -4.182126e+01 -2.358179e+02 6.530000e+02
      vertex -4.182126e+01 -2.358179e+02 6.430000e+02
      vertex -3.250000e+01 -2.429711e+02 6.430000e+02
    endloop
  endfacet
  facet normal 0.000000e+00 0.000000e+00 -1.000000e+00
    outer loop
      vertex 2.182126e+01 -2.358179e+02 6.430000e+02
      vertex 1.250000e+01 -2.429711e+02 6.430000e+02
      vertex -4.182126e+01 -2.358179e+02 6.430000e+02
    endloop
  endfacet
  facet normal -7.933811e-01 -6.087252e-01 0.000000e+00
    outer loop
      vertex -4.897069e+01 -2.264997e+02 6.530000e+02
      vertex -4.182126e+01 -2.358179e+02 6.430000e+02
      vertex -4.182126e+01 -2.358179e+02 6.530000e+02
    endloop
  endfacet
  facet normal 0.000000e+00 0.000000e+00 -1.000000e+00
    outer loop
      vertex 1.644503e+00 -2.474670e+02 6.430000e+02
      vertex -2.164450e+01 -2.474670e+02 6.430000e+02
      vertex -3.250000e+01 -2.429711e+02 6.430000e+02
    endloop
  endfacet
  facet normal -3.826361e-01 -9.238991e-01 0.000000e+00
    outer loop
      vertex -3.250000e+01 -2.429711e+02 6.530000e+02
      vertex -3.250000e+01 -2.429711e+02 6.430000e+02
      vertex -2.164450e+01 -2.474670e+02 6.430000e+02
    endloop
  endfacet
  facet normal 0.000000e+00 0.000000e+00 -1.000000e+00
    outer loop
      vertex 1.250000e+01 -2.429711e+02 6.430000e+02
      vertex 1.644503e+00 -2.474670e+02 6.430000e+02
      vertex -3.250000e+01 -2.429711e+02 6.430000e+02
    endloop
  endfacet
  facet normal -6.088021e-01 -7.933222e-01 0.000000e+00
    outer loop
      vertex -4.182126e+01 -2.358179e+02 6.530000e+02
      vertex -3.250000e+01 -2.429711e+02 6.430000e+02
      vertex -3.250000e+01 -2.429711e+02 6.530000e+02
    endloop
  endfacet
  facet normal 0.000000e+00 0.000000e+00 -1.000000e+00
    outer loop
      vertex 1.644503e+00 -2.474670e+02 6.430000e+02
      vertex -1.000000e+01 -2.489995e+02 6.430000e+02
      vertex -2.164450e+01 -2.474670e+02 6.430000e+02
    endloop
  endfacet
  facet normal -1.304809e-01 -9.914508e-01 0.000000e+00
    outer loop
      vertex -2.164450e+01 -2.474670e+02 6.530000e+02
      vertex -2.164450e+01 -2.474670e+02 6.430000e+02
      vertex -1.000000e+01 -2.489995e+02 6.430000e+02
    endloop
  endfacet
  facet normal -3.826361e-01 -9.238991e-01 0.000000e+00
    outer loop
      vertex -3.250000e+01 -2.429711e+02 6.530000e+02
      vertex -2.164450e+01 -2.474670e+02 6.430000e+02
      vertex -2.164450e+01 -2.474670e+02 6.530000e+02
    endloop
  endfacet
  facet normal 1.304809e-01 -9.914508e-01 0.000000e+00
    outer loop
      vertex -1.000000e+01 -2.489995e+02 6.530000e+02
      vertex -1.000000e+01 -2.489995e+02 6.430000e+02
      vertex 1.644503e+00 -2.474670e+02 6.430000e+02
    endloop
  endfacet
  facet normal -1.304809e-01 -9.914508e-01 0.000000e+00
    outer loop
      vertex -2.164450e+01 -2.474670e+02 6.530000e+02
      vertex -1.000000e+01 -2.489995e+02 6.430000e+02
      vertex -1.000000e+01 -2.489995e+02 6.530000e+02
    endloop
  endfacet
  facet normal 3.826361e-01 -9.238991e-01 0.000000e+00
    outer loop
      vertex 1.644503e+00 -2.474670e+02 6.530000e+02
      vertex 1.644503e+00 -2.474670e+02 6.430000e+02
      vertex 1.250000e+01 -2.429711e+02 6.430000e+02
    endloop
  endfacet
  facet normal 1.304809e-01 -9.914508e-01 0.000000e+00
    outer loop
      vertex -1.000000e+01 -2.489995e+02 6.530000e+02
      vertex 1.644503e+00 -2.474670e+02 6.430000e+02
      vertex 1.644503e+00 -2.474670e+02 6.530000e+02
    endloop
  endfacet
  facet normal 6.088021e-01 -7.933222e-01 0.000000e+00
    outer loop
      vertex 1.250000e+01 -2.429711e+02 6.530000e+02
      vertex 1.250000e+01 -2.429711e+02 6.430000e+02
      vertex 2.182126e+01 -2.358179e+02 6.430000e+02
    endloop
  endfacet
  facet normal 3.826361e-01 -9.238991e-01 0.000000e+00
    outer loop
      vertex 1.644503e+00 -2.474670e+02 6.530000e+02
      vertex 1.250000e+01 -2.429711e+02 6.430000e+02
      vertex 1.250000e+01 -2.429711e+02 6.530000e+02
    endloop
  endfacet
  facet normal 7.933811e-01 -6.087252e-01 0.000000e+00
    outer loop
      vertex 2.182126e+01 -2.358179e+02 6.530000e+02
      vertex 2.182126e+01 -2.358179e+02 6.430000e+02
      vertex 2.897069e+01 -2.264997e+02 6.430000e+02
    endloop
  endfacet
  facet normal 6.088021e-01 -7.933222e-01 0.000000e+00
    outer loop
      vertex 1.250000e+01 -2.429711e+02 6.530000e+02
      vertex 2.182126e+01 -2.358179e+02 6.430000e+02
      vertex 2.182126e+01 -2.358179e+02 6.530000e+02
    endloop
  endfacet
  facet normal 9.238621e-01 -3.827256e-01 0.000000e+00
    outer loop
      vertex 2.897069e+01 -2.264997e+02 6.530000e+02
      vertex 2.897069e+01 -2.264997e+02 6.430000e+02
      vertex 3.346577e+01 -2.156491e+02 6.430000e+02
    endloop
  endfacet
  facet normal 7.933811e-01 -6.087252e-01 0.000000e+00
    outer loop
      vertex 2.182126e+01 -2.358179e+02 6.530000e+02
      vertex 2.897069e+01 -2.264997e+02 6.430000e+02
      vertex 2.897069e+01 -2.264997e+02 6.530000e+02
    endloop
  endfacet
  facet normal 9.238621e-01 -3.827256e-01 0.000000e+00
    outer loop
      vertex 2.897069e+01 -2.264997e+02 6.530000e+02
      vertex 3.346577e+01 -2.156491e+02 6.430000e+02
      vertex 3.346577e+01 -2.156491e+02 6.530000e+02
    endloop
  endfacet
  facet normal 0.000000e+00 -9.759317e-15 1.000000e+00
    outer loop
      vertex -5.346577e+01 -2.156491e+02 6.530000e+02
      vertex 3.346577e+01 -2.156491e+02 6.530000e+02
      vertex 3.500000e+01 -2.040000e+02 6.530000e+02
    endloop
  endfacet
  facet normal 0.000000e+00 -9.759317e-15 1.000000e+00
    outer loop
      vertex -5.500000e+01 -2.040000e+02 6.530000e+02
      vertex -5.346577e+01 -2.156491e+02 6.530000e+02
      vertex 3.500000e+01 -2.040000e+02 6.530000e+02
    endloop
  endfacet
  facet normal 0.000000e+00 0.000000e+00 1.000000e+00
    outer loop
      vertex 3.346577e+01 -1.923509e+02 6.530000e+02
      vertex -5.500000e+01 -2.040000e+02 6.530000e+02
      vertex 3.500000e+01 -2.040000e+02 6.530000e+02
    endloop
  endfacet
  facet normal 0.000000e+00 0.000000e+00 1.000000e+00
    outer loop
      vertex -4.897069e+01 -2.264997e+02 6.530000e+02
      vertex 2.897069e+01 -2.264997e+02 6.530000e+02
      vertex 3.346577e+01 -2.156491e+02 6.530000e+02
    endloop
  endfacet
  facet normal 0.000000e+00 0.000000e+00 1.000000e+00
    outer loop
      vertex -5.346577e+01 -2.156491e+02 6.530000e+02
      vertex -4.897069e+01 -2.264997e+02 6.530000e+02
      vertex 3.346577e+01 -2.156491e+02 6.530000e+02
    endloop
  endfacet
  facet normal 0.000000e+00 0.000000e+00 1.000000e+00
    outer loop
      vertex -4.182126e+01 -2.358179e+02 6.530000e+02
      vertex 2.182126e+01 -2.358179e+02 6.530000e+02
      vertex 2.897069e+01 -2.264997e+02 6.530000e+02
    endloop
  endfacet
  facet normal 0.000000e+00 0.000000e+00 1.000000e+00
    outer loop
      vertex -4.897069e+01 -2.264997e+02 6.530000e+02
      vertex -4.182126e+01 -2.358179e+02 6.530000e+02
      vertex 2.897069e+01 -2.264997e+02 6.530000e+02
    endloop
  endfacet
  facet normal 0.000000e+00 0.000000e+00 1.000000e+00
    outer loop
      vertex -3.250000e+01 -2.429711e+02 6.530000e+02
      vertex 1.250000e+01 -2.429711e+02 6.530000e+02
      vertex 2.182126e+01 -2.358179e+02 6.530000e+02
    endloop
  endfacet
  facet normal 0.000000e+00 0.000000e+00 1.000000e+00
    outer loop
      vertex -4.182126e+01 -2.358179e+02 6.530000e+02
      vertex -3.250000e+01 -2.429711e+02 6.530000e+02
      vertex 2.182126e+01 -2.358179e+02 6.530000e+02
    endloop
  endfacet
  facet normal 0.000000e+00 0.000000e+00 1.000000e+00
    outer loop
      vertex -2.164450e+01 -2.474670e+02 6.530000e+02
      vertex 1.644503e+00 -2.474670e+02 6.530000e+02
      vertex 1.250000e+01 -2.429711e+02 6.530000e+02
    endloop
  endfacet
  facet normal 0.000000e+00 0.000000e+00 1.000000e+00
    outer loop
      vertex -3.250000e+01 -2.429711e+02 6.530000e+02
      vertex -2.164450e+01 -2.474670e+02 6.530000e+02
      vertex 1.250000e+01 -2.429711e+02 6.530000e+02
    endloop
  endfacet
  facet normal 0.000000e+00 0.000000e+00 1.000000e+00
    outer loop
      vertex -2.164450e+01 -2.474670e+02 6.530000e+02
      vertex -1.000000e+01 -2.489995e+02 6.530000e+02
      vertex 1.644503e+00 -2.474670e+02 6.530000e+02
    endloop
  endfacet
  facet normal 0.000000e+00 0.000000e+00 1.000000e+00
    outer loop
      vertex 3.346577e+01 -1.923509e+02 6.530000e+02
      vertex -5.346577e+01 -1.923509e+02 6.530000e+02
      vertex -5.500000e+01 -2.040000e+02 6.530000e+02
    endloop
  endfacet
  facet normal 0.000000e+00 0.000000e+00 1.000000e+00
    outer loop
      vertex 2.897069e+01 -1.815003e+02 6.530000e+02
      vertex -4.897069e+01 -1.815003e+02 6.530000e+02
      vertex -5.346577e+01 -1.923509e+02 6.530000e+02
    endloop
  endfacet
  facet normal 0.000000e+00 0.000000e+00 1.000000e+00
    outer loop
      vertex 3.346577e+01 -1.923509e+02 6.530000e+02
      vertex 2.897069e+01 -1.815003e+02 6.530000e+02
      vertex -5.346577e+01 -1.923509e+02 6.530000e+02
    endloop
  endfacet
  facet normal 0.000000e+00 0.000000e+00 1.000000e+00
    outer loop
      vertex 2.182126e+01 -1.721821e+02 6.530000e+02
      vertex -4.182126e+01 -1.721821e+02 6.530000e+02
      vertex -4.897069e+01 -1.815003e+02 6.530000e+02
    endloop
  endfacet
  facet normal 0.000000e+00 0.000000e+00 1.000000e+00
    outer loop
      vertex 2.897069e+01 -1.815003e+02 6.530000e+02
      vertex 2.182126e+01 -1.721821e+02 6.530000e+02
      vertex -4.897069e+01 -1.815003e+02 6.530000e+02
    endloop
  endfacet
  facet normal 0.000000e+00 -1.589311e-14 1.000000e+00
    outer loop
      vertex 1.250000e+01 -1.650289e+02 6.530000e+02
      vertex -3.250000e+01 -1.650289e+02 6.530000e+02
      vertex -4.182126e+01 -1.721821e+02 6.530000e+02
    endloop
  endfacet
  facet normal -7.097603e-30 -1.589311e-14 1.000000e+00
    outer loop
      vertex 2.182126e+01 -1.721821e+02 6.530000e+02
      vertex 1.250000e+01 -1.650289e+02 6.530000e+02
      vertex -4.182126e+01 -1.721821e+02 6.530000e+02
    endloop
  endfacet
  facet normal 0.000000e+00 0.000000e+00 1.000000e+00
    outer loop
      vertex 1.644503e+00 -1.605330e+02 6.530000e+02
      vertex -2.164450e+01 -1.605330e+02 6.530000e+02
      vertex -3.250000e+01 -1.650289e+02 6.530000e+02
    endloop
  endfacet
  facet normal 0.000000e+00 0.000000e+00 1.000000e+00
    outer loop
      vertex 1.250000e+01 -1.650289e+02 6.530000e+02
      vertex 1.644503e+00 -1.605330e+02 6.530000e+02
      vertex -3.250000e+01 -1.650289e+02 6.530000e+02
    endloop
  endfacet
  facet normal 0.000000e+00 0.000000e+00 1.000000e+00
    outer loop
      vertex 1.644503e+00 -1.605330e+02 6.530000e+02
      vertex -1.000000e+01 -1.590005e+02 6.530000e+02
      vertex -2.164450e+01 -1.605330e+02 6.530000e+02
    endloop
  endfacet
endsolid SIM_CER_R_WRIST_TRIPOD_BASE
