solid SIM_CER_R_SHOULDER
  facet normal 0.000000e+00 0.000000e+00 1.000000e+00
    outer loop
      vertex -4.804258e+01 -2.163524e+02 9.700000e+02
      vertex 2.804258e+01 -2.163524e+02 9.700000e+02
      vertex 3.000000e+01 -2.040000e+02 9.700000e+02
    endloop
  endfacet
  facet normal 9.876761e-01 -1.565114e-01 0.000000e+00
    outer loop
      vertex 3.000000e+01 -2.040000e+02 8.600000e+02
      vertex 3.000000e+01 -2.040000e+02 9.700000e+02
      vertex 2.804258e+01 -2.163524e+02 9.700000e+02
    endloop
  endfacet
  facet normal 0.000000e+00 0.000000e+00 1.000000e+00
    outer loop
      vertex -5.000000e+01 -2.040000e+02 9.700000e+02
      vertex -4.804258e+01 -2.163524e+02 9.700000e+02
      vertex 3.000000e+01 -2.040000e+02 9.700000e+02
    endloop
  endfacet
  facet normal 0.000000e+00 0.000000e+00 1.000000e+00
    outer loop
      vertex 2.804258e+01 -1.916476e+02 9.700000e+02
      vertex -5.000000e+01 -2.040000e+02 9.700000e+02
      vertex 3.000000e+01 -2.040000e+02 9.700000e+02
    endloop
  endfacet
  facet normal 9.876761e-01 1.565114e-01 -5.652170e-06
    outer loop
      vertex 2.804129e+01 -1.916434e+02 8.600000e+02
      vertex 2.804258e+01 -1.916476e+02 9.700000e+02
      vertex 3.000000e+01 -2.040000e+02 9.700000e+02
    endloop
  endfacet
  facet normal 9.876684e-01 1.565605e-01 0.000000e+00
    outer loop
      vertex 3.000000e+01 -2.040000e+02 8.600000e+02
      vertex 2.804129e+01 -1.916434e+02 8.600000e+02
      vertex 3.000000e+01 -2.040000e+02 9.700000e+02
    endloop
  endfacet
  facet normal 0.000000e+00 0.000000e+00 1.000000e+00
    outer loop
      vertex -4.235564e+01 -2.275134e+02 9.700000e+02
      vertex 2.235564e+01 -2.275134e+02 9.700000e+02
      vertex 2.804258e+01 -2.163524e+02 9.700000e+02
    endloop
  endfacet
  facet normal 8.910012e-01 -4.540010e-01 6.732023e-06
    outer loop
      vertex 2.804129e+01 -2.163566e+02 8.600000e+02
      vertex 2.804258e+01 -2.163524e+02 9.700000e+02
      vertex 2.235564e+01 -2.275134e+02 9.700000e+02
    endloop
  endfacet
  facet normal 0.000000e+00 0.000000e+00 1.000000e+00
    outer loop
      vertex -4.804258e+01 -2.163524e+02 9.700000e+02
      vertex -4.235564e+01 -2.275134e+02 9.700000e+02
      vertex 2.804258e+01 -2.163524e+02 9.700000e+02
    endloop
  endfacet
  facet normal 9.876684e-01 -1.565605e-01 -5.650223e-06
    outer loop
      vertex 2.804129e+01 -2.163566e+02 8.600000e+02
      vertex 3.000000e+01 -2.040000e+02 8.600000e+02
      vertex 2.804258e+01 -2.163524e+02 9.700000e+02
    endloop
  endfacet
  facet normal 0.000000e+00 0.000000e+00 1.000000e+00
    outer loop
      vertex -3.350569e+01 -2.363643e+02 9.700000e+02
      vertex 1.350569e+01 -2.363643e+02 9.700000e+02
      vertex 2.235564e+01 -2.275134e+02 9.700000e+02
    endloop
  endfacet
  facet normal 7.071474e-01 -7.070662e-01 2.156962e-05
    outer loop
      vertex 2.235561e+01 -2.275167e+02 8.600000e+02
      vertex 2.235564e+01 -2.275134e+02 9.700000e+02
      vertex 1.350569e+01 -2.363643e+02 9.700000e+02
    endloop
  endfacet
  facet normal 0.000000e+00 0.000000e+00 1.000000e+00
    outer loop
      vertex -4.235564e+01 -2.275134e+02 9.700000e+02
      vertex -3.350569e+01 -2.363643e+02 9.700000e+02
      vertex 2.235564e+01 -2.275134e+02 9.700000e+02
    endloop
  endfacet
  facet normal 8.910290e-01 -4.539463e-01 1.372485e-05
    outer loop
      vertex 2.235561e+01 -2.275167e+02 8.600000e+02
      vertex 2.804129e+01 -2.163566e+02 8.600000e+02
      vertex 2.235564e+01 -2.275134e+02 9.700000e+02
    endloop
  endfacet
  facet normal 0.000000e+00 0.000000e+00 1.000000e+00
    outer loop
      vertex -2.236889e+01 -2.420382e+02 9.700000e+02
      vertex 2.368890e+00 -2.420382e+02 9.700000e+02
      vertex 1.350569e+01 -2.363643e+02 9.700000e+02
    endloop
  endfacet
  facet normal 4.539532e-01 -8.910255e-01 -2.480126e-05
    outer loop
      vertex 1.351663e+01 -2.363557e+02 8.600000e+02
      vertex 1.350569e+01 -2.363643e+02 9.700000e+02
      vertex 2.368890e+00 -2.420382e+02 9.700000e+02
    endloop
  endfacet
  facet normal 0.000000e+00 0.000000e+00 1.000000e+00
    outer loop
      vertex -3.350569e+01 -2.363643e+02 9.700000e+02
      vertex -2.236889e+01 -2.420382e+02 9.700000e+02
      vertex 1.350569e+01 -2.363643e+02 9.700000e+02
    endloop
  endfacet
  facet normal 7.071055e-01 -7.071080e-01 1.483368e-05
    outer loop
      vertex 1.351663e+01 -2.363557e+02 8.600000e+02
      vertex 2.235561e+01 -2.275167e+02 8.600000e+02
      vertex 1.350569e+01 -2.363643e+02 9.700000e+02
    endloop
  endfacet
  facet normal 0.000000e+00 0.000000e+00 1.000000e+00
    outer loop
      vertex -2.236889e+01 -2.420382e+02 9.700000e+02
      vertex -1.000000e+01 -2.439968e+02 9.700000e+02
      vertex 2.368890e+00 -2.420382e+02 9.700000e+02
    endloop
  endfacet
  facet normal 1.563998e-01 -9.876938e-01 1.019198e-05
    outer loop
      vertex 2.356510e+00 -2.420413e+02 8.600000e+02
      vertex 2.368890e+00 -2.420382e+02 9.700000e+02
      vertex -1.000000e+01 -2.439968e+02 9.700000e+02
    endloop
  endfacet
  facet normal 4.539437e-01 -8.910304e-01 -2.601740e-05
    outer loop
      vertex 2.356510e+00 -2.420413e+02 8.600000e+02
      vertex 1.351663e+01 -2.363557e+02 8.600000e+02
      vertex 2.368890e+00 -2.420382e+02 9.700000e+02
    endloop
  endfacet
  facet normal -1.563998e-01 -9.876938e-01 2.857020e-05
    outer loop
      vertex -1.000000e+01 -2.440000e+02 8.600000e+02
      vertex -1.000000e+01 -2.439968e+02 9.700000e+02
      vertex -2.236889e+01 -2.420382e+02 9.700000e+02
    endloop
  endfacet
  facet normal 1.565594e-01 -9.876686e-01 2.856947e-05
    outer loop
      vertex -1.000000e+01 -2.440000e+02 8.600000e+02
      vertex 2.356510e+00 -2.420413e+02 8.600000e+02
      vertex -1.000000e+01 -2.439968e+02 9.700000e+02
    endloop
  endfacet
  facet normal -4.539532e-01 -8.910255e-01 -2.601861e-05
    outer loop
      vertex -2.235651e+01 -2.420413e+02 8.600000e+02
      vertex -2.236889e+01 -2.420382e+02 9.700000e+02
      vertex -3.350569e+01 -2.363643e+02 9.700000e+02
    endloop
  endfacet
  facet normal -1.565594e-01 -9.876686e-01 1.017330e-05
    outer loop
      vertex -2.235651e+01 -2.420413e+02 8.600000e+02
      vertex -1.000000e+01 -2.440000e+02 8.600000e+02
      vertex -2.236889e+01 -2.420382e+02 9.700000e+02
    endloop
  endfacet
  facet normal -7.071474e-01 -7.070662e-01 1.484114e-05
    outer loop
      vertex -3.351663e+01 -2.363557e+02 8.600000e+02
      vertex -3.350569e+01 -2.363643e+02 9.700000e+02
      vertex -4.235564e+01 -2.275134e+02 9.700000e+02
    endloop
  endfacet
  facet normal -4.539437e-01 -8.910304e-01 -2.480259e-05
    outer loop
      vertex -3.351663e+01 -2.363557e+02 8.600000e+02
      vertex -2.235651e+01 -2.420413e+02 8.600000e+02
      vertex -3.350569e+01 -2.363643e+02 9.700000e+02
    endloop
  endfacet
  facet normal -8.910012e-01 -4.540010e-01 1.372655e-05
    outer loop
      vertex -4.235561e+01 -2.275167e+02 8.600000e+02
      vertex -4.235564e+01 -2.275134e+02 9.700000e+02
      vertex -4.804258e+01 -2.163524e+02 9.700000e+02
    endloop
  endfacet
  facet normal -7.071055e-01 -7.071080e-01 2.157092e-05
    outer loop
      vertex -4.235561e+01 -2.275167e+02 8.600000e+02
      vertex -3.351663e+01 -2.363557e+02 8.600000e+02
      vertex -4.235564e+01 -2.275134e+02 9.700000e+02
    endloop
  endfacet
  facet normal -9.876761e-01 -1.565114e-01 -5.652170e-06
    outer loop
      vertex -4.804129e+01 -2.163566e+02 8.600000e+02
      vertex -4.804258e+01 -2.163524e+02 9.700000e+02
      vertex -5.000000e+01 -2.040000e+02 9.700000e+02
    endloop
  endfacet
  facet normal -8.910290e-01 -4.539463e-01 6.729627e-06
    outer loop
      vertex -4.804129e+01 -2.163566e+02 8.600000e+02
      vertex -4.235561e+01 -2.275167e+02 8.600000e+02
      vertex -4.804258e+01 -2.163524e+02 9.700000e+02
    endloop
  endfacet
  facet normal 0.000000e+00 0.000000e+00 1.000000e+00
    outer loop
      vertex 2.804258e+01 -1.916476e+02 9.700000e+02
      vertex -4.804258e+01 -1.916476e+02 9.700000e+02
      vertex -5.000000e+01 -2.040000e+02 9.700000e+02
    endloop
  endfacet
  facet normal -9.876761e-01 1.565114e-01 0.000000e+00
    outer loop
      vertex -5.000000e+01 -2.040000e+02 8.600000e+02
      vertex -5.000000e+01 -2.040000e+02 9.700000e+02
      vertex -4.804258e+01 -1.916476e+02 9.700000e+02
    endloop
  endfacet
  facet normal -9.876684e-01 -1.565605e-01 0.000000e+00
    outer loop
      vertex -4.804129e+01 -2.163566e+02 8.600000e+02
      vertex -5.000000e+01 -2.040000e+02 9.700000e+02
      vertex -5.000000e+01 -2.040000e+02 8.600000e+02
    endloop
  endfacet
  facet normal 0.000000e+00 0.000000e+00 1.000000e+00
    outer loop
      vertex 2.235564e+01 -1.804866e+02 9.700000e+02
      vertex -4.235564e+01 -1.804866e+02 9.700000e+02
      vertex -4.804258e+01 -1.916476e+02 9.700000e+02
    endloop
  endfacet
  facet normal -8.910012e-01 4.540010e-01 6.732023e-06
    outer loop
      vertex -4.804129e+01 -1.916434e+02 8.600000e+02
      vertex -4.804258e+01 -1.916476e+02 9.700000e+02
      vertex -4.235564e+01 -1.804866e+02 9.700000e+02
    endloop
  endfacet
  facet normal 0.000000e+00 0.000000e+00 1.000000e+00
    outer loop
      vertex 2.804258e+01 -1.916476e+02 9.700000e+02
      vertex 2.235564e+01 -1.804866e+02 9.700000e+02
      vertex -4.804258e+01 -1.916476e+02 9.700000e+02
    endloop
  endfacet
  facet normal -9.876684e-01 1.565605e-01 -5.650223e-06
    outer loop
      vertex -4.804129e+01 -1.916434e+02 8.600000e+02
      vertex -5.000000e+01 -2.040000e+02 8.600000e+02
      vertex -4.804258e+01 -1.916476e+02 9.700000e+02
    endloop
  endfacet
  facet normal 0.000000e+00 0.000000e+00 1.000000e+00
    outer loop
      vertex 1.350569e+01 -1.716357e+02 9.700000e+02
      vertex -3.350569e+01 -1.716357e+02 9.700000e+02
      vertex -4.235564e+01 -1.804866e+02 9.700000e+02
    endloop
  endfacet
  facet normal -7.071474e-01 7.070662e-01 2.156962e-05
    outer loop
      vertex -4.235561e+01 -1.804833e+02 8.600000e+02
      vertex -4.235564e+01 -1.804866e+02 9.700000e+02
      vertex -3.350569e+01 -1.716357e+02 9.700000e+02
    endloop
  endfacet
  facet normal 0.000000e+00 0.000000e+00 1.000000e+00
    outer loop
      vertex 2.235564e+01 -1.804866e+02 9.700000e+02
      vertex 1.350569e+01 -1.716357e+02 9.700000e+02
      vertex -4.235564e+01 -1.804866e+02 9.700000e+02
    endloop
  endfacet
  facet normal -8.910290e-01 4.539463e-01 1.372485e-05
    outer loop
      vertex -4.235561e+01 -1.804833e+02 8.600000e+02
      vertex -4.804129e+01 -1.916434e+02 8.600000e+02
      vertex -4.235564e+01 -1.804866e+02 9.700000e+02
    endloop
  endfacet
  facet normal 0.000000e+00 0.000000e+00 1.000000e+00
    outer loop
      vertex 2.368890e+00 -1.659618e+02 9.700000e+02
      vertex -2.236889e+01 -1.659618e+02 9.700000e+02
      vertex -3.350569e+01 -1.716357e+02 9.700000e+02
    endloop
  endfacet
  facet normal -4.539532e-01 8.910255e-01 -2.480126e-05
    outer loop
      vertex -3.351663e+01 -1.716443e+02 8.600000e+02
      vertex -3.350569e+01 -1.716357e+02 9.700000e+02
      vertex -2.236889e+01 -1.659618e+02 9.700000e+02
    endloop
  endfacet
  facet normal 0.000000e+00 0.000000e+00 1.000000e+00
    outer loop
      vertex 1.350569e+01 -1.716357e+02 9.700000e+02
      vertex 2.368890e+00 -1.659618e+02 9.700000e+02
      vertex -3.350569e+01 -1.716357e+02 9.700000e+02
    endloop
  endfacet
  facet normal -7.071055e-01 7.071080e-01 1.483368e-05
    outer loop
      vertex -3.351663e+01 -1.716443e+02 8.600000e+02
      vertex -4.235561e+01 -1.804833e+02 8.600000e+02
      vertex -3.350569e+01 -1.716357e+02 9.700000e+02
    endloop
  endfacet
  facet normal 0.000000e+00 0.000000e+00 1.000000e+00
    outer loop
      vertex 2.368890e+00 -1.659618e+02 9.700000e+02
      vertex -1.000000e+01 -1.640032e+02 9.700000e+02
      vertex -2.236889e+01 -1.659618e+02 9.700000e+02
    endloop
  endfacet
  facet normal -1.563998e-01 9.876938e-01 1.019198e-05
    outer loop
      vertex -2.235651e+01 -1.659587e+02 8.600000e+02
      vertex -2.236889e+01 -1.659618e+02 9.700000e+02
      vertex -1.000000e+01 -1.640032e+02 9.700000e+02
    endloop
  endfacet
  facet normal -4.539437e-01 8.910304e-01 -2.601740e-05
    outer loop
      vertex -2.235651e+01 -1.659587e+02 8.600000e+02
      vertex -3.351663e+01 -1.716443e+02 8.600000e+02
      vertex -2.236889e+01 -1.659618e+02 9.700000e+02
    endloop
  endfacet
  facet normal 1.563998e-01 9.876938e-01 2.857020e-05
    outer loop
      vertex -1.000000e+01 -1.640000e+02 8.600000e+02
      vertex -1.000000e+01 -1.640032e+02 9.700000e+02
      vertex 2.368890e+00 -1.659618e+02 9.700000e+02
    endloop
  endfacet
  facet normal -1.565594e-01 9.876686e-01 2.856947e-05
    outer loop
      vertex -1.000000e+01 -1.640000e+02 8.600000e+02
      vertex -2.235651e+01 -1.659587e+02 8.600000e+02
      vertex -1.000000e+01 -1.640032e+02 9.700000e+02
    endloop
  endfacet
  facet normal 4.539532e-01 8.910255e-01 -2.601861e-05
    outer loop
      vertex 2.356510e+00 -1.659587e+02 8.600000e+02
      vertex 2.368890e+00 -1.659618e+02 9.700000e+02
      vertex 1.350569e+01 -1.716357e+02 9.700000e+02
    endloop
  endfacet
  facet normal 1.565594e-01 9.876686e-01 1.017330e-05
    outer loop
      vertex 2.356510e+00 -1.659587e+02 8.600000e+02
      vertex -1.000000e+01 -1.640000e+02 8.600000e+02
      vertex 2.368890e+00 -1.659618e+02 9.700000e+02
    endloop
  endfacet
  facet normal 7.071474e-01 7.070662e-01 1.484114e-05
    outer loop
      vertex 1.351663e+01 -1.716443e+02 8.600000e+02
      vertex 1.350569e+01 -1.716357e+02 9.700000e+02
      vertex 2.235564e+01 -1.804866e+02 9.700000e+02
    endloop
  endfacet
  facet normal 4.539437e-01 8.910304e-01 -2.480259e-05
    outer loop
      vertex 1.351663e+01 -1.716443e+02 8.600000e+02
      vertex 2.356510e+00 -1.659587e+02 8.600000e+02
      vertex 1.350569e+01 -1.716357e+02 9.700000e+02
    endloop
  endfacet
  facet normal 8.910012e-01 4.540010e-01 1.372655e-05
    outer loop
      vertex 2.235561e+01 -1.804833e+02 8.600000e+02
      vertex 2.235564e+01 -1.804866e+02 9.700000e+02
      vertex 2.804258e+01 -1.916476e+02 9.700000e+02
    endloop
  endfacet
  facet normal 7.071055e-01 7.071080e-01 2.157092e-05
    outer loop
      vertex 2.235561e+01 -1.804833e+02 8.600000e+02
      vertex 1.351663e+01 -1.716443e+02 8.600000e+02
      vertex 2.235564e+01 -1.804866e+02 9.700000e+02
    endloop
  endfacet
  facet normal 8.910290e-01 4.539463e-01 6.729627e-06
    outer loop
      vertex 2.804129e+01 -1.916434e+02 8.600000e+02
      vertex 2.235561e+01 -1.804833e+02 8.600000e+02
      vertex 2.804258e+01 -1.916476e+02 9.700000e+02
    endloop
  endfacet
  facet normal 0.000000e+00 0.000000e+00 -1.000000e+00
    outer loop
      vertex 3.000000e+01 -2.040000e+02 8.600000e+02
      vertex -5.000000e+01 -2.040000e+02 8.600000e+02
      vertex -4.804129e+01 -1.916434e+02 8.600000e+02
    endloop
  endfacet
  facet normal 0.000000e+00 0.000000e+00 -1.000000e+00
    outer loop
      vertex 2.804129e+01 -2.163566e+02 8.600000e+02
      vertex -5.000000e+01 -2.040000e+02 8.600000e+02
      vertex 3.000000e+01 -2.040000e+02 8.600000e+02
    endloop
  endfacet
  facet normal 0.000000e+00 0.000000e+00 -1.000000e+00
    outer loop
      vertex -4.804129e+01 -2.163566e+02 8.600000e+02
      vertex -5.000000e+01 -2.040000e+02 8.600000e+02
      vertex 2.804129e+01 -2.163566e+02 8.600000e+02
    endloop
  endfacet
  facet normal 0.000000e+00 0.000000e+00 -1.000000e+00
    outer loop
      vertex 2.804129e+01 -1.916434e+02 8.600000e+02
      vertex -4.804129e+01 -1.916434e+02 8.600000e+02
      vertex -4.235561e+01 -1.804833e+02 8.600000e+02
    endloop
  endfacet
  facet normal 0.000000e+00 0.000000e+00 -1.000000e+00
    outer loop
      vertex 3.000000e+01 -2.040000e+02 8.600000e+02
      vertex -4.804129e+01 -1.916434e+02 8.600000e+02
      vertex 2.804129e+01 -1.916434e+02 8.600000e+02
    endloop
  endfacet
  facet normal 0.000000e+00 0.000000e+00 -1.000000e+00
    outer loop
      vertex 2.235561e+01 -1.804833e+02 8.600000e+02
      vertex -4.235561e+01 -1.804833e+02 8.600000e+02
      vertex -3.351663e+01 -1.716443e+02 8.600000e+02
    endloop
  endfacet
  facet normal 0.000000e+00 0.000000e+00 -1.000000e+00
    outer loop
      vertex 2.804129e+01 -1.916434e+02 8.600000e+02
      vertex -4.235561e+01 -1.804833e+02 8.600000e+02
      vertex 2.235561e+01 -1.804833e+02 8.600000e+02
    endloop
  endfacet
  facet normal 0.000000e+00 0.000000e+00 -1.000000e+00
    outer loop
      vertex 1.351663e+01 -1.716443e+02 8.600000e+02
      vertex -3.351663e+01 -1.716443e+02 8.600000e+02
      vertex -2.235651e+01 -1.659587e+02 8.600000e+02
    endloop
  endfacet
  facet normal 0.000000e+00 0.000000e+00 -1.000000e+00
    outer loop
      vertex 2.235561e+01 -1.804833e+02 8.600000e+02
      vertex -3.351663e+01 -1.716443e+02 8.600000e+02
      vertex 1.351663e+01 -1.716443e+02 8.600000e+02
    endloop
  endfacet
  facet normal 0.000000e+00 0.000000e+00 -1.000000e+00
    outer loop
      vertex 2.356510e+00 -1.659587e+02 8.600000e+02
      vertex -2.235651e+01 -1.659587e+02 8.600000e+02
      vertex -1.000000e+01 -1.640000e+02 8.600000e+02
    endloop
  endfacet
  facet normal 0.000000e+00 0.000000e+00 -1.000000e+00
    outer loop
      vertex 1.351663e+01 -1.716443e+02 8.600000e+02
      vertex -2.235651e+01 -1.659587e+02 8.600000e+02
      vertex 2.356510e+00 -1.659587e+02 8.600000e+02
    endloop
  endfacet
  facet normal 0.000000e+00 0.000000e+00 -1.000000e+00
    outer loop
      vertex -4.804129e+01 -2.163566e+02 8.600000e+02
      vertex 2.804129e+01 -2.163566e+02 8.600000e+02
      vertex 2.235561e+01 -2.275167e+02 8.600000e+02
    endloop
  endfacet
  facet normal 0.000000e+00 0.000000e+00 -1.000000e+00
    outer loop
      vertex -4.235561e+01 -2.275167e+02 8.600000e+02
      vertex 2.235561e+01 -2.275167e+02 8.600000e+02
      vertex 1.351663e+01 -2.363557e+02 8.600000e+02
    endloop
  endfacet
  facet normal 0.000000e+00 0.000000e+00 -1.000000e+00
    outer loop
      vertex -4.804129e+01 -2.163566e+02 8.600000e+02
      vertex 2.235561e+01 -2.275167e+02 8.600000e+02
      vertex -4.235561e+01 -2.275167e+02 8.600000e+02
    endloop
  endfacet
  facet normal 0.000000e+00 0.000000e+00 -1.000000e+00
    outer loop
      vertex -3.351663e+01 -2.363557e+02 8.600000e+02
      vertex 1.351663e+01 -2.363557e+02 8.600000e+02
      vertex 2.356510e+00 -2.420413e+02 8.600000e+02
    endloop
  endfacet
  facet normal 0.000000e+00 0.000000e+00 -1.000000e+00
    outer loop
      vertex -4.235561e+01 -2.275167e+02 8.600000e+02
      vertex 1.351663e+01 -2.363557e+02 8.600000e+02
      vertex -3.351663e+01 -2.363557e+02 8.600000e+02
    endloop
  endfacet
  facet normal 0.000000e+00 0.000000e+00 -1.000000e+00
    outer loop
      vertex -2.235651e+01 -2.420413e+02 8.600000e+02
      vertex 2.356510e+00 -2.420413e+02 8.600000e+02
      vertex -1.000000e+01 -2.440000e+02 8.600000e+02
    endloop
  endfacet
  facet normal 0.000000e+00 0.000000e+00 -1.000000e+00
    outer loop
      vertex -3.351663e+01 -2.363557e+02 8.600000e+02
      vertex 2.356510e+00 -2.420413e+02 8.600000e+02
      vertex -2.235651e+01 -2.420413e+02 8.600000e+02
    endloop
  endfacet
endsolid SIM_CER_R_SHOULDER
