solid SIM_CER_L_WRIST_TRIPOD_SLIDER
  facet normal 0.000000e+00 -7.426440e-15 1.000000e+00
    outer loop
      vertex -4.695430e+01 1.886916e+02 6.480000e+02
      vertex 2.695430e+01 1.886916e+02 6.480000e+02
      vertex 3.000000e+01 2.040000e+02 6.480000e+02
    endloop
  endfacet
  facet normal 9.807770e-01 -1.951318e-01 -3.781349e-16
    outer loop
      vertex 3.000000e+01 2.040000e+02 4.280000e+02
      vertex 3.000000e+01 2.040000e+02 6.480000e+02
      vertex 2.695430e+01 1.886916e+02 6.480000e+02
    endloop
  endfacet
  facet normal 0.000000e+00 -7.426440e-15 1.000000e+00
    outer loop
      vertex -5.000000e+01 2.040000e+02 6.480000e+02
      vertex -4.695430e+01 1.886916e+02 6.480000e+02
      vertex 3.000000e+01 2.040000e+02 6.480000e+02
    endloop
  endfacet
  facet normal 0.000000e+00 0.000000e+00 1.000000e+00
    outer loop
      vertex 2.695430e+01 2.193084e+02 6.480000e+02
      vertex -5.000000e+01 2.040000e+02 6.480000e+02
      vertex 3.000000e+01 2.040000e+02 6.480000e+02
    endloop
  endfacet
  facet normal 9.807770e-01 1.951318e-01 3.654265e-06
    outer loop
      vertex 2.695543e+01 2.193068e+02 4.280000e+02
      vertex 2.695430e+01 2.193084e+02 6.480000e+02
      vertex 3.000000e+01 2.040000e+02 6.480000e+02
    endloop
  endfacet
  facet normal 9.807871e-01 1.950812e-01 3.780370e-16
    outer loop
      vertex 3.000000e+01 2.040000e+02 4.280000e+02
      vertex 2.695543e+01 2.193068e+02 4.280000e+02
      vertex 3.000000e+01 2.040000e+02 6.480000e+02
    endloop
  endfacet
  facet normal 0.000000e+00 0.000000e+00 1.000000e+00
    outer loop
      vertex -3.828557e+01 1.757174e+02 6.480000e+02
      vertex 1.828557e+01 1.757174e+02 6.480000e+02
      vertex 2.695430e+01 1.886916e+02 6.480000e+02
    endloop
  endfacet
  facet normal 8.314802e-01 -5.555543e-01 3.372479e-07
    outer loop
      vertex 2.695543e+01 1.886932e+02 4.280000e+02
      vertex 2.695430e+01 1.886916e+02 6.480000e+02
      vertex 1.828557e+01 1.757174e+02 6.480000e+02
    endloop
  endfacet
  facet normal 0.000000e+00 0.000000e+00 1.000000e+00
    outer loop
      vertex -4.695430e+01 1.886916e+02 6.480000e+02
      vertex -3.828557e+01 1.757174e+02 6.480000e+02
      vertex 2.695430e+01 1.886916e+02 6.480000e+02
    endloop
  endfacet
  facet normal 9.807871e-01 -1.950812e-01 3.654674e-06
    outer loop
      vertex 2.695543e+01 1.886932e+02 4.280000e+02
      vertex 3.000000e+01 2.040000e+02 4.280000e+02
      vertex 2.695430e+01 1.886916e+02 6.480000e+02
    endloop
  endfacet
  facet normal 0.000000e+00 0.000000e+00 1.000000e+00
    outer loop
      vertex -2.530561e+01 1.670442e+02 6.480000e+02
      vertex 5.305611e+00 1.670442e+02 6.480000e+02
      vertex 1.828557e+01 1.757174e+02 6.480000e+02
    endloop
  endfacet
  facet normal 5.555821e-01 -8.314617e-01 -9.716064e-07
    outer loop
      vertex 1.828364e+01 1.757164e+02 4.280000e+02
      vertex 1.828557e+01 1.757174e+02 6.480000e+02
      vertex 5.305611e+00 1.670442e+02 6.480000e+02
    endloop
  endfacet
  facet normal 0.000000e+00 0.000000e+00 1.000000e+00
    outer loop
      vertex -3.828557e+01 1.757174e+02 6.480000e+02
      vertex -2.530561e+01 1.670442e+02 6.480000e+02
      vertex 1.828557e+01 1.757174e+02 6.480000e+02
    endloop
  endfacet
  facet normal 8.314410e-01 -5.556131e-01 -4.674592e-06
    outer loop
      vertex 1.828364e+01 1.757164e+02 4.280000e+02
      vertex 2.695543e+01 1.886932e+02 4.280000e+02
      vertex 1.828557e+01 1.757174e+02 6.480000e+02
    endloop
  endfacet
  facet normal 0.000000e+00 0.000000e+00 1.000000e+00
    outer loop
      vertex -2.530561e+01 1.670442e+02 6.480000e+02
      vertex -1.000000e+01 1.640005e+02 6.480000e+02
      vertex 5.305611e+00 1.670442e+02 6.480000e+02
    endloop
  endfacet
  facet normal 1.950445e-01 -9.807944e-01 -5.769923e-07
    outer loop
      vertex 5.306843e+00 1.670446e+02 4.280000e+02
      vertex 5.305611e+00 1.670442e+02 6.480000e+02
      vertex -1.000000e+01 1.640005e+02 6.480000e+02
    endloop
  endfacet
  facet normal 5.556133e-01 -8.314408e-01 1.697384e-06
    outer loop
      vertex 5.306843e+00 1.670446e+02 4.280000e+02
      vertex 1.828364e+01 1.757164e+02 4.280000e+02
      vertex 5.305611e+00 1.670442e+02 6.480000e+02
    endloop
  endfacet
  facet normal -1.950445e-01 -9.807944e-01 2.089483e-06
    outer loop
      vertex -1.000000e+01 1.640000e+02 4.280000e+02
      vertex -1.000000e+01 1.640005e+02 6.480000e+02
      vertex -2.530561e+01 1.670442e+02 6.480000e+02
    endloop
  endfacet
  facet normal 1.950814e-01 -9.807871e-01 2.089468e-06
    outer loop
      vertex -1.000000e+01 1.640000e+02 4.280000e+02
      vertex 5.306843e+00 1.670446e+02 4.280000e+02
      vertex -1.000000e+01 1.640005e+02 6.480000e+02
    endloop
  endfacet
  facet normal -5.555821e-01 -8.314617e-01 1.697173e-06
    outer loop
      vertex -2.530684e+01 1.670446e+02 4.280000e+02
      vertex -2.530561e+01 1.670442e+02 6.480000e+02
      vertex -3.828557e+01 1.757174e+02 6.480000e+02
    endloop
  endfacet
  facet normal -1.950814e-01 -9.807871e-01 -5.767733e-07
    outer loop
      vertex -2.530684e+01 1.670446e+02 4.280000e+02
      vertex -1.000000e+01 1.640000e+02 4.280000e+02
      vertex -2.530561e+01 1.670442e+02 6.480000e+02
    endloop
  endfacet
  facet normal -8.314802e-01 -5.555543e-01 -4.675210e-06
    outer loop
      vertex -3.828364e+01 1.757164e+02 4.280000e+02
      vertex -3.828557e+01 1.757174e+02 6.480000e+02
      vertex -4.695430e+01 1.886916e+02 6.480000e+02
    endloop
  endfacet
  facet normal -5.556133e-01 -8.314408e-01 -9.719777e-07
    outer loop
      vertex -3.828364e+01 1.757164e+02 4.280000e+02
      vertex -2.530684e+01 1.670446e+02 4.280000e+02
      vertex -3.828557e+01 1.757174e+02 6.480000e+02
    endloop
  endfacet
  facet normal -9.807770e-01 -1.951318e-01 3.654265e-06
    outer loop
      vertex -4.695543e+01 1.886932e+02 4.280000e+02
      vertex -4.695430e+01 1.886916e+02 6.480000e+02
      vertex -5.000000e+01 2.040000e+02 6.480000e+02
    endloop
  endfacet
  facet normal -8.314410e-01 -5.556131e-01 3.366307e-07
    outer loop
      vertex -4.695543e+01 1.886932e+02 4.280000e+02
      vertex -3.828364e+01 1.757164e+02 4.280000e+02
      vertex -4.695430e+01 1.886916e+02 6.480000e+02
    endloop
  endfacet
  facet normal 0.000000e+00 0.000000e+00 1.000000e+00
    outer loop
      vertex 2.695430e+01 2.193084e+02 6.480000e+02
      vertex -4.695430e+01 2.193084e+02 6.480000e+02
      vertex -5.000000e+01 2.040000e+02 6.480000e+02
    endloop
  endfacet
  facet normal -9.807770e-01 1.951318e-01 4.983735e-16
    outer loop
      vertex -5.000000e+01 2.040000e+02 4.280000e+02
      vertex -5.000000e+01 2.040000e+02 6.480000e+02
      vertex -4.695430e+01 2.193084e+02 6.480000e+02
    endloop
  endfacet
  facet normal -9.807871e-01 -1.950812e-01 -3.083494e-16
    outer loop
      vertex -4.695543e+01 1.886932e+02 4.280000e+02
      vertex -5.000000e+01 2.040000e+02 6.480000e+02
      vertex -5.000000e+01 2.040000e+02 4.280000e+02
    endloop
  endfacet
  facet normal 0.000000e+00 0.000000e+00 1.000000e+00
    outer loop
      vertex 1.828557e+01 2.322826e+02 6.480000e+02
      vertex -3.828557e+01 2.322826e+02 6.480000e+02
      vertex -4.695430e+01 2.193084e+02 6.480000e+02
    endloop
  endfacet
  facet normal -8.314802e-01 5.555543e-01 3.372479e-07
    outer loop
      vertex -4.695543e+01 2.193068e+02 4.280000e+02
      vertex -4.695430e+01 2.193084e+02 6.480000e+02
      vertex -3.828557e+01 2.322826e+02 6.480000e+02
    endloop
  endfacet
  facet normal 0.000000e+00 0.000000e+00 1.000000e+00
    outer loop
      vertex 2.695430e+01 2.193084e+02 6.480000e+02
      vertex 1.828557e+01 2.322826e+02 6.480000e+02
      vertex -4.695430e+01 2.193084e+02 6.480000e+02
    endloop
  endfacet
  facet normal -9.807871e-01 1.950812e-01 3.654674e-06
    outer loop
      vertex -4.695543e+01 2.193068e+02 4.280000e+02
      vertex -5.000000e+01 2.040000e+02 4.280000e+02
      vertex -4.695430e+01 2.193084e+02 6.480000e+02
    endloop
  endfacet
  facet normal 0.000000e+00 0.000000e+00 1.000000e+00
    outer loop
      vertex 5.305611e+00 2.409558e+02 6.480000e+02
      vertex -2.530561e+01 2.409558e+02 6.480000e+02
      vertex -3.828557e+01 2.322826e+02 6.480000e+02
    endloop
  endfacet
  facet normal -5.555821e-01 8.314617e-01 -9.716064e-07
    outer loop
      vertex -3.828364e+01 2.322836e+02 4.280000e+02
      vertex -3.828557e+01 2.322826e+02 6.480000e+02
      vertex -2.530561e+01 2.409558e+02 6.480000e+02
    endloop
  endfacet
  facet normal 0.000000e+00 0.000000e+00 1.000000e+00
    outer loop
      vertex 1.828557e+01 2.322826e+02 6.480000e+02
      vertex 5.305611e+00 2.409558e+02 6.480000e+02
      vertex -3.828557e+01 2.322826e+02 6.480000e+02
    endloop
  endfacet
  facet normal -8.314410e-01 5.556131e-01 -4.674592e-06
    outer loop
      vertex -3.828364e+01 2.322836e+02 4.280000e+02
      vertex -4.695543e+01 2.193068e+02 4.280000e+02
      vertex -3.828557e+01 2.322826e+02 6.480000e+02
    endloop
  endfacet
  facet normal 0.000000e+00 0.000000e+00 1.000000e+00
    outer loop
      vertex 5.305611e+00 2.409558e+02 6.480000e+02
      vertex -1.000000e+01 2.439995e+02 6.480000e+02
      vertex -2.530561e+01 2.409558e+02 6.480000e+02
    endloop
  endfacet
  facet normal -1.950445e-01 9.807944e-01 -5.769923e-07
    outer loop
      vertex -2.530684e+01 2.409554e+02 4.280000e+02
      vertex -2.530561e+01 2.409558e+02 6.480000e+02
      vertex -1.000000e+01 2.439995e+02 6.480000e+02
    endloop
  endfacet
  facet normal -5.556133e-01 8.314408e-01 1.697384e-06
    outer loop
      vertex -2.530684e+01 2.409554e+02 4.280000e+02
      vertex -3.828364e+01 2.322836e+02 4.280000e+02
      vertex -2.530561e+01 2.409558e+02 6.480000e+02
    endloop
  endfacet
  facet normal 1.950445e-01 9.807944e-01 2.089483e-06
    outer loop
      vertex -1.000000e+01 2.440000e+02 4.280000e+02
      vertex -1.000000e+01 2.439995e+02 6.480000e+02
      vertex 5.305611e+00 2.409558e+02 6.480000e+02
    endloop
  endfacet
  facet normal -1.950814e-01 9.807871e-01 2.089468e-06
    outer loop
      vertex -1.000000e+01 2.440000e+02 4.280000e+02
      vertex -2.530684e+01 2.409554e+02 4.280000e+02
      vertex -1.000000e+01 2.439995e+02 6.480000e+02
    endloop
  endfacet
  facet normal 5.555821e-01 8.314617e-01 1.697173e-06
    outer loop
      vertex 5.306843e+00 2.409554e+02 4.280000e+02
      vertex 5.305611e+00 2.409558e+02 6.480000e+02
      vertex 1.828557e+01 2.322826e+02 6.480000e+02
    endloop
  endfacet
  facet normal 1.950814e-01 9.807871e-01 -5.767733e-07
    outer loop
      vertex 5.306843e+00 2.409554e+02 4.280000e+02
      vertex -1.000000e+01 2.440000e+02 4.280000e+02
      vertex 5.305611e+00 2.409558e+02 6.480000e+02
    endloop
  endfacet
  facet normal 8.314802e-01 5.555543e-01 -4.675210e-06
    outer loop
      vertex 1.828364e+01 2.322836e+02 4.280000e+02
      vertex 1.828557e+01 2.322826e+02 6.480000e+02
      vertex 2.695430e+01 2.193084e+02 6.480000e+02
    endloop
  endfacet
  facet normal 5.556133e-01 8.314408e-01 -9.719777e-07
    outer loop
      vertex 1.828364e+01 2.322836e+02 4.280000e+02
      vertex 5.306843e+00 2.409554e+02 4.280000e+02
      vertex 1.828557e+01 2.322826e+02 6.480000e+02
    endloop
  endfacet
  facet normal 8.314410e-01 5.556131e-01 3.366307e-07
    outer loop
      vertex 2.695543e+01 2.193068e+02 4.280000e+02
      vertex 1.828364e+01 2.322836e+02 4.280000e+02
      vertex 2.695430e+01 2.193084e+02 6.480000e+02
    endloop
  endfacet
  facet normal 7.349570e-16 3.567413e-15 -1.000000e+00
    outer loop
      vertex -2.530684e+01 1.670446e+02 4.280000e+02
      vertex -5.000000e+01 2.040000e+02 4.280000e+02
      vertex -4.695543e+01 2.193068e+02 4.280000e+02
    endloop
  endfacet
  facet normal -4.200005e-15 2.699318e-16 -1.000000e+00
    outer loop
      vertex -3.828364e+01 1.757164e+02 4.280000e+02
      vertex -5.000000e+01 2.040000e+02 4.280000e+02
      vertex -2.530684e+01 1.670446e+02 4.280000e+02
    endloop
  endfacet
  facet normal 7.912207e-15 5.287357e-15 -1.000000e+00
    outer loop
      vertex -4.695543e+01 1.886932e+02 4.280000e+02
      vertex -5.000000e+01 2.040000e+02 4.280000e+02
      vertex -3.828364e+01 1.757164e+02 4.280000e+02
    endloop
  endfacet
  facet normal -2.307132e-15 1.541748e-15 -1.000000e+00
    outer loop
      vertex -1.000000e+01 1.640000e+02 4.280000e+02
      vertex -4.695543e+01 2.193068e+02 4.280000e+02
      vertex -3.828364e+01 2.322836e+02 4.280000e+02
    endloop
  endfacet
  facet normal 7.072890e-16 3.555952e-15 -1.000000e+00
    outer loop
      vertex -2.530684e+01 1.670446e+02 4.280000e+02
      vertex -4.695543e+01 2.193068e+02 4.280000e+02
      vertex -1.000000e+01 1.640000e+02 4.280000e+02
    endloop
  endfacet
  facet normal 1.820680e-15 3.830444e-15 -1.000000e+00
    outer loop
      vertex 5.306843e+00 1.670446e+02 4.280000e+02
      vertex -3.828364e+01 2.322836e+02 4.280000e+02
      vertex -2.530684e+01 2.409554e+02 4.280000e+02
    endloop
  endfacet
  facet normal -4.589266e-16 2.307290e-15 -1.000000e+00
    outer loop
      vertex -1.000000e+01 1.640000e+02 4.280000e+02
      vertex -3.828364e+01 2.322836e+02 4.280000e+02
      vertex 5.306843e+00 1.670446e+02 4.280000e+02
    endloop
  endfacet
  facet normal -4.589266e-16 2.307290e-15 -1.000000e+00
    outer loop
      vertex 1.828364e+01 1.757164e+02 4.280000e+02
      vertex -2.530684e+01 2.409554e+02 4.280000e+02
      vertex -1.000000e+01 2.440000e+02 4.280000e+02
    endloop
  endfacet
  facet normal 1.820680e-15 3.830444e-15 -1.000000e+00
    outer loop
      vertex 5.306843e+00 1.670446e+02 4.280000e+02
      vertex -2.530684e+01 2.409554e+02 4.280000e+02
      vertex 1.828364e+01 1.757164e+02 4.280000e+02
    endloop
  endfacet
  facet normal 7.072890e-16 3.555952e-15 -1.000000e+00
    outer loop
      vertex 2.695543e+01 1.886932e+02 4.280000e+02
      vertex -1.000000e+01 2.440000e+02 4.280000e+02
      vertex 5.306843e+00 2.409554e+02 4.280000e+02
    endloop
  endfacet
  facet normal -2.307132e-15 1.541748e-15 -1.000000e+00
    outer loop
      vertex 1.828364e+01 1.757164e+02 4.280000e+02
      vertex -1.000000e+01 2.440000e+02 4.280000e+02
      vertex 2.695543e+01 1.886932e+02 4.280000e+02
    endloop
  endfacet
  facet normal -4.200005e-15 2.699318e-16 -1.000000e+00
    outer loop
      vertex 3.000000e+01 2.040000e+02 4.280000e+02
      vertex 5.306843e+00 2.409554e+02 4.280000e+02
      vertex 1.828364e+01 2.322836e+02 4.280000e+02
    endloop
  endfacet
  facet normal 7.349570e-16 3.567413e-15 -1.000000e+00
    outer loop
      vertex 2.695543e+01 1.886932e+02 4.280000e+02
      vertex 5.306843e+00 2.409554e+02 4.280000e+02
      vertex 3.000000e+01 2.040000e+02 4.280000e+02
    endloop
  endfacet
  facet normal 7.912207e-15 5.287357e-15 -1.000000e+00
    outer loop
      vertex 3.000000e+01 2.040000e+02 4.280000e+02
      vertex 1.828364e+01 2.322836e+02 4.280000e+02
      vertex 2.695543e+01 2.193068e+02 4.280000e+02
    endloop
  endfacet
endsolid SIM_CER_L_WRIST_TRIPOD_SLIDER
