solid SIM_CER_R_WRIST_TRIPOD_SLIDER
  facet normal 0.000000e+00 -7.426440e-15 1.000000e+00
    outer loop
      vertex -4.695430e+01 -2.193084e+02 6.480000e+02
      vertex 2.695430e+01 -2.193084e+02 6.480000e+02
      vertex 3.000000e+01 -2.040000e+02 6.480000e+02
    endloop
  endfacet
  facet normal 9.807770e-01 -1.951318e-01 -4.537619e-16
    outer loop
      vertex 3.000000e+01 -2.040000e+02 4.280000e+02
      vertex 3.000000e+01 -2.040000e+02 6.480000e+02
      vertex 2.695430e+01 -2.193084e+02 6.480000e+02
    endloop
  endfacet
  facet normal 0.000000e+00 -7.426440e-15 1.000000e+00
    outer loop
      vertex -5.000000e+01 -2.040000e+02 6.480000e+02
      vertex -4.695430e+01 -2.193084e+02 6.480000e+02
      vertex 3.000000e+01 -2.040000e+02 6.480000e+02
    endloop
  endfacet
  facet normal 0.000000e+00 0.000000e+00 1.000000e+00
    outer loop
      vertex 2.695430e+01 -1.886916e+02 6.480000e+02
      vertex -5.000000e+01 -2.040000e+02 6.480000e+02
      vertex 3.000000e+01 -2.040000e+02 6.480000e+02
    endloop
  endfacet
  facet normal 9.807770e-01 1.951318e-01 3.654265e-06
    outer loop
      vertex 2.695543e+01 -1.886932e+02 4.280000e+02
      vertex 2.695430e+01 -1.886916e+02 6.480000e+02
      vertex 3.000000e+01 -2.040000e+02 6.480000e+02
    endloop
  endfacet
  facet normal 9.807871e-01 1.950812e-01 4.536444e-16
    outer loop
      vertex 3.000000e+01 -2.040000e+02 4.280000e+02
      vertex 2.695543e+01 -1.886932e+02 4.280000e+02
      vertex 3.000000e+01 -2.040000e+02 6.480000e+02
    endloop
  endfacet
  facet normal 0.000000e+00 0.000000e+00 1.000000e+00
    outer loop
      vertex -3.828557e+01 -2.322826e+02 6.480000e+02
      vertex 1.828557e+01 -2.322826e+02 6.480000e+02
      vertex 2.695430e+01 -2.193084e+02 6.480000e+02
    endloop
  endfacet
  facet normal 8.314802e-01 -5.555543e-01 3.372479e-07
    outer loop
      vertex 2.695543e+01 -2.193068e+02 4.280000e+02
      vertex 2.695430e+01 -2.193084e+02 6.480000e+02
      vertex 1.828557e+01 -2.322826e+02 6.480000e+02
    endloop
  endfacet
  facet normal 0.000000e+00 0.000000e+00 1.000000e+00
    outer loop
      vertex -4.695430e+01 -2.193084e+02 6.480000e+02
      vertex -3.828557e+01 -2.322826e+02 6.480000e+02
      vertex 2.695430e+01 -2.193084e+02 6.480000e+02
    endloop
  endfacet
  facet normal 9.807871e-01 -1.950812e-01 3.654674e-06
    outer loop
      vertex 2.695543e+01 -2.193068e+02 4.280000e+02
      vertex 3.000000e+01 -2.040000e+02 4.280000e+02
      vertex 2.695430e+01 -2.193084e+02 6.480000e+02
    endloop
  endfacet
  facet normal 0.000000e+00 0.000000e+00 1.000000e+00
    outer loop
      vertex -2.530561e+01 -2.409558e+02 6.480000e+02
      vertex 5.305611e+00 -2.409558e+02 6.480000e+02
      vertex 1.828557e+01 -2.322826e+02 6.480000e+02
    endloop
  endfacet
  facet normal 5.555821e-01 -8.314617e-01 -9.716064e-07
    outer loop
      vertex 1.828364e+01 -2.322836e+02 4.280000e+02
      vertex 1.828557e+01 -2.322826e+02 6.480000e+02
      vertex 5.305611e+00 -2.409558e+02 6.480000e+02
    endloop
  endfacet
  facet normal 0.000000e+00 0.000000e+00 1.000000e+00
    outer loop
      vertex -3.828557e+01 -2.322826e+02 6.480000e+02
      vertex -2.530561e+01 -2.409558e+02 6.480000e+02
      vertex 1.828557e+01 -2.322826e+02 6.480000e+02
    endloop
  endfacet
  facet normal 8.314410e-01 -5.556131e-01 -4.674592e-06
    outer loop
      vertex 1.828364e+01 -2.322836e+02 4.280000e+02
      vertex 2.695543e+01 -2.193068e+02 4.280000e+02
      vertex 1.828557e+01 -2.322826e+02 6.480000e+02
    endloop
  endfacet
  facet normal 0.000000e+00 0.000000e+00 1.000000e+00
    outer loop
      vertex -2.530561e+01 -2.409558e+02 6.480000e+02
      vertex -1.000000e+01 -2.439995e+02 6.480000e+02
      vertex 5.305611e+00 -2.409558e+02 6.480000e+02
    endloop
  endfacet
  facet normal 1.950445e-01 -9.807944e-01 -5.769923e-07
    outer loop
      vertex 5.306843e+00 -2.409554e+02 4.280000e+02
      vertex 5.305611e+00 -2.409558e+02 6.480000e+02
      vertex -1.000000e+01 -2.439995e+02 6.480000e+02
    endloop
  endfacet
  facet normal 5.556133e-01 -8.314408e-01 1.697384e-06
    outer loop
      vertex 5.306843e+00 -2.409554e+02 4.280000e+02
      vertex 1.828364e+01 -2.322836e+02 4.280000e+02
      vertex 5.305611e+00 -2.409558e+02 6.480000e+02
    endloop
  endfacet
  facet normal -1.950445e-01 -9.807944e-01 2.089483e-06
    outer loop
      vertex -1.000000e+01 -2.440000e+02 4.280000e+02
      vertex -1.000000e+01 -2.439995e+02 6.480000e+02
      vertex -2.530561e+01 -2.409558e+02 6.480000e+02
    endloop
  endfacet
  facet normal 1.950814e-01 -9.807871e-01 2.089468e-06
    outer loop
      vertex -1.000000e+01 -2.440000e+02 4.280000e+02
      vertex 5.306843e+00 -2.409554e+02 4.280000e+02
      vertex -1.000000e+01 -2.439995e+02 6.480000e+02
    endloop
  endfacet
  facet normal -5.555821e-01 -8.314617e-01 1.697173e-06
    outer loop
      vertex -2.530684e+01 -2.409554e+02 4.280000e+02
      vertex -2.530561e+01 -2.409558e+02 6.480000e+02
      vertex -3.828557e+01 -2.322826e+02 6.480000e+02
    endloop
  endfacet
  facet normal -1.950814e-01 -9.807871e-01 -5.767733e-07
    outer loop
      vertex -2.530684e+01 -2.409554e+02 4.280000e+02
      vertex -1.000000e+01 -2.440000e+02 4.280000e+02
      vertex -2.530561e+01 -2.409558e+02 6.480000e+02
    endloop
  endfacet
  facet normal -8.314802e-01 -5.555543e-01 -4.675210e-06
    outer loop
      vertex -3.828364e+01 -2.322836e+02 4.280000e+02
      vertex -3.828557e+01 -2.322826e+02 6.480000e+02
      vertex -4.695430e+01 -2.193084e+02 6.480000e+02
    endloop
  endfacet
  facet normal -5.556133e-01 -8.314408e-01 -9.719777e-07
    outer loop
      vertex -3.828364e+01 -2.322836e+02 4.280000e+02
      vertex -2.530684e+01 -2.409554e+02 4.280000e+02
      vertex -3.828557e+01 -2.322826e+02 6.480000e+02
    endloop
  endfacet
  facet normal -9.807770e-01 -1.951318e-01 3.654265e-06
    outer loop
      vertex -4.695543e+01 -2.193068e+02 4.280000e+02
      vertex -4.695430e+01 -2.193084e+02 6.480000e+02
      vertex -5.000000e+01 -2.040000e+02 6.480000e+02
    endloop
  endfacet
  facet normal -8.314410e-01 -5.556131e-01 3.366307e-07
    outer loop
      vertex -4.695543e+01 -2.193068e+02 4.280000e+02
      vertex -3.828364e+01 -2.322836e+02 4.280000e+02
      vertex -4.695430e+01 -2.193084e+02 6.480000e+02
    endloop
  endfacet
  facet normal 0.000000e+00 0.000000e+00 1.000000e+00
    outer loop
      vertex 2.695430e+01 -1.886916e+02 6.480000e+02
      vertex -4.695430e+01 -1.886916e+02 6.480000e+02
      vertex -5.000000e+01 -2.040000e+02 6.480000e+02
    endloop
  endfacet
  facet normal -9.807770e-01 1.951318e-01 4.789709e-16
    outer loop
      vertex -5.000000e+01 -2.040000e+02 4.280000e+02
      vertex -5.000000e+01 -2.040000e+02 6.480000e+02
      vertex -4.695430e+01 -1.886916e+02 6.480000e+02
    endloop
  endfacet
  facet normal -9.807871e-01 -1.950812e-01 -4.801146e-16
    outer loop
      vertex -4.695543e+01 -2.193068e+02 4.280000e+02
      vertex -5.000000e+01 -2.040000e+02 6.480000e+02
      vertex -5.000000e+01 -2.040000e+02 4.280000e+02
    endloop
  endfacet
  facet normal 0.000000e+00 0.000000e+00 1.000000e+00
    outer loop
      vertex 1.828557e+01 -1.757174e+02 6.480000e+02
      vertex -3.828557e+01 -1.757174e+02 6.480000e+02
      vertex -4.695430e+01 -1.886916e+02 6.480000e+02
    endloop
  endfacet
  facet normal -8.314802e-01 5.555543e-01 3.372479e-07
    outer loop
      vertex -4.695543e+01 -1.886932e+02 4.280000e+02
      vertex -4.695430e+01 -1.886916e+02 6.480000e+02
      vertex -3.828557e+01 -1.757174e+02 6.480000e+02
    endloop
  endfacet
  facet normal 0.000000e+00 0.000000e+00 1.000000e+00
    outer loop
      vertex 2.695430e+01 -1.886916e+02 6.480000e+02
      vertex 1.828557e+01 -1.757174e+02 6.480000e+02
      vertex -4.695430e+01 -1.886916e+02 6.480000e+02
    endloop
  endfacet
  facet normal -9.807871e-01 1.950812e-01 3.654674e-06
    outer loop
      vertex -4.695543e+01 -1.886932e+02 4.280000e+02
      vertex -5.000000e+01 -2.040000e+02 4.280000e+02
      vertex -4.695430e+01 -1.886916e+02 6.480000e+02
    endloop
  endfacet
  facet normal 0.000000e+00 0.000000e+00 1.000000e+00
    outer loop
      vertex 5.305611e+00 -1.670442e+02 6.480000e+02
      vertex -2.530561e+01 -1.670442e+02 6.480000e+02
      vertex -3.828557e+01 -1.757174e+02 6.480000e+02
    endloop
  endfacet
  facet normal -5.555821e-01 8.314617e-01 -9.716064e-07
    outer loop
      vertex -3.828364e+01 -1.757164e+02 4.280000e+02
      vertex -3.828557e+01 -1.757174e+02 6.480000e+02
      vertex -2.530561e+01 -1.670442e+02 6.480000e+02
    endloop
  endfacet
  facet normal 0.000000e+00 0.000000e+00 1.000000e+00
    outer loop
      vertex 1.828557e+01 -1.757174e+02 6.480000e+02
      vertex 5.305611e+00 -1.670442e+02 6.480000e+02
      vertex -3.828557e+01 -1.757174e+02 6.480000e+02
    endloop
  endfacet
  facet normal -8.314410e-01 5.556131e-01 -4.674592e-06
    outer loop
      vertex -3.828364e+01 -1.757164e+02 4.280000e+02
      vertex -4.695543e+01 -1.886932e+02 4.280000e+02
      vertex -3.828557e+01 -1.757174e+02 6.480000e+02
    endloop
  endfacet
  facet normal 0.000000e+00 -3.735113e-14 1.000000e+00
    outer loop
      vertex 5.305611e+00 -1.670442e+02 6.480000e+02
      vertex -1.000000e+01 -1.640005e+02 6.480000e+02
      vertex -2.530561e+01 -1.670442e+02 6.480000e+02
    endloop
  endfacet
  facet normal -1.950445e-01 9.807944e-01 -5.769923e-07
    outer loop
      vertex -2.530684e+01 -1.670446e+02 4.280000e+02
      vertex -2.530561e+01 -1.670442e+02 6.480000e+02
      vertex -1.000000e+01 -1.640005e+02 6.480000e+02
    endloop
  endfacet
  facet normal -5.556133e-01 8.314408e-01 1.697384e-06
    outer loop
      vertex -2.530684e+01 -1.670446e+02 4.280000e+02
      vertex -3.828364e+01 -1.757164e+02 4.280000e+02
      vertex -2.530561e+01 -1.670442e+02 6.480000e+02
    endloop
  endfacet
  facet normal 1.950445e-01 9.807944e-01 2.089483e-06
    outer loop
      vertex -1.000000e+01 -1.640000e+02 4.280000e+02
      vertex -1.000000e+01 -1.640005e+02 6.480000e+02
      vertex 5.305611e+00 -1.670442e+02 6.480000e+02
    endloop
  endfacet
  facet normal -1.950814e-01 9.807871e-01 2.089468e-06
    outer loop
      vertex -1.000000e+01 -1.640000e+02 4.280000e+02
      vertex -2.530684e+01 -1.670446e+02 4.280000e+02
      vertex -1.000000e+01 -1.640005e+02 6.480000e+02
    endloop
  endfacet
  facet normal 5.555821e-01 8.314617e-01 1.697173e-06
    outer loop
      vertex 5.306843e+00 -1.670446e+02 4.280000e+02
      vertex 5.305611e+00 -1.670442e+02 6.480000e+02
      vertex 1.828557e+01 -1.757174e+02 6.480000e+02
    endloop
  endfacet
  facet normal 1.950814e-01 9.807871e-01 -5.767733e-07
    outer loop
      vertex 5.306843e+00 -1.670446e+02 4.280000e+02
      vertex -1.000000e+01 -1.640000e+02 4.280000e+02
      vertex 5.305611e+00 -1.670442e+02 6.480000e+02
    endloop
  endfacet
  facet normal 8.314802e-01 5.555543e-01 -4.675210e-06
    outer loop
      vertex 1.828364e+01 -1.757164e+02 4.280000e+02
      vertex 1.828557e+01 -1.757174e+02 6.480000e+02
      vertex 2.695430e+01 -1.886916e+02 6.480000e+02
    endloop
  endfacet
  facet normal 5.556133e-01 8.314408e-01 -9.719777e-07
    outer loop
      vertex 1.828364e+01 -1.757164e+02 4.280000e+02
      vertex 5.306843e+00 -1.670446e+02 4.280000e+02
      vertex 1.828557e+01 -1.757174e+02 6.480000e+02
    endloop
  endfacet
  facet normal 8.314410e-01 5.556131e-01 3.366307e-07
    outer loop
      vertex 2.695543e+01 -1.886932e+02 4.280000e+02
      vertex 1.828364e+01 -1.757164e+02 4.280000e+02
      vertex 2.695430e+01 -1.886916e+02 6.480000e+02
    endloop
  endfacet
  facet normal 1.319335e-30 3.713598e-15 -1.000000e+00
    outer loop
      vertex 3.000000e+01 -2.040000e+02 4.280000e+02
      vertex -5.000000e+01 -2.040000e+02 4.280000e+02
      vertex -4.695543e+01 -1.886932e+02 4.280000e+02
    endloop
  endfacet
  facet normal 1.319335e-30 3.713598e-15 -1.000000e+00
    outer loop
      vertex 2.695543e+01 -2.193068e+02 4.280000e+02
      vertex -5.000000e+01 -2.040000e+02 4.280000e+02
      vertex 3.000000e+01 -2.040000e+02 4.280000e+02
    endloop
  endfacet
  facet normal 1.428028e-30 3.713598e-15 -1.000000e+00
    outer loop
      vertex -4.695543e+01 -2.193068e+02 4.280000e+02
      vertex -5.000000e+01 -2.040000e+02 4.280000e+02
      vertex 2.695543e+01 -2.193068e+02 4.280000e+02
    endloop
  endfacet
  facet normal 0.000000e+00 0.000000e+00 -1.000000e+00
    outer loop
      vertex 2.695543e+01 -1.886932e+02 4.280000e+02
      vertex -4.695543e+01 -1.886932e+02 4.280000e+02
      vertex -3.828364e+01 -1.757164e+02 4.280000e+02
    endloop
  endfacet
  facet normal 0.000000e+00 3.713598e-15 -1.000000e+00
    outer loop
      vertex 3.000000e+01 -2.040000e+02 4.280000e+02
      vertex -4.695543e+01 -1.886932e+02 4.280000e+02
      vertex 2.695543e+01 -1.886932e+02 4.280000e+02
    endloop
  endfacet
  facet normal 0.000000e+00 6.554979e-15 -1.000000e+00
    outer loop
      vertex 1.828364e+01 -1.757164e+02 4.280000e+02
      vertex -3.828364e+01 -1.757164e+02 4.280000e+02
      vertex -2.530684e+01 -1.670446e+02 4.280000e+02
    endloop
  endfacet
  facet normal 0.000000e+00 0.000000e+00 -1.000000e+00
    outer loop
      vertex 2.695543e+01 -1.886932e+02 4.280000e+02
      vertex -3.828364e+01 -1.757164e+02 4.280000e+02
      vertex 1.828364e+01 -1.757164e+02 4.280000e+02
    endloop
  endfacet
  facet normal 0.000000e+00 0.000000e+00 -1.000000e+00
    outer loop
      vertex 5.306843e+00 -1.670446e+02 4.280000e+02
      vertex -2.530684e+01 -1.670446e+02 4.280000e+02
      vertex -1.000000e+01 -1.640000e+02 4.280000e+02
    endloop
  endfacet
  facet normal -6.085634e-30 6.554979e-15 -1.000000e+00
    outer loop
      vertex 1.828364e+01 -1.757164e+02 4.280000e+02
      vertex -2.530684e+01 -1.670446e+02 4.280000e+02
      vertex 5.306843e+00 -1.670446e+02 4.280000e+02
    endloop
  endfacet
  facet normal 0.000000e+00 0.000000e+00 -1.000000e+00
    outer loop
      vertex -4.695543e+01 -2.193068e+02 4.280000e+02
      vertex 2.695543e+01 -2.193068e+02 4.280000e+02
      vertex 1.828364e+01 -2.322836e+02 4.280000e+02
    endloop
  endfacet
  facet normal -3.293489e-30 6.554979e-15 -1.000000e+00
    outer loop
      vertex -3.828364e+01 -2.322836e+02 4.280000e+02
      vertex 1.828364e+01 -2.322836e+02 4.280000e+02
      vertex 5.306843e+00 -2.409554e+02 4.280000e+02
    endloop
  endfacet
  facet normal 0.000000e+00 0.000000e+00 -1.000000e+00
    outer loop
      vertex -4.695543e+01 -2.193068e+02 4.280000e+02
      vertex 1.828364e+01 -2.322836e+02 4.280000e+02
      vertex -3.828364e+01 -2.322836e+02 4.280000e+02
    endloop
  endfacet
  facet normal 0.000000e+00 0.000000e+00 -1.000000e+00
    outer loop
      vertex -2.530684e+01 -2.409554e+02 4.280000e+02
      vertex 5.306843e+00 -2.409554e+02 4.280000e+02
      vertex -1.000000e+01 -2.440000e+02 4.280000e+02
    endloop
  endfacet
  facet normal 0.000000e+00 6.554979e-15 -1.000000e+00
    outer loop
      vertex -3.828364e+01 -2.322836e+02 4.280000e+02
      vertex 5.306843e+00 -2.409554e+02 4.280000e+02
      vertex -2.530684e+01 -2.409554e+02 4.280000e+02
    endloop
  endfacet
endsolid SIM_CER_R_WRIST_TRIPOD_SLIDER
