solid SIM_CER_L_WRIST_TRIPOD_PIN_EQ
  facet normal 0.000000e+00 0.000000e+00 -1.000000e+00
    outer loop
      vertex 4.338445e+00 9.009852e+00 -4.000000e+01
      vertex 4.338445e+00 -9.009852e+00 -4.000000e+01
      vertex -1.224647e-15 -1.000000e+01 -4.000000e+01
    endloop
  endfacet
  facet normal 2.225052e-01 -9.749315e-01 0.000000e+00
    outer loop
      vertex -1.224647e-15 -1.000000e+01 4.000000e+01
      vertex -1.224647e-15 -1.000000e+01 -4.000000e+01
      vertex 4.338445e+00 -9.009852e+00 -4.000000e+01
    endloop
  endfacet
  facet normal 0.000000e+00 0.000000e+00 -1.000000e+00
    outer loop
      vertex 1.224647e-15 1.000000e+01 -4.000000e+01
      vertex 4.338445e+00 9.009852e+00 -4.000000e+01
      vertex -1.224647e-15 -1.000000e+01 -4.000000e+01
    endloop
  endfacet
  facet normal 0.000000e+00 0.000000e+00 -1.000000e+00
    outer loop
      vertex -4.338445e+00 -9.009852e+00 -4.000000e+01
      vertex 1.224647e-15 1.000000e+01 -4.000000e+01
      vertex -1.224647e-15 -1.000000e+01 -4.000000e+01
    endloop
  endfacet
  facet normal -2.225052e-01 -9.749315e-01 0.000000e+00
    outer loop
      vertex -4.338445e+00 -9.009852e+00 4.000000e+01
      vertex -4.338445e+00 -9.009852e+00 -4.000000e+01
      vertex -1.224647e-15 -1.000000e+01 -4.000000e+01
    endloop
  endfacet
  facet normal -2.225052e-01 -9.749315e-01 0.000000e+00
    outer loop
      vertex -4.338445e+00 -9.009852e+00 4.000000e+01
      vertex -1.224647e-15 -1.000000e+01 -4.000000e+01
      vertex -1.224647e-15 -1.000000e+01 4.000000e+01
    endloop
  endfacet
  facet normal 0.000000e+00 0.000000e+00 -1.000000e+00
    outer loop
      vertex 7.817999e+00 6.235190e+00 -4.000000e+01
      vertex 7.817999e+00 -6.235190e+00 -4.000000e+01
      vertex 4.338445e+00 -9.009852e+00 -4.000000e+01
    endloop
  endfacet
  facet normal 6.234637e-01 -7.818523e-01 0.000000e+00
    outer loop
      vertex 4.338445e+00 -9.009852e+00 4.000000e+01
      vertex 4.338445e+00 -9.009852e+00 -4.000000e+01
      vertex 7.817999e+00 -6.235190e+00 -4.000000e+01
    endloop
  endfacet
  facet normal 0.000000e+00 0.000000e+00 -1.000000e+00
    outer loop
      vertex 4.338445e+00 9.009852e+00 -4.000000e+01
      vertex 7.817999e+00 6.235190e+00 -4.000000e+01
      vertex 4.338445e+00 -9.009852e+00 -4.000000e+01
    endloop
  endfacet
  facet normal 2.225052e-01 -9.749315e-01 0.000000e+00
    outer loop
      vertex 4.338445e+00 -9.009852e+00 4.000000e+01
      vertex -1.224647e-15 -1.000000e+01 4.000000e+01
      vertex 4.338445e+00 -9.009852e+00 -4.000000e+01
    endloop
  endfacet
  facet normal 0.000000e+00 0.000000e+00 -1.000000e+00
    outer loop
      vertex 9.749150e+00 2.225354e+00 -4.000000e+01
      vertex 9.749150e+00 -2.225354e+00 -4.000000e+01
      vertex 7.817999e+00 -6.235190e+00 -4.000000e+01
    endloop
  endfacet
  facet normal 9.009587e-01 -4.339049e-01 0.000000e+00
    outer loop
      vertex 7.817999e+00 -6.235190e+00 4.000000e+01
      vertex 7.817999e+00 -6.235190e+00 -4.000000e+01
      vertex 9.749150e+00 -2.225354e+00 -4.000000e+01
    endloop
  endfacet
  facet normal 0.000000e+00 0.000000e+00 -1.000000e+00
    outer loop
      vertex 7.817999e+00 6.235190e+00 -4.000000e+01
      vertex 9.749150e+00 2.225354e+00 -4.000000e+01
      vertex 7.817999e+00 -6.235190e+00 -4.000000e+01
    endloop
  endfacet
  facet normal 6.234637e-01 -7.818523e-01 0.000000e+00
    outer loop
      vertex 4.338445e+00 -9.009852e+00 4.000000e+01
      vertex 7.817999e+00 -6.235190e+00 -4.000000e+01
      vertex 7.817999e+00 -6.235190e+00 4.000000e+01
    endloop
  endfacet
  facet normal 1.000000e+00 0.000000e+00 0.000000e+00
    outer loop
      vertex 9.749150e+00 -2.225354e+00 4.000000e+01
      vertex 9.749150e+00 -2.225354e+00 -4.000000e+01
      vertex 9.749150e+00 2.225354e+00 -4.000000e+01
    endloop
  endfacet
  facet normal 9.009587e-01 -4.339049e-01 0.000000e+00
    outer loop
      vertex 7.817999e+00 -6.235190e+00 4.000000e+01
      vertex 9.749150e+00 -2.225354e+00 -4.000000e+01
      vertex 9.749150e+00 -2.225354e+00 4.000000e+01
    endloop
  endfacet
  facet normal 9.009587e-01 4.339049e-01 0.000000e+00
    outer loop
      vertex 9.749150e+00 2.225354e+00 4.000000e+01
      vertex 9.749150e+00 2.225354e+00 -4.000000e+01
      vertex 7.817999e+00 6.235190e+00 -4.000000e+01
    endloop
  endfacet
  facet normal 1.000000e+00 0.000000e+00 0.000000e+00
    outer loop
      vertex 9.749150e+00 -2.225354e+00 4.000000e+01
      vertex 9.749150e+00 2.225354e+00 -4.000000e+01
      vertex 9.749150e+00 2.225354e+00 4.000000e+01
    endloop
  endfacet
  facet normal 6.234637e-01 7.818523e-01 0.000000e+00
    outer loop
      vertex 7.817999e+00 6.235190e+00 4.000000e+01
      vertex 7.817999e+00 6.235190e+00 -4.000000e+01
      vertex 4.338445e+00 9.009852e+00 -4.000000e+01
    endloop
  endfacet
  facet normal 9.009587e-01 4.339049e-01 0.000000e+00
    outer loop
      vertex 9.749150e+00 2.225354e+00 4.000000e+01
      vertex 7.817999e+00 6.235190e+00 -4.000000e+01
      vertex 7.817999e+00 6.235190e+00 4.000000e+01
    endloop
  endfacet
  facet normal 2.225052e-01 9.749315e-01 0.000000e+00
    outer loop
      vertex 4.338445e+00 9.009852e+00 4.000000e+01
      vertex 4.338445e+00 9.009852e+00 -4.000000e+01
      vertex 1.224647e-15 1.000000e+01 -4.000000e+01
    endloop
  endfacet
  facet normal 6.234637e-01 7.818523e-01 0.000000e+00
    outer loop
      vertex 7.817999e+00 6.235190e+00 4.000000e+01
      vertex 4.338445e+00 9.009852e+00 -4.000000e+01
      vertex 4.338445e+00 9.009852e+00 4.000000e+01
    endloop
  endfacet
  facet normal 0.000000e+00 0.000000e+00 -1.000000e+00
    outer loop
      vertex -4.338445e+00 -9.009852e+00 -4.000000e+01
      vertex -4.338445e+00 9.009852e+00 -4.000000e+01
      vertex 1.224647e-15 1.000000e+01 -4.000000e+01
    endloop
  endfacet
  facet normal -2.225052e-01 9.749315e-01 0.000000e+00
    outer loop
      vertex 1.224647e-15 1.000000e+01 4.000000e+01
      vertex 1.224647e-15 1.000000e+01 -4.000000e+01
      vertex -4.338445e+00 9.009852e+00 -4.000000e+01
    endloop
  endfacet
  facet normal 2.225052e-01 9.749315e-01 0.000000e+00
    outer loop
      vertex 4.338445e+00 9.009852e+00 4.000000e+01
      vertex 1.224647e-15 1.000000e+01 -4.000000e+01
      vertex 1.224647e-15 1.000000e+01 4.000000e+01
    endloop
  endfacet
  facet normal 0.000000e+00 0.000000e+00 -1.000000e+00
    outer loop
      vertex -7.817999e+00 -6.235190e+00 -4.000000e+01
      vertex -7.817999e+00 6.235190e+00 -4.000000e+01
      vertex -4.338445e+00 9.009852e+00 -4.000000e+01
    endloop
  endfacet
  facet normal -6.234637e-01 7.818523e-01 0.000000e+00
    outer loop
      vertex -4.338445e+00 9.009852e+00 4.000000e+01
      vertex -4.338445e+00 9.009852e+00 -4.000000e+01
      vertex -7.817999e+00 6.235190e+00 -4.000000e+01
    endloop
  endfacet
  facet normal 0.000000e+00 0.000000e+00 -1.000000e+00
    outer loop
      vertex -4.338445e+00 -9.009852e+00 -4.000000e+01
      vertex -7.817999e+00 -6.235190e+00 -4.000000e+01
      vertex -4.338445e+00 9.009852e+00 -4.000000e+01
    endloop
  endfacet
  facet normal -2.225052e-01 9.749315e-01 0.000000e+00
    outer loop
      vertex 1.224647e-15 1.000000e+01 4.000000e+01
      vertex -4.338445e+00 9.009852e+00 -4.000000e+01
      vertex -4.338445e+00 9.009852e+00 4.000000e+01
    endloop
  endfacet
  facet normal 0.000000e+00 0.000000e+00 -1.000000e+00
    outer loop
      vertex -9.749150e+00 -2.225354e+00 -4.000000e+01
      vertex -9.749150e+00 2.225354e+00 -4.000000e+01
      vertex -7.817999e+00 6.235190e+00 -4.000000e+01
    endloop
  endfacet
  facet normal -9.009587e-01 4.339049e-01 0.000000e+00
    outer loop
      vertex -7.817999e+00 6.235190e+00 4.000000e+01
      vertex -7.817999e+00 6.235190e+00 -4.000000e+01
      vertex -9.749150e+00 2.225354e+00 -4.000000e+01
    endloop
  endfacet
  facet normal 0.000000e+00 0.000000e+00 -1.000000e+00
    outer loop
      vertex -7.817999e+00 -6.235190e+00 -4.000000e+01
      vertex -9.749150e+00 -2.225354e+00 -4.000000e+01
      vertex -7.817999e+00 6.235190e+00 -4.000000e+01
    endloop
  endfacet
  facet normal -6.234637e-01 7.818523e-01 0.000000e+00
    outer loop
      vertex -4.338445e+00 9.009852e+00 4.000000e+01
      vertex -7.817999e+00 6.235190e+00 -4.000000e+01
      vertex -7.817999e+00 6.235190e+00 4.000000e+01
    endloop
  endfacet
  facet normal -1.000000e+00 3.991177e-16 0.000000e+00
    outer loop
      vertex -9.749150e+00 2.225354e+00 4.000000e+01
      vertex -9.749150e+00 2.225354e+00 -4.000000e+01
      vertex -9.749150e+00 -2.225354e+00 -4.000000e+01
    endloop
  endfacet
  facet normal -9.009587e-01 4.339049e-01 0.000000e+00
    outer loop
      vertex -7.817999e+00 6.235190e+00 4.000000e+01
      vertex -9.749150e+00 2.225354e+00 -4.000000e+01
      vertex -9.749150e+00 2.225354e+00 4.000000e+01
    endloop
  endfacet
  facet normal -9.009587e-01 -4.339049e-01 0.000000e+00
    outer loop
      vertex -9.749150e+00 -2.225354e+00 4.000000e+01
      vertex -9.749150e+00 -2.225354e+00 -4.000000e+01
      vertex -7.817999e+00 -6.235190e+00 -4.000000e+01
    endloop
  endfacet
  facet normal -1.000000e+00 3.991177e-16 0.000000e+00
    outer loop
      vertex -9.749150e+00 2.225354e+00 4.000000e+01
      vertex -9.749150e+00 -2.225354e+00 -4.000000e+01
      vertex -9.749150e+00 -2.225354e+00 4.000000e+01
    endloop
  endfacet
  facet normal -6.234637e-01 -7.818523e-01 0.000000e+00
    outer loop
      vertex -7.817999e+00 -6.235190e+00 4.000000e+01
      vertex -7.817999e+00 -6.235190e+00 -4.000000e+01
      vertex -4.338445e+00 -9.009852e+00 -4.000000e+01
    endloop
  endfacet
  facet normal -9.009587e-01 -4.339049e-01 0.000000e+00
    outer loop
      vertex -9.749150e+00 -2.225354e+00 4.000000e+01
      vertex -7.817999e+00 -6.235190e+00 -4.000000e+01
      vertex -7.817999e+00 -6.235190e+00 4.000000e+01
    endloop
  endfacet
  facet normal -6.234637e-01 -7.818523e-01 0.000000e+00
    outer loop
      vertex -7.817999e+00 -6.235190e+00 4.000000e+01
      vertex -4.338445e+00 -9.009852e+00 -4.000000e+01
      vertex -4.338445e+00 -9.009852e+00 4.000000e+01
    endloop
  endfacet
  facet normal 0.000000e+00 0.000000e+00 1.000000e+00
    outer loop
      vertex -4.338445e+00 9.009852e+00 4.000000e+01
      vertex -4.338445e+00 -9.009852e+00 4.000000e+01
      vertex -1.224647e-15 -1.000000e+01 4.000000e+01
    endloop
  endfacet
  facet normal 0.000000e+00 0.000000e+00 1.000000e+00
    outer loop
      vertex 1.224647e-15 1.000000e+01 4.000000e+01
      vertex -4.338445e+00 9.009852e+00 4.000000e+01
      vertex -1.224647e-15 -1.000000e+01 4.000000e+01
    endloop
  endfacet
  facet normal 0.000000e+00 0.000000e+00 1.000000e+00
    outer loop
      vertex 4.338445e+00 -9.009852e+00 4.000000e+01
      vertex 1.224647e-15 1.000000e+01 4.000000e+01
      vertex -1.224647e-15 -1.000000e+01 4.000000e+01
    endloop
  endfacet
  facet normal 0.000000e+00 0.000000e+00 1.000000e+00
    outer loop
      vertex -7.817999e+00 6.235190e+00 4.000000e+01
      vertex -7.817999e+00 -6.235190e+00 4.000000e+01
      vertex -4.338445e+00 -9.009852e+00 4.000000e+01
    endloop
  endfacet
  facet normal 0.000000e+00 0.000000e+00 1.000000e+00
    outer loop
      vertex -4.338445e+00 9.009852e+00 4.000000e+01
      vertex -7.817999e+00 6.235190e+00 4.000000e+01
      vertex -4.338445e+00 -9.009852e+00 4.000000e+01
    endloop
  endfacet
  facet normal 0.000000e+00 0.000000e+00 1.000000e+00
    outer loop
      vertex -9.749150e+00 2.225354e+00 4.000000e+01
      vertex -9.749150e+00 -2.225354e+00 4.000000e+01
      vertex -7.817999e+00 -6.235190e+00 4.000000e+01
    endloop
  endfacet
  facet normal 0.000000e+00 0.000000e+00 1.000000e+00
    outer loop
      vertex -7.817999e+00 6.235190e+00 4.000000e+01
      vertex -9.749150e+00 2.225354e+00 4.000000e+01
      vertex -7.817999e+00 -6.235190e+00 4.000000e+01
    endloop
  endfacet
  facet normal 0.000000e+00 0.000000e+00 1.000000e+00
    outer loop
      vertex 4.338445e+00 -9.009852e+00 4.000000e+01
      vertex 4.338445e+00 9.009852e+00 4.000000e+01
      vertex 1.224647e-15 1.000000e+01 4.000000e+01
    endloop
  endfacet
  facet normal 0.000000e+00 0.000000e+00 1.000000e+00
    outer loop
      vertex 7.817999e+00 -6.235190e+00 4.000000e+01
      vertex 7.817999e+00 6.235190e+00 4.000000e+01
      vertex 4.338445e+00 9.009852e+00 4.000000e+01
    endloop
  endfacet
  facet normal 0.000000e+00 0.000000e+00 1.000000e+00
    outer loop
      vertex 4.338445e+00 -9.009852e+00 4.000000e+01
      vertex 7.817999e+00 -6.235190e+00 4.000000e+01
      vertex 4.338445e+00 9.009852e+00 4.000000e+01
    endloop
  endfacet
  facet normal 0.000000e+00 0.000000e+00 1.000000e+00
    outer loop
      vertex 9.749150e+00 -2.225354e+00 4.000000e+01
      vertex 9.749150e+00 2.225354e+00 4.000000e+01
      vertex 7.817999e+00 6.235190e+00 4.000000e+01
    endloop
  endfacet
  facet normal 0.000000e+00 0.000000e+00 1.000000e+00
    outer loop
      vertex 7.817999e+00 -6.235190e+00 4.000000e+01
      vertex 9.749150e+00 -2.225354e+00 4.000000e+01
      vertex 7.817999e+00 6.235190e+00 4.000000e+01
    endloop
  endfacet
endsolid SIM_CER_L_WRIST_TRIPOD_PIN_EQ
