solid SIM_CER_R_FOREARM
  facet normal 0.000000e+00 -5.353047e-04 -9.999999e-01
    outer loop
      vertex -4.358351e+01 -1.813195e+02 6.480130e+02
      vertex 2.358351e+01 -1.813195e+02 6.480130e+02
      vertex 2.500000e+01 -1.911724e+02 6.480182e+02
    endloop
  endfacet
  facet normal 9.898234e-01 1.423012e-01 -7.617452e-05
    outer loop
      vertex 2.500000e+01 -1.911344e+02 7.190182e+02
      vertex 2.500000e+01 -1.911724e+02 6.480182e+02
      vertex 2.358351e+01 -1.813195e+02 6.480130e+02
    endloop
  endfacet
  facet normal 0.000000e+00 -5.353047e-04 -9.999999e-01
    outer loop
      vertex -4.500000e+01 -1.911724e+02 6.480182e+02
      vertex -4.358351e+01 -1.813195e+02 6.480130e+02
      vertex 2.500000e+01 -1.911724e+02 6.480182e+02
    endloop
  endfacet
  facet normal 0.000000e+00 -5.353047e-04 -9.999999e-01
    outer loop
      vertex 2.358351e+01 -2.010252e+02 6.480235e+02
      vertex -4.500000e+01 -1.911724e+02 6.480182e+02
      vertex 2.500000e+01 -1.911724e+02 6.480182e+02
    endloop
  endfacet
  facet normal 9.898234e-01 -1.423012e-01 7.617452e-05
    outer loop
      vertex 2.358351e+01 -2.009872e+02 7.190235e+02
      vertex 2.358351e+01 -2.010252e+02 6.480235e+02
      vertex 2.500000e+01 -1.911724e+02 6.480182e+02
    endloop
  endfacet
  facet normal 9.898234e-01 -1.423012e-01 7.617452e-05
    outer loop
      vertex 2.358351e+01 -2.009872e+02 7.190235e+02
      vertex 2.500000e+01 -1.911724e+02 6.480182e+02
      vertex 2.500000e+01 -1.911344e+02 7.190182e+02
    endloop
  endfacet
  facet normal 0.000000e+00 -5.353047e-04 -9.999999e-01
    outer loop
      vertex -3.944469e+01 -1.722556e+02 6.480081e+02
      vertex 1.944469e+01 -1.722556e+02 6.480081e+02
      vertex 2.358351e+01 -1.813195e+02 6.480130e+02
    endloop
  endfacet
  facet normal 9.096515e-01 4.153721e-01 -2.223507e-04
    outer loop
      vertex 2.358351e+01 -1.812815e+02 7.190130e+02
      vertex 2.358351e+01 -1.813195e+02 6.480130e+02
      vertex 1.944469e+01 -1.722556e+02 6.480081e+02
    endloop
  endfacet
  facet normal 0.000000e+00 -5.353047e-04 -9.999999e-01
    outer loop
      vertex -4.358351e+01 -1.813195e+02 6.480130e+02
      vertex -3.944469e+01 -1.722556e+02 6.480081e+02
      vertex 2.358351e+01 -1.813195e+02 6.480130e+02
    endloop
  endfacet
  facet normal 9.898234e-01 1.423012e-01 -7.617452e-05
    outer loop
      vertex 2.358351e+01 -1.812815e+02 7.190130e+02
      vertex 2.500000e+01 -1.911344e+02 7.190182e+02
      vertex 2.358351e+01 -1.813195e+02 6.480130e+02
    endloop
  endfacet
  facet normal 0.000000e+00 -5.353047e-04 -9.999999e-01
    outer loop
      vertex -3.291692e+01 -1.647220e+02 6.480041e+02
      vertex 1.291692e+01 -1.647220e+02 6.480041e+02
      vertex 1.944469e+01 -1.722556e+02 6.480081e+02
    endloop
  endfacet
  facet normal 7.557580e-01 6.548509e-01 -3.505449e-04
    outer loop
      vertex 1.944469e+01 -1.722176e+02 7.190081e+02
      vertex 1.944469e+01 -1.722556e+02 6.480081e+02
      vertex 1.291692e+01 -1.647220e+02 6.480041e+02
    endloop
  endfacet
  facet normal 0.000000e+00 -5.353047e-04 -9.999999e-01
    outer loop
      vertex -3.944469e+01 -1.722556e+02 6.480081e+02
      vertex -3.291692e+01 -1.647220e+02 6.480041e+02
      vertex 1.944469e+01 -1.722556e+02 6.480081e+02
    endloop
  endfacet
  facet normal 9.096515e-01 4.153721e-01 -2.223507e-04
    outer loop
      vertex 2.358351e+01 -1.812815e+02 7.190130e+02
      vertex 1.944469e+01 -1.722556e+02 6.480081e+02
      vertex 1.944469e+01 -1.722176e+02 7.190081e+02
    endloop
  endfacet
  facet normal 5.234742e-19 -5.353047e-04 -9.999999e-01
    outer loop
      vertex -2.453202e+01 -1.593337e+02 6.480012e+02
      vertex 4.532019e+00 -1.593337e+02 6.480012e+02
      vertex 1.291692e+01 -1.647220e+02 6.480041e+02
    endloop
  endfacet
  facet normal 5.406113e-01 8.412724e-01 -4.503371e-04
    outer loop
      vertex 1.291692e+01 -1.646840e+02 7.190041e+02
      vertex 1.291692e+01 -1.647220e+02 6.480041e+02
      vertex 4.532019e+00 -1.593337e+02 6.480012e+02
    endloop
  endfacet
  facet normal 0.000000e+00 -5.353047e-04 -9.999999e-01
    outer loop
      vertex -3.291692e+01 -1.647220e+02 6.480041e+02
      vertex -2.453202e+01 -1.593337e+02 6.480012e+02
      vertex 1.291692e+01 -1.647220e+02 6.480041e+02
    endloop
  endfacet
  facet normal 7.557580e-01 6.548509e-01 -3.505449e-04
    outer loop
      vertex 1.944469e+01 -1.722176e+02 7.190081e+02
      vertex 1.291692e+01 -1.647220e+02 6.480041e+02
      vertex 1.291692e+01 -1.646840e+02 7.190041e+02
    endloop
  endfacet
  facet normal -1.528930e-18 -5.353047e-04 -9.999999e-01
    outer loop
      vertex -1.497547e+01 -1.565281e+02 6.479997e+02
      vertex -5.024534e+00 -1.565281e+02 6.479997e+02
      vertex 4.532019e+00 -1.593337e+02 6.480012e+02
    endloop
  endfacet
  facet normal 2.816921e-01 9.595047e-01 -5.136275e-04
    outer loop
      vertex 4.532019e+00 -1.592957e+02 7.190012e+02
      vertex 4.532019e+00 -1.593337e+02 6.480012e+02
      vertex -5.024534e+00 -1.565281e+02 6.479997e+02
    endloop
  endfacet
  facet normal 5.234742e-19 -5.353047e-04 -9.999999e-01
    outer loop
      vertex -2.453202e+01 -1.593337e+02 6.480012e+02
      vertex -1.497547e+01 -1.565281e+02 6.479997e+02
      vertex 4.532019e+00 -1.593337e+02 6.480012e+02
    endloop
  endfacet
  facet normal 5.406113e-01 8.412724e-01 -4.503371e-04
    outer loop
      vertex 1.291692e+01 -1.646840e+02 7.190041e+02
      vertex 4.532019e+00 -1.593337e+02 6.480012e+02
      vertex 4.532019e+00 -1.592957e+02 7.190012e+02
    endloop
  endfacet
  facet normal 2.856186e-15 9.999999e-01 -5.353047e-04
    outer loop
      vertex -5.024534e+00 -1.564901e+02 7.189997e+02
      vertex -5.024534e+00 -1.565281e+02 6.479997e+02
      vertex -1.497547e+01 -1.565281e+02 6.479997e+02
    endloop
  endfacet
  facet normal 2.816921e-01 9.595047e-01 -5.136275e-04
    outer loop
      vertex 4.532019e+00 -1.592957e+02 7.190012e+02
      vertex -5.024534e+00 -1.565281e+02 6.479997e+02
      vertex -5.024534e+00 -1.564901e+02 7.189997e+02
    endloop
  endfacet
  facet normal -2.816921e-01 9.595047e-01 -5.136275e-04
    outer loop
      vertex -1.497547e+01 -1.564901e+02 7.189997e+02
      vertex -1.497547e+01 -1.565281e+02 6.479997e+02
      vertex -2.453202e+01 -1.593337e+02 6.480012e+02
    endloop
  endfacet
  facet normal 2.856185e-15 9.999999e-01 -5.353047e-04
    outer loop
      vertex -5.024534e+00 -1.564901e+02 7.189997e+02
      vertex -1.497547e+01 -1.565281e+02 6.479997e+02
      vertex -1.497547e+01 -1.564901e+02 7.189997e+02
    endloop
  endfacet
  facet normal -5.406113e-01 8.412724e-01 -4.503371e-04
    outer loop
      vertex -2.453202e+01 -1.592957e+02 7.190012e+02
      vertex -2.453202e+01 -1.593337e+02 6.480012e+02
      vertex -3.291692e+01 -1.647220e+02 6.480041e+02
    endloop
  endfacet
  facet normal -2.816921e-01 9.595047e-01 -5.136275e-04
    outer loop
      vertex -1.497547e+01 -1.564901e+02 7.189997e+02
      vertex -2.453202e+01 -1.593337e+02 6.480012e+02
      vertex -2.453202e+01 -1.592957e+02 7.190012e+02
    endloop
  endfacet
  facet normal -7.557580e-01 6.548509e-01 -3.505449e-04
    outer loop
      vertex -3.291692e+01 -1.646840e+02 7.190041e+02
      vertex -3.291692e+01 -1.647220e+02 6.480041e+02
      vertex -3.944469e+01 -1.722556e+02 6.480081e+02
    endloop
  endfacet
  facet normal -5.406113e-01 8.412724e-01 -4.503371e-04
    outer loop
      vertex -2.453202e+01 -1.592957e+02 7.190012e+02
      vertex -3.291692e+01 -1.647220e+02 6.480041e+02
      vertex -3.291692e+01 -1.646840e+02 7.190041e+02
    endloop
  endfacet
  facet normal -9.096515e-01 4.153721e-01 -2.223507e-04
    outer loop
      vertex -3.944469e+01 -1.722176e+02 7.190081e+02
      vertex -3.944469e+01 -1.722556e+02 6.480081e+02
      vertex -4.358351e+01 -1.813195e+02 6.480130e+02
    endloop
  endfacet
  facet normal -7.557580e-01 6.548509e-01 -3.505449e-04
    outer loop
      vertex -3.291692e+01 -1.646840e+02 7.190041e+02
      vertex -3.944469e+01 -1.722556e+02 6.480081e+02
      vertex -3.944469e+01 -1.722176e+02 7.190081e+02
    endloop
  endfacet
  facet normal -9.898234e-01 1.423012e-01 -7.617452e-05
    outer loop
      vertex -4.358351e+01 -1.812815e+02 7.190130e+02
      vertex -4.358351e+01 -1.813195e+02 6.480130e+02
      vertex -4.500000e+01 -1.911724e+02 6.480182e+02
    endloop
  endfacet
  facet normal -9.096515e-01 4.153721e-01 -2.223507e-04
    outer loop
      vertex -3.944469e+01 -1.722176e+02 7.190081e+02
      vertex -4.358351e+01 -1.813195e+02 6.480130e+02
      vertex -4.358351e+01 -1.812815e+02 7.190130e+02
    endloop
  endfacet
  facet normal -2.265141e-19 -5.353047e-04 -9.999999e-01
    outer loop
      vertex 2.358351e+01 -2.010252e+02 6.480235e+02
      vertex -4.358351e+01 -2.010252e+02 6.480235e+02
      vertex -4.500000e+01 -1.911724e+02 6.480182e+02
    endloop
  endfacet
  facet normal -9.898234e-01 -1.423012e-01 7.617452e-05
    outer loop
      vertex -4.500000e+01 -1.911344e+02 7.190182e+02
      vertex -4.500000e+01 -1.911724e+02 6.480182e+02
      vertex -4.358351e+01 -2.010252e+02 6.480235e+02
    endloop
  endfacet
  facet normal -9.898234e-01 1.423012e-01 -7.617452e-05
    outer loop
      vertex -4.358351e+01 -1.812815e+02 7.190130e+02
      vertex -4.500000e+01 -1.911724e+02 6.480182e+02
      vertex -4.500000e+01 -1.911344e+02 7.190182e+02
    endloop
  endfacet
  facet normal 0.000000e+00 -5.353047e-04 -9.999999e-01
    outer loop
      vertex 1.944469e+01 -2.100891e+02 6.480284e+02
      vertex -3.944469e+01 -2.100891e+02 6.480284e+02
      vertex -4.358351e+01 -2.010252e+02 6.480235e+02
    endloop
  endfacet
  facet normal -9.096515e-01 -4.153721e-01 2.223507e-04
    outer loop
      vertex -4.358351e+01 -2.009872e+02 7.190235e+02
      vertex -4.358351e+01 -2.010252e+02 6.480235e+02
      vertex -3.944469e+01 -2.100891e+02 6.480284e+02
    endloop
  endfacet
  facet normal -2.265141e-19 -5.353047e-04 -9.999999e-01
    outer loop
      vertex 2.358351e+01 -2.010252e+02 6.480235e+02
      vertex 1.944469e+01 -2.100891e+02 6.480284e+02
      vertex -4.358351e+01 -2.010252e+02 6.480235e+02
    endloop
  endfacet
  facet normal -9.898234e-01 -1.423012e-01 7.617452e-05
    outer loop
      vertex -4.500000e+01 -1.911344e+02 7.190182e+02
      vertex -4.358351e+01 -2.010252e+02 6.480235e+02
      vertex -4.358351e+01 -2.009872e+02 7.190235e+02
    endloop
  endfacet
  facet normal 0.000000e+00 -5.353047e-04 -9.999999e-01
    outer loop
      vertex 1.291692e+01 -2.176227e+02 6.480324e+02
      vertex -3.291692e+01 -2.176227e+02 6.480324e+02
      vertex -3.944469e+01 -2.100891e+02 6.480284e+02
    endloop
  endfacet
  facet normal -7.557580e-01 -6.548509e-01 3.505449e-04
    outer loop
      vertex -3.944469e+01 -2.100511e+02 7.190284e+02
      vertex -3.944469e+01 -2.100891e+02 6.480284e+02
      vertex -3.291692e+01 -2.176227e+02 6.480324e+02
    endloop
  endfacet
  facet normal 0.000000e+00 -5.353047e-04 -9.999999e-01
    outer loop
      vertex 1.944469e+01 -2.100891e+02 6.480284e+02
      vertex 1.291692e+01 -2.176227e+02 6.480324e+02
      vertex -3.944469e+01 -2.100891e+02 6.480284e+02
    endloop
  endfacet
  facet normal -9.096515e-01 -4.153721e-01 2.223507e-04
    outer loop
      vertex -4.358351e+01 -2.009872e+02 7.190235e+02
      vertex -3.944469e+01 -2.100891e+02 6.480284e+02
      vertex -3.944469e+01 -2.100511e+02 7.190284e+02
    endloop
  endfacet
  facet normal 0.000000e+00 -5.353047e-04 -9.999999e-01
    outer loop
      vertex 4.532019e+00 -2.230110e+02 6.480353e+02
      vertex -2.453202e+01 -2.230110e+02 6.480353e+02
      vertex -3.291692e+01 -2.176227e+02 6.480324e+02
    endloop
  endfacet
  facet normal -5.406113e-01 -8.412724e-01 4.503371e-04
    outer loop
      vertex -3.291692e+01 -2.175847e+02 7.190324e+02
      vertex -3.291692e+01 -2.176227e+02 6.480324e+02
      vertex -2.453202e+01 -2.230110e+02 6.480353e+02
    endloop
  endfacet
  facet normal 0.000000e+00 -5.353047e-04 -9.999999e-01
    outer loop
      vertex 1.291692e+01 -2.176227e+02 6.480324e+02
      vertex 4.532019e+00 -2.230110e+02 6.480353e+02
      vertex -3.291692e+01 -2.176227e+02 6.480324e+02
    endloop
  endfacet
  facet normal -7.557580e-01 -6.548509e-01 3.505449e-04
    outer loop
      vertex -3.944469e+01 -2.100511e+02 7.190284e+02
      vertex -3.291692e+01 -2.176227e+02 6.480324e+02
      vertex -3.291692e+01 -2.175847e+02 7.190324e+02
    endloop
  endfacet
  facet normal -1.528930e-18 -5.353047e-04 -9.999999e-01
    outer loop
      vertex -5.024534e+00 -2.258166e+02 6.480368e+02
      vertex -1.497547e+01 -2.258166e+02 6.480368e+02
      vertex -2.453202e+01 -2.230110e+02 6.480353e+02
    endloop
  endfacet
  facet normal -2.816921e-01 -9.595047e-01 5.136275e-04
    outer loop
      vertex -2.453202e+01 -2.229730e+02 7.190353e+02
      vertex -2.453202e+01 -2.230110e+02 6.480353e+02
      vertex -1.497547e+01 -2.258166e+02 6.480368e+02
    endloop
  endfacet
  facet normal 0.000000e+00 -5.353047e-04 -9.999999e-01
    outer loop
      vertex 4.532019e+00 -2.230110e+02 6.480353e+02
      vertex -5.024534e+00 -2.258166e+02 6.480368e+02
      vertex -2.453202e+01 -2.230110e+02 6.480353e+02
    endloop
  endfacet
  facet normal -5.406113e-01 -8.412724e-01 4.503371e-04
    outer loop
      vertex -3.291692e+01 -2.175847e+02 7.190324e+02
      vertex -2.453202e+01 -2.230110e+02 6.480353e+02
      vertex -2.453202e+01 -2.229730e+02 7.190353e+02
    endloop
  endfacet
  facet normal -2.856186e-15 -9.999999e-01 5.353047e-04
    outer loop
      vertex -1.497547e+01 -2.257786e+02 7.190368e+02
      vertex -1.497547e+01 -2.258166e+02 6.480368e+02
      vertex -5.024534e+00 -2.258166e+02 6.480368e+02
    endloop
  endfacet
  facet normal -2.816921e-01 -9.595047e-01 5.136275e-04
    outer loop
      vertex -2.453202e+01 -2.229730e+02 7.190353e+02
      vertex -1.497547e+01 -2.258166e+02 6.480368e+02
      vertex -1.497547e+01 -2.257786e+02 7.190368e+02
    endloop
  endfacet
  facet normal 2.816921e-01 -9.595047e-01 5.136275e-04
    outer loop
      vertex -5.024534e+00 -2.257786e+02 7.190368e+02
      vertex -5.024534e+00 -2.258166e+02 6.480368e+02
      vertex 4.532019e+00 -2.230110e+02 6.480353e+02
    endloop
  endfacet
  facet normal -2.856185e-15 -9.999999e-01 5.353047e-04
    outer loop
      vertex -1.497547e+01 -2.257786e+02 7.190368e+02
      vertex -5.024534e+00 -2.258166e+02 6.480368e+02
      vertex -5.024534e+00 -2.257786e+02 7.190368e+02
    endloop
  endfacet
  facet normal 5.406113e-01 -8.412724e-01 4.503371e-04
    outer loop
      vertex 4.532019e+00 -2.229730e+02 7.190353e+02
      vertex 4.532019e+00 -2.230110e+02 6.480353e+02
      vertex 1.291692e+01 -2.176227e+02 6.480324e+02
    endloop
  endfacet
  facet normal 2.816921e-01 -9.595047e-01 5.136275e-04
    outer loop
      vertex -5.024534e+00 -2.257786e+02 7.190368e+02
      vertex 4.532019e+00 -2.230110e+02 6.480353e+02
      vertex 4.532019e+00 -2.229730e+02 7.190353e+02
    endloop
  endfacet
  facet normal 7.557580e-01 -6.548509e-01 3.505449e-04
    outer loop
      vertex 1.291692e+01 -2.175847e+02 7.190324e+02
      vertex 1.291692e+01 -2.176227e+02 6.480324e+02
      vertex 1.944469e+01 -2.100891e+02 6.480284e+02
    endloop
  endfacet
  facet normal 5.406113e-01 -8.412724e-01 4.503371e-04
    outer loop
      vertex 4.532019e+00 -2.229730e+02 7.190353e+02
      vertex 1.291692e+01 -2.176227e+02 6.480324e+02
      vertex 1.291692e+01 -2.175847e+02 7.190324e+02
    endloop
  endfacet
  facet normal 9.096515e-01 -4.153721e-01 2.223507e-04
    outer loop
      vertex 1.944469e+01 -2.100511e+02 7.190284e+02
      vertex 1.944469e+01 -2.100891e+02 6.480284e+02
      vertex 2.358351e+01 -2.010252e+02 6.480235e+02
    endloop
  endfacet
  facet normal 7.557580e-01 -6.548509e-01 3.505449e-04
    outer loop
      vertex 1.291692e+01 -2.175847e+02 7.190324e+02
      vertex 1.944469e+01 -2.100891e+02 6.480284e+02
      vertex 1.944469e+01 -2.100511e+02 7.190284e+02
    endloop
  endfacet
  facet normal 9.096515e-01 -4.153721e-01 2.223507e-04
    outer loop
      vertex 1.944469e+01 -2.100511e+02 7.190284e+02
      vertex 2.358351e+01 -2.010252e+02 6.480235e+02
      vertex 2.358351e+01 -2.009872e+02 7.190235e+02
    endloop
  endfacet
  facet normal 2.265141e-19 5.353047e-04 9.999999e-01
    outer loop
      vertex -4.358351e+01 -2.009872e+02 7.190235e+02
      vertex 2.358351e+01 -2.009872e+02 7.190235e+02
      vertex 2.500000e+01 -1.911344e+02 7.190182e+02
    endloop
  endfacet
  facet normal 0.000000e+00 5.353047e-04 9.999999e-01
    outer loop
      vertex -4.500000e+01 -1.911344e+02 7.190182e+02
      vertex -4.358351e+01 -2.009872e+02 7.190235e+02
      vertex 2.500000e+01 -1.911344e+02 7.190182e+02
    endloop
  endfacet
  facet normal 0.000000e+00 5.353047e-04 9.999999e-01
    outer loop
      vertex 2.358351e+01 -1.812815e+02 7.190130e+02
      vertex -4.500000e+01 -1.911344e+02 7.190182e+02
      vertex 2.500000e+01 -1.911344e+02 7.190182e+02
    endloop
  endfacet
  facet normal 0.000000e+00 5.353047e-04 9.999999e-01
    outer loop
      vertex -3.944469e+01 -2.100511e+02 7.190284e+02
      vertex 1.944469e+01 -2.100511e+02 7.190284e+02
      vertex 2.358351e+01 -2.009872e+02 7.190235e+02
    endloop
  endfacet
  facet normal 2.265141e-19 5.353047e-04 9.999999e-01
    outer loop
      vertex -4.358351e+01 -2.009872e+02 7.190235e+02
      vertex -3.944469e+01 -2.100511e+02 7.190284e+02
      vertex 2.358351e+01 -2.009872e+02 7.190235e+02
    endloop
  endfacet
  facet normal 0.000000e+00 5.353047e-04 9.999999e-01
    outer loop
      vertex -3.291692e+01 -2.175847e+02 7.190324e+02
      vertex 1.291692e+01 -2.175847e+02 7.190324e+02
      vertex 1.944469e+01 -2.100511e+02 7.190284e+02
    endloop
  endfacet
  facet normal 0.000000e+00 5.353047e-04 9.999999e-01
    outer loop
      vertex -3.944469e+01 -2.100511e+02 7.190284e+02
      vertex -3.291692e+01 -2.175847e+02 7.190324e+02
      vertex 1.944469e+01 -2.100511e+02 7.190284e+02
    endloop
  endfacet
  facet normal 0.000000e+00 5.353047e-04 9.999999e-01
    outer loop
      vertex -2.453202e+01 -2.229730e+02 7.190353e+02
      vertex 4.532019e+00 -2.229730e+02 7.190353e+02
      vertex 1.291692e+01 -2.175847e+02 7.190324e+02
    endloop
  endfacet
  facet normal 0.000000e+00 5.353047e-04 9.999999e-01
    outer loop
      vertex -3.291692e+01 -2.175847e+02 7.190324e+02
      vertex -2.453202e+01 -2.229730e+02 7.190353e+02
      vertex 1.291692e+01 -2.175847e+02 7.190324e+02
    endloop
  endfacet
  facet normal 1.528930e-18 5.353047e-04 9.999999e-01
    outer loop
      vertex -1.497547e+01 -2.257786e+02 7.190368e+02
      vertex -5.024534e+00 -2.257786e+02 7.190368e+02
      vertex 4.532019e+00 -2.229730e+02 7.190353e+02
    endloop
  endfacet
  facet normal 0.000000e+00 5.353047e-04 9.999999e-01
    outer loop
      vertex -2.453202e+01 -2.229730e+02 7.190353e+02
      vertex -1.497547e+01 -2.257786e+02 7.190368e+02
      vertex 4.532019e+00 -2.229730e+02 7.190353e+02
    endloop
  endfacet
  facet normal 0.000000e+00 5.353047e-04 9.999999e-01
    outer loop
      vertex 2.358351e+01 -1.812815e+02 7.190130e+02
      vertex -4.358351e+01 -1.812815e+02 7.190130e+02
      vertex -4.500000e+01 -1.911344e+02 7.190182e+02
    endloop
  endfacet
  facet normal 0.000000e+00 5.353047e-04 9.999999e-01
    outer loop
      vertex 1.944469e+01 -1.722176e+02 7.190081e+02
      vertex -3.944469e+01 -1.722176e+02 7.190081e+02
      vertex -4.358351e+01 -1.812815e+02 7.190130e+02
    endloop
  endfacet
  facet normal 0.000000e+00 5.353047e-04 9.999999e-01
    outer loop
      vertex 2.358351e+01 -1.812815e+02 7.190130e+02
      vertex 1.944469e+01 -1.722176e+02 7.190081e+02
      vertex -4.358351e+01 -1.812815e+02 7.190130e+02
    endloop
  endfacet
  facet normal 0.000000e+00 5.353047e-04 9.999999e-01
    outer loop
      vertex 1.291692e+01 -1.646840e+02 7.190041e+02
      vertex -3.291692e+01 -1.646840e+02 7.190041e+02
      vertex -3.944469e+01 -1.722176e+02 7.190081e+02
    endloop
  endfacet
  facet normal 0.000000e+00 5.353047e-04 9.999999e-01
    outer loop
      vertex 1.944469e+01 -1.722176e+02 7.190081e+02
      vertex 1.291692e+01 -1.646840e+02 7.190041e+02
      vertex -3.944469e+01 -1.722176e+02 7.190081e+02
    endloop
  endfacet
  facet normal -5.234742e-19 5.353047e-04 9.999999e-01
    outer loop
      vertex 4.532019e+00 -1.592957e+02 7.190012e+02
      vertex -2.453202e+01 -1.592957e+02 7.190012e+02
      vertex -3.291692e+01 -1.646840e+02 7.190041e+02
    endloop
  endfacet
  facet normal 0.000000e+00 5.353047e-04 9.999999e-01
    outer loop
      vertex 1.291692e+01 -1.646840e+02 7.190041e+02
      vertex 4.532019e+00 -1.592957e+02 7.190012e+02
      vertex -3.291692e+01 -1.646840e+02 7.190041e+02
    endloop
  endfacet
  facet normal 1.528930e-18 5.353047e-04 9.999999e-01
    outer loop
      vertex -5.024534e+00 -1.564901e+02 7.189997e+02
      vertex -1.497547e+01 -1.564901e+02 7.189997e+02
      vertex -2.453202e+01 -1.592957e+02 7.190012e+02
    endloop
  endfacet
  facet normal -5.234742e-19 5.353047e-04 9.999999e-01
    outer loop
      vertex 4.532019e+00 -1.592957e+02 7.190012e+02
      vertex -5.024534e+00 -1.564901e+02 7.189997e+02
      vertex -2.453202e+01 -1.592957e+02 7.190012e+02
    endloop
  endfacet
endsolid SIM_CER_R_FOREARM
