solid SIM_CER_L_UPPERARM
  facet normal 0.000000e+00 -5.353047e-04 9.999999e-01
    outer loop
      vertex 2.523828e+01 2.038757e+02 8.600251e+02
      vertex -4.523828e+01 2.038757e+02 8.600251e+02
      vertex -4.750000e+01 1.910589e+02 8.600182e+02
    endloop
  endfacet
  facet normal -9.847845e-01 1.737800e-01 9.302527e-05
    outer loop
      vertex -4.750000e+01 1.911344e+02 7.190182e+02
      vertex -4.750000e+01 1.910589e+02 8.600182e+02
      vertex -4.523828e+01 2.038757e+02 8.600251e+02
    endloop
  endfacet
  facet normal 0.000000e+00 -5.353047e-04 9.999999e-01
    outer loop
      vertex 2.750000e+01 1.910589e+02 8.600182e+02
      vertex 2.523828e+01 2.038757e+02 8.600251e+02
      vertex -4.750000e+01 1.910589e+02 8.600182e+02
    endloop
  endfacet
  facet normal 0.000000e+00 -5.353047e-04 9.999999e-01
    outer loop
      vertex -4.523828e+01 1.782421e+02 8.600114e+02
      vertex 2.750000e+01 1.910589e+02 8.600182e+02
      vertex -4.750000e+01 1.910589e+02 8.600182e+02
    endloop
  endfacet
  facet normal -9.847845e-01 -1.737800e-01 -9.302527e-05
    outer loop
      vertex -4.523828e+01 1.783176e+02 7.190114e+02
      vertex -4.523828e+01 1.782421e+02 8.600114e+02
      vertex -4.750000e+01 1.910589e+02 8.600182e+02
    endloop
  endfacet
  facet normal -9.847845e-01 -1.737800e-01 -9.302527e-05
    outer loop
      vertex -4.523828e+01 1.783176e+02 7.190114e+02
      vertex -4.750000e+01 1.910589e+02 8.600182e+02
      vertex -4.750000e+01 1.911344e+02 7.190182e+02
    endloop
  endfacet
  facet normal 0.000000e+00 -5.353047e-04 9.999999e-01
    outer loop
      vertex 1.871881e+01 2.151677e+02 8.600311e+02
      vertex -3.871881e+01 2.151677e+02 8.600311e+02
      vertex -4.523828e+01 2.038757e+02 8.600251e+02
    endloop
  endfacet
  facet normal -8.660254e-01 4.999999e-01 2.676524e-04
    outer loop
      vertex -4.523828e+01 2.039512e+02 7.190251e+02
      vertex -4.523828e+01 2.038757e+02 8.600251e+02
      vertex -3.871881e+01 2.151677e+02 8.600311e+02
    endloop
  endfacet
  facet normal 0.000000e+00 -5.353047e-04 9.999999e-01
    outer loop
      vertex 2.523828e+01 2.038757e+02 8.600251e+02
      vertex 1.871881e+01 2.151677e+02 8.600311e+02
      vertex -4.523828e+01 2.038757e+02 8.600251e+02
    endloop
  endfacet
  facet normal -9.847845e-01 1.737800e-01 9.302527e-05
    outer loop
      vertex -4.523828e+01 2.039512e+02 7.190251e+02
      vertex -4.750000e+01 1.911344e+02 7.190182e+02
      vertex -4.523828e+01 2.038757e+02 8.600251e+02
    endloop
  endfacet
  facet normal 0.000000e+00 -5.353047e-04 9.999999e-01
    outer loop
      vertex 8.750000e+00 2.235348e+02 8.600356e+02
      vertex -2.875000e+01 2.235348e+02 8.600356e+02
      vertex -3.871881e+01 2.151677e+02 8.600311e+02
    endloop
  endfacet
  facet normal -6.428902e-01 7.659583e-01 4.100211e-04
    outer loop
      vertex -3.871881e+01 2.152432e+02 7.190311e+02
      vertex -3.871881e+01 2.151677e+02 8.600311e+02
      vertex -2.875000e+01 2.235348e+02 8.600356e+02
    endloop
  endfacet
  facet normal 0.000000e+00 -5.353047e-04 9.999999e-01
    outer loop
      vertex 1.871881e+01 2.151677e+02 8.600311e+02
      vertex 8.750000e+00 2.235348e+02 8.600356e+02
      vertex -3.871881e+01 2.151677e+02 8.600311e+02
    endloop
  endfacet
  facet normal -8.660254e-01 4.999999e-01 2.676524e-04
    outer loop
      vertex -4.523828e+01 2.039512e+02 7.190251e+02
      vertex -3.871881e+01 2.151677e+02 8.600311e+02
      vertex -3.871881e+01 2.152432e+02 7.190311e+02
    endloop
  endfacet
  facet normal 0.000000e+00 -5.353047e-04 9.999999e-01
    outer loop
      vertex -3.480529e+00 2.279845e+02 8.600380e+02
      vertex -1.651947e+01 2.279845e+02 8.600380e+02
      vertex -2.875000e+01 2.235348e+02 8.600356e+02
    endloop
  endfacet
  facet normal -3.418943e-01 9.397383e-01 5.030464e-04
    outer loop
      vertex -2.875000e+01 2.236103e+02 7.190356e+02
      vertex -2.875000e+01 2.235348e+02 8.600356e+02
      vertex -1.651947e+01 2.279845e+02 8.600380e+02
    endloop
  endfacet
  facet normal 0.000000e+00 -5.353047e-04 9.999999e-01
    outer loop
      vertex 8.750000e+00 2.235348e+02 8.600356e+02
      vertex -3.480529e+00 2.279845e+02 8.600380e+02
      vertex -2.875000e+01 2.235348e+02 8.600356e+02
    endloop
  endfacet
  facet normal -6.428902e-01 7.659583e-01 4.100211e-04
    outer loop
      vertex -3.871881e+01 2.152432e+02 7.190311e+02
      vertex -2.875000e+01 2.235348e+02 8.600356e+02
      vertex -2.875000e+01 2.236103e+02 7.190356e+02
    endloop
  endfacet
  facet normal 0.000000e+00 9.999999e-01 5.353047e-04
    outer loop
      vertex -1.651947e+01 2.280600e+02 7.190380e+02
      vertex -1.651947e+01 2.279845e+02 8.600380e+02
      vertex -3.480529e+00 2.279845e+02 8.600380e+02
    endloop
  endfacet
  facet normal -3.418943e-01 9.397383e-01 5.030464e-04
    outer loop
      vertex -2.875000e+01 2.236103e+02 7.190356e+02
      vertex -1.651947e+01 2.279845e+02 8.600380e+02
      vertex -1.651947e+01 2.280600e+02 7.190380e+02
    endloop
  endfacet
  facet normal 3.418943e-01 9.397383e-01 5.030464e-04
    outer loop
      vertex -3.480529e+00 2.280600e+02 7.190380e+02
      vertex -3.480529e+00 2.279845e+02 8.600380e+02
      vertex 8.750000e+00 2.235348e+02 8.600356e+02
    endloop
  endfacet
  facet normal 0.000000e+00 9.999999e-01 5.353047e-04
    outer loop
      vertex -1.651947e+01 2.280600e+02 7.190380e+02
      vertex -3.480529e+00 2.279845e+02 8.600380e+02
      vertex -3.480529e+00 2.280600e+02 7.190380e+02
    endloop
  endfacet
  facet normal 6.428902e-01 7.659583e-01 4.100211e-04
    outer loop
      vertex 8.750000e+00 2.236103e+02 7.190356e+02
      vertex 8.750000e+00 2.235348e+02 8.600356e+02
      vertex 1.871881e+01 2.151677e+02 8.600311e+02
    endloop
  endfacet
  facet normal 3.418943e-01 9.397383e-01 5.030464e-04
    outer loop
      vertex -3.480529e+00 2.280600e+02 7.190380e+02
      vertex 8.750000e+00 2.235348e+02 8.600356e+02
      vertex 8.750000e+00 2.236103e+02 7.190356e+02
    endloop
  endfacet
  facet normal 8.660254e-01 4.999999e-01 2.676524e-04
    outer loop
      vertex 1.871881e+01 2.152432e+02 7.190311e+02
      vertex 1.871881e+01 2.151677e+02 8.600311e+02
      vertex 2.523828e+01 2.038757e+02 8.600251e+02
    endloop
  endfacet
  facet normal 6.428902e-01 7.659583e-01 4.100211e-04
    outer loop
      vertex 8.750000e+00 2.236103e+02 7.190356e+02
      vertex 1.871881e+01 2.151677e+02 8.600311e+02
      vertex 1.871881e+01 2.152432e+02 7.190311e+02
    endloop
  endfacet
  facet normal 9.847845e-01 1.737800e-01 9.302527e-05
    outer loop
      vertex 2.523828e+01 2.039512e+02 7.190251e+02
      vertex 2.523828e+01 2.038757e+02 8.600251e+02
      vertex 2.750000e+01 1.910589e+02 8.600182e+02
    endloop
  endfacet
  facet normal 8.660254e-01 4.999999e-01 2.676524e-04
    outer loop
      vertex 1.871881e+01 2.152432e+02 7.190311e+02
      vertex 2.523828e+01 2.038757e+02 8.600251e+02
      vertex 2.523828e+01 2.039512e+02 7.190251e+02
    endloop
  endfacet
  facet normal 2.158771e-19 -5.353047e-04 9.999999e-01
    outer loop
      vertex -4.523828e+01 1.782421e+02 8.600114e+02
      vertex 2.523828e+01 1.782421e+02 8.600114e+02
      vertex 2.750000e+01 1.910589e+02 8.600182e+02
    endloop
  endfacet
  facet normal 9.847845e-01 -1.737800e-01 -9.302527e-05
    outer loop
      vertex 2.750000e+01 1.911344e+02 7.190182e+02
      vertex 2.750000e+01 1.910589e+02 8.600182e+02
      vertex 2.523828e+01 1.782421e+02 8.600114e+02
    endloop
  endfacet
  facet normal 9.847845e-01 1.737800e-01 9.302527e-05
    outer loop
      vertex 2.523828e+01 2.039512e+02 7.190251e+02
      vertex 2.750000e+01 1.910589e+02 8.600182e+02
      vertex 2.750000e+01 1.911344e+02 7.190182e+02
    endloop
  endfacet
  facet normal 0.000000e+00 -5.353047e-04 9.999999e-01
    outer loop
      vertex -3.871881e+01 1.669500e+02 8.600053e+02
      vertex 1.871881e+01 1.669500e+02 8.600053e+02
      vertex 2.523828e+01 1.782421e+02 8.600114e+02
    endloop
  endfacet
  facet normal 8.660254e-01 -4.999999e-01 -2.676524e-04
    outer loop
      vertex 2.523828e+01 1.783176e+02 7.190114e+02
      vertex 2.523828e+01 1.782421e+02 8.600114e+02
      vertex 1.871881e+01 1.669500e+02 8.600053e+02
    endloop
  endfacet
  facet normal 2.158771e-19 -5.353047e-04 9.999999e-01
    outer loop
      vertex -4.523828e+01 1.782421e+02 8.600114e+02
      vertex -3.871881e+01 1.669500e+02 8.600053e+02
      vertex 2.523828e+01 1.782421e+02 8.600114e+02
    endloop
  endfacet
  facet normal 9.847845e-01 -1.737800e-01 -9.302527e-05
    outer loop
      vertex 2.750000e+01 1.911344e+02 7.190182e+02
      vertex 2.523828e+01 1.782421e+02 8.600114e+02
      vertex 2.523828e+01 1.783176e+02 7.190114e+02
    endloop
  endfacet
  facet normal 8.114280e-19 -5.353047e-04 9.999999e-01
    outer loop
      vertex -2.875000e+01 1.585829e+02 8.600008e+02
      vertex 8.750000e+00 1.585829e+02 8.600008e+02
      vertex 1.871881e+01 1.669500e+02 8.600053e+02
    endloop
  endfacet
  facet normal 6.428902e-01 -7.659583e-01 -4.100211e-04
    outer loop
      vertex 1.871881e+01 1.670255e+02 7.190053e+02
      vertex 1.871881e+01 1.669500e+02 8.600053e+02
      vertex 8.750000e+00 1.585829e+02 8.600008e+02
    endloop
  endfacet
  facet normal 0.000000e+00 -5.353047e-04 9.999999e-01
    outer loop
      vertex -3.871881e+01 1.669500e+02 8.600053e+02
      vertex -2.875000e+01 1.585829e+02 8.600008e+02
      vertex 1.871881e+01 1.669500e+02 8.600053e+02
    endloop
  endfacet
  facet normal 8.660254e-01 -4.999999e-01 -2.676524e-04
    outer loop
      vertex 2.523828e+01 1.783176e+02 7.190114e+02
      vertex 1.871881e+01 1.669500e+02 8.600053e+02
      vertex 1.871881e+01 1.670255e+02 7.190053e+02
    endloop
  endfacet
  facet normal 0.000000e+00 -5.353047e-04 9.999999e-01
    outer loop
      vertex -1.651947e+01 1.541332e+02 8.599984e+02
      vertex -3.480529e+00 1.541332e+02 8.599984e+02
      vertex 8.750000e+00 1.585829e+02 8.600008e+02
    endloop
  endfacet
  facet normal 3.418943e-01 -9.397383e-01 -5.030464e-04
    outer loop
      vertex 8.750000e+00 1.586584e+02 7.190009e+02
      vertex 8.750000e+00 1.585829e+02 8.600008e+02
      vertex -3.480529e+00 1.541332e+02 8.599984e+02
    endloop
  endfacet
  facet normal 8.114280e-19 -5.353047e-04 9.999999e-01
    outer loop
      vertex -2.875000e+01 1.585829e+02 8.600008e+02
      vertex -1.651947e+01 1.541332e+02 8.599984e+02
      vertex 8.750000e+00 1.585829e+02 8.600008e+02
    endloop
  endfacet
  facet normal 6.428902e-01 -7.659583e-01 -4.100211e-04
    outer loop
      vertex 1.871881e+01 1.670255e+02 7.190053e+02
      vertex 8.750000e+00 1.585829e+02 8.600008e+02
      vertex 8.750000e+00 1.586584e+02 7.190009e+02
    endloop
  endfacet
  facet normal 0.000000e+00 -9.999999e-01 -5.353047e-04
    outer loop
      vertex -3.480529e+00 1.542087e+02 7.189985e+02
      vertex -3.480529e+00 1.541332e+02 8.599984e+02
      vertex -1.651947e+01 1.541332e+02 8.599984e+02
    endloop
  endfacet
  facet normal 3.418943e-01 -9.397383e-01 -5.030464e-04
    outer loop
      vertex 8.750000e+00 1.586584e+02 7.190009e+02
      vertex -3.480529e+00 1.541332e+02 8.599984e+02
      vertex -3.480529e+00 1.542087e+02 7.189985e+02
    endloop
  endfacet
  facet normal -3.418943e-01 -9.397383e-01 -5.030464e-04
    outer loop
      vertex -1.651947e+01 1.542087e+02 7.189985e+02
      vertex -1.651947e+01 1.541332e+02 8.599984e+02
      vertex -2.875000e+01 1.585829e+02 8.600008e+02
    endloop
  endfacet
  facet normal 0.000000e+00 -9.999999e-01 -5.353047e-04
    outer loop
      vertex -3.480529e+00 1.542087e+02 7.189985e+02
      vertex -1.651947e+01 1.541332e+02 8.599984e+02
      vertex -1.651947e+01 1.542087e+02 7.189985e+02
    endloop
  endfacet
  facet normal -6.428902e-01 -7.659583e-01 -4.100211e-04
    outer loop
      vertex -2.875000e+01 1.586584e+02 7.190009e+02
      vertex -2.875000e+01 1.585829e+02 8.600008e+02
      vertex -3.871881e+01 1.669500e+02 8.600053e+02
    endloop
  endfacet
  facet normal -3.418943e-01 -9.397383e-01 -5.030464e-04
    outer loop
      vertex -1.651947e+01 1.542087e+02 7.189985e+02
      vertex -2.875000e+01 1.585829e+02 8.600008e+02
      vertex -2.875000e+01 1.586584e+02 7.190009e+02
    endloop
  endfacet
  facet normal -8.660254e-01 -4.999999e-01 -2.676524e-04
    outer loop
      vertex -3.871881e+01 1.670255e+02 7.190053e+02
      vertex -3.871881e+01 1.669500e+02 8.600053e+02
      vertex -4.523828e+01 1.782421e+02 8.600114e+02
    endloop
  endfacet
  facet normal -6.428902e-01 -7.659583e-01 -4.100211e-04
    outer loop
      vertex -2.875000e+01 1.586584e+02 7.190009e+02
      vertex -3.871881e+01 1.669500e+02 8.600053e+02
      vertex -3.871881e+01 1.670255e+02 7.190053e+02
    endloop
  endfacet
  facet normal -8.660254e-01 -4.999999e-01 -2.676524e-04
    outer loop
      vertex -3.871881e+01 1.670255e+02 7.190053e+02
      vertex -4.523828e+01 1.782421e+02 8.600114e+02
      vertex -4.523828e+01 1.783176e+02 7.190114e+02
    endloop
  endfacet
  facet normal -2.158771e-19 5.353047e-04 -9.999999e-01
    outer loop
      vertex 2.523828e+01 1.783176e+02 7.190114e+02
      vertex -4.523828e+01 1.783176e+02 7.190114e+02
      vertex -4.750000e+01 1.911344e+02 7.190182e+02
    endloop
  endfacet
  facet normal 0.000000e+00 5.353047e-04 -9.999999e-01
    outer loop
      vertex 2.750000e+01 1.911344e+02 7.190182e+02
      vertex 2.523828e+01 1.783176e+02 7.190114e+02
      vertex -4.750000e+01 1.911344e+02 7.190182e+02
    endloop
  endfacet
  facet normal 0.000000e+00 5.353047e-04 -9.999999e-01
    outer loop
      vertex -4.523828e+01 2.039512e+02 7.190251e+02
      vertex 2.750000e+01 1.911344e+02 7.190182e+02
      vertex -4.750000e+01 1.911344e+02 7.190182e+02
    endloop
  endfacet
  facet normal 0.000000e+00 5.353047e-04 -9.999999e-01
    outer loop
      vertex 1.871881e+01 1.670255e+02 7.190053e+02
      vertex -3.871881e+01 1.670255e+02 7.190053e+02
      vertex -4.523828e+01 1.783176e+02 7.190114e+02
    endloop
  endfacet
  facet normal -2.158771e-19 5.353047e-04 -9.999999e-01
    outer loop
      vertex 2.523828e+01 1.783176e+02 7.190114e+02
      vertex 1.871881e+01 1.670255e+02 7.190053e+02
      vertex -4.523828e+01 1.783176e+02 7.190114e+02
    endloop
  endfacet
  facet normal -8.114280e-19 5.353047e-04 -9.999999e-01
    outer loop
      vertex 8.750000e+00 1.586584e+02 7.190009e+02
      vertex -2.875000e+01 1.586584e+02 7.190009e+02
      vertex -3.871881e+01 1.670255e+02 7.190053e+02
    endloop
  endfacet
  facet normal 0.000000e+00 5.353047e-04 -9.999999e-01
    outer loop
      vertex 1.871881e+01 1.670255e+02 7.190053e+02
      vertex 8.750000e+00 1.586584e+02 7.190009e+02
      vertex -3.871881e+01 1.670255e+02 7.190053e+02
    endloop
  endfacet
  facet normal 0.000000e+00 5.353047e-04 -9.999999e-01
    outer loop
      vertex -3.480529e+00 1.542087e+02 7.189985e+02
      vertex -1.651947e+01 1.542087e+02 7.189985e+02
      vertex -2.875000e+01 1.586584e+02 7.190009e+02
    endloop
  endfacet
  facet normal -8.114280e-19 5.353047e-04 -9.999999e-01
    outer loop
      vertex 8.750000e+00 1.586584e+02 7.190009e+02
      vertex -3.480529e+00 1.542087e+02 7.189985e+02
      vertex -2.875000e+01 1.586584e+02 7.190009e+02
    endloop
  endfacet
  facet normal 0.000000e+00 5.353047e-04 -9.999999e-01
    outer loop
      vertex -4.523828e+01 2.039512e+02 7.190251e+02
      vertex 2.523828e+01 2.039512e+02 7.190251e+02
      vertex 2.750000e+01 1.911344e+02 7.190182e+02
    endloop
  endfacet
  facet normal 0.000000e+00 5.353047e-04 -9.999999e-01
    outer loop
      vertex -3.871881e+01 2.152432e+02 7.190311e+02
      vertex 1.871881e+01 2.152432e+02 7.190311e+02
      vertex 2.523828e+01 2.039512e+02 7.190251e+02
    endloop
  endfacet
  facet normal 0.000000e+00 5.353047e-04 -9.999999e-01
    outer loop
      vertex -4.523828e+01 2.039512e+02 7.190251e+02
      vertex -3.871881e+01 2.152432e+02 7.190311e+02
      vertex 2.523828e+01 2.039512e+02 7.190251e+02
    endloop
  endfacet
  facet normal 0.000000e+00 5.353047e-04 -9.999999e-01
    outer loop
      vertex -2.875000e+01 2.236103e+02 7.190356e+02
      vertex 8.750000e+00 2.236103e+02 7.190356e+02
      vertex 1.871881e+01 2.152432e+02 7.190311e+02
    endloop
  endfacet
  facet normal 0.000000e+00 5.353047e-04 -9.999999e-01
    outer loop
      vertex -3.871881e+01 2.152432e+02 7.190311e+02
      vertex -2.875000e+01 2.236103e+02 7.190356e+02
      vertex 1.871881e+01 2.152432e+02 7.190311e+02
    endloop
  endfacet
  facet normal 0.000000e+00 5.353047e-04 -9.999999e-01
    outer loop
      vertex -1.651947e+01 2.280600e+02 7.190380e+02
      vertex -3.480529e+00 2.280600e+02 7.190380e+02
      vertex 8.750000e+00 2.236103e+02 7.190356e+02
    endloop
  endfacet
  facet normal 0.000000e+00 5.353047e-04 -9.999999e-01
    outer loop
      vertex -2.875000e+01 2.236103e+02 7.190356e+02
      vertex -1.651947e+01 2.280600e+02 7.190380e+02
      vertex 8.750000e+00 2.236103e+02 7.190356e+02
    endloop
  endfacet
endsolid SIM_CER_L_UPPERARM
