solid SIM_CER_R_SHOULDER
  facet normal 0.000000e+00 5.353047e-04 9.999999e-01
    outer loop
      vertex -4.804258e+01 -2.033524e+02 9.700248e+02
      vertex 2.804258e+01 -2.033524e+02 9.700248e+02
      vertex 3.000000e+01 -1.910000e+02 9.700182e+02
    endloop
  endfacet
  facet normal 9.876761e-01 -1.565114e-01 8.378132e-05
    outer loop
      vertex 3.000000e+01 -1.910589e+02 8.600182e+02
      vertex 3.000000e+01 -1.910000e+02 9.700182e+02
      vertex 2.804258e+01 -2.033524e+02 9.700248e+02
    endloop
  endfacet
  facet normal 0.000000e+00 5.353047e-04 9.999999e-01
    outer loop
      vertex -5.000000e+01 -1.910000e+02 9.700182e+02
      vertex -4.804258e+01 -2.033524e+02 9.700248e+02
      vertex 3.000000e+01 -1.910000e+02 9.700182e+02
    endloop
  endfacet
  facet normal 0.000000e+00 5.353047e-04 9.999999e-01
    outer loop
      vertex 2.804258e+01 -1.786476e+02 9.700116e+02
      vertex -5.000000e+01 -1.910000e+02 9.700182e+02
      vertex 3.000000e+01 -1.910000e+02 9.700182e+02
    endloop
  endfacet
  facet normal 9.876761e-01 1.565114e-01 -8.943349e-05
    outer loop
      vertex 2.804129e+01 -1.787023e+02 8.600116e+02
      vertex 2.804258e+01 -1.786476e+02 9.700116e+02
      vertex 3.000000e+01 -1.910000e+02 9.700182e+02
    endloop
  endfacet
  facet normal 9.876684e-01 1.565605e-01 -8.380759e-05
    outer loop
      vertex 3.000000e+01 -1.910589e+02 8.600182e+02
      vertex 2.804129e+01 -1.787023e+02 8.600116e+02
      vertex 3.000000e+01 -1.910000e+02 9.700182e+02
    endloop
  endfacet
  facet normal 0.000000e+00 5.353047e-04 9.999999e-01
    outer loop
      vertex -4.235564e+01 -2.145134e+02 9.700308e+02
      vertex 2.235564e+01 -2.145134e+02 9.700308e+02
      vertex 2.804258e+01 -2.033524e+02 9.700248e+02
    endloop
  endfacet
  facet normal 8.910012e-01 -4.540010e-01 2.497609e-04
    outer loop
      vertex 2.804129e+01 -2.034155e+02 8.600248e+02
      vertex 2.804258e+01 -2.033524e+02 9.700248e+02
      vertex 2.235564e+01 -2.145134e+02 9.700308e+02
    endloop
  endfacet
  facet normal 0.000000e+00 5.353047e-04 9.999999e-01
    outer loop
      vertex -4.804258e+01 -2.033524e+02 9.700248e+02
      vertex -4.235564e+01 -2.145134e+02 9.700308e+02
      vertex 2.804258e+01 -2.033524e+02 9.700248e+02
    endloop
  endfacet
  facet normal 9.876684e-01 -1.565605e-01 7.815737e-05
    outer loop
      vertex 2.804129e+01 -2.034155e+02 8.600248e+02
      vertex 3.000000e+01 -1.910589e+02 8.600182e+02
      vertex 2.804258e+01 -2.033524e+02 9.700248e+02
    endloop
  endfacet
  facet normal 3.236297e-19 5.353047e-04 9.999999e-01
    outer loop
      vertex -3.350569e+01 -2.233643e+02 9.700355e+02
      vertex 1.350569e+01 -2.233643e+02 9.700355e+02
      vertex 2.235564e+01 -2.145134e+02 9.700308e+02
    endloop
  endfacet
  facet normal 7.071474e-01 -7.070660e-01 4.000655e-04
    outer loop
      vertex 2.235561e+01 -2.145756e+02 8.600308e+02
      vertex 2.235564e+01 -2.145134e+02 9.700308e+02
      vertex 1.350569e+01 -2.233643e+02 9.700355e+02
    endloop
  endfacet
  facet normal 0.000000e+00 5.353047e-04 9.999999e-01
    outer loop
      vertex -4.235564e+01 -2.145134e+02 9.700308e+02
      vertex -3.350569e+01 -2.233643e+02 9.700355e+02
      vertex 2.235564e+01 -2.145134e+02 9.700308e+02
    endloop
  endfacet
  facet normal 8.910290e-01 -4.539462e-01 2.567245e-04
    outer loop
      vertex 2.235561e+01 -2.145756e+02 8.600308e+02
      vertex 2.804129e+01 -2.034155e+02 8.600248e+02
      vertex 2.235564e+01 -2.145134e+02 9.700308e+02
    endloop
  endfacet
  facet normal 0.000000e+00 5.353047e-04 9.999999e-01
    outer loop
      vertex -2.236889e+01 -2.290382e+02 9.700386e+02
      vertex 2.368890e+00 -2.290382e+02 9.700386e+02
      vertex 1.350569e+01 -2.233643e+02 9.700355e+02
    endloop
  endfacet
  facet normal 4.539532e-01 -8.910254e-01 4.521689e-04
    outer loop
      vertex 1.351663e+01 -2.234146e+02 8.600355e+02
      vertex 1.350569e+01 -2.233643e+02 9.700355e+02
      vertex 2.368890e+00 -2.290382e+02 9.700386e+02
    endloop
  endfacet
  facet normal 3.236297e-19 5.353047e-04 9.999999e-01
    outer loop
      vertex -3.350569e+01 -2.233643e+02 9.700355e+02
      vertex -2.236889e+01 -2.290382e+02 9.700386e+02
      vertex 1.350569e+01 -2.233643e+02 9.700355e+02
    endloop
  endfacet
  facet normal 7.071055e-01 -7.071079e-01 3.933520e-04
    outer loop
      vertex 1.351663e+01 -2.234146e+02 8.600355e+02
      vertex 2.235561e+01 -2.145756e+02 8.600308e+02
      vertex 1.350569e+01 -2.233643e+02 9.700355e+02
    endloop
  endfacet
  facet normal 0.000000e+00 5.353047e-04 9.999999e-01
    outer loop
      vertex -2.236889e+01 -2.290382e+02 9.700386e+02
      vertex -1.000000e+01 -2.309968e+02 9.700396e+02
      vertex 2.368890e+00 -2.290382e+02 9.700386e+02
    endloop
  endfacet
  facet normal 1.563998e-01 -9.876937e-01 5.389092e-04
    outer loop
      vertex 2.356510e+00 -2.291002e+02 8.600386e+02
      vertex 2.368890e+00 -2.290382e+02 9.700386e+02
      vertex -1.000000e+01 -2.309968e+02 9.700396e+02
    endloop
  endfacet
  facet normal 4.539437e-01 -8.910302e-01 4.509554e-04
    outer loop
      vertex 2.356510e+00 -2.291002e+02 8.600386e+02
      vertex 1.351663e+01 -2.234146e+02 8.600355e+02
      vertex 2.368890e+00 -2.290382e+02 9.700386e+02
    endloop
  endfacet
  facet normal -1.563998e-01 -9.876937e-01 5.572874e-04
    outer loop
      vertex -1.000000e+01 -2.310589e+02 8.600396e+02
      vertex -1.000000e+01 -2.309968e+02 9.700396e+02
      vertex -2.236889e+01 -2.290382e+02 9.700386e+02
    endloop
  endfacet
  facet normal 1.565594e-01 -9.876684e-01 5.572731e-04
    outer loop
      vertex -1.000000e+01 -2.310589e+02 8.600396e+02
      vertex 2.356510e+00 -2.291002e+02 8.600386e+02
      vertex -1.000000e+01 -2.309968e+02 9.700396e+02
    endloop
  endfacet
  facet normal -4.539532e-01 -8.910254e-01 4.509516e-04
    outer loop
      vertex -2.235651e+01 -2.291002e+02 8.600386e+02
      vertex -2.236889e+01 -2.290382e+02 9.700386e+02
      vertex -3.350569e+01 -2.233643e+02 9.700355e+02
    endloop
  endfacet
  facet normal -1.565594e-01 -9.876684e-01 5.388770e-04
    outer loop
      vertex -2.235651e+01 -2.291002e+02 8.600386e+02
      vertex -1.000000e+01 -2.310589e+02 8.600396e+02
      vertex -2.236889e+01 -2.290382e+02 9.700386e+02
    endloop
  endfacet
  facet normal -7.071474e-01 -7.070660e-01 3.933370e-04
    outer loop
      vertex -3.351663e+01 -2.234146e+02 8.600355e+02
      vertex -3.350569e+01 -2.233643e+02 9.700355e+02
      vertex -4.235564e+01 -2.145134e+02 9.700308e+02
    endloop
  endfacet
  facet normal -4.539437e-01 -8.910302e-01 4.521702e-04
    outer loop
      vertex -3.351663e+01 -2.234146e+02 8.600355e+02
      vertex -2.235651e+01 -2.291002e+02 8.600386e+02
      vertex -3.350569e+01 -2.233643e+02 9.700355e+02
    endloop
  endfacet
  facet normal -8.910012e-01 -4.540010e-01 2.567554e-04
    outer loop
      vertex -4.235561e+01 -2.145756e+02 8.600308e+02
      vertex -4.235564e+01 -2.145134e+02 9.700308e+02
      vertex -4.804258e+01 -2.033524e+02 9.700248e+02
    endloop
  endfacet
  facet normal -7.071055e-01 -7.071079e-01 4.000892e-04
    outer loop
      vertex -4.235561e+01 -2.145756e+02 8.600308e+02
      vertex -3.351663e+01 -2.234146e+02 8.600355e+02
      vertex -4.235564e+01 -2.145134e+02 9.700308e+02
    endloop
  endfacet
  facet normal -9.876761e-01 -1.565114e-01 7.812915e-05
    outer loop
      vertex -4.804129e+01 -2.034155e+02 8.600248e+02
      vertex -4.804258e+01 -2.033524e+02 9.700248e+02
      vertex -5.000000e+01 -1.910000e+02 9.700182e+02
    endloop
  endfacet
  facet normal -8.910290e-01 -4.539462e-01 2.497292e-04
    outer loop
      vertex -4.804129e+01 -2.034155e+02 8.600248e+02
      vertex -4.235561e+01 -2.145756e+02 8.600308e+02
      vertex -4.804258e+01 -2.033524e+02 9.700248e+02
    endloop
  endfacet
  facet normal 0.000000e+00 5.353047e-04 9.999999e-01
    outer loop
      vertex 2.804258e+01 -1.786476e+02 9.700116e+02
      vertex -4.804258e+01 -1.786476e+02 9.700116e+02
      vertex -5.000000e+01 -1.910000e+02 9.700182e+02
    endloop
  endfacet
  facet normal -9.876761e-01 1.565114e-01 -8.378132e-05
    outer loop
      vertex -5.000000e+01 -1.910589e+02 8.600182e+02
      vertex -5.000000e+01 -1.910000e+02 9.700182e+02
      vertex -4.804258e+01 -1.786476e+02 9.700116e+02
    endloop
  endfacet
  facet normal -9.876684e-01 -1.565605e-01 8.380759e-05
    outer loop
      vertex -4.804129e+01 -2.034155e+02 8.600248e+02
      vertex -5.000000e+01 -1.910000e+02 9.700182e+02
      vertex -5.000000e+01 -1.910589e+02 8.600182e+02
    endloop
  endfacet
  facet normal 0.000000e+00 5.353047e-04 9.999999e-01
    outer loop
      vertex 2.235564e+01 -1.674866e+02 9.700056e+02
      vertex -4.235564e+01 -1.674866e+02 9.700056e+02
      vertex -4.804258e+01 -1.786476e+02 9.700116e+02
    endloop
  endfacet
  facet normal -8.910012e-01 4.540010e-01 -2.362969e-04
    outer loop
      vertex -4.804129e+01 -1.787023e+02 8.600116e+02
      vertex -4.804258e+01 -1.786476e+02 9.700116e+02
      vertex -4.235564e+01 -1.674866e+02 9.700056e+02
    endloop
  endfacet
  facet normal 0.000000e+00 5.353047e-04 9.999999e-01
    outer loop
      vertex 2.804258e+01 -1.786476e+02 9.700116e+02
      vertex 2.235564e+01 -1.674866e+02 9.700056e+02
      vertex -4.804258e+01 -1.786476e+02 9.700116e+02
    endloop
  endfacet
  facet normal -9.876684e-01 1.565605e-01 -8.945781e-05
    outer loop
      vertex -4.804129e+01 -1.787023e+02 8.600116e+02
      vertex -5.000000e+01 -1.910589e+02 8.600182e+02
      vertex -4.804258e+01 -1.786476e+02 9.700116e+02
    endloop
  endfacet
  facet normal 0.000000e+00 5.353047e-04 9.999999e-01
    outer loop
      vertex 1.350569e+01 -1.586357e+02 9.700009e+02
      vertex -3.350569e+01 -1.586357e+02 9.700009e+02
      vertex -4.235564e+01 -1.674866e+02 9.700056e+02
    endloop
  endfacet
  facet normal -7.071474e-01 7.070661e-01 -3.569262e-04
    outer loop
      vertex -4.235561e+01 -1.675421e+02 8.600056e+02
      vertex -4.235564e+01 -1.674866e+02 9.700056e+02
      vertex -3.350569e+01 -1.586357e+02 9.700009e+02
    endloop
  endfacet
  facet normal 0.000000e+00 5.353047e-04 9.999999e-01
    outer loop
      vertex 2.235564e+01 -1.674866e+02 9.700056e+02
      vertex 1.350569e+01 -1.586357e+02 9.700009e+02
      vertex -4.235564e+01 -1.674866e+02 9.700056e+02
    endloop
  endfacet
  facet normal -8.910290e-01 4.539462e-01 -2.292747e-04
    outer loop
      vertex -4.235561e+01 -1.675421e+02 8.600056e+02
      vertex -4.804129e+01 -1.787023e+02 8.600116e+02
      vertex -4.235564e+01 -1.674866e+02 9.700056e+02
    endloop
  endfacet
  facet normal 0.000000e+00 5.353047e-04 9.999999e-01
    outer loop
      vertex 2.368890e+00 -1.529618e+02 9.699978e+02
      vertex -2.236889e+01 -1.529618e+02 9.699978e+02
      vertex -3.350569e+01 -1.586357e+02 9.700009e+02
    endloop
  endfacet
  facet normal -4.539532e-01 8.910254e-01 -5.017714e-04
    outer loop
      vertex -3.351663e+01 -1.587032e+02 8.600009e+02
      vertex -3.350569e+01 -1.586357e+02 9.700009e+02
      vertex -2.236889e+01 -1.529618e+02 9.699978e+02
    endloop
  endfacet
  facet normal 0.000000e+00 5.353047e-04 9.999999e-01
    outer loop
      vertex 1.350569e+01 -1.586357e+02 9.700009e+02
      vertex 2.368890e+00 -1.529618e+02 9.699978e+02
      vertex -3.350569e+01 -1.586357e+02 9.700009e+02
    endloop
  endfacet
  facet normal -7.071055e-01 7.071079e-01 -3.636846e-04
    outer loop
      vertex -3.351663e+01 -1.587032e+02 8.600009e+02
      vertex -4.235561e+01 -1.675421e+02 8.600056e+02
      vertex -3.350569e+01 -1.586357e+02 9.700009e+02
    endloop
  endfacet
  facet normal 0.000000e+00 5.353047e-04 9.999999e-01
    outer loop
      vertex 2.368890e+00 -1.529618e+02 9.699978e+02
      vertex -1.000000e+01 -1.510032e+02 9.699968e+02
      vertex -2.236889e+01 -1.529618e+02 9.699978e+02
    endloop
  endfacet
  facet normal -1.563998e-01 9.876937e-01 -5.185252e-04
    outer loop
      vertex -2.235651e+01 -1.530176e+02 8.599979e+02
      vertex -2.236889e+01 -1.529618e+02 9.699978e+02
      vertex -1.000000e+01 -1.510032e+02 9.699968e+02
    endloop
  endfacet
  facet normal -4.539437e-01 8.910302e-01 -5.029902e-04
    outer loop
      vertex -2.235651e+01 -1.530176e+02 8.599979e+02
      vertex -3.351663e+01 -1.587032e+02 8.600009e+02
      vertex -2.236889e+01 -1.529618e+02 9.699978e+02
    endloop
  endfacet
  facet normal 1.563998e-01 9.876937e-01 -5.001470e-04
    outer loop
      vertex -1.000000e+01 -1.510589e+02 8.599968e+02
      vertex -1.000000e+01 -1.510032e+02 9.699968e+02
      vertex 2.368890e+00 -1.529618e+02 9.699978e+02
    endloop
  endfacet
  facet normal -1.565594e-01 9.876684e-01 -5.001342e-04
    outer loop
      vertex -1.000000e+01 -1.510589e+02 8.599968e+02
      vertex -2.235651e+01 -1.530176e+02 8.599979e+02
      vertex -1.000000e+01 -1.510032e+02 9.699968e+02
    endloop
  endfacet
  facet normal 4.539532e-01 8.910254e-01 -5.029888e-04
    outer loop
      vertex 2.356510e+00 -1.530176e+02 8.599979e+02
      vertex 2.368890e+00 -1.529618e+02 9.699978e+02
      vertex 1.350569e+01 -1.586357e+02 9.700009e+02
    endloop
  endfacet
  facet normal 1.565594e-01 9.876684e-01 -5.185303e-04
    outer loop
      vertex 2.356510e+00 -1.530176e+02 8.599979e+02
      vertex -1.000000e+01 -1.510589e+02 8.599968e+02
      vertex 2.368890e+00 -1.529618e+02 9.699978e+02
    endloop
  endfacet
  facet normal 7.071474e-01 7.070661e-01 -3.636547e-04
    outer loop
      vertex 1.351663e+01 -1.587032e+02 8.600009e+02
      vertex 1.350569e+01 -1.586357e+02 9.700009e+02
      vertex 2.235564e+01 -1.674866e+02 9.700056e+02
    endloop
  endfacet
  facet normal 4.539437e-01 8.910302e-01 -5.017754e-04
    outer loop
      vertex 1.351663e+01 -1.587032e+02 8.600009e+02
      vertex 2.356510e+00 -1.530176e+02 8.599979e+02
      vertex 1.350569e+01 -1.586357e+02 9.700009e+02
    endloop
  endfacet
  facet normal 8.910012e-01 4.540010e-01 -2.293024e-04
    outer loop
      vertex 2.235561e+01 -1.675421e+02 8.600056e+02
      vertex 2.235564e+01 -1.674866e+02 9.700056e+02
      vertex 2.804258e+01 -1.786476e+02 9.700116e+02
    endloop
  endfacet
  facet normal 7.071055e-01 7.071079e-01 -3.569474e-04
    outer loop
      vertex 2.235561e+01 -1.675421e+02 8.600056e+02
      vertex 1.351663e+01 -1.587032e+02 8.600009e+02
      vertex 2.235564e+01 -1.674866e+02 9.700056e+02
    endloop
  endfacet
  facet normal 8.910290e-01 4.539462e-01 -2.362700e-04
    outer loop
      vertex 2.804129e+01 -1.787023e+02 8.600116e+02
      vertex 2.235561e+01 -1.675421e+02 8.600056e+02
      vertex 2.804258e+01 -1.786476e+02 9.700116e+02
    endloop
  endfacet
  facet normal 0.000000e+00 -5.353047e-04 -9.999999e-01
    outer loop
      vertex -4.804129e+01 -2.034155e+02 8.600248e+02
      vertex -5.000000e+01 -1.910589e+02 8.600182e+02
      vertex -4.804129e+01 -1.787023e+02 8.600116e+02
    endloop
  endfacet
  facet normal 3.782354e-15 -5.353047e-04 -9.999999e-01
    outer loop
      vertex -4.804129e+01 -2.034155e+02 8.600248e+02
      vertex -4.804129e+01 -1.787023e+02 8.600116e+02
      vertex -4.235561e+01 -1.675421e+02 8.600056e+02
    endloop
  endfacet
  facet normal 1.626366e-15 -5.353047e-04 -9.999999e-01
    outer loop
      vertex -4.235561e+01 -2.145756e+02 8.600308e+02
      vertex -4.235561e+01 -1.675421e+02 8.600056e+02
      vertex -3.351663e+01 -1.587032e+02 8.600009e+02
    endloop
  endfacet
  facet normal -1.991441e-15 -5.353047e-04 -9.999999e-01
    outer loop
      vertex -4.804129e+01 -2.034155e+02 8.600248e+02
      vertex -4.235561e+01 -1.675421e+02 8.600056e+02
      vertex -4.235561e+01 -2.145756e+02 8.600308e+02
    endloop
  endfacet
  facet normal -3.942270e-15 -5.353047e-04 -9.999999e-01
    outer loop
      vertex -3.351663e+01 -2.234146e+02 8.600355e+02
      vertex -3.351663e+01 -1.587032e+02 8.600009e+02
      vertex -2.235651e+01 -1.530176e+02 8.599979e+02
    endloop
  endfacet
  facet normal -1.179357e-15 -5.353047e-04 -9.999999e-01
    outer loop
      vertex -4.235561e+01 -2.145756e+02 8.600308e+02
      vertex -3.351663e+01 -1.587032e+02 8.600009e+02
      vertex -3.351663e+01 -2.234146e+02 8.600355e+02
    endloop
  endfacet
  facet normal -7.987897e-16 -5.353047e-04 -9.999999e-01
    outer loop
      vertex -2.235651e+01 -2.291002e+02 8.600386e+02
      vertex -2.235651e+01 -1.530176e+02 8.599979e+02
      vertex -1.000000e+01 -1.510589e+02 8.599968e+02
    endloop
  endfacet
  facet normal 3.351623e-15 -5.353047e-04 -9.999999e-01
    outer loop
      vertex -3.351663e+01 -2.234146e+02 8.600355e+02
      vertex -2.235651e+01 -1.530176e+02 8.599979e+02
      vertex -2.235651e+01 -2.291002e+02 8.600386e+02
    endloop
  endfacet
  facet normal 7.596753e-16 -5.353047e-04 -9.999999e-01
    outer loop
      vertex -1.000000e+01 -2.310589e+02 8.600396e+02
      vertex -1.000000e+01 -1.510589e+02 8.599968e+02
      vertex 2.356510e+00 -1.530176e+02 8.599979e+02
    endloop
  endfacet
  facet normal 7.597876e-16 -5.353047e-04 -9.999999e-01
    outer loop
      vertex -2.235651e+01 -2.291002e+02 8.600386e+02
      vertex -1.000000e+01 -1.510589e+02 8.599968e+02
      vertex -1.000000e+01 -2.310589e+02 8.600396e+02
    endloop
  endfacet
  facet normal 3.351492e-15 -5.353047e-04 -9.999999e-01
    outer loop
      vertex 2.356510e+00 -2.291002e+02 8.600386e+02
      vertex 2.356510e+00 -1.530176e+02 8.599979e+02
      vertex 1.351663e+01 -1.587032e+02 8.600009e+02
    endloop
  endfacet
  facet normal -8.001625e-16 -5.353047e-04 -9.999999e-01
    outer loop
      vertex -1.000000e+01 -2.310589e+02 8.600396e+02
      vertex 2.356510e+00 -1.530176e+02 8.599979e+02
      vertex 2.356510e+00 -2.291002e+02 8.600386e+02
    endloop
  endfacet
  facet normal -1.180522e-15 -5.353047e-04 -9.999999e-01
    outer loop
      vertex 1.351663e+01 -2.234146e+02 8.600355e+02
      vertex 1.351663e+01 -1.587032e+02 8.600009e+02
      vertex 2.235561e+01 -1.675421e+02 8.600056e+02
    endloop
  endfacet
  facet normal -3.942193e-15 -5.353047e-04 -9.999999e-01
    outer loop
      vertex 2.356510e+00 -2.291002e+02 8.600386e+02
      vertex 1.351663e+01 -1.587032e+02 8.600009e+02
      vertex 1.351663e+01 -2.234146e+02 8.600355e+02
    endloop
  endfacet
  facet normal -1.989054e-15 -5.353047e-04 -9.999999e-01
    outer loop
      vertex 2.235561e+01 -2.145756e+02 8.600308e+02
      vertex 2.235561e+01 -1.675421e+02 8.600056e+02
      vertex 2.804129e+01 -1.787023e+02 8.600116e+02
    endloop
  endfacet
  facet normal 1.628770e-15 -5.353047e-04 -9.999999e-01
    outer loop
      vertex 1.351663e+01 -2.234146e+02 8.600355e+02
      vertex 2.235561e+01 -1.675421e+02 8.600056e+02
      vertex 2.235561e+01 -2.145756e+02 8.600308e+02
    endloop
  endfacet
  facet normal -4.013741e-18 -5.353047e-04 -9.999999e-01
    outer loop
      vertex 2.804129e+01 -2.034155e+02 8.600248e+02
      vertex 2.804129e+01 -1.787023e+02 8.600116e+02
      vertex 3.000000e+01 -1.910589e+02 8.600182e+02
    endloop
  endfacet
  facet normal 3.786107e-15 -5.353047e-04 -9.999999e-01
    outer loop
      vertex 2.235561e+01 -2.145756e+02 8.600308e+02
      vertex 2.804129e+01 -1.787023e+02 8.600116e+02
      vertex 2.804129e+01 -2.034155e+02 8.600248e+02
    endloop
  endfacet
endsolid SIM_CER_R_SHOULDER
