solid SIM_CER_L_FOREARM
  facet normal 0.000000e+00 5.353047e-04 -9.999999e-01
    outer loop
      vertex -4.358184e+01 2.010343e+02 6.480235e+02
      vertex 2.358184e+01 2.010343e+02 6.480235e+02
      vertex 2.500000e+01 1.911724e+02 6.480182e+02
    endloop
  endfacet
  facet normal 9.898181e-01 1.423379e-01 7.619416e-05
    outer loop
      vertex 2.500000e+01 1.911344e+02 7.190182e+02
      vertex 2.500000e+01 1.911724e+02 6.480182e+02
      vertex 2.358184e+01 2.010343e+02 6.480235e+02
    endloop
  endfacet
  facet normal 0.000000e+00 5.353047e-04 -9.999999e-01
    outer loop
      vertex -4.500000e+01 1.911724e+02 6.480182e+02
      vertex -4.358184e+01 2.010343e+02 6.480235e+02
      vertex 2.500000e+01 1.911724e+02 6.480182e+02
    endloop
  endfacet
  facet normal 0.000000e+00 5.353047e-04 -9.999999e-01
    outer loop
      vertex 2.358184e+01 1.813105e+02 6.480130e+02
      vertex -4.500000e+01 1.911724e+02 6.480182e+02
      vertex 2.500000e+01 1.911724e+02 6.480182e+02
    endloop
  endfacet
  facet normal 9.898181e-01 -1.423379e-01 -7.619416e-05
    outer loop
      vertex 2.358184e+01 1.812725e+02 7.190130e+02
      vertex 2.358184e+01 1.813105e+02 6.480130e+02
      vertex 2.500000e+01 1.911724e+02 6.480182e+02
    endloop
  endfacet
  facet normal 9.898181e-01 -1.423379e-01 -7.619416e-05
    outer loop
      vertex 2.358184e+01 1.812725e+02 7.190130e+02
      vertex 2.500000e+01 1.911724e+02 6.480182e+02
      vertex 2.500000e+01 1.911344e+02 7.190182e+02
    endloop
  endfacet
  facet normal -2.583705e-19 5.353047e-04 -9.999999e-01
    outer loop
      vertex -3.944275e+01 2.100963e+02 6.480284e+02
      vertex 1.944275e+01 2.100963e+02 6.480284e+02
      vertex 2.358184e+01 2.010343e+02 6.480235e+02
    endloop
  endfacet
  facet normal 9.096090e-01 4.154652e-01 2.224005e-04
    outer loop
      vertex 2.358184e+01 2.009962e+02 7.190235e+02
      vertex 2.358184e+01 2.010343e+02 6.480235e+02
      vertex 1.944275e+01 2.100963e+02 6.480284e+02
    endloop
  endfacet
  facet normal 0.000000e+00 5.353047e-04 -9.999999e-01
    outer loop
      vertex -4.358184e+01 2.010343e+02 6.480235e+02
      vertex -3.944275e+01 2.100963e+02 6.480284e+02
      vertex 2.358184e+01 2.010343e+02 6.480235e+02
    endloop
  endfacet
  facet normal 9.898181e-01 1.423379e-01 7.619416e-05
    outer loop
      vertex 2.358184e+01 2.009962e+02 7.190235e+02
      vertex 2.500000e+01 1.911344e+02 7.190182e+02
      vertex 2.358184e+01 2.010343e+02 6.480235e+02
    endloop
  endfacet
  facet normal 0.000000e+00 5.353047e-04 -9.999999e-01
    outer loop
      vertex -3.291862e+01 2.176246e+02 6.480324e+02
      vertex 1.291862e+01 2.176246e+02 6.480324e+02
      vertex 1.944275e+01 2.100963e+02 6.480284e+02
    endloop
  endfacet
  facet normal 7.557084e-01 6.549081e-01 3.505755e-04
    outer loop
      vertex 1.944275e+01 2.100583e+02 7.190284e+02
      vertex 1.944275e+01 2.100963e+02 6.480284e+02
      vertex 1.291862e+01 2.176246e+02 6.480324e+02
    endloop
  endfacet
  facet normal -2.583705e-19 5.353047e-04 -9.999999e-01
    outer loop
      vertex -3.944275e+01 2.100963e+02 6.480284e+02
      vertex -3.291862e+01 2.176246e+02 6.480324e+02
      vertex 1.944275e+01 2.100963e+02 6.480284e+02
    endloop
  endfacet
  facet normal 9.096090e-01 4.154652e-01 2.224005e-04
    outer loop
      vertex 2.358184e+01 2.009962e+02 7.190235e+02
      vertex 1.944275e+01 2.100963e+02 6.480284e+02
      vertex 1.944275e+01 2.100583e+02 7.190284e+02
    endloop
  endfacet
  facet normal 0.000000e+00 5.353047e-04 -9.999999e-01
    outer loop
      vertex -2.453826e+01 2.230097e+02 6.480353e+02
      vertex 4.538256e+00 2.230097e+02 6.480353e+02
      vertex 1.291862e+01 2.176246e+02 6.480324e+02
    endloop
  endfacet
  facet normal 5.405970e-01 8.412816e-01 4.503421e-04
    outer loop
      vertex 1.291862e+01 2.175865e+02 7.190324e+02
      vertex 1.291862e+01 2.176246e+02 6.480324e+02
      vertex 4.538256e+00 2.230097e+02 6.480353e+02
    endloop
  endfacet
  facet normal 0.000000e+00 5.353047e-04 -9.999999e-01
    outer loop
      vertex -3.291862e+01 2.176246e+02 6.480324e+02
      vertex -2.453826e+01 2.230097e+02 6.480353e+02
      vertex 1.291862e+01 2.176246e+02 6.480324e+02
    endloop
  endfacet
  facet normal 7.557084e-01 6.549081e-01 3.505755e-04
    outer loop
      vertex 1.944275e+01 2.100583e+02 7.190284e+02
      vertex 1.291862e+01 2.176246e+02 6.480324e+02
      vertex 1.291862e+01 2.175865e+02 7.190324e+02
    endloop
  endfacet
  facet normal 0.000000e+00 5.353047e-04 -9.999999e-01
    outer loop
      vertex -1.498053e+01 2.258158e+02 6.480368e+02
      vertex -5.019475e+00 2.258158e+02 6.480368e+02
      vertex 4.538256e+00 2.230097e+02 6.480353e+02
    endloop
  endfacet
  facet normal 2.817046e-01 9.595010e-01 5.136255e-04
    outer loop
      vertex 4.538256e+00 2.229717e+02 7.190353e+02
      vertex 4.538256e+00 2.230097e+02 6.480353e+02
      vertex -5.019475e+00 2.258158e+02 6.480368e+02
    endloop
  endfacet
  facet normal 0.000000e+00 5.353047e-04 -9.999999e-01
    outer loop
      vertex -2.453826e+01 2.230097e+02 6.480353e+02
      vertex -1.498053e+01 2.258158e+02 6.480368e+02
      vertex 4.538256e+00 2.230097e+02 6.480353e+02
    endloop
  endfacet
  facet normal 5.405970e-01 8.412816e-01 4.503421e-04
    outer loop
      vertex 1.291862e+01 2.175865e+02 7.190324e+02
      vertex 4.538256e+00 2.230097e+02 6.480353e+02
      vertex 4.538256e+00 2.229717e+02 7.190353e+02
    endloop
  endfacet
  facet normal 0.000000e+00 9.999999e-01 5.353047e-04
    outer loop
      vertex -5.019475e+00 2.257778e+02 7.190368e+02
      vertex -5.019475e+00 2.258158e+02 6.480368e+02
      vertex -1.498053e+01 2.258158e+02 6.480368e+02
    endloop
  endfacet
  facet normal 2.817046e-01 9.595010e-01 5.136255e-04
    outer loop
      vertex 4.538256e+00 2.229717e+02 7.190353e+02
      vertex -5.019475e+00 2.258158e+02 6.480368e+02
      vertex -5.019475e+00 2.257778e+02 7.190368e+02
    endloop
  endfacet
  facet normal -2.817046e-01 9.595010e-01 5.136255e-04
    outer loop
      vertex -1.498053e+01 2.257778e+02 7.190368e+02
      vertex -1.498053e+01 2.258158e+02 6.480368e+02
      vertex -2.453826e+01 2.230097e+02 6.480353e+02
    endloop
  endfacet
  facet normal 0.000000e+00 9.999999e-01 5.353047e-04
    outer loop
      vertex -5.019475e+00 2.257778e+02 7.190368e+02
      vertex -1.498053e+01 2.258158e+02 6.480368e+02
      vertex -1.498053e+01 2.257778e+02 7.190368e+02
    endloop
  endfacet
  facet normal -5.405970e-01 8.412816e-01 4.503421e-04
    outer loop
      vertex -2.453826e+01 2.229717e+02 7.190353e+02
      vertex -2.453826e+01 2.230097e+02 6.480353e+02
      vertex -3.291862e+01 2.176246e+02 6.480324e+02
    endloop
  endfacet
  facet normal -2.817046e-01 9.595010e-01 5.136255e-04
    outer loop
      vertex -1.498053e+01 2.257778e+02 7.190368e+02
      vertex -2.453826e+01 2.230097e+02 6.480353e+02
      vertex -2.453826e+01 2.229717e+02 7.190353e+02
    endloop
  endfacet
  facet normal -7.557084e-01 6.549081e-01 3.505755e-04
    outer loop
      vertex -3.291862e+01 2.175865e+02 7.190324e+02
      vertex -3.291862e+01 2.176246e+02 6.480324e+02
      vertex -3.944275e+01 2.100963e+02 6.480284e+02
    endloop
  endfacet
  facet normal -5.405970e-01 8.412816e-01 4.503421e-04
    outer loop
      vertex -2.453826e+01 2.229717e+02 7.190353e+02
      vertex -3.291862e+01 2.176246e+02 6.480324e+02
      vertex -3.291862e+01 2.175865e+02 7.190324e+02
    endloop
  endfacet
  facet normal -9.096090e-01 4.154652e-01 2.224005e-04
    outer loop
      vertex -3.944275e+01 2.100583e+02 7.190284e+02
      vertex -3.944275e+01 2.100963e+02 6.480284e+02
      vertex -4.358184e+01 2.010343e+02 6.480235e+02
    endloop
  endfacet
  facet normal -7.557084e-01 6.549081e-01 3.505755e-04
    outer loop
      vertex -3.291862e+01 2.175865e+02 7.190324e+02
      vertex -3.944275e+01 2.100963e+02 6.480284e+02
      vertex -3.944275e+01 2.100583e+02 7.190284e+02
    endloop
  endfacet
  facet normal -9.898181e-01 1.423379e-01 7.619416e-05
    outer loop
      vertex -4.358184e+01 2.009962e+02 7.190235e+02
      vertex -4.358184e+01 2.010343e+02 6.480235e+02
      vertex -4.500000e+01 1.911724e+02 6.480182e+02
    endloop
  endfacet
  facet normal -9.096090e-01 4.154652e-01 2.224005e-04
    outer loop
      vertex -3.944275e+01 2.100583e+02 7.190284e+02
      vertex -4.358184e+01 2.010343e+02 6.480235e+02
      vertex -4.358184e+01 2.009962e+02 7.190235e+02
    endloop
  endfacet
  facet normal 0.000000e+00 5.353047e-04 -9.999999e-01
    outer loop
      vertex 2.358184e+01 1.813105e+02 6.480130e+02
      vertex -4.358184e+01 1.813105e+02 6.480130e+02
      vertex -4.500000e+01 1.911724e+02 6.480182e+02
    endloop
  endfacet
  facet normal -9.898181e-01 -1.423379e-01 -7.619416e-05
    outer loop
      vertex -4.500000e+01 1.911344e+02 7.190182e+02
      vertex -4.500000e+01 1.911724e+02 6.480182e+02
      vertex -4.358184e+01 1.813105e+02 6.480130e+02
    endloop
  endfacet
  facet normal -9.898181e-01 1.423379e-01 7.619416e-05
    outer loop
      vertex -4.358184e+01 2.009962e+02 7.190235e+02
      vertex -4.500000e+01 1.911724e+02 6.480182e+02
      vertex -4.500000e+01 1.911344e+02 7.190182e+02
    endloop
  endfacet
  facet normal 5.167410e-19 5.353047e-04 -9.999999e-01
    outer loop
      vertex 1.944275e+01 1.722485e+02 6.480081e+02
      vertex -3.944275e+01 1.722485e+02 6.480081e+02
      vertex -4.358184e+01 1.813105e+02 6.480130e+02
    endloop
  endfacet
  facet normal -9.096090e-01 -4.154652e-01 -2.224005e-04
    outer loop
      vertex -4.358184e+01 1.812725e+02 7.190130e+02
      vertex -4.358184e+01 1.813105e+02 6.480130e+02
      vertex -3.944275e+01 1.722485e+02 6.480081e+02
    endloop
  endfacet
  facet normal 0.000000e+00 5.353047e-04 -9.999999e-01
    outer loop
      vertex 2.358184e+01 1.813105e+02 6.480130e+02
      vertex 1.944275e+01 1.722485e+02 6.480081e+02
      vertex -4.358184e+01 1.813105e+02 6.480130e+02
    endloop
  endfacet
  facet normal -9.898181e-01 -1.423379e-01 -7.619416e-05
    outer loop
      vertex -4.500000e+01 1.911344e+02 7.190182e+02
      vertex -4.358184e+01 1.813105e+02 6.480130e+02
      vertex -4.358184e+01 1.812725e+02 7.190130e+02
    endloop
  endfacet
  facet normal -3.319195e-19 5.353047e-04 -9.999999e-01
    outer loop
      vertex 1.291862e+01 1.647202e+02 6.480041e+02
      vertex -3.291862e+01 1.647202e+02 6.480041e+02
      vertex -3.944275e+01 1.722485e+02 6.480081e+02
    endloop
  endfacet
  facet normal -7.557084e-01 -6.549081e-01 -3.505755e-04
    outer loop
      vertex -3.944275e+01 1.722105e+02 7.190081e+02
      vertex -3.944275e+01 1.722485e+02 6.480081e+02
      vertex -3.291862e+01 1.647202e+02 6.480041e+02
    endloop
  endfacet
  facet normal 5.167410e-19 5.353047e-04 -9.999999e-01
    outer loop
      vertex 1.944275e+01 1.722485e+02 6.480081e+02
      vertex 1.291862e+01 1.647202e+02 6.480041e+02
      vertex -3.944275e+01 1.722485e+02 6.480081e+02
    endloop
  endfacet
  facet normal -9.096090e-01 -4.154652e-01 -2.224005e-04
    outer loop
      vertex -4.358184e+01 1.812725e+02 7.190130e+02
      vertex -3.944275e+01 1.722485e+02 6.480081e+02
      vertex -3.944275e+01 1.722105e+02 7.190081e+02
    endloop
  endfacet
  facet normal 0.000000e+00 5.353047e-04 -9.999999e-01
    outer loop
      vertex 4.538256e+00 1.593351e+02 6.480012e+02
      vertex -2.453826e+01 1.593351e+02 6.480012e+02
      vertex -3.291862e+01 1.647202e+02 6.480041e+02
    endloop
  endfacet
  facet normal -5.405970e-01 -8.412816e-01 -4.503421e-04
    outer loop
      vertex -3.291862e+01 1.646822e+02 7.190041e+02
      vertex -3.291862e+01 1.647202e+02 6.480041e+02
      vertex -2.453826e+01 1.593351e+02 6.480012e+02
    endloop
  endfacet
  facet normal -3.319195e-19 5.353047e-04 -9.999999e-01
    outer loop
      vertex 1.291862e+01 1.647202e+02 6.480041e+02
      vertex 4.538256e+00 1.593351e+02 6.480012e+02
      vertex -3.291862e+01 1.647202e+02 6.480041e+02
    endloop
  endfacet
  facet normal -7.557084e-01 -6.549081e-01 -3.505755e-04
    outer loop
      vertex -3.944275e+01 1.722105e+02 7.190081e+02
      vertex -3.291862e+01 1.647202e+02 6.480041e+02
      vertex -3.291862e+01 1.646822e+02 7.190041e+02
    endloop
  endfacet
  facet normal 0.000000e+00 5.353047e-04 -9.999999e-01
    outer loop
      vertex -5.019475e+00 1.565290e+02 6.479997e+02
      vertex -1.498053e+01 1.565290e+02 6.479997e+02
      vertex -2.453826e+01 1.593351e+02 6.480012e+02
    endloop
  endfacet
  facet normal -2.817046e-01 -9.595010e-01 -5.136255e-04
    outer loop
      vertex -2.453826e+01 1.592970e+02 7.190012e+02
      vertex -2.453826e+01 1.593351e+02 6.480012e+02
      vertex -1.498053e+01 1.565290e+02 6.479997e+02
    endloop
  endfacet
  facet normal 0.000000e+00 5.353047e-04 -9.999999e-01
    outer loop
      vertex 4.538256e+00 1.593351e+02 6.480012e+02
      vertex -5.019475e+00 1.565290e+02 6.479997e+02
      vertex -2.453826e+01 1.593351e+02 6.480012e+02
    endloop
  endfacet
  facet normal -5.405970e-01 -8.412816e-01 -4.503421e-04
    outer loop
      vertex -3.291862e+01 1.646822e+02 7.190041e+02
      vertex -2.453826e+01 1.593351e+02 6.480012e+02
      vertex -2.453826e+01 1.592970e+02 7.190012e+02
    endloop
  endfacet
  facet normal 0.000000e+00 -9.999999e-01 -5.353047e-04
    outer loop
      vertex -1.498053e+01 1.564909e+02 7.189997e+02
      vertex -1.498053e+01 1.565290e+02 6.479997e+02
      vertex -5.019475e+00 1.565290e+02 6.479997e+02
    endloop
  endfacet
  facet normal -2.817046e-01 -9.595010e-01 -5.136255e-04
    outer loop
      vertex -2.453826e+01 1.592970e+02 7.190012e+02
      vertex -1.498053e+01 1.565290e+02 6.479997e+02
      vertex -1.498053e+01 1.564909e+02 7.189997e+02
    endloop
  endfacet
  facet normal 2.817046e-01 -9.595010e-01 -5.136255e-04
    outer loop
      vertex -5.019475e+00 1.564909e+02 7.189997e+02
      vertex -5.019475e+00 1.565290e+02 6.479997e+02
      vertex 4.538256e+00 1.593351e+02 6.480012e+02
    endloop
  endfacet
  facet normal 0.000000e+00 -9.999999e-01 -5.353047e-04
    outer loop
      vertex -1.498053e+01 1.564909e+02 7.189997e+02
      vertex -5.019475e+00 1.565290e+02 6.479997e+02
      vertex -5.019475e+00 1.564909e+02 7.189997e+02
    endloop
  endfacet
  facet normal 5.405970e-01 -8.412816e-01 -4.503421e-04
    outer loop
      vertex 4.538256e+00 1.592970e+02 7.190012e+02
      vertex 4.538256e+00 1.593351e+02 6.480012e+02
      vertex 1.291862e+01 1.647202e+02 6.480041e+02
    endloop
  endfacet
  facet normal 2.817046e-01 -9.595010e-01 -5.136255e-04
    outer loop
      vertex -5.019475e+00 1.564909e+02 7.189997e+02
      vertex 4.538256e+00 1.593351e+02 6.480012e+02
      vertex 4.538256e+00 1.592970e+02 7.190012e+02
    endloop
  endfacet
  facet normal 7.557084e-01 -6.549081e-01 -3.505755e-04
    outer loop
      vertex 1.291862e+01 1.646822e+02 7.190041e+02
      vertex 1.291862e+01 1.647202e+02 6.480041e+02
      vertex 1.944275e+01 1.722485e+02 6.480081e+02
    endloop
  endfacet
  facet normal 5.405970e-01 -8.412816e-01 -4.503421e-04
    outer loop
      vertex 4.538256e+00 1.592970e+02 7.190012e+02
      vertex 1.291862e+01 1.647202e+02 6.480041e+02
      vertex 1.291862e+01 1.646822e+02 7.190041e+02
    endloop
  endfacet
  facet normal 9.096090e-01 -4.154652e-01 -2.224005e-04
    outer loop
      vertex 1.944275e+01 1.722105e+02 7.190081e+02
      vertex 1.944275e+01 1.722485e+02 6.480081e+02
      vertex 2.358184e+01 1.813105e+02 6.480130e+02
    endloop
  endfacet
  facet normal 7.557084e-01 -6.549081e-01 -3.505755e-04
    outer loop
      vertex 1.291862e+01 1.646822e+02 7.190041e+02
      vertex 1.944275e+01 1.722485e+02 6.480081e+02
      vertex 1.944275e+01 1.722105e+02 7.190081e+02
    endloop
  endfacet
  facet normal 9.096090e-01 -4.154652e-01 -2.224005e-04
    outer loop
      vertex 1.944275e+01 1.722105e+02 7.190081e+02
      vertex 2.358184e+01 1.813105e+02 6.480130e+02
      vertex 2.358184e+01 1.812725e+02 7.190130e+02
    endloop
  endfacet
  facet normal 0.000000e+00 -5.353047e-04 9.999999e-01
    outer loop
      vertex -4.358184e+01 1.812725e+02 7.190130e+02
      vertex 2.358184e+01 1.812725e+02 7.190130e+02
      vertex 2.500000e+01 1.911344e+02 7.190182e+02
    endloop
  endfacet
  facet normal 0.000000e+00 -5.353047e-04 9.999999e-01
    outer loop
      vertex -4.500000e+01 1.911344e+02 7.190182e+02
      vertex -4.358184e+01 1.812725e+02 7.190130e+02
      vertex 2.500000e+01 1.911344e+02 7.190182e+02
    endloop
  endfacet
  facet normal 0.000000e+00 -5.353047e-04 9.999999e-01
    outer loop
      vertex 2.358184e+01 2.009962e+02 7.190235e+02
      vertex -4.500000e+01 1.911344e+02 7.190182e+02
      vertex 2.500000e+01 1.911344e+02 7.190182e+02
    endloop
  endfacet
  facet normal -5.167410e-19 -5.353047e-04 9.999999e-01
    outer loop
      vertex -3.944275e+01 1.722105e+02 7.190081e+02
      vertex 1.944275e+01 1.722105e+02 7.190081e+02
      vertex 2.358184e+01 1.812725e+02 7.190130e+02
    endloop
  endfacet
  facet normal 0.000000e+00 -5.353047e-04 9.999999e-01
    outer loop
      vertex -4.358184e+01 1.812725e+02 7.190130e+02
      vertex -3.944275e+01 1.722105e+02 7.190081e+02
      vertex 2.358184e+01 1.812725e+02 7.190130e+02
    endloop
  endfacet
  facet normal 3.319195e-19 -5.353047e-04 9.999999e-01
    outer loop
      vertex -3.291862e+01 1.646822e+02 7.190041e+02
      vertex 1.291862e+01 1.646822e+02 7.190041e+02
      vertex 1.944275e+01 1.722105e+02 7.190081e+02
    endloop
  endfacet
  facet normal -5.167410e-19 -5.353047e-04 9.999999e-01
    outer loop
      vertex -3.944275e+01 1.722105e+02 7.190081e+02
      vertex -3.291862e+01 1.646822e+02 7.190041e+02
      vertex 1.944275e+01 1.722105e+02 7.190081e+02
    endloop
  endfacet
  facet normal 0.000000e+00 -5.353047e-04 9.999999e-01
    outer loop
      vertex -2.453826e+01 1.592970e+02 7.190012e+02
      vertex 4.538256e+00 1.592970e+02 7.190012e+02
      vertex 1.291862e+01 1.646822e+02 7.190041e+02
    endloop
  endfacet
  facet normal 3.319195e-19 -5.353047e-04 9.999999e-01
    outer loop
      vertex -3.291862e+01 1.646822e+02 7.190041e+02
      vertex -2.453826e+01 1.592970e+02 7.190012e+02
      vertex 1.291862e+01 1.646822e+02 7.190041e+02
    endloop
  endfacet
  facet normal 0.000000e+00 -5.353047e-04 9.999999e-01
    outer loop
      vertex -1.498053e+01 1.564909e+02 7.189997e+02
      vertex -5.019475e+00 1.564909e+02 7.189997e+02
      vertex 4.538256e+00 1.592970e+02 7.190012e+02
    endloop
  endfacet
  facet normal 0.000000e+00 -5.353047e-04 9.999999e-01
    outer loop
      vertex -2.453826e+01 1.592970e+02 7.190012e+02
      vertex -1.498053e+01 1.564909e+02 7.189997e+02
      vertex 4.538256e+00 1.592970e+02 7.190012e+02
    endloop
  endfacet
  facet normal 0.000000e+00 -5.353047e-04 9.999999e-01
    outer loop
      vertex 2.358184e+01 2.009962e+02 7.190235e+02
      vertex -4.358184e+01 2.009962e+02 7.190235e+02
      vertex -4.500000e+01 1.911344e+02 7.190182e+02
    endloop
  endfacet
  facet normal 2.583705e-19 -5.353047e-04 9.999999e-01
    outer loop
      vertex 1.944275e+01 2.100583e+02 7.190284e+02
      vertex -3.944275e+01 2.100583e+02 7.190284e+02
      vertex -4.358184e+01 2.009962e+02 7.190235e+02
    endloop
  endfacet
  facet normal 0.000000e+00 -5.353047e-04 9.999999e-01
    outer loop
      vertex 2.358184e+01 2.009962e+02 7.190235e+02
      vertex 1.944275e+01 2.100583e+02 7.190284e+02
      vertex -4.358184e+01 2.009962e+02 7.190235e+02
    endloop
  endfacet
  facet normal 0.000000e+00 -5.353047e-04 9.999999e-01
    outer loop
      vertex 1.291862e+01 2.175865e+02 7.190324e+02
      vertex -3.291862e+01 2.175865e+02 7.190324e+02
      vertex -3.944275e+01 2.100583e+02 7.190284e+02
    endloop
  endfacet
  facet normal 2.583705e-19 -5.353047e-04 9.999999e-01
    outer loop
      vertex 1.944275e+01 2.100583e+02 7.190284e+02
      vertex 1.291862e+01 2.175865e+02 7.190324e+02
      vertex -3.944275e+01 2.100583e+02 7.190284e+02
    endloop
  endfacet
  facet normal 0.000000e+00 -5.353047e-04 9.999999e-01
    outer loop
      vertex 4.538256e+00 2.229717e+02 7.190353e+02
      vertex -2.453826e+01 2.229717e+02 7.190353e+02
      vertex -3.291862e+01 2.175865e+02 7.190324e+02
    endloop
  endfacet
  facet normal 0.000000e+00 -5.353047e-04 9.999999e-01
    outer loop
      vertex 1.291862e+01 2.175865e+02 7.190324e+02
      vertex 4.538256e+00 2.229717e+02 7.190353e+02
      vertex -3.291862e+01 2.175865e+02 7.190324e+02
    endloop
  endfacet
  facet normal 0.000000e+00 -5.353047e-04 9.999999e-01
    outer loop
      vertex -5.019475e+00 2.257778e+02 7.190368e+02
      vertex -1.498053e+01 2.257778e+02 7.190368e+02
      vertex -2.453826e+01 2.229717e+02 7.190353e+02
    endloop
  endfacet
  facet normal 0.000000e+00 -5.353047e-04 9.999999e-01
    outer loop
      vertex 4.538256e+00 2.229717e+02 7.190353e+02
      vertex -5.019475e+00 2.257778e+02 7.190368e+02
      vertex -2.453826e+01 2.229717e+02 7.190353e+02
    endloop
  endfacet
endsolid SIM_CER_L_FOREARM
